<svg version="1.2" xmlns="http://www.w3.org/2000/svg" viewBox="0 0 184 147" width="184" height="147">
	<title>logo-header-svg</title>
	<style>
		.s0 { fill: #6cb3bf } 
		.s1 { fill: #256338 } 
		.s2 { fill: #1e512c } 
		.s3 { fill: #d64b34 } 
		.s4 { fill: #eac324 } 
		.s5 { fill: #13193e } 
		.s6 { fill: #ffffff } 
		.s7 { fill: #272a4e } 
	</style>
	<g id="&lt;Group&gt;">
		<path id="&lt;Path&gt;" class="s0" d="m173.3 27.9q-1.5 0.7-2.9 1.3 1.2 0.8 2.4 1.6c0.9 0.6 0.1 2-0.8 1.4q-1.1-0.8-2.3-1.5 0 1 0 2.1c0 1-1.6 1-1.6 0q0-1.6 0-3.2-1.3-0.8-2.6-1.7 0 1.2 0 2.3c0 1-1.6 1-1.6 0q0-1.6 0.1-3.3-2.7-1.7-5.4-3.3-0.2 2.1-0.4 4.2 0.3 0.3 0.5 0.7 0.9 1.4 2.1 2.7c0.6 0.8-0.5 2-1.2 1.2q-0.7-0.9-1.4-1.8-0.1-0.1-0.2-0.3-0.2 1.5-0.3 2.9c0.4 0.4 0.7 0.8 1 1.1q0.9 1 1.8 2.1c0.6 0.8-0.5 1.9-1.2 1.1q-0.7-0.9-1.5-1.7-0.1-0.2-0.3-0.4-0.2 1.7-0.3 3.3c-0.1 1.1-1.7 1.1-1.6 0q0.1-1.6 0.3-3.2-0.1 0.1-0.2 0.2-0.7 0.7-1.5 1.5c-0.7 0.8-1.8-0.4-1.1-1.1 0.9-1 1.9-2.4 3-3.2q0.2-1.5 0.3-3.1c-0.7 0.8-1.4 1.6-2 2.4-0.7 0.8-1.9-0.4-1.2-1.2q1.2-1.3 2.5-2.6c0.3-0.4 0.6-0.8 0.9-1q0.2-1.9 0.4-3.8-2.6 1.3-5.2 2.6c-0.1 0.4-0.3 0.8-0.5 1.1q-0.6 1.4-1.3 2.8c-0.4 1-1.8 0.2-1.4-0.8 0.3-0.6 0.7-1.3 1.1-2q-0.9 0.4-1.8 0.9-0.6 1.9-1 3.8c-0.2 1-1.7 0.6-1.5-0.4q0.2-1.3 0.5-2.5-1.3 0.7-2.7 1.3c-0.9 0.5-1.7-0.9-0.8-1.4q1.4-0.6 2.7-1.3-1-0.4-2.1-0.7c-1-0.4-0.6-1.9 0.4-1.6q1.9 0.7 3.8 1.3 1-0.5 2-1-0.3-0.1-0.6-0.3-0.9-0.5-1.7-1c-1-0.5-0.1-1.8 0.8-1.3q1.2 0.7 2.5 1.3c0.2 0.2 0.5 0.3 0.8 0.4q2.6-1.3 5.2-2.6-2-1.3-4.1-2.5c-0.3 0.2-0.7 0.4-1 0.6q-1.3 0.7-2.6 1.4c-0.9 0.5-1.7-0.9-0.8-1.4q0.9-0.5 1.9-1c0.2-0.1 0.6-0.3 1-0.5q-1.1-0.7-2.3-1.3c-0.8 0.2-1.5 0.7-2.2 1.1q-1.1 0.5-2.4 0.7c-1 0.2-1.4-1.3-0.4-1.5 1.1-0.2 2-0.6 3-1.2q0.2 0 0.3-0.1-1.5-0.9-3.1-1.8c-0.9-0.5-0.1-1.9 0.8-1.4q1.5 0.8 3 1.7-0.7-1.5-1.4-3.1c-0.4-0.9 1-1.7 1.4-0.8q1.1 2.6 2.3 5.1 0 0.1 0 0.2 0.7 0.4 1.4 0.8-0.1-0.3-0.2-0.5-0.2-1-0.4-1.9c-0.3-1 1.3-1.4 1.5-0.4q0.4 1.4 0.7 2.8c0.1 0.4 0.3 0.7 0.3 1.1q2.2 1.3 4.4 2.6 0.2-2.4 0.4-4.9c-0.3-0.2-0.5-0.4-0.8-0.6q-1-0.8-1.9-1.7c-0.8-0.8 0.3-1.9 1.1-1.2q0.7 0.7 1.4 1.3 0.2 0.1 0.4 0.4 0.1-1.4 0.2-2.7c-0.3-0.3-0.5-0.6-0.7-0.8q-1-1-1.9-2.1c-0.6-0.8 0.8-1.6 1.4-0.8 0.4 0.5 0.9 1.2 1.4 1.7q0.2-1.4 0.3-2.7c0.1-1.1 1.7-1.1 1.6 0q-0.1 1.6-0.3 3.2c0.8-0.5 1.6-1.3 2.2-2 0.8-0.7 1.9 0.4 1.2 1.2q-1 1-2.2 1.8c-0.3 0.3-0.9 0.8-1.4 0.9q-0.1 1.4-0.2 2.8c0.8-0.2 1.8-0.9 2.4-1.2 0.9-0.6 1.7 0.8 0.8 1.4-0.8 0.5-2.2 1.4-3.4 1.5q-0.2 2.2-0.4 4.4 2.2-1.2 4.4-2.3c0.1-0.5 0.3-1.1 0.4-1.5q0.3-1.3 0.7-2.7c0.3-1 1.8-0.5 1.5 0.5-0.2 0.8-0.6 1.8-0.8 2.7q1.2-0.6 2.4-1.3c0-0.4 0.2-0.9 0.3-1.2q0.3-1.4 0.8-2.8c0.3-0.9 1.9-0.5 1.5 0.5-0.2 0.8-0.6 1.7-0.8 2.6q1.4-0.8 2.7-1.5c0.9-0.5 1.7 0.9 0.8 1.4q-1.5 0.8-3 1.6c0.7 0.5 1.5 0.8 2.2 1.1 1 0.4 0.6 2-0.4 1.6q-1.1-0.5-2.2-1.1c-0.4-0.2-0.8-0.4-1.2-0.7q-1.1 0.6-2.2 1.2 0.1 0 0.2 0.1 1 0.3 1.9 0.6c1 0.3 0.6 1.9-0.4 1.5q-1.4-0.5-2.9-0.9c-0.3 0-0.6-0.1-0.9-0.2q-2.2 1.1-4.4 2.3 2.5 1.5 5 3 0.2-0.1 0.4-0.1 2.1 0 4.2-0.7c1-0.3 1.4 1.3 0.4 1.6q-1.4 0.5-2.8 0.6 1 0.7 2.1 1.4 1.8-0.8 3.6-1.6c1-0.4 1.8 1 0.9 1.4z"/>
		<path id="&lt;Path&gt;" class="s0" d="m151.2 10.6c1.3 0 1.3-2 0-2-1.2 0-1.2 2 0 2z"/>
		<path id="&lt;Path&gt;" class="s0" d="m166 10.7c-0.1-0.1-0.3-0.4-0.3-0.6q0-0.1 0-0.1c0-0.6 0.5-1 1-1 0.3 0 0.6 0.1 0.7 0.3 0.2 0.1 0.3 0.4 0.3 0.7q0 0 0 0.1c0 0.5-0.4 0.9-1 0.9-0.2 0-0.5-0.1-0.7-0.3z"/>
		<path id="&lt;Path&gt;" class="s0" d="m143 23.4c1.3 0 1.3-2 0-2-1.3 0-1.3 2 0 2z"/>
		<path id="&lt;Path&gt;" class="s0" d="m150.2 35.3c0.1 0.3 0 0.6-0.1 0.8q-0.1 0.1-0.1 0.2c-0.1 0.2-0.4 0.4-0.6 0.4-0.2 0.1-0.5 0.1-0.8-0.1-0.2-0.1-0.3-0.3-0.4-0.6-0.1-0.2 0-0.5 0.1-0.7q0-0.1 0.1-0.2c0.1-0.2 0.3-0.4 0.6-0.4 0.2-0.1 0.5-0.1 0.7 0.1 0.2 0.1 0.4 0.3 0.5 0.5z"/>
		<path id="&lt;Path&gt;" class="s0" d="m165.1 34.4c0.2 0.2 0.3 0.4 0.3 0.7q0 0 0 0.1c0 0.5-0.5 0.9-1 1-0.3 0-0.5-0.2-0.7-0.3-0.2-0.2-0.3-0.5-0.3-0.7q0-0.1 0-0.1c0-0.6 0.5-1 1-1 0.2 0 0.5 0.1 0.7 0.3z"/>
		<path id="&lt;Path&gt;" class="s0" d="m172.6 23.4c1.3 0 1.3-2 0-2-1.3 0-1.3 2 0 2z"/>
	</g>
	<g id="&lt;Group&gt; copy">
		<path id="&lt;Path&gt;" class="s0" d="m38.3 32.9q-1.5 0.7-2.9 1.3 1.2 0.8 2.4 1.6c0.9 0.6 0.1 2-0.8 1.4q-1.1-0.8-2.3-1.5 0 1 0 2.1c0 1-1.6 1-1.6 0q0-1.6 0-3.2-1.3-0.8-2.6-1.7 0 1.2 0 2.3c0 1-1.6 1-1.6 0q0-1.6 0.1-3.3-2.7-1.7-5.4-3.3-0.2 2.1-0.4 4.2 0.3 0.3 0.5 0.7 0.9 1.4 2.1 2.7c0.6 0.8-0.5 2-1.2 1.2q-0.7-0.9-1.4-1.8-0.1-0.1-0.2-0.3-0.2 1.5-0.3 2.9c0.4 0.4 0.7 0.8 1 1.1q0.9 1 1.8 2.1c0.6 0.8-0.5 1.9-1.2 1.1q-0.7-0.9-1.5-1.7-0.1-0.2-0.3-0.4-0.2 1.7-0.3 3.3c-0.1 1.1-1.7 1.1-1.6 0q0.1-1.6 0.3-3.2-0.1 0.1-0.2 0.2-0.7 0.7-1.5 1.5c-0.7 0.8-1.8-0.4-1.1-1.1 0.9-1 1.9-2.4 3-3.2q0.2-1.5 0.3-3.1c-0.7 0.8-1.4 1.6-2 2.4-0.7 0.8-1.9-0.4-1.2-1.2q1.2-1.3 2.5-2.6c0.3-0.4 0.6-0.8 0.9-1q0.2-1.9 0.4-3.8-2.6 1.3-5.2 2.6c-0.1 0.4-0.3 0.8-0.5 1.1q-0.6 1.4-1.3 2.8c-0.4 1-1.8 0.2-1.4-0.8 0.3-0.6 0.7-1.3 1.1-2q-0.9 0.4-1.8 0.9-0.6 1.9-1 3.8c-0.2 1-1.7 0.6-1.5-0.4q0.2-1.3 0.5-2.5-1.3 0.7-2.7 1.3c-0.9 0.5-1.7-0.9-0.8-1.4q1.4-0.6 2.7-1.3-1-0.4-2.1-0.7c-1-0.4-0.6-1.9 0.4-1.6q1.9 0.7 3.8 1.3 1-0.5 2-1-0.3-0.1-0.6-0.3-0.9-0.5-1.7-1c-1-0.5-0.1-1.8 0.8-1.3q1.2 0.7 2.5 1.3c0.2 0.2 0.5 0.3 0.8 0.4q2.6-1.3 5.2-2.6-2-1.3-4.1-2.5c-0.3 0.2-0.7 0.4-1 0.6q-1.3 0.7-2.6 1.4c-0.9 0.5-1.7-0.9-0.8-1.4q0.9-0.5 1.9-1c0.2-0.1 0.6-0.3 1-0.5q-1.1-0.7-2.3-1.3c-0.8 0.2-1.5 0.7-2.2 1.1q-1.1 0.5-2.4 0.7c-1 0.2-1.4-1.3-0.4-1.5 1.1-0.2 2-0.6 3-1.2q0.2 0 0.3-0.1-1.5-0.9-3.1-1.8c-0.9-0.5-0.1-1.9 0.8-1.4q1.5 0.8 3 1.7-0.7-1.5-1.4-3.1c-0.4-0.9 1-1.7 1.4-0.8q1.1 2.6 2.3 5.1 0 0.1 0 0.2 0.7 0.4 1.4 0.8-0.1-0.3-0.2-0.5-0.2-1-0.4-1.9c-0.3-1 1.3-1.4 1.5-0.4q0.4 1.4 0.7 2.8c0.1 0.4 0.3 0.7 0.3 1.1q2.2 1.3 4.4 2.6 0.2-2.4 0.4-4.9c-0.3-0.2-0.5-0.4-0.8-0.6q-1-0.8-1.9-1.7c-0.8-0.8 0.3-1.9 1.1-1.2q0.7 0.7 1.4 1.3 0.2 0.1 0.4 0.4 0.1-1.4 0.2-2.7c-0.3-0.3-0.5-0.6-0.7-0.8q-1-1-1.9-2.1c-0.6-0.8 0.8-1.6 1.4-0.8 0.4 0.5 0.9 1.2 1.4 1.7q0.2-1.4 0.3-2.7c0.1-1.1 1.7-1.1 1.6 0q-0.1 1.6-0.3 3.2c0.8-0.5 1.6-1.3 2.2-2 0.8-0.7 1.9 0.4 1.2 1.2q-1 1-2.2 1.8c-0.3 0.3-0.9 0.8-1.4 0.9q-0.1 1.4-0.2 2.8c0.8-0.2 1.8-0.9 2.4-1.2 0.9-0.6 1.7 0.8 0.8 1.4-0.8 0.5-2.2 1.4-3.4 1.5q-0.2 2.2-0.4 4.4 2.2-1.2 4.4-2.3c0.1-0.5 0.3-1.1 0.4-1.5q0.3-1.3 0.7-2.7c0.3-1 1.8-0.5 1.5 0.5-0.2 0.8-0.6 1.8-0.8 2.7q1.2-0.6 2.4-1.3c0-0.4 0.2-0.9 0.3-1.2q0.3-1.4 0.8-2.8c0.3-0.9 1.9-0.5 1.5 0.5-0.2 0.8-0.6 1.7-0.8 2.6q1.4-0.8 2.7-1.5c0.9-0.5 1.7 0.9 0.8 1.4q-1.5 0.8-3 1.6c0.7 0.5 1.5 0.8 2.2 1.1 1 0.4 0.6 2-0.4 1.6q-1.1-0.5-2.2-1.1c-0.4-0.2-0.8-0.4-1.2-0.7q-1.1 0.6-2.2 1.2 0.1 0 0.2 0.1 1 0.3 1.9 0.6c1 0.3 0.6 1.9-0.4 1.5q-1.4-0.5-2.9-0.9c-0.3 0-0.6-0.1-0.9-0.2q-2.2 1.1-4.4 2.3 2.5 1.5 5 3 0.2-0.1 0.4-0.1 2.1 0 4.2-0.7c1-0.3 1.4 1.3 0.4 1.6q-1.4 0.5-2.8 0.6 1 0.7 2.1 1.4 1.8-0.8 3.6-1.6c1-0.4 1.8 1 0.9 1.4z"/>
		<path id="&lt;Path&gt;" class="s0" d="m16.2 15.6c1.3 0 1.3-2 0-2-1.2 0-1.2 2 0 2z"/>
		<path id="&lt;Path&gt;" class="s0" d="m31 15.7c-0.1-0.1-0.3-0.4-0.3-0.6q0-0.1 0-0.1c0-0.6 0.5-1 1-1 0.3 0 0.6 0.1 0.7 0.3 0.2 0.1 0.3 0.4 0.3 0.7q0 0 0 0.1c0 0.5-0.4 0.9-1 0.9-0.2 0-0.5-0.1-0.7-0.3z"/>
		<path id="&lt;Path&gt;" class="s0" d="m8 28.4c1.3 0 1.3-2 0-2-1.3 0-1.3 2 0 2z"/>
		<path id="&lt;Path&gt;" class="s0" d="m15.2 40.3c0.1 0.3 0 0.6-0.1 0.8q-0.1 0.1-0.1 0.2c-0.1 0.2-0.4 0.4-0.6 0.4-0.2 0.1-0.5 0.1-0.8-0.1-0.2-0.1-0.3-0.3-0.4-0.6-0.1-0.2 0-0.5 0.1-0.7q0-0.1 0.1-0.2c0.1-0.2 0.3-0.4 0.6-0.4 0.2-0.1 0.5-0.1 0.7 0.1 0.2 0.1 0.4 0.3 0.5 0.5z"/>
		<path id="&lt;Path&gt;" class="s0" d="m30.1 39.4c0.2 0.2 0.3 0.4 0.3 0.7q0 0 0 0.1c0 0.5-0.5 0.9-1 1-0.3 0-0.5-0.2-0.7-0.3-0.2-0.2-0.3-0.5-0.3-0.7q0-0.1 0-0.1c0-0.6 0.5-1 1-1 0.2 0 0.5 0.1 0.7 0.3z"/>
		<path id="&lt;Path&gt;" class="s0" d="m37.6 28.4c1.3 0 1.3-2 0-2-1.3 0-1.3 2 0 2z"/>
	</g>
	<g id="&lt;Group&gt; copy 2">
		<path id="&lt;Path&gt;" class="s0" d="m111.3 4.9q-1.5 0.7-2.9 1.3 1.2 0.8 2.4 1.6c0.9 0.6 0.1 2-0.8 1.4q-1.1-0.8-2.3-1.5 0 1 0 2.1c0 1-1.6 1-1.6 0q0-1.6 0-3.2-1.3-0.8-2.6-1.7 0 1.2 0 2.3c0 1-1.6 1-1.6 0q0-1.6 0.1-3.3-2.7-1.7-5.4-3.3-0.2 2.1-0.4 4.2 0.3 0.3 0.5 0.7 0.9 1.4 2.1 2.7c0.6 0.8-0.5 2-1.2 1.2q-0.7-0.9-1.4-1.8-0.1-0.1-0.2-0.3-0.2 1.5-0.3 2.9c0.4 0.4 0.7 0.8 1 1.1q0.9 1 1.8 2.1c0.6 0.8-0.5 1.9-1.2 1.1q-0.7-0.9-1.5-1.7-0.1-0.2-0.3-0.4-0.2 1.7-0.3 3.3c-0.1 1.1-1.7 1.1-1.6 0q0.1-1.6 0.3-3.2-0.1 0.1-0.2 0.2-0.7 0.7-1.5 1.5c-0.7 0.8-1.8-0.4-1.1-1.1 0.9-1 1.9-2.4 3-3.2q0.2-1.5 0.3-3.1c-0.7 0.8-1.4 1.6-2 2.4-0.7 0.8-1.9-0.4-1.2-1.2q1.2-1.3 2.5-2.6c0.3-0.4 0.6-0.8 0.9-1q0.2-1.9 0.4-3.8-2.6 1.3-5.2 2.6c-0.1 0.4-0.3 0.8-0.5 1.1q-0.6 1.4-1.3 2.8c-0.4 1-1.8 0.2-1.4-0.8 0.3-0.6 0.7-1.3 1.1-2q-0.9 0.4-1.8 0.9-0.6 1.9-1 3.8c-0.2 1-1.7 0.6-1.5-0.4q0.2-1.3 0.5-2.5-1.3 0.7-2.7 1.3c-0.9 0.5-1.7-0.9-0.8-1.4q1.4-0.6 2.7-1.3-1-0.4-2.1-0.7c-1-0.4-0.6-1.9 0.4-1.6q1.9 0.7 3.8 1.3 1-0.5 2-1-0.3-0.1-0.6-0.3-0.9-0.5-1.7-1c-1-0.5-0.1-1.8 0.8-1.3q1.2 0.7 2.5 1.3c0.2 0.2 0.5 0.3 0.8 0.4q2.6-1.3 5.2-2.6-2-1.3-4.1-2.5c-0.3 0.2-0.7 0.4-1 0.6q-1.3 0.7-2.6 1.4c-0.9 0.5-1.7-0.9-0.8-1.4q0.9-0.5 1.9-1c0.2-0.1 0.6-0.3 1-0.5q-1.1-0.7-2.3-1.3c-0.8 0.2-1.5 0.7-2.2 1.1q-1.1 0.5-2.4 0.7c-1 0.2-1.4-1.3-0.4-1.5 1.1-0.2 2-0.6 3-1.2q0.2 0 0.3-0.1-1.5-0.9-3.1-1.8c-0.9-0.5-0.1-1.9 0.8-1.4q1.5 0.8 3 1.7-0.7-1.5-1.4-3.1c-0.4-0.9 1-1.7 1.4-0.8q1.1 2.6 2.3 5.1 0 0.1 0 0.2 0.7 0.4 1.4 0.8-0.1-0.3-0.2-0.5-0.2-1-0.4-1.9c-0.3-1 1.3-1.4 1.5-0.4q0.4 1.4 0.7 2.8c0.1 0.4 0.3 0.7 0.3 1.1q2.2 1.3 4.4 2.6 0.2-2.4 0.4-4.9c-0.3-0.2-0.5-0.4-0.8-0.6q-1-0.8-1.9-1.7c-0.8-0.8 0.3-1.9 1.1-1.2q0.7 0.7 1.4 1.3 0.2 0.1 0.4 0.4 0.1-1.4 0.2-2.7c-0.3-0.3-0.5-0.6-0.7-0.8q-1-1-1.9-2.1c-0.6-0.8 0.8-1.6 1.4-0.8 0.4 0.5 0.9 1.2 1.4 1.7q0.2-1.4 0.3-2.7c0.1-1.1 1.7-1.1 1.6 0q-0.1 1.6-0.3 3.2c0.8-0.5 1.6-1.3 2.2-2 0.8-0.7 1.9 0.4 1.2 1.2q-1 1-2.2 1.8c-0.3 0.3-0.9 0.8-1.4 0.9q-0.1 1.4-0.2 2.8c0.8-0.2 1.8-0.9 2.4-1.2 0.9-0.6 1.7 0.8 0.8 1.4-0.8 0.5-2.2 1.4-3.4 1.5q-0.2 2.2-0.4 4.4 2.2-1.2 4.4-2.3c0.1-0.5 0.3-1.1 0.4-1.5q0.3-1.3 0.7-2.7c0.3-1 1.8-0.5 1.5 0.5-0.2 0.8-0.6 1.8-0.8 2.7q1.2-0.6 2.4-1.3c0-0.4 0.2-0.9 0.3-1.2q0.3-1.4 0.8-2.8c0.3-0.9 1.9-0.5 1.5 0.5-0.2 0.8-0.6 1.7-0.8 2.6q1.4-0.8 2.7-1.5c0.9-0.5 1.7 0.9 0.8 1.4q-1.5 0.8-3 1.6c0.7 0.5 1.5 0.8 2.2 1.1 1 0.4 0.6 2-0.4 1.6q-1.1-0.5-2.2-1.1c-0.4-0.2-0.8-0.4-1.2-0.7q-1.1 0.6-2.2 1.2 0.1 0 0.2 0.1 1 0.3 1.9 0.6c1 0.3 0.6 1.9-0.4 1.5q-1.4-0.5-2.9-0.9c-0.3 0-0.6-0.1-0.9-0.2q-2.2 1.1-4.4 2.3 2.5 1.5 5 3 0.2-0.1 0.4-0.1 2.1 0 4.2-0.7c1-0.3 1.4 1.3 0.4 1.6q-1.4 0.5-2.8 0.6 1 0.7 2.1 1.4 1.8-0.8 3.6-1.6c1-0.4 1.8 1 0.9 1.4z"/>
		<path id="&lt;Path&gt;" class="s0" d="m89.2-12.4c1.3 0 1.3-2 0-2-1.2 0-1.2 2 0 2z"/>
		<path id="&lt;Path&gt;" class="s0" d="m104-12.3c-0.1-0.1-0.3-0.4-0.3-0.6q0-0.1 0-0.1c0-0.6 0.5-1 1-1 0.3 0 0.6 0.1 0.7 0.3 0.2 0.1 0.3 0.4 0.3 0.7q0 0 0 0.1c0 0.5-0.4 0.9-1 0.9-0.2 0-0.5-0.1-0.7-0.3z"/>
		<path id="&lt;Path&gt;" class="s0" d="m81 0.4c1.3 0 1.3-2 0-2-1.3 0-1.3 2 0 2z"/>
		<path id="&lt;Path&gt;" class="s0" d="m88.2 12.3c0.1 0.3 0 0.6-0.1 0.8q-0.1 0.1-0.1 0.2c-0.1 0.2-0.4 0.4-0.6 0.4-0.2 0.1-0.5 0.1-0.8-0.1-0.2-0.1-0.3-0.3-0.4-0.6-0.1-0.2 0-0.5 0.1-0.7q0-0.1 0.1-0.2c0.1-0.2 0.3-0.4 0.6-0.4 0.2-0.1 0.5-0.1 0.7 0.1 0.2 0.1 0.4 0.3 0.5 0.5z"/>
		<path id="&lt;Path&gt;" class="s0" d="m103.1 11.4c0.2 0.2 0.3 0.4 0.3 0.7q0 0 0 0.1c0 0.5-0.5 0.9-1 1-0.3 0-0.5-0.2-0.7-0.3-0.2-0.2-0.3-0.5-0.3-0.7q0-0.1 0-0.1c0-0.6 0.5-1 1-1 0.2 0 0.5 0.1 0.7 0.3z"/>
		<path id="&lt;Path&gt;" class="s0" d="m110.6 0.4c1.3 0 1.3-2 0-2-1.3 0-1.3 2 0 2z"/>
	</g>
	<g id="&lt;Group&gt; copy 3">
		<path id="&lt;Path&gt;" class="s0" d="m59.3 130.9q-1.5 0.7-2.9 1.3 1.2 0.8 2.4 1.6c0.9 0.6 0.1 2-0.8 1.4q-1.1-0.8-2.3-1.5 0 1 0 2.1c0 1-1.6 1-1.6 0q0-1.6 0-3.2-1.3-0.8-2.6-1.7 0 1.2 0 2.3c0 1-1.6 1-1.6 0q0-1.6 0.1-3.3-2.7-1.7-5.4-3.3-0.2 2.1-0.4 4.2 0.3 0.3 0.5 0.7 0.9 1.4 2.1 2.7c0.6 0.8-0.5 2-1.2 1.2q-0.7-0.9-1.4-1.8-0.1-0.1-0.2-0.3-0.2 1.5-0.3 2.9c0.4 0.4 0.7 0.8 1 1.1q0.9 1 1.8 2.1c0.6 0.8-0.5 1.9-1.2 1.1q-0.7-0.9-1.5-1.7-0.1-0.2-0.3-0.4-0.2 1.7-0.3 3.3c-0.1 1.1-1.7 1.1-1.6 0q0.1-1.6 0.3-3.2-0.1 0.1-0.2 0.2-0.7 0.7-1.5 1.5c-0.7 0.8-1.8-0.4-1.1-1.1 0.9-1 1.9-2.4 3-3.2q0.2-1.5 0.3-3.1c-0.7 0.8-1.4 1.6-2 2.4-0.7 0.8-1.9-0.4-1.2-1.2q1.2-1.3 2.5-2.6c0.3-0.4 0.6-0.8 0.9-1q0.2-1.9 0.4-3.8-2.6 1.3-5.2 2.6c-0.1 0.4-0.3 0.8-0.5 1.1q-0.6 1.4-1.3 2.8c-0.4 1-1.8 0.2-1.4-0.8 0.3-0.6 0.7-1.3 1.1-2q-0.9 0.4-1.8 0.9-0.6 1.9-1 3.8c-0.2 1-1.7 0.6-1.5-0.4q0.2-1.3 0.5-2.5-1.3 0.7-2.7 1.3c-0.9 0.5-1.7-0.9-0.8-1.4q1.4-0.6 2.7-1.3-1-0.4-2.1-0.7c-1-0.4-0.6-1.9 0.4-1.6q1.9 0.7 3.8 1.3 1-0.5 2-1-0.3-0.1-0.6-0.3-0.9-0.5-1.7-1c-1-0.5-0.1-1.8 0.8-1.3q1.2 0.7 2.5 1.3c0.2 0.2 0.5 0.3 0.8 0.4q2.6-1.3 5.2-2.6-2-1.3-4.1-2.5c-0.3 0.2-0.7 0.4-1 0.6q-1.3 0.7-2.6 1.4c-0.9 0.5-1.7-0.9-0.8-1.4q0.9-0.5 1.9-1c0.2-0.1 0.6-0.3 1-0.5q-1.1-0.7-2.3-1.3c-0.8 0.2-1.5 0.7-2.2 1.1q-1.1 0.5-2.4 0.7c-1 0.2-1.4-1.3-0.4-1.5 1.1-0.2 2-0.6 3-1.2q0.2 0 0.3-0.1-1.5-0.9-3.1-1.8c-0.9-0.5-0.1-1.9 0.8-1.4q1.5 0.8 3 1.7-0.7-1.5-1.4-3.1c-0.4-0.9 1-1.7 1.4-0.8q1.1 2.6 2.3 5.1 0 0.1 0 0.2 0.7 0.4 1.4 0.8-0.1-0.3-0.2-0.5-0.2-1-0.4-1.9c-0.3-1 1.3-1.4 1.5-0.4q0.4 1.4 0.7 2.8c0.1 0.4 0.3 0.7 0.3 1.1q2.2 1.3 4.4 2.6 0.2-2.4 0.4-4.9c-0.3-0.2-0.5-0.4-0.8-0.6q-1-0.8-1.9-1.7c-0.8-0.8 0.3-1.9 1.1-1.2q0.7 0.7 1.4 1.3 0.2 0.1 0.4 0.4 0.1-1.4 0.2-2.7c-0.3-0.3-0.5-0.6-0.7-0.8q-1-1-1.9-2.1c-0.6-0.8 0.8-1.6 1.4-0.8 0.4 0.5 0.9 1.2 1.4 1.7q0.2-1.4 0.3-2.7c0.1-1.1 1.7-1.1 1.6 0q-0.1 1.6-0.3 3.2c0.8-0.5 1.6-1.3 2.2-2 0.8-0.7 1.9 0.4 1.2 1.2q-1 1-2.2 1.8c-0.3 0.3-0.9 0.8-1.4 0.9q-0.1 1.4-0.2 2.8c0.8-0.2 1.8-0.9 2.4-1.2 0.9-0.6 1.7 0.8 0.8 1.4-0.8 0.5-2.2 1.4-3.4 1.5q-0.2 2.2-0.4 4.4 2.2-1.2 4.4-2.3c0.1-0.5 0.3-1.1 0.4-1.5q0.3-1.3 0.7-2.7c0.3-1 1.8-0.5 1.5 0.5-0.2 0.8-0.6 1.8-0.8 2.7q1.2-0.6 2.4-1.3c0-0.4 0.2-0.9 0.3-1.2q0.3-1.4 0.8-2.8c0.3-0.9 1.9-0.5 1.5 0.5-0.2 0.8-0.6 1.7-0.8 2.6q1.4-0.8 2.7-1.5c0.9-0.5 1.7 0.9 0.8 1.4q-1.5 0.8-3 1.6c0.7 0.5 1.5 0.8 2.2 1.1 1 0.4 0.6 2-0.4 1.6q-1.1-0.5-2.2-1.1c-0.4-0.2-0.8-0.4-1.2-0.7q-1.1 0.6-2.2 1.2 0.1 0 0.2 0.1 1 0.3 1.9 0.6c1 0.3 0.6 1.9-0.4 1.5q-1.4-0.5-2.9-0.9c-0.3 0-0.6-0.1-0.9-0.2q-2.2 1.1-4.4 2.3 2.5 1.5 5 3 0.2-0.1 0.4-0.1 2.1 0 4.2-0.7c1-0.3 1.4 1.3 0.4 1.6q-1.4 0.5-2.8 0.6 1 0.7 2.1 1.4 1.8-0.8 3.6-1.6c1-0.4 1.8 1 0.9 1.4z"/>
		<path id="&lt;Path&gt;" class="s0" d="m37.2 113.6c1.3 0 1.3-2 0-2-1.2 0-1.2 2 0 2z"/>
		<path id="&lt;Path&gt;" class="s0" d="m52 113.7c-0.1-0.1-0.3-0.4-0.3-0.6q0-0.1 0-0.1c0-0.6 0.5-1 1-1 0.3 0 0.6 0.1 0.7 0.3 0.2 0.1 0.3 0.4 0.3 0.7q0 0 0 0.1c0 0.5-0.4 0.9-1 0.9-0.2 0-0.5-0.1-0.7-0.3z"/>
		<path id="&lt;Path&gt;" class="s0" d="m29 126.4c1.3 0 1.3-2 0-2-1.3 0-1.3 2 0 2z"/>
		<path id="&lt;Path&gt;" class="s0" d="m36.2 138.3c0.1 0.3 0 0.6-0.1 0.8q-0.1 0.1-0.1 0.2c-0.1 0.2-0.4 0.4-0.6 0.4-0.2 0.1-0.5 0.1-0.8-0.1-0.2-0.1-0.3-0.3-0.4-0.6-0.1-0.2 0-0.5 0.1-0.7q0-0.1 0.1-0.2c0.1-0.2 0.3-0.4 0.6-0.4 0.2-0.1 0.5-0.1 0.7 0.1 0.2 0.1 0.4 0.3 0.5 0.5z"/>
		<path id="&lt;Path&gt;" class="s0" d="m51.1 137.4c0.2 0.2 0.3 0.4 0.3 0.7q0 0 0 0.1c0 0.5-0.5 0.9-1 1-0.3 0-0.5-0.2-0.7-0.3-0.2-0.2-0.3-0.5-0.3-0.7q0-0.1 0-0.1c0-0.6 0.5-1 1-1 0.2 0 0.5 0.1 0.7 0.3z"/>
		<path id="&lt;Path&gt;" class="s0" d="m58.6 126.4c1.3 0 1.3-2 0-2-1.3 0-1.3 2 0 2z"/>
	</g>
	<g id="&lt;Group&gt; copy 4">
		<path id="&lt;Path&gt;" class="s0" d="m174.3 130.9q-1.5 0.7-2.9 1.3 1.2 0.8 2.4 1.6c0.9 0.6 0.1 2-0.8 1.4q-1.1-0.8-2.3-1.5 0 1 0 2.1c0 1-1.6 1-1.6 0q0-1.6 0-3.2-1.3-0.8-2.6-1.7 0 1.2 0 2.3c0 1-1.6 1-1.6 0q0-1.6 0.1-3.3-2.7-1.7-5.4-3.3-0.2 2.1-0.4 4.2 0.3 0.3 0.5 0.7 0.9 1.4 2.1 2.7c0.6 0.8-0.5 2-1.2 1.2q-0.7-0.9-1.4-1.8-0.1-0.1-0.2-0.3-0.2 1.5-0.3 2.9c0.4 0.4 0.7 0.8 1 1.1q0.9 1 1.8 2.1c0.6 0.8-0.5 1.9-1.2 1.1q-0.7-0.9-1.5-1.7-0.1-0.2-0.3-0.4-0.2 1.7-0.3 3.3c-0.1 1.1-1.7 1.1-1.6 0q0.1-1.6 0.3-3.2-0.1 0.1-0.2 0.2-0.7 0.7-1.5 1.5c-0.7 0.8-1.8-0.4-1.1-1.1 0.9-1 1.9-2.4 3-3.2q0.2-1.5 0.3-3.1c-0.7 0.8-1.4 1.6-2 2.4-0.7 0.8-1.9-0.4-1.2-1.2q1.2-1.3 2.5-2.6c0.3-0.4 0.6-0.8 0.9-1q0.2-1.9 0.4-3.8-2.6 1.3-5.2 2.6c-0.1 0.4-0.3 0.8-0.5 1.1q-0.6 1.4-1.3 2.8c-0.4 1-1.8 0.2-1.4-0.8 0.3-0.6 0.7-1.3 1.1-2q-0.9 0.4-1.8 0.9-0.6 1.9-1 3.8c-0.2 1-1.7 0.6-1.5-0.4q0.2-1.3 0.5-2.5-1.3 0.7-2.7 1.3c-0.9 0.5-1.7-0.9-0.8-1.4q1.4-0.6 2.7-1.3-1-0.4-2.1-0.7c-1-0.4-0.6-1.9 0.4-1.6q1.9 0.7 3.8 1.3 1-0.5 2-1-0.3-0.1-0.6-0.3-0.9-0.5-1.7-1c-1-0.5-0.1-1.8 0.8-1.3q1.2 0.7 2.5 1.3c0.2 0.2 0.5 0.3 0.8 0.4q2.6-1.3 5.2-2.6-2-1.3-4.1-2.5c-0.3 0.2-0.7 0.4-1 0.6q-1.3 0.7-2.6 1.4c-0.9 0.5-1.7-0.9-0.8-1.4q0.9-0.5 1.9-1c0.2-0.1 0.6-0.3 1-0.5q-1.1-0.7-2.3-1.3c-0.8 0.2-1.5 0.7-2.2 1.1q-1.1 0.5-2.4 0.7c-1 0.2-1.4-1.3-0.4-1.5 1.1-0.2 2-0.6 3-1.2q0.2 0 0.3-0.1-1.5-0.9-3.1-1.8c-0.9-0.5-0.1-1.9 0.8-1.4q1.5 0.8 3 1.7-0.7-1.5-1.4-3.1c-0.4-0.9 1-1.7 1.4-0.8q1.1 2.6 2.3 5.1 0 0.1 0 0.2 0.7 0.4 1.4 0.8-0.1-0.3-0.2-0.5-0.2-1-0.4-1.9c-0.3-1 1.3-1.4 1.5-0.4q0.4 1.4 0.7 2.8c0.1 0.4 0.3 0.7 0.3 1.1q2.2 1.3 4.4 2.6 0.2-2.4 0.4-4.9c-0.3-0.2-0.5-0.4-0.8-0.6q-1-0.8-1.9-1.7c-0.8-0.8 0.3-1.9 1.1-1.2q0.7 0.7 1.4 1.3 0.2 0.1 0.4 0.4 0.1-1.4 0.2-2.7c-0.3-0.3-0.5-0.6-0.7-0.8q-1-1-1.9-2.1c-0.6-0.8 0.8-1.6 1.4-0.8 0.4 0.5 0.9 1.2 1.4 1.7q0.2-1.4 0.3-2.7c0.1-1.1 1.7-1.1 1.6 0q-0.1 1.6-0.3 3.2c0.8-0.5 1.6-1.3 2.2-2 0.8-0.7 1.9 0.4 1.2 1.2q-1 1-2.2 1.8c-0.3 0.3-0.9 0.8-1.4 0.9q-0.1 1.4-0.2 2.8c0.8-0.2 1.8-0.9 2.4-1.2 0.9-0.6 1.7 0.8 0.8 1.4-0.8 0.5-2.2 1.4-3.4 1.5q-0.2 2.2-0.4 4.4 2.2-1.2 4.4-2.3c0.1-0.5 0.3-1.1 0.4-1.5q0.3-1.3 0.7-2.7c0.3-1 1.8-0.5 1.5 0.5-0.2 0.8-0.6 1.8-0.8 2.7q1.2-0.6 2.4-1.3c0-0.4 0.2-0.9 0.3-1.2q0.3-1.4 0.8-2.8c0.3-0.9 1.9-0.5 1.5 0.5-0.2 0.8-0.6 1.7-0.8 2.6q1.4-0.8 2.7-1.5c0.9-0.5 1.7 0.9 0.8 1.4q-1.5 0.8-3 1.6c0.7 0.5 1.5 0.8 2.2 1.1 1 0.4 0.6 2-0.4 1.6q-1.1-0.5-2.2-1.1c-0.4-0.2-0.8-0.4-1.2-0.7q-1.1 0.6-2.2 1.2 0.1 0 0.2 0.1 1 0.3 1.9 0.6c1 0.3 0.6 1.9-0.4 1.5q-1.4-0.5-2.9-0.9c-0.3 0-0.6-0.1-0.9-0.2q-2.2 1.1-4.4 2.3 2.5 1.5 5 3 0.2-0.1 0.4-0.1 2.1 0 4.2-0.7c1-0.3 1.4 1.3 0.4 1.6q-1.4 0.5-2.8 0.6 1 0.7 2.1 1.4 1.8-0.8 3.6-1.6c1-0.4 1.8 1 0.9 1.4z"/>
		<path id="&lt;Path&gt;" class="s0" d="m152.2 113.6c1.3 0 1.3-2 0-2-1.2 0-1.2 2 0 2z"/>
		<path id="&lt;Path&gt;" class="s0" d="m167 113.7c-0.1-0.1-0.3-0.4-0.3-0.6q0-0.1 0-0.1c0-0.6 0.5-1 1-1 0.3 0 0.6 0.1 0.7 0.3 0.2 0.1 0.3 0.4 0.3 0.7q0 0 0 0.1c0 0.5-0.4 0.9-1 0.9-0.2 0-0.5-0.1-0.7-0.3z"/>
		<path id="&lt;Path&gt;" class="s0" d="m144 126.4c1.3 0 1.3-2 0-2-1.3 0-1.3 2 0 2z"/>
		<path id="&lt;Path&gt;" class="s0" d="m151.2 138.3c0.1 0.3 0 0.6-0.1 0.8q-0.1 0.1-0.1 0.2c-0.1 0.2-0.4 0.4-0.6 0.4-0.2 0.1-0.5 0.1-0.8-0.1-0.2-0.1-0.3-0.3-0.4-0.6-0.1-0.2 0-0.5 0.1-0.7q0-0.1 0.1-0.2c0.1-0.2 0.3-0.4 0.6-0.4 0.2-0.1 0.5-0.1 0.7 0.1 0.2 0.1 0.4 0.3 0.5 0.5z"/>
		<path id="&lt;Path&gt;" class="s0" d="m166.1 137.4c0.2 0.2 0.3 0.4 0.3 0.7q0 0 0 0.1c0 0.5-0.5 0.9-1 1-0.3 0-0.5-0.2-0.7-0.3-0.2-0.2-0.3-0.5-0.3-0.7q0-0.1 0-0.1c0-0.6 0.5-1 1-1 0.2 0 0.5 0.1 0.7 0.3z"/>
		<path id="&lt;Path&gt;" class="s0" d="m173.6 126.4c1.3 0 1.3-2 0-2-1.3 0-1.3 2 0 2z"/>
	</g>
	<g id="&lt;Group&gt;">
		<g id="&lt;Group&gt;">
			<path id="&lt;Path&gt;" class="s1" d="m963.5 494c-6.6-2.8-14.2-3.9-20.3-1.4-0.3-3.9-1.8-7.3-4.3-9.9-1.7-2.5-4.5-4.4-7.9-5.1 2-3.6 2.9-7.7 1.4-12-1.8-5-6.4-7.2-11.2-7.4 1.3-3.4 1.6-7.3 1.5-10.7-0.2-3.1-1-6.7-2.6-9.6 1.7 1.4 3.7 2.6 5.7 3.4 3.2 1.3 7.4 2 11.3 1.6 0 3.8 1.9 7.3 5 9.5 1.7 1.2 3.4 1.3 5.3 1.9q0.3 0.1 0.6 0.2c-2.3 4.6-2.6 9.8 0.5 14.6 1.2 1.7 2.7 3.1 4.5 4.1 1.8 1 3.8 1.5 5.8 1.7q0.5 0.1 1 0.1c0.3 0 0.8 0.1 1-0.1-0.3 0.4-0.8 0.6-1.1 1q-0.6 0.5-1 1.2c-0.6 0.8-1.1 1.7-1.3 2.7q-0.2 0.8-0.3 1.6c0 0.2 0 0.4 0 0.7q0.1 0.3 0.1 0.6 0.1 0.7 0.2 1.3 0.3 1.3 0.9 2.6c0.8 1.8 1.9 3.4 3.1 4.9q1 1.3 2.1 2.5z"/>
		</g>
		<g id="&lt;Group&gt;">
			<path id="&lt;Path&gt;" class="s1" d="m1017 450.4q-0.9 1.1-1.6 2.4c-4.4 4.5-5.7 11.7-3.4 17.5-4.6-0.5-9.2 1.1-11.6 5.5-2.2 4-2 8.2-0.6 12.1-3.5 0.2-6.5 1.6-8.6 3.8-2.9 2.2-5 5.2-5.9 9.1-4.6-2.9-10.7-3.5-16.6-2.6 3.1-2 5.3-5.1 5.7-9.3 0.3-3.2-0.8-6.1-2.6-8.2q0.5 0 1 0.1c2 0.1 4-0.1 6-0.8 1.9-0.6 3.7-1.8 5-3.3 3.8-4.1 4.4-9 3.1-13.8 2.6 0.6 5.5 0.2 8-1.6 3-2.1 4.4-5.2 4.7-8.6 3.7 1 7.8 0.9 11.2 0.2 2-0.5 4.2-1.3 6.2-2.5z"/>
		</g>
		<g id="&lt;Group&gt;">
			<path id="&lt;Path&gt;" class="s1" d="m964.4 504.9c-3.1 1.1-5.8 3.1-7.7 5.3-2.9 3.4-4.1 7.8-3.8 12.1-3.4-1.2-6.8-1.4-10.1-0.8-3.6 0.2-7 1.8-9.8 4.7-2.4-4.1-5.8-7.5-10.9-8.5-6-1.3-10.9 1.8-13.9 6.4-2.5-3.3-6.1-5.9-9.6-7.9-2.9-1.5-6.4-2.8-10-3.1 3-0.3 6.1-1.5 8.5-3.3 3.2-2.4 5.4-6.1 6.3-10 3.6 1.9 7.9 2.1 11.6 0.4 2.3-0.9 3.3-2.5 5.1-4q0.3-0.2 0.5-0.4c3.2 4.9 8 8.4 14.7 8.2 2.3-0.1 4.6-0.8 6.6-2 2.1-1.1 3.8-2.7 5.2-4.6q0.3-0.5 0.7-1c0.1-0.2 0.5-0.6 0.5-1 0.1 0.6 0.1 1.2 0.3 1.8q0.2 0.8 0.5 1.6c0.5 1.1 1.1 2.1 1.9 3q0.7 0.6 1.4 1.2c0.2 0.1 0.4 0.2 0.7 0.3q0.3 0.2 0.6 0.4 0.7 0.3 1.4 0.5 1.5 0.5 3.1 0.7c2 0.2 4.1 0.2 6.2 0z"/>
		</g>
		<g id="&lt;Group&gt;">
			<path id="&lt;Path&gt;" class="s2" d="m926.4 446.6c3.8 7.3 8.4 14.2 13.2 21 4.7 6.8 9.3 13.7 15.5 19.2 0.8 0.7-0.3 1.8-1 1.2-6.1-5.4-10.7-12.1-15.3-18.8-4.9-7-9.7-14.2-13.7-21.8-0.5-0.9 0.8-1.7 1.3-0.8z"/>
		</g>
		<g id="&lt;Group&gt;">
			<path id="&lt;Path&gt;" class="s2" d="m900.1 512.2c8.8 1.2 17.9 0.3 26.7-0.4 8.9-0.8 17.7-2.2 26.5-3.9 1-0.2 1.3 1.3 0.3 1.5-9.1 1.8-18.2 3.1-27.5 3.9-8.6 0.8-17.5 1.5-26.1 0.4-1-0.1-0.9-1.6 0.1-1.5z"/>
		</g>
		<g id="&lt;Group&gt;">
			<path id="&lt;Path&gt;" class="s2" d="m1008.7 456.3c-7.9 14.4-18.8 26.3-30.6 37.5-0.7 0.7-1.7-0.5-1-1.1 11.6-11.1 22.5-22.8 30.2-37 0.5-0.8 1.9-0.3 1.4 0.6z"/>
		</g>
		<g id="&lt;Group&gt;">
			<path id="&lt;Path&gt;" class="s3" d="m949.4 491.7c-0.2-4.4 3.9-8.1 8.2-8.1 4.5 0 7.9 3.7 8.1 8.1 0.2 4.4-3.9 8.2-8.1 8.2-4.6 0-8-3.8-8.2-8.2z"/>
		</g>
		<g id="&lt;Group&gt;">
			<path id="&lt;Path&gt;" class="s3" d="m952.4 508.9c-0.2-4.4 3.9-8.1 8.1-8.1 4.6 0 8 3.7 8.2 8.1 0.2 4.4-3.9 8.2-8.2 8.2-4.5 0-7.9-3.8-8.1-8.2z"/>
		</g>
		<g id="&lt;Group&gt;">
			<path id="&lt;Path&gt;" class="s3" d="m965.7 497.7c-0.2-4.4 3.9-8.1 8.2-8.1 4.5 0 7.9 3.7 8.1 8.1 0.2 4.4-3.9 8.1-8.1 8.1-4.6 0-8-3.7-8.2-8.1z"/>
		</g>
	</g>
	<g id="cadeau">
		<path id="&lt;Compound Path&gt;" fill-rule="evenodd" class="s4" d="m901.1 637.9c-6.4 2.3-13.1 3.8-19.8 4.5-5.3 2-11 2.7-16.6 3.1-1.2 0.1-1.9-0.7-2.2-1.6q0 0-0.1 0c-2-0.5-4.1-1.1-6.2-1.7-9.5-0.2-18.8-2-27.7-5.4-2.8-1-1.6-5.5 1.3-4.5q6.4 2.4 13 3.7 0 0-0.1 0c-4.1-3.2-6.9-8.9-2.5-13.2 4.4-4.2 10.7-2.3 15 0.9 4.2 3.3 7.6 7.5 10.2 12.1 2.4-4 5.6-7.4 9.6-10 4.6-3 12.7-6.6 17.7-2.3 4.2 3.7 2.5 8.4-0.7 12q4-1 7.9-2.4c2.9-1.1 4.1 3.7 1.2 4.8zm-31.5 0q5.8 0.2 11.6-0.4c2.5-1.1 5-2.5 7-4.4 1.7-1.7 3.7-5.6 0.3-6.7-4.4-1.3-10.3 2.5-13.4 5.1-2.2 1.8-4.1 4-5.5 6.4zm-12.5-0.4q2 0 3.9-0.1c-1.7-2.7-3.5-5.2-5.8-7.5-2.6-2.5-7.1-6.5-10.9-4.3-5.2 3 2.6 7.8 5.2 9 2.5 1.1 5 2.1 7.6 2.9z"/>
		<path id="&lt;Path&gt;" class="s3" d="m916.5 652.5l-5.8 95.6h-88.3l-6-99.7z"/>
		<path id="&lt;Path&gt;" class="s1" d="m812 641.1h110.7l-2.1 17.6-108.6-1.7z"/>
		<g id="&lt;Group&gt;">
			<path id="&lt;Path&gt;" class="s5" d="m870.4 641.1q-2.8 8.3-5.1 16.7l-7.2-0.1q2.2-8.3 4.9-16.6z"/>
		</g>
	</g>
	<g id="Layer">
		<path id="Layer" class="s6" d="m183.7 65.7l-2.6 43.2q0 0 0 0.1 0 0 0 0.1 0 0 0 0-0.1 0.1-0.1 0.1l-0.2 1.3-31.3 6.8-0.4 0.5q0 0-0.1 0.1 0 0.1-0.1 0.1 0 0.1-0.1 0.2 0 0-0.1 0.1l-0.8 1q-0.2 0.2-0.4 0.5-0.2 0.3-0.4 0.5-0.2 0.3-0.4 0.5-0.2 0.2-0.4 0.5l-1.7 1.9q-0.9 0.9-1.8 1.8l-0.5 0.5q-0.2 0.2-0.4 0.4l-1 0.9-1 0.9-0.5 0.4q-0.2 0.2-0.4 0.4l-2 1.7-0.3 0.2-0.3 0.2-0.5 0.4-1 0.9q-0.1 0.1-0.2 0.2-0.1 0.1-0.3 0.2-0.1 0.1-0.2 0.2-0.1 0.1-0.3 0.2l-1.1 0.8-1 0.7-0.6 0.4-0.5 0.3-2.3 1.4-0.3 0.2-0.2 0.1-0.6 0.3-1.2 0.7-1.1 0.6-1.2 0.6-1.2 0.6-0.6 0.3-0.6 0.2-2.4 1-0.4 0.2-0.3 0.1-0.6 0.2-1.2 0.5-1.3 0.4-1.3 0.4-1.2 0.4-0.7 0.2-0.6 0.2-2.6 0.7-0.3 0.1-0.3 0.1-0.7 0.1-1.3 0.3q-0.7 0.1-1.3 0.2l-1.4 0.3-1.3 0.2-0.6 0.1-0.7 0.1-2.7 0.3h-1.3-1.4l-1.3 0.1h-4l-2.7-0.1h-0.7l-0.6-0.1-1.4-0.1-1.3-0.1q-0.1 0-0.2 0-0.1 0-0.2 0-0.1 0-0.1-0.1-0.1 0-0.2 0l-0.7-0.1-2.7-0.4-2.6-0.5-0.6-0.1q-0.3-0.1-0.7-0.2l-1.3-0.3-1.3-0.3-0.7-0.2-0.6-0.2-2.6-0.8c-0.4-0.1-0.8-0.3-1.3-0.4l-1.2-0.5-1.3-0.4-1.2-0.6-1.3-0.5-0.6-0.2-0.3-0.2-0.3-0.1-2.4-1.2q-0.3-0.1-0.6-0.3l-0.6-0.3-1.2-0.6-1.2-0.7-1.1-0.7-1.2-0.7-0.5-0.3-0.3-0.2-0.3-0.2-2.2-1.5-0.6-0.4-0.5-0.4-1.1-0.8-1-0.8-1-0.8-1-0.9-0.5-0.4-0.3-0.2-0.2-0.3-2-1.8q-0.3-0.2-0.5-0.4l-0.5-0.5-0.9-1-0.9-0.9-0.9-1-0.9-1-0.4-0.5-0.3-0.3-0.2-0.2-1.6-2q-0.2-0.3-0.4-0.5l-0.4-0.6-0.8-1-30.3-6.9-0.2-1.6-2.4-43.4-0.1-3q6.2-0.1 12.4-0.2h10.1c2.2-17 10.5-32.6 23.3-43.8 12.9-11.3 29.4-17.4 46.5-17.3 17.1 0.2 33.5 6.5 46.2 18 12.7 11.4 20.8 27.1 22.7 44.1l10.1 0.2q6.3 0.2 12.6 0.5c-0.1 1-0.1 2-0.2 2.9z"/>
		<path id="Layer" class="s7" d="m181.1 108.9q0 0 0 0.1 0 0 0 0.1 0 0 0 0-0.1 0.1-0.1 0.1l-0.2 1.3-31.3 6.8-0.4 0.5q0 0-0.1 0.1 0 0.1-0.1 0.1 0 0.1-0.1 0.2 0 0-0.1 0.1l-0.8 1q-0.2 0.2-0.4 0.5-0.2 0.3-0.4 0.5-0.2 0.3-0.4 0.5-0.2 0.2-0.4 0.5l-1.7 1.9q-0.9 0.9-1.8 1.8l-0.5 0.5q-0.2 0.2-0.4 0.4l-1 0.9-1 0.9-0.5 0.4q-0.2 0.2-0.5 0.4l-2 1.7-0.2 0.2-0.3 0.2-0.5 0.4-1 0.9q-0.1 0.1-0.2 0.2-0.1 0.1-0.3 0.2-0.1 0.1-0.2 0.2-0.1 0.1-0.3 0.2l-1.1 0.8-1 0.7-0.6 0.4-0.5 0.3-2.3 1.4-0.3 0.2-0.2 0.1-0.6 0.3-1.2 0.7-1.1 0.6-1.2 0.6-1.2 0.6-0.6 0.3-0.6 0.2-2.5 1-0.3 0.2-0.3 0.1-0.6 0.2-1.2 0.5-1.3 0.4-1.3 0.4-1.2 0.4-0.7 0.2-0.6 0.2-2.6 0.7-0.3 0.1-0.4 0.1-0.6 0.1-1.3 0.3q-0.7 0.1-1.3 0.2l-1.4 0.3-1.3 0.2-0.6 0.1-0.7 0.1-2.7 0.3h-1.3-1.4l-1.3 0.1h-4l-2.7-0.1h-0.7l-0.6-0.1-1.4-0.1-1.3-0.1q-0.1 0-0.2 0-0.1 0-0.2 0-0.1 0-0.1-0.1-0.1 0-0.2 0l-0.7-0.1-2.7-0.4-2.6-0.5-0.6-0.1q-0.3-0.1-0.7-0.2l-1.3-0.3-1.3-0.3-0.7-0.2-0.6-0.2-2.6-0.8c-0.4-0.1-0.8-0.3-1.3-0.4l-1.2-0.5-1.3-0.4-1.2-0.6-1.3-0.5-0.6-0.2-0.3-0.2-0.3-0.1-2.4-1.2q-0.3-0.1-0.6-0.3l-0.6-0.3-1.2-0.6-1.2-0.7-1.1-0.7-1.2-0.7-0.5-0.3-0.3-0.2-0.3-0.2-2.2-1.5-0.6-0.4-0.5-0.4-1.1-0.8-1-0.8-1-0.8-1-0.9-0.5-0.4-0.3-0.2-0.2-0.3-2-1.8q-0.3-0.2-0.5-0.4l-0.5-0.5-0.9-1-0.9-0.9-0.9-1-0.9-1-0.4-0.5-0.3-0.3-0.2-0.2-1.6-2q-0.2-0.3-0.4-0.5l-0.4-0.6-0.8-1-30.3-6.7-0.1-1.7c9.5 0.1 35-0.3 35-0.3-3.7 0.5-3.3 1.2-6.1 1.5l1 1.5 0.1 0.2 0.2 0.3 0.4 0.5 0.7 1q0.3 0.5 0.7 1l0.7 1 0.8 1 0.4 0.5q0.2 0.3 0.4 0.5l1.6 2 0.2 0.2 0.2 0.2 0.4 0.5 0.9 0.9q0.4 0.5 0.8 1l0.9 0.9 0.9 0.9 0.5 0.4q0.2 0.2 0.5 0.4l1.9 1.7 0.2 0.3 0.2 0.2 0.5 0.4 1 0.8 1 0.8 1 0.7 1 0.8 0.5 0.4q0.3 0.2 0.6 0.3l2.1 1.5 0.3 0.1 0.2 0.2 0.6 0.3 1.1 0.7q0.5 0.3 1.1 0.6l1.1 0.7 1.1 0.6 0.6 0.3q0.3 0.1 0.6 0.2l2.3 1.2 0.3 0.1 0.3 0.1 0.6 0.3 1.2 0.5 1.2 0.4 1.2 0.5 1.2 0.4c0.4 0.2 0.8 0.3 1.2 0.4l2.4 0.8 0.6 0.2 0.7 0.1 1.2 0.3 1.2 0.3q0.1 0.1 0.2 0.1 0.1 0 0.1 0 0.1 0 0.2 0 0.1 0.1 0.2 0.1l0.6 0.1 2.6 0.5 2.5 0.3 0.6 0.1h0.7l1.3 0.2 1.3 0.1 0.6 0.1h0.7l2.5 0.1h3.9l1.2-0.1 1.3-0.1h1.3l2.6-0.2q0-0.1 0.1-0.1 0.1 0 0.2 0 0.1 0 0.1 0 0.1 0 0.2 0l0.6-0.1 1.3-0.2 1.4-0.1 1.2-0.3 1.3-0.2 0.6-0.2h0.3l0.3-0.1 2.5-0.6 0.6-0.2 0.6-0.2 1.2-0.4 1.3-0.3 1.2-0.5 1.2-0.4 0.6-0.2 0.3-0.1 0.3-0.2 2.3-1q0.1 0 0.1 0 0.1 0 0.2-0.1 0.1 0 0.1 0 0.1-0.1 0.2-0.1l0.6-0.3 1.1-0.5 1.2-0.6 1.1-0.6 1.1-0.6 0.6-0.3 0.2-0.1 0.3-0.2 2.2-1.3q0.3-0.1 0.5-0.3l0.6-0.3 1-0.7 1-0.7 1-0.8 1-0.7 0.5-0.4 0.3-0.2 0.2-0.2 2-1.5q1.8-1.6 3.6-3.3 1.8-1.7 3.5-3.5 1.6-1.9 3.2-3.8 1.5-1.9 2.9-4 0.3-0.5 0.7-1l0.6-0.9-5.8-1.6c12-0.1 23.1 0.3 35.1 0.5z"/>
		<g id="Layer">
			<path id="Layer" fill-rule="evenodd" class="s7" d="m45.3 107.6q0.2 0.1 0.4 0.3 0.1 0.1 0.2 0.4 0.1 0.2 0 0.4 0 0.1 0 0.3 0 0.1-0.1 0.3-0.1 0.1-0.2 0.2 0 0.2-0.2 0.3-0.1 0.1-0.3 0.2-0.2 0-0.3 0.1-0.2 0-0.4 0-0.2 0.1-0.3 0.1h-1.5v-5h1.6q1.6 0 1.6 1.1 0 0.2 0 0.4-0.1 0.2-0.2 0.4-0.1 0.1-0.3 0.2-0.2 0.1-0.4 0.2 0.3 0 0.4 0.1zm-2.1-0.3h0.5q0.1 0 0.2 0 0.1 0 0.3 0 0.1-0.1 0.2-0.1 0.1 0 0.3 0 0.1-0.1 0.2-0.1 0.1-0.1 0.2-0.2 0.1-0.1 0.1-0.2 0.1-0.2 0.1-0.3 0-0.1 0-0.2-0.1 0-0.1-0.1 0-0.1-0.1-0.2 0 0-0.1-0.1 0 0-0.1-0.1-0.1 0-0.2 0 0-0.1-0.1-0.1-0.1 0-0.2 0h-1.2zm2.2 1.5q0-0.1 0-0.2 0-0.1-0.1-0.2 0-0.1 0-0.1-0.1-0.1-0.1-0.2-0.1 0-0.1-0.1-0.1 0-0.2 0 0-0.1-0.1-0.1-0.1 0-0.1 0-0.1-0.1-0.3-0.1-0.1 0-0.2 0-0.1 0-0.2 0-0.2 0-0.3 0h-0.5v2h0.7q1.5 0 1.5-1z"/>
			<path id="Layer" class="s7" d="m51.8 105.2h0.5v2.8q0 0.3 0 0.5 0 0.2-0.1 0.5-0.1 0.2-0.2 0.4-0.1 0.2-0.2 0.4-0.4 0.3-0.8 0.4-0.4 0.2-0.8 0.2-0.4 0-0.9-0.2-0.4-0.1-0.7-0.4-0.1-0.2-0.2-0.4-0.1-0.2-0.2-0.4-0.1-0.3-0.1-0.5 0-0.2 0-0.5v-2.8h0.6v2.9q0 1.7 1.5 1.7c1.1 0 1.6-0.6 1.6-2z"/>
			<path id="Layer" class="s7" d="m55.2 105.3v4.4h2.6v0.6h-3.2v-5h0.6z"/>
			<path id="Layer" class="s7" d="m60.3 105.3v4.5h2.6v0.5h-3.2v-5h0.6z"/>
			<path id="Layer" class="s7" d="m65.4 108v1.8h2.3v0.5h-2.9v-5h2.9v0.5h-2.3v1.7h2v0.5h-2z"/>
			<path id="Layer" class="s7" d="m72.1 110.3q-0.1 0.1-0.3 0.1-0.1 0.1-0.3 0.1-0.2 0-0.3 0-0.2 0-0.4 0-0.2-0.1-0.4-0.1-0.2-0.1-0.3-0.1-0.2-0.1-0.4-0.2l-0.1-0.7q0.2 0.2 0.4 0.3 0.2 0.1 0.4 0.1 0.2 0.1 0.4 0.1 0.2 0.1 0.4 0.1 0.1 0 0.2 0 0.1 0 0.2-0.1 0.1 0 0.2-0.1 0.1 0 0.2-0.1 0.1 0 0.1-0.1 0.1-0.1 0.1-0.1 0.1-0.1 0.1-0.2 0-0.1 0-0.2 0-0.1 0-0.2 0-0.1-0.1-0.2 0-0.1-0.1-0.1 0-0.1-0.1-0.2-0.1 0-0.2-0.1-0.2-0.1-0.3-0.1-0.1-0.1-0.2-0.1-0.2-0.1-0.3-0.1-0.1 0-0.2-0.1-0.2-0.1-0.3-0.1-0.1-0.1-0.2-0.2-0.1 0-0.2-0.1-0.1-0.1-0.2-0.2-0.1-0.1-0.2-0.3 0-0.1 0-0.2-0.1-0.2-0.1-0.3 0-0.1 0.1-0.3 0-0.1 0.1-0.2 0-0.2 0.1-0.3 0.1-0.1 0.2-0.1 0.1-0.1 0.2-0.2 0.2-0.1 0.3-0.1 0.2-0.1 0.3-0.1 0.1 0 0.3 0 0.2 0 0.3 0 0.2 0.1 0.4 0.1 0.1 0 0.3 0.1 0.1 0.1 0.3 0.2v0.6q0 0-0.1 0 0 0 0-0.1 0 0-0.1 0 0 0 0 0-0.1-0.1-0.2-0.2-0.2 0-0.3-0.1-0.2 0-0.3 0-0.1-0.1-0.3-0.1-0.9 0-0.9 0.8 0 0 0 0.1 0 0.1 0 0.2 0.1 0 0.1 0.1 0.1 0.1 0.1 0.1 0.1 0.1 0.2 0.2 0.1 0 0.2 0.1 0.2 0.1 0.3 0.1 0.1 0.1 0.2 0.1 0.2 0.1 0.3 0.1 0.1 0.1 0.2 0.1 0.2 0.1 0.3 0.2 0.1 0.1 0.2 0.1 0.2 0.2 0.4 0.5 0.1 0.3 0.1 0.6 0 0.3-0.1 0.6-0.2 0.2-0.4 0.4-0.1 0.1-0.3 0.2z"/>
			<path id="Layer" fill-rule="evenodd" class="s7" d="m81.6 109.8q-0.2 0.1-0.4 0.3-0.2 0.1-0.5 0.2-0.3 0.1-0.5 0.1-0.3 0-0.6 0h-1.5v-5h1.5q0.3 0 0.5 0.1 0.3 0 0.6 0.1 0.2 0.1 0.4 0.2 0.3 0.2 0.5 0.3 0.4 0.4 0.6 0.8 0.2 0.5 0.2 1 0 0.5-0.2 1-0.2 0.4-0.5 0.8zm-2.1 0.2q0.2 0 0.4 0 0.2 0 0.4-0.1 0.3-0.1 0.5-0.2 0.2-0.1 0.3-0.2 0.2-0.2 0.3-0.3 0.1-0.2 0.2-0.4 0.1-0.2 0.1-0.4 0-0.2 0-0.4 0.1-0.2 0-0.4 0-0.2-0.1-0.4-0.1-0.2-0.2-0.4-0.1-0.1-0.3-0.3-0.2-0.1-0.4-0.2-0.1-0.1-0.4-0.2-0.2-0.1-0.4-0.1-0.2 0-0.4 0h-0.9v4h0.9z"/>
			<path id="Layer" class="s7" d="m87.4 106h-2.4v1.6h2v0.5h-2v1.9h2.4v0.5h-3v-5h3v0.5z"/>
			<path id="Layer" class="s7" d="m94.1 110.2q0.2 0 0.3-0.1 0.1 0 0.2-0.1 0.1 0 0.1-0.1 0.2-0.1 0.2-0.2 0.1-0.2 0.1-0.4 0.1-0.1 0-0.3-0.1-0.1-0.2-0.3 0 0 0 0 0 0 0 0 0 0 0-0.1 0 0-0.1 0-0.1-0.1-0.2-0.1-0.1-0.1-0.2-0.2-0.1 0-0.2-0.1-0.2 0-0.3-0.1-0.1 0-0.2-0.1-0.1 0-0.3-0.1-0.1-0.1-0.2-0.1-0.1-0.1-0.2-0.2-0.1-0.1-0.2-0.2-0.1-0.1-0.1-0.2-0.1-0.2-0.1-0.3 0-0.1 0-0.3 0-0.1 0-0.2 0-0.2 0.1-0.3 0-0.1 0.1-0.2 0.1-0.1 0.2-0.2 0.1-0.1 0.2-0.2 0.2 0 0.3-0.1 0.2 0 0.3 0 0.2-0.1 0.3 0 0.2 0 0.3 0 0.2 0 0.4 0.1 0.1 0 0.3 0.1 0.1 0 0.2 0.1v0.7q0 0 0 0 0-0.1 0-0.1-0.1 0-0.1 0 0 0 0-0.1-0.2 0-0.3-0.1-0.1-0.1-0.3-0.1-0.1 0-0.2-0.1-0.2 0-0.3 0-1 0-1 0.7 0 0.1 0 0.2 0.1 0.1 0.1 0.1 0 0.1 0.1 0.2 0 0 0.1 0.1 0.1 0.1 0.2 0.1 0.1 0.1 0.2 0.2 0.1 0.1 0.2 0.1 0.2 0.1 0.3 0.1 0.1 0 0.2 0.1 0.2 0.1 0.3 0.1 0.1 0.1 0.2 0.2 0.2 0 0.3 0.1 0.1 0.1 0.2 0.2 0.1 0.2 0.1 0.3 0.1 0.2 0.1 0.3 0.1 0.2 0 0.3 0.1 0.2 0 0.3 0 0.1-0.1 0.3 0 0.1-0.1 0.2-0.1 0.1-0.2 0.2-0.1 0.1-0.3 0.2-0.1 0.1-0.3 0.1-0.2 0.1-0.3 0.1-0.2 0-0.4 0-0.2 0-0.4 0-0.1-0.1-0.3-0.1-0.2-0.1-0.4-0.1-0.2-0.1-0.3-0.2l-0.1-0.7q0.2 0.2 0.3 0.3 0.2 0 0.4 0.1 0.2 0.1 0.4 0.1 0.2 0.1 0.4 0.1 0.1 0 0.2 0z"/>
			<path id="Layer" class="s7" d="m99.3 104.2h0.7l-0.9 1h-0.5l0.7-1z"/>
			<path id="Layer" class="s7" d="m97.7 110.6v-5h2.9v0.5h-2.3v1.6h2v0.6h-2v1.8h2.4v0.5h-3z"/>
			<path id="Layer" fill-rule="evenodd" class="s7" d="m106.9 107.1q0.2 0.5 0.2 1 0 0.5-0.2 1-0.2 0.5-0.5 0.8-0.2 0.2-0.5 0.4-0.2 0.1-0.5 0.2-0.2 0.1-0.5 0.1-0.3 0-0.6 0h-1.4v-5h1.4q0.3 0 0.6 0.1 0.2 0 0.5 0.1 0.3 0.1 0.5 0.2 0.2 0.1 0.4 0.3 0.4 0.4 0.6 0.8zm-0.7 2.2q0.1-0.2 0.2-0.4 0.1-0.2 0.1-0.4 0.1-0.2 0.1-0.4 0-0.2-0.1-0.4 0-0.2-0.1-0.4 0-0.1-0.2-0.3-0.1-0.2-0.2-0.3-0.2-0.1-0.4-0.3-0.2-0.1-0.4-0.1-0.2-0.1-0.5-0.1-0.2-0.1-0.4-0.1h-0.9v4h0.9q0.2 0 0.4 0 0.2 0 0.4-0.1 0.3-0.1 0.5-0.2 0.2-0.1 0.3-0.2 0.2-0.2 0.3-0.3z"/>
			<path id="Layer" class="s7" d="m109.8 105.6v3q0 1.7 1.5 1.7 1.6 0 1.6-2v-2.7h0.5v2.9q0 0.2 0 0.5 0 0.2-0.1 0.4-0.1 0.2-0.2 0.4-0.1 0.2-0.2 0.4-0.4 0.3-0.8 0.5-0.4 0.1-0.8 0.1-0.4 0-0.8-0.1-0.5-0.2-0.8-0.5-0.1-0.2-0.2-0.4-0.1-0.2-0.2-0.4-0.1-0.2-0.1-0.4 0-0.3 0-0.5v-2.8z"/>
			<path id="Layer" class="s7" d="m119.4 110.6q-0.2 0.1-0.3 0.1-0.2 0.1-0.4 0.1-0.2 0.1-0.3 0.1-0.2 0-0.4 0-0.2 0-0.5-0.1-0.3 0-0.5-0.1-0.3-0.1-0.5-0.2-0.2-0.2-0.4-0.4-0.2-0.2-0.3-0.4-0.1-0.2-0.2-0.5-0.1-0.2-0.2-0.5 0-0.2 0-0.5 0-0.3 0-0.5 0.1-0.3 0.2-0.5 0.1-0.3 0.2-0.5 0.2-0.2 0.4-0.4 0.1-0.2 0.3-0.3 0.3-0.2 0.5-0.3 0.2-0.1 0.5-0.1 0.3-0.1 0.5-0.1 0.1 0 0.2 0 0.1 0.1 0.2 0.1 0.1 0 0.2 0 0.1 0 0.1 0 0.2 0.1 0.3 0.1 0.1 0 0.2 0.1 0.1 0 0.2 0.1 0.1 0 0.2 0.1l-0.1 0.6-0.2-0.2q-0.2-0.1-0.3-0.1-0.2-0.1-0.3-0.1-0.2-0.1-0.3-0.1-0.2 0-0.4 0-0.2 0-0.4 0-0.2 0-0.3 0.1-0.2 0.1-0.4 0.2-0.2 0.1-0.3 0.2-0.2 0.2-0.3 0.4-0.1 0.2-0.2 0.4 0 0.2-0.1 0.4 0 0.2 0 0.4 0 0.2 0 0.4 0.1 0.2 0.1 0.4 0.1 0.2 0.2 0.4 0.1 0.2 0.3 0.3 0.1 0.2 0.3 0.3 0.1 0.1 0.3 0.2 0.2 0.1 0.4 0.1 0.2 0.1 0.4 0.1 0.1 0 0.2 0 0.1-0.1 0.2-0.1 0.1 0 0.2 0 0.1 0 0.1 0 0.2-0.1 0.3-0.1 0.1-0.1 0.2-0.2 0.1 0 0.2-0.1 0.1-0.1 0.2-0.2v0.8z"/>
			<path id="Layer" class="s7" d="m121.4 106.3v-0.5h4.3v0.5h-1.9v4.5h-0.5v-4.5h-1.9z"/>
			<path id="Layer" class="s7" d="m127.6 105.8h0.6v5h-0.6z"/>
			<path id="Layer" fill-rule="evenodd" class="s7" d="m133.4 105.7q0.2 0.1 0.4 0.2 0.2 0.1 0.4 0.2 0.2 0.2 0.4 0.4 0.2 0.2 0.3 0.4 0.1 0.2 0.2 0.5 0.1 0.2 0.2 0.5 0 0.2 0 0.5 0 0.2 0 0.5-0.1 0.3-0.2 0.5-0.1 0.2-0.2 0.5-0.1 0.2-0.3 0.4-0.3 0.3-0.8 0.5-0.4 0.2-0.9 0.2-0.5 0.1-0.9-0.1-0.5-0.2-0.8-0.5l-0.1-0.1q-0.2-0.2-0.3-0.4-0.2-0.3-0.3-0.5-0.1-0.3-0.1-0.5 0-0.3 0-0.6 0-0.2 0-0.5 0.1-0.2 0.2-0.5 0-0.2 0.2-0.4 0.1-0.3 0.3-0.5 0.2-0.1 0.4-0.3 0.2-0.1 0.4-0.2 0.2-0.1 0.5-0.2 0.2 0 0.5 0 0.2 0 0.5 0zm1.1 3.5q0.2-0.4 0.2-0.9 0-0.4-0.2-0.8-0.1-0.4-0.4-0.7-0.2-0.3-0.5-0.4-0.3-0.2-0.7-0.2-0.3 0-0.7 0.1-0.3 0.1-0.6 0.4 0 0 0 0 0 0-0.1 0 0 0 0 0.1 0 0 0 0-0.2 0.2-0.3 0.3-0.1 0.2-0.1 0.4-0.1 0.2-0.1 0.4 0 0.2 0 0.4 0 0.2 0 0.5 0 0.2 0.1 0.4 0.1 0.2 0.2 0.3 0 0.2 0.2 0.4 0.2 0.3 0.5 0.4 0.4 0.2 0.7 0.2 0.4 0 0.7-0.1 0.4-0.1 0.6-0.4 0.1 0 0.1 0 0 0 0 0 0-0.1 0-0.1 0.1 0 0.1 0 0.2-0.3 0.3-0.7z"/>
			<path id="Layer" class="s7" d="m141.1 109.8v-3.9h0.5v5.2h-0.1l-3.6-4.1v3.9h-0.6v-5.2h0.1l3.7 4.1z"/>
			<path id="Layer" class="s7" d="m88.2 34q0 0 0 0.1 0 0 0 0 0 0.1 0 0.1l-0.1-0.3q0 0 0.1 0.1z"/>
			<path id="Layer" class="s7" d="m102.8 47.1q0 0.1 0 0.1 0 0.1 0.1 0.1 0 0 0 0.1 0 0.1 0 0.1 0 0 0 0 0.1 0 0.1 0 0 0.1 0 0.1c0.1 0.1 0.2 0.2 0.2 0.3v0.2 0.1q0 0.1 0.1 0.2 0 0.1 0 0.1 0 0.1 0 0.2 0 0.1 0 0.2 0 0.1 0 0.2 0 0.1 0 0.3 0 0.1 0 0.2-0.1 0.1-0.1 0.3 0 0.1-0.1 0.1 0 0.1-0.1 0.2 0 0.1-0.1 0.2 0 0.1-0.1 0.2 0 0 0 0 0 0.1 0 0.1-0.1 0-0.1 0.1 0 0 0 0l-0.2 0.2 0.2-0.2c0-0.1 0.1-0.2 0.1-0.2q0.1-0.1 0.1-0.2 0-0.1 0.1-0.2 0-0.1 0-0.2 0.1-0.1 0.1-0.2 0-0.1 0-0.2 0-0.1 0-0.3 0-0.1 0-0.2-0.1-0.2-0.1-0.3 0 0-0.1-0.1 0-0.1 0-0.1 0-0.1-0.1-0.1 0-0.1 0-0.2-0.1 0-0.1-0.1-0.1 0-0.1-0.1-0.1 0-0.1-0.1-0.1 0-0.1-0.1l-0.1-0.1h-0.1c-0.1-0.1-0.2-0.2-0.2-0.2q-0.1 0-0.2 0 0 0-0.1-0.1-0.1 0-0.2 0 0 0-0.1 0-0.1 0-0.1-0.1-0.1 0-0.2 0 0 0-0.1 0-0.1 0.1-0.2 0.1 0 0-0.1 0-0.1 0-0.1 0-0.1 0-0.2 0 0 0-0.1 0-0.1 0.1-0.1 0.1-0.1 0-0.1 0-0.1 0.1-0.2 0.1 0 0-0.1 0l-0.2 0.2-0.2 0.1-0.1 0.1-0.1 0.2c0 0.1-0.1 0.2-0.1 0.2q-0.1 0.1-0.1 0.1 0 0 0 0.1 0 0 0 0 0 0.1 0 0.1-0.1 0.1-0.1 0.1 0 0.1 0 0.1 0 0.1 0 0.2-0.1 0-0.1 0.1 0 0.1 0 0.1 0 0.1 0 0.2 0 0 0 0.1 0 0.1 0 0.1v0.2q0 0 0 0 0 0 0 0 0 0.1 0 0.1 0 0 0 0v0.3q0.1 0 0.1 0 0 0.1 0 0.1 0 0 0.1 0.1 0 0 0 0v0.1q0 0 0 0 0 0 0.1 0.1 0 0 0 0 0 0 0 0 0.1 0.1 0.2 0.2 0.1 0.1 0.2 0.2 0.1 0.1 0.3 0.1 0.1 0.1 0.2 0.1 0.2 0.1 0.3 0.1 0.1 0 0.2 0.1 0.1 0 0.3 0 0.1 0 0.2 0 0.1-0.1 0.2-0.1 0.1 0 0.2 0 0.1 0 0.2-0.1 0.1 0 0.2-0.1 0 0 0.1 0 0 0 0 0 0.1 0 0.1-0.1 0 0 0 0 0.1 0 0.1 0 0 0 0-0.1 0.1 0 0.1 0 0 0 0 0l0.2-0.1-0.2 0.1-0.1 0.1-0.3 0.2q-0.2 0.1-0.4 0.2-0.2 0.1-0.5 0.1-0.2 0-0.5 0.1-0.2 0-0.4 0-0.2-0.1-0.4-0.1-0.1 0-0.3-0.1-0.2 0-0.3-0.1-0.2-0.1-0.3-0.2 0 0-0.1 0 0 0 0 0 0 0 0 0-0.1 0-0.1-0.1h-0.1q0 0 0-0.1-0.1 0-0.1 0 0-0.1-0.1-0.1 0 0 0-0.1c-0.1 0-0.2-0.1-0.2-0.1l-0.1-0.2q0 0-0.1-0.1 0 0 0-0.1-0.1 0-0.1 0 0-0.1 0-0.1-0.1-0.2-0.2-0.5-0.1-0.2-0.1-0.4-0.1-0.2-0.1-0.4 0-0.3 0.1-0.5 0-0.1 0-0.2 0-0.1 0.1-0.3 0-0.1 0.1-0.2 0-0.1 0.1-0.2 0-0.1 0-0.1 0.1-0.1 0.1-0.1 0-0.1 0.1-0.1 0-0.1 0-0.1l0.2-0.2 0.2-0.1 0.1 0.1 0.2-0.1 0.2-0.1q0-0.1 0.1-0.1 0 0 0.1-0.1 0 0 0.1 0 0 0 0.1-0.1 0.1 0 0.2-0.1 0.2 0 0.3 0 0.1-0.1 0.2-0.1 0.2 0 0.3 0 0.1-0.1 0.2-0.1 0.2 0 0.3 0 0.1 0 0.3 0 0.1 0 0.2 0.1 0.1 0 0.2 0 0.1 0 0.2 0.1 0.1 0 0.2 0.1 0.1 0 0.3 0.1 0 0 0.1 0.1 0.1 0 0.2 0.1 0.1 0.1 0.2 0.1 0.1 0.1 0.1 0.2 0.1 0 0.1 0z"/>
			<path id="Layer" class="s7" d="m85.4 45.3q0.9-0.3 1.9-0.2 1 0 1.9 0.5 0.9 0.4 1.6 1.1 0.7 0.7 1 1.6 0.4 0.8 0.4 1.8 0 0.9-0.4 1.8-0.3 0.9-1 1.6 0.5-0.7 0.6-1.4 0.2-0.8 0.1-1.6 0-0.8-0.4-1.5-0.4-0.7-0.9-1.2-0.7-0.6-1.4-0.9-0.8-0.3-1.6-0.4-0.8 0-1.6 0.2-0.8 0.2-1.5 0.7-0.6 0.4-1.1 1.1-0.4 0.6-0.6 1.4-0.2 0.8-0.2 1.6 0.1 0.7 0.5 1.5-0.6-0.8-0.8-1.7-0.2-1-0.1-1.9 0.2-1 0.6-1.8 0.5-0.8 1.3-1.4 0.7-0.6 1.7-0.9z"/>
			<path id="Layer" class="s7" d="m84.5 21.1q0.1 0.1 0.1 0.2 0.1 0.1 0.1 0.3 0 0.1 0.1 0.2 0 0.1 0 0.2 0 0.1 0 0.2 0 0 0 0.1 0 0.1 0 0.2 0-0.1 0-0.2-0.1-0.1-0.1-0.2 0-0.1 0-0.2 0-0.1 0-0.2-0.1-0.1-0.1-0.2 0-0.1-0.1-0.2 0-0.1 0-0.2-0.1-0.1-0.1-0.2 0.1 0.1 0.1 0.2z"/>
			<path id="Layer" class="s7" d="m84.3 20.7c0.1 0 0.1 0.1 0.1 0.2q0-0.1 0-0.1 0 0 0 0-0.1-0.1-0.1-0.1 0 0 0 0l-0.1-0.3-0.1-0.1q-0.1-0.1-0.1-0.1 0 0-0.1-0.1 0 0 0 0 0-0.1-0.1-0.1l0.3 0.3 0.1 0.2c0 0 0.1 0.1 0.1 0.2z"/>
			<path id="Layer" class="s7" d="m84.7 23.2q0-0.1 0-0.2 0.1-0.2 0.1-0.3 0-0.1 0-0.2 0 0.4 0 0.7-0.1 0.4-0.2 0.8 0 0.3-0.2 0.6-0.2 0.4-0.4 0.7 0 0.1-0.1 0.2l-0.1 0.1v0.1h-0.1c-0.1 0.2-0.2 0.3-0.4 0.4q0 0-0.1 0.1 0 0 0 0-0.1 0-0.1 0.1 0 0 0 0l-0.3 0.2-0.3 0.2-0.3 0.1q-0.1 0.1-0.3 0.1-0.1 0.1-0.3 0.1-0.2 0.1-0.3 0.1-0.2 0.1-0.3 0.1-0.2 0-0.4 0-0.2 0-0.3 0-0.2 0-0.4 0-0.2 0-0.3 0-0.2 0-0.4-0.1-0.2 0-0.3-0.1-0.2 0-0.4-0.1-0.1-0.1-0.3-0.1l-0.3-0.2-0.3-0.2-0.3-0.2-0.2-0.1v-0.1l-0.2-0.2-0.1-0.1-0.2-0.2q-0.1-0.1-0.2-0.3l-0.2-0.3q0-0.1-0.1-0.3-0.1-0.1-0.1-0.3-0.1-0.2-0.1-0.3-0.1-0.2-0.1-0.4 0-0.1-0.1-0.3 0-0.2 0-0.3 0-0.2 0-0.4 0.1-0.1 0.1-0.3 0-0.2 0-0.3 0.1-0.2 0.1-0.3 0.1-0.2 0.1-0.3 0.1-0.2 0.2-0.3 0-0.2 0.1-0.3 0.1-0.1 0.2-0.3 0.1-0.1 0.2-0.2 0-0.1 0.2-0.2 0.2-0.3 0.4-0.4l0.1-0.1 0.1-0.1 0.2-0.1q0.1-0.1 0.2-0.1 0-0.1 0.1-0.1 0 0 0.1-0.1 0.1 0 0.1 0l0.3-0.1 0.2-0.1q0.2-0.1 0.3-0.1 0.1-0.1 0.2-0.1 0.2 0 0.3 0 0.1-0.1 0.2-0.1 0.3 0 0.5 0 0.2 0 0.4 0 0.2 0 0.4 0 0.3 0.1 0.5 0.1 0.1 0.1 0.3 0.1 0.2 0.1 0.3 0.1 0.2 0.1 0.3 0.1 0.2 0.1 0.3 0.2l0.2 0.1 0.2 0.2q0 0 0.1 0 0 0 0.1 0.1 0 0 0 0 0.1 0 0.1 0.1l0.2 0.2-0.2-0.2-0.3-0.2-0.2-0.2-0.2-0.1q-0.2-0.1-0.3-0.1-0.2-0.1-0.3-0.1-0.2-0.1-0.3-0.1-0.2 0-0.3-0.1-0.2 0-0.5 0-0.2 0-0.4 0-0.2 0-0.4 0-0.2 0.1-0.4 0.1-0.1 0.1-0.2 0.1-0.1 0-0.2 0.1-0.1 0-0.2 0.1-0.1 0-0.3 0.1l-0.2 0.1-0.1 0.1q-0.1 0.1-0.1 0.1-0.1 0-0.1 0.1-0.1 0-0.1 0-0.1 0.1-0.1 0.1l-0.2 0.2-0.1 0.2q-0.1 0.2-0.3 0.4 0 0.1-0.1 0.2-0.1 0.1-0.1 0.3-0.1 0.1-0.1 0.2 0 0.1-0.1 0.2v0.3q0 0 0 0 0 0 0 0.1 0 0 0 0 0 0.1 0 0.1v0.5q0 0.1 0 0.2 0 0.2 0 0.3 0 0.1 0 0.2 0.1 0.2 0.1 0.3c0.1 0.1 0 0.1 0.1 0.2 0 0.1 0.1 0.2 0.1 0.3q0 0 0 0 0 0 0 0.1 0 0 0 0 0.1 0 0.1 0.1 0 0 0 0 0 0.1 0 0.1 0 0 0.1 0 0 0.1 0 0.1l0.1 0.2 0.1 0.1 0.1 0.1v0.1q0.1 0 0.1 0 0 0 0 0 0 0 0 0 0 0.1 0 0.1l0.2 0.2 0.1 0.1q0 0 0.1 0 0 0 0 0 0 0.1 0.1 0.1 0 0 0 0 0.1 0 0.1 0.1 0.1 0 0.1 0 0.1 0.1 0.1 0.1 0.1 0 0.1 0.1l0.3 0.1h0.1 0.1q0.1 0.1 0.1 0.1 0.1 0 0.2 0 0 0 0.1 0.1 0 0 0.1 0 0.1 0 0.2 0 0.2 0.1 0.3 0.1 0.1 0 0.2 0 0.2 0 0.3 0h0.5 0.2l0.3-0.1q0 0 0.1 0 0-0.1 0.1-0.1 0 0 0 0 0.1 0 0.1-0.1 0 0 0.1 0 0 0 0 0 0.1 0 0.1 0 0 0 0.1 0l0.2-0.2 0.2-0.1q0.1 0 0.1 0 0.1-0.1 0.1-0.1 0.1 0 0.1-0.1 0.1 0 0.1-0.1h0.1l0.2-0.2q0.2-0.2 0.3-0.4 0.2-0.1 0.3-0.3 0.1-0.2 0.2-0.5 0.1-0.2 0.2-0.4 0-0.1 0-0.2z"/>
			<path id="Layer" class="s7" d="m93 26.1q0 0 0 0 0 0 0 0.1 0 0-0.1 0l0.1-0.2q0 0 0 0.1z"/>
			<path id="Layer" class="s7" d="m93 25.9q0 0 0 0 0 0 0 0.1 0 0 0 0 0 0 0 0 0-0.1 0-0.1 0 0 0 0 0 0 0 0 0 0 0 0z"/>
			<path id="Layer" class="s7" d=""/>
			<path id="Layer" class="s7" d="m102.5 25.3q0.1 0.2 0.1 0.4 0.1 0.2 0.2 0.4 0 0.2 0.1 0.4 0 0.2 0 0.3 0 0.2 0 0.4 0 0.2 0 0.4 0 0.2 0 0.4v0.5l-0.1 0.2-0.1 0.2v0.2l-0.1 0.3q-0.1 0.2-0.2 0.4-0.1 0.1-0.2 0.3-0.1 0.2-0.3 0.3-0.1 0.2-0.2 0.3-0.1 0.1-0.3 0.3-0.1 0.1-0.3 0.2-0.1 0.1-0.3 0.2-0.2 0.1-0.3 0.2-0.2 0.1-0.4 0.2-0.1 0-0.3 0.1-0.2 0.1-0.4 0.1-0.1 0.1-0.3 0.1-0.2 0.1-0.4 0.1-0.1 0-0.3 0-0.2 0-0.4 0-0.2 0-0.3 0-0.1 0-0.2 0-0.1 0-0.2 0 0 0-0.1 0-0.1 0-0.2-0.1h-0.4-0.3q0-0.1-0.1-0.1-0.1 0-0.2 0 0-0.1-0.1-0.1-0.1 0-0.1-0.1l-0.3-0.1-0.3-0.1q-0.1-0.1-0.2-0.2-0.1-0.1-0.2-0.2-0.2 0-0.3-0.1-0.1-0.1-0.2-0.2-0.1-0.2-0.3-0.4-0.2-0.1-0.3-0.3-0.1-0.2-0.2-0.4-0.2-0.2-0.3-0.4 0-0.2-0.1-0.4-0.1-0.1-0.1-0.3-0.1-0.2-0.1-0.4 0-0.1-0.1-0.3 0.1 0.2 0.1 0.3 0.1 0.2 0.1 0.3 0.1 0.2 0.2 0.4 0 0.1 0.1 0.3 0.1 0.1 0.3 0.3 0.1 0.2 0.3 0.4 0.1 0.2 0.3 0.3 0.1 0.2 0.3 0.3 0.1 0.1 0.2 0.1 0.2 0.1 0.3 0.2 0.1 0 0.2 0.1 0.1 0.1 0.2 0.1l0.3 0.1 0.2 0.1q0.1 0 0.2 0 0 0 0.1 0.1 0.1 0 0.1 0 0.1 0 0.2 0h0.5v-0.1h0.2q0.1 0 0.1 0 0.1 0 0.2 0 0.1 0 0.1 0.1 0.1 0 0.2 0 0.1 0 0.3-0.1 0.1 0 0.2 0 0.2 0 0.3 0 0.2-0.1 0.3-0.1l0.3-0.1 0.2-0.1 0.2-0.1 0.1-0.1 0.2-0.1q0.1-0.1 0.3-0.2 0.1-0.1 0.2-0.2 0.1-0.1 0.2-0.2 0.1-0.1 0.2-0.2l0.2-0.3q0-0.1 0.1-0.2l0.1-0.1q0 0 0 0 0-0.1 0-0.1 0 0 0 0 0 0 0 0c0.1-0.1 0.2-0.2 0.2-0.3q0 0 0-0.1 0 0 0 0 0.1-0.1 0.1-0.1 0 0 0-0.1 0 0 0 0 0 0 0 0 0-0.1 0-0.1 0 0 0 0v-0.7q0-0.1 0-0.3 0-0.1 0-0.2 0-0.2 0-0.3 0-0.2 0-0.3 0 0 0-0.1 0 0-0.1 0 0-0.1 0-0.1 0 0 0-0.1v-0.3q0 0 0 0 0-0.1 0-0.1 0 0 0-0.1 0 0-0.1 0l-0.1-0.3q0-0.1-0.1-0.3-0.1-0.1-0.1-0.2-0.1-0.1-0.2-0.3-0.1-0.1-0.2-0.2-0.1-0.1-0.2-0.2l-0.1-0.1-0.1-0.1-0.2-0.2-0.2-0.3q0 0-0.1 0 0 0 0-0.1 0 0-0.1 0 0 0 0 0-0.1 0-0.1-0.1 0 0-0.1 0 0 0 0 0-0.1 0-0.1-0.1l-0.2-0.1-0.3-0.1q-0.1 0-0.2 0 0-0.1-0.1-0.1-0.1 0-0.1 0-0.1 0-0.2-0.1h-0.5q-0.3 0-0.6 0-0.2 0-0.5 0.1-0.3 0-0.5 0.1-0.3 0-0.6 0.1-0.2 0.1-0.4 0.2-0.2 0.1-0.4 0.2-0.2 0.2-0.3 0.3-0.2 0.2-0.4 0.3-0.1 0.2-0.2 0.3-0.1 0.1-0.2 0.3-0.1 0.1-0.2 0.3-0.1 0.1-0.2 0.3c0 0.1 0 0.2-0.1 0.3q0 0 0 0 0 0 0 0 0 0-0.1 0 0 0 0 0.1 0 0 0-0.1 0 0 0 0 0 0 0 0 0 0 0 0 0.1 0 0.1-0.1 0 0 0 0 0-0.1 0-0.1 0 0 0-0.1 0.1-0.1 0.2-0.3 0.1-0.2 0.2-0.3 0.1-0.2 0.2-0.3 0.1-0.2 0.2-0.3 0.1-0.2 0.3-0.3 0.1-0.2 0.3-0.4 0.2-0.1 0.4-0.2 0.1-0.2 0.3-0.3 0.3-0.1 0.6-0.2 0.3-0.2 0.5-0.2 0.3-0.1 0.6-0.2 0.3 0 0.6 0h0.3c0.1 0 0.1 0 0.2 0h0.8q0.1 0 0.1 0.1 0.1 0 0.1 0 0 0 0.1 0 0 0 0.1 0l0.3 0.1q0.1 0 0.1 0 0 0 0.1 0.1 0 0 0.1 0 0 0 0 0 0.1 0 0.1 0.1 0.1 0 0.1 0 0.1 0 0.1 0 0 0 0.1 0.1 0.1 0.1 0.3 0.2 0.2 0 0.3 0.2 0.2 0.1 0.3 0.2 0.1 0.1 0.3 0.2 0.1 0.1 0.2 0.3 0.2 0.1 0.3 0.3 0.1 0.1 0.2 0.3 0.1 0.1 0.2 0.3 0.1 0.2 0.2 0.3z"/>
			<path id="Layer" class="s7" d="m109.8 15.4q0.1 0.1 0.2 0.3 0 0.1 0 0.2 0.1 0.2 0.1 0.3 0.1 0.2 0.1 0.4 0 0.2 0 0.4 0 0.2 0 0.4 0 0.2 0 0.3 0 0.3-0.1 0.5-0.1 0.2-0.1 0.5-0.1 0.2-0.2 0.4-0.2 0.2-0.3 0.4c0 0.1-0.2 0.1-0.2 0.2v0.1 0.1q-0.1 0-0.1 0.1-0.1 0-0.1 0.1-0.1 0-0.1 0.1-0.1 0-0.1 0.1c-0.1 0-0.2 0.1-0.3 0.1l-0.2 0.2q0 0-0.1 0 0 0.1 0 0.1 0 0-0.1 0 0 0-0.1 0.1l-0.2 0.1q-0.2 0-0.3 0.1-0.2 0.1-0.3 0.1-0.2 0-0.3 0.1-0.2 0-0.3 0-0.2 0-0.3 0.1-0.2 0-0.4 0-0.1 0-0.3 0-0.2-0.1-0.3-0.1-0.4 0-0.7-0.1-0.3-0.1-0.6-0.3-0.3-0.1-0.6-0.3-0.2-0.2-0.5-0.4 0-0.1 0-0.1 0 0 0 0 0 0 0 0 0 0-0.1 0l-0.1-0.1v-0.1l-0.1-0.2q-0.2-0.1-0.3-0.3l-0.1-0.2q-0.1-0.2-0.2-0.4 0-0.1-0.1-0.3 0-0.2 0-0.4-0.1-0.1-0.1-0.3 0-0.2 0-0.3 0-0.2 0-0.3 0-0.2 0-0.4 0-0.1 0-0.3 0-0.1 0.1-0.3 0-0.1 0-0.2 0.1-0.2 0.2-0.3 0-0.2 0.1-0.3 0.1-0.2 0.2-0.4 0.1-0.1 0.3-0.3 0.1-0.2 0.2-0.3 0.2-0.2 0.4-0.3l0.1-0.1 0.2-0.1q0.1-0.1 0.1-0.1 0.1 0 0.2-0.1 0 0 0.1 0 0 0 0.1-0.1l0.2-0.1h0.3q0.1-0.1 0.2-0.1 0.1 0 0.2-0.1 0.2 0 0.3 0 0.1 0 0.2 0 0.2-0.1 0.4-0.1 0.2 0 0.4 0 0.2 0.1 0.4 0.1 0.2 0 0.4 0.1 0.1 0 0.3 0.1 0.1 0 0.3 0.1 0.1 0 0.3 0.1 0.1 0.1 0.2 0.1l0.2 0.2 0.2 0.1 0.3 0.2-0.3-0.2-0.2-0.1-0.2-0.1q-0.1-0.1-0.3-0.2-0.1 0-0.2-0.1-0.2 0-0.3-0.1-0.2 0-0.3 0-0.2-0.1-0.4-0.1-0.2 0-0.4 0-0.2 0-0.4 0.1-0.2 0-0.3 0.1-0.1 0-0.2 0-0.1 0-0.2 0.1-0.1 0-0.2 0.1-0.1 0-0.2 0.1l-0.2 0.1-0.2 0.1q0 0-0.1 0.1 0 0-0.1 0 0 0.1-0.1 0.1 0 0 0 0.1-0.1 0-0.1 0 0 0 0 0 0 0.1-0.1 0.1 0 0 0 0l-0.1 0.1q0 0.1-0.1 0.1 0 0 0 0.1-0.1 0-0.1 0.1 0 0 0 0.1-0.1 0.1-0.2 0.2 0 0.1-0.1 0.2 0 0.1-0.1 0.2 0 0.1 0 0.2-0.1 0.2-0.1 0.4 0 0.2 0 0.5 0 0.2 0 0.4 0 0.2 0.1 0.4 0 0.1 0 0.1 0 0.1 0 0.2 0.1 0 0.1 0.1 0 0 0 0.1 0 0 0 0 0.1 0 0.1 0.1 0 0 0 0 0 0 0 0.1c0.1 0 0 0 0.1 0.2 0.1 0.1 0.2 0.2 0.3 0.3v0.1q0 0 0 0 0.1 0 0.1 0 0 0.1 0 0.1 0 0 0 0l0.1 0.1q0.1 0.1 0.2 0.2 0.1 0.1 0.2 0.1 0 0.1 0.1 0.2 0.1 0 0.2 0.1l0.2 0.1 0.2 0.1q0.1 0 0.2 0 0 0 0.1 0.1 0 0 0.1 0 0 0 0.1 0 0.1 0 0.2 0.1 0.1 0 0.3 0 0.1 0 0.2 0 0.1 0 0.2 0h0.7 0.2l0.3-0.1h0.2l0.2-0.1 0.2-0.1q0.1-0.1 0.1-0.1 0.1 0 0.1-0.1 0.1 0 0.1 0 0.1-0.1 0.1-0.1l0.1-0.1 0.2-0.1q0.1-0.2 0.2-0.3 0.2-0.2 0.3-0.4 0.1-0.1 0.2-0.3 0.1-0.2 0.1-0.4 0.1-0.2 0.1-0.4 0.1-0.2 0.1-0.3 0-0.2 0-0.4 0-0.2 0-0.4-0.1-0.1-0.1-0.2 0-0.2-0.1-0.3 0-0.2-0.1-0.3 0-0.1-0.1-0.2c-0.1-0.1-0.1-0.2-0.1-0.2l-0.1-0.2q-0.1 0-0.1-0.1 0 0 0 0-0.1-0.1-0.1-0.1 0 0 0 0l-0.2-0.2 0.2 0.2q0 0 0 0 0 0 0.1 0.1 0 0 0 0 0 0.1 0.1 0.1l0.1 0.2q0 0 0 0 0 0 0 0.1 0.1 0 0.1 0 0 0 0 0 0.1 0.2 0.1 0.3z"/>
			<path id="Layer" class="s7" d="m88.1 7.4q0.1 0.1 0.2 0.2 0 0.1 0.1 0.3 0 0.1 0 0.2 0.1 0.4 0.2 0.8 0 0.4-0.1 0.8-0.1 0.4-0.2 0.7-0.2 0.4-0.4 0.7 0 0 0 0.1 0 0 0 0-0.1 0-0.1 0.1 0 0 0 0l-0.1 0.1v0.1q-0.2 0.2-0.3 0.4l-0.3 0.1-0.2 0.2-0.2 0.1c-0.1 0.1-0.2 0.2-0.3 0.2q-0.1 0-0.3 0.1-0.1 0-0.2 0.1-0.2 0-0.3 0-0.2 0.1-0.3 0.1-0.2 0-0.3 0-0.2 0-0.3 0-0.2 0-0.3 0-0.2 0-0.3 0-0.2 0-0.3-0.1-0.2 0-0.4 0-0.1-0.1-0.2-0.1-0.2-0.1-0.3-0.2-0.2 0-0.3-0.1-0.1-0.1-0.3-0.2-0.1-0.1-0.2-0.2-0.1-0.1-0.2-0.2-0.1 0-0.1 0 0 0 0 0 0 0 0 0 0 0 0 0v-0.1l-0.1-0.1-0.1-0.1q0 0 0 0 0 0 0-0.1-0.1 0-0.1 0 0 0 0 0l-0.2-0.3c0-0.1-0.1-0.2-0.1-0.3q-0.1 0-0.1-0.1 0 0-0.1-0.1 0 0 0-0.1 0-0.1-0.1-0.1v-0.4q0 0-0.1-0.1 0 0 0-0.1 0 0 0-0.1 0 0 0-0.1 0-0.1 0-0.3-0.1-0.1-0.1-0.3 0-0.1 0.1-0.2 0-0.2 0-0.3 0-0.2 0-0.3 0.1-0.2 0.1-0.3 0.1-0.1 0.1-0.2 0.1-0.2 0.1-0.3 0.1-0.1 0.2-0.2 0-0.2 0.1-0.3 0.1-0.1 0.2-0.2 0.1-0.1 0.2-0.2 0 0 0-0.1 0.1 0 0.1-0.1 0.1 0 0.1 0 0.1-0.1 0.1-0.1h0.1l0.1-0.1 0.3-0.1q0-0.1 0.1-0.1 0 0 0.1 0 0-0.1 0.1-0.1 0.1 0 0.1-0.1l0.2-0.1h0.3q0.1-0.1 0.2-0.1 0.1 0 0.2-0.1 0.1 0 0.2 0 0.1 0 0.2 0 0.2 0 0.4-0.1 0.2 0 0.4 0.1 0.2 0 0.3 0 0.2 0 0.4 0.1 0.2 0 0.3 0 0.1 0.1 0.2 0.1 0.2 0.1 0.3 0.2 0.1 0 0.2 0.1l0.2 0.1 0.1 0.1q0.1 0 0.1 0 0 0.1 0.1 0.1 0 0 0 0.1 0 0 0.1 0l-0.3-0.1q0-0.1 0-0.1 0 0 0 0-0.1 0-0.1 0 0 0 0-0.1l-0.2-0.1q-0.1 0-0.3-0.1-0.1 0-0.2-0.1-0.2 0-0.3 0-0.1-0.1-0.3-0.1-0.2 0-0.3 0-0.2 0-0.4 0-0.2 0-0.4 0-0.1 0.1-0.3 0.1-0.1 0-0.2 0.1-0.1 0-0.2 0-0.1 0.1-0.2 0.1 0 0.1-0.1 0.1l-0.2 0.1-0.2 0.2q-0.2 0.1-0.3 0.2l-0.2 0.2q0 0 0 0 0 0 0 0 0 0 0 0.1 0 0-0.1 0l-0.2 0.3q0 0.1-0.1 0.2 0 0.1-0.1 0.1 0 0.1 0 0.2-0.1 0.1-0.1 0.2 0 0.1 0 0.2 0 0.1-0.1 0.2 0 0.1 0 0.2 0 0.1 0 0.2 0 0.1 0 0.2 0 0.1 0 0.2 0.1 0.1 0.1 0.2 0 0.1 0 0.2 0.1 0.2 0.2 0.4l0.1 0.2q0 0 0 0 0 0 0 0.1 0 0 0 0 0 0 0.1 0.1 0.1 0.1 0.2 0.3l0.1 0.1 0.1 0.1v0.1q0 0 0.1 0.1 0.1 0.1 0.2 0.1 0.1 0.1 0.2 0.1 0 0.1 0.1 0.2h0.2q0.1 0.1 0.1 0.1 0 0 0 0 0 0 0.1 0 0 0 0 0 0.1 0 0.1 0.1 0.1 0 0.1 0 0.1 0 0.1 0 0.1 0 0.1 0.1 0.1 0 0.2 0 0.1 0 0.3 0 0.1 0 0.2 0.1 0.1 0 0.2 0h0.6l0.2-0.1h0.2l0.2-0.1 0.2-0.1 0.2-0.1q0.1 0 0.1 0 0.1-0.1 0.1-0.1 0.1 0 0.1-0.1 0 0 0.1 0l0.1-0.1 0.1-0.1q0.2-0.2 0.3-0.3 0.1-0.2 0.2-0.3 0.1-0.2 0.2-0.4 0.1-0.1 0.1-0.3 0.1-0.2 0.1-0.4 0.1-0.1 0.1-0.3 0-0.2 0-0.3 0-0.2-0.1-0.4 0-0.1 0-0.2-0.1-0.2-0.1-0.3 0-0.1-0.1-0.2-0.1-0.2-0.1-0.3l-0.1-0.2-0.1-0.1-0.2-0.2-0.2-0.2q0 0 0 0 0.1 0.1 0.1 0.1 0 0 0 0 0 0 0.1 0.1l0.2 0.2 0.1 0.1 0.1 0.2q0.1 0.1 0.1 0.3z"/>
			<path id="Layer" class="s7" d="m70.3 28.5q0.2 0 0.4-0.2 0.2-0.1 0.4-0.3 0.1-0.2 0.3-0.4 0 0 0-0.1 0.1-0.1 0.1-0.2 0-0.1 0-0.1 0.1-0.1 0.1-0.2 0 0.1 0 0.2-0.1 0-0.1 0.1 0 0.1 0 0.2 0 0.1-0.1 0.2 0 0.1-0.1 0.2 0 0.1-0.1 0.2 0 0.1-0.1 0.2-0.1 0.1-0.1 0.2-0.2 0.1-0.3 0.2-0.1 0.1-0.2 0.2-0.1 0.1-0.3 0.2-0.1 0.1-0.2 0.1l-0.2 0.1h-0.2q0 0-0.1 0 0 0 0 0-0.1 0-0.1 0-0.1 0-0.1 0h-0.8q-0.1 0-0.2 0-0.1 0-0.2 0-0.1-0.1-0.2-0.1-0.1 0-0.2-0.1-0.1 0-0.2-0.1-0.1 0-0.1-0.1-0.1 0-0.2-0.1-0.1-0.1-0.2-0.1-0.1-0.1-0.1-0.2-0.1-0.1-0.2-0.1-0.1-0.1-0.1-0.2-0.1-0.1-0.1-0.2-0.1 0-0.1-0.1 0 0 0-0.1-0.1 0-0.1-0.1 0 0 0-0.1 0 0 0 0 0-0.1 0-0.1-0.1 0-0.1 0 0-0.1 0-0.1v-0.5q0 0 0-0.1 0 0 0-0.1 0-0.1 0-0.1 0-0.1 0-0.1 0-0.1 0.1-0.2 0-0.1 0-0.2 0.1-0.1 0.1-0.2 0-0.1 0.1-0.2 0-0.1 0.1-0.2 0.1-0.1 0.1-0.2 0.1-0.1 0.2-0.2 0 0 0.1-0.1 0.1-0.1 0.1-0.1 0.1-0.1 0.2-0.1 0.1 0 0.2-0.1 0 0 0.1 0 0.1-0.1 0.2-0.1 0.1-0.1 0.2-0.1 0.1 0 0.2-0.1 0 0 0.1 0h1.1l0.2 0.1q0.1 0 0.1 0 0.1 0 0.2 0.1 0 0 0.1 0 0.1 0.1 0.1 0.1 0.1 0 0.2 0.1 0.1 0.1 0.2 0.2 0.1 0 0.2 0.1 0.1 0.1 0.2 0.2 0 0.1 0.1 0.1 0 0.1 0.1 0.2 0 0.1 0.1 0.1 0 0.1 0 0.2 0.1 0 0.1 0.1 0 0 0 0 0 0.1 0 0.1 0 0 0 0 0 0 0 0 0 0 0-0.1 0 0 0 0-0.1-0.1-0.1-0.1 0-0.1-0.1-0.1 0-0.1-0.1-0.2 0 0-0.1-0.1 0-0.1-0.1-0.1-0.1-0.1-0.2-0.2-0.1 0-0.2-0.1-0.1 0-0.2-0.1-0.1 0-0.2 0 0-0.1-0.1-0.1-0.1 0-0.1 0-0.1 0-0.2 0 0 0-0.1 0 0 0-0.1 0-0.1 0-0.1 0-0.1 0-0.2 0 0 0-0.1 0 0 0 0 0 0 0-0.1 0 0 0 0 0 0 0 0 0h-0.1l-0.2 0.1q-0.1 0.1-0.2 0.1 0 0-0.1 0.1 0 0-0.1 0.1 0 0 0 0-0.1 0.1-0.1 0.1-0.1 0.1-0.1 0.1-0.1 0.1-0.1 0.1 0 0.1-0.1 0.1 0 0.1 0 0.1 0 0.1-0.1 0.1 0 0.1 0 0.1 0 0.1-0.1 0.2 0 0 0 0.1 0 0 0 0.1 0 0-0.1 0.1 0 0 0 0.1v0.2l0.1 0.3q0 0 0 0 0 0.1 0.1 0.1 0 0 0 0 0 0.1 0 0.1 0 0 0 0 0 0 0 0 0 0 0 0.1 0 0 0 0 0 0 0 0 0 0.1 0 0.1 0 0 0 0.1 0.1 0 0.1 0 0 0 0 0.1 0 0 0 0 0 0 0 0.1 0.1 0 0.1 0c0 0.1 0.1 0.1 0.1 0.2l0.4 0.3q0 0.1 0.1 0.1 0 0 0.1 0.1 0 0 0.1 0 0.1 0.1 0.1 0.1h0.1q0 0 0.1 0 0 0 0 0 0 0 0 0 0 0 0.1 0h0.2q0 0 0.1 0 0 0 0 0 0.1 0 0.1 0 0 0 0.1 0h0.2q0.3 0 0.5-0.1z"/>
			<path id="Layer" class="s7" d="m69.1 54.4q0.1 0.1 0.1 0.2 0.1 0 0.1 0.1 0.1 0.1 0.1 0.2 0 0 0 0 0 0.1 0 0.1 0.1 0 0.1 0.1 0 0 0 0 0 0.1 0 0.1 0 0 0 0 0 0 0 0.1 0 0 0 0 0 0 0 0 0-0.1 0-0.1-0.1 0-0.1 0 0 0 0-0.1 0 0 0 0 0-0.1 0-0.1 0 0-0.1-0.1 0 0 0 0 0-0.1-0.1-0.2 0 0-0.1-0.1 0-0.1-0.1-0.1 0-0.1-0.1-0.1-0.1-0.1-0.2-0.2-0.1 0-0.2-0.1-0.1 0-0.2-0.1-0.1 0-0.2-0.1 0 0-0.1 0-0.1 0-0.1 0-0.1 0-0.1 0-0.1 0-0.2 0 0 0-0.1 0-0.1 0-0.1 0-0.1 0-0.1 0-0.1 0-0.1 0h-0.3q0 0 0 0.1 0 0-0.1 0 0 0 0 0-0.1 0-0.1 0 0 0.1-0.1 0.1-0.1 0-0.1 0.1-0.1 0-0.1 0 0 0.1-0.1 0.1 0 0.1-0.1 0.1 0 0.1-0.1 0.1 0 0.1 0 0.1-0.1 0.1-0.1 0.1 0 0.1-0.1 0.1 0 0.1 0 0.1 0 0.1-0.1 0.1 0 0.1 0 0.1 0 0.1 0 0.1 0 0.1 0 0.2-0.1 0-0.1 0.1 0 0 0 0.1 0 0 0 0 0 0.1 0 0.1 0 0 0 0 0 0.1 0 0.1v0.1c0 0 0.1 0.1 0.1 0.1h-0.1v0.4q0 0 0 0 0 0.1 0 0.1 0 0 0 0.1 0 0 0.1 0 0 0 0 0.1 0 0 0 0 0 0 0 0.1 0.1 0 0.1 0 0 0 0 0.1 0 0 0 0 0 0 0.1 0.1 0 0 0 0 0 0 0.1 0.1 0 0 0.1 0 0 0.1 0 0.1 0.1 0 0.1 0 0.1 0.1 0.1 0.1 0.1 0 0.1 0.1 0.1 0 0.1 0 0.1 0.1 0.2 0.1h0.4q0.1 0 0.1 0 0 0 0.1 0 0 0 0 0 0.1 0 0.1 0h0.2q0.1 0 0.2 0 0.2-0.1 0.3-0.1 0.1-0.1 0.2-0.1 0.1-0.1 0.2-0.1 0.1-0.1 0.2-0.2 0.1 0 0.2-0.1 0-0.1 0.1-0.2 0-0.1 0.1-0.2 0-0.1 0.1-0.1 0-0.1 0-0.2 0.1-0.1 0.1-0.2 0-0.1 0-0.1 0 0 0 0.1 0 0.1 0 0.2 0 0.1-0.1 0.2 0 0.1 0 0.2-0.1 0.1-0.1 0.2-0.1 0.1-0.1 0.2-0.1 0.1-0.1 0.2-0.1 0.1-0.2 0.2-0.1 0.1-0.2 0.2-0.1 0.1-0.2 0.2-0.2 0.1-0.3 0.1-0.1 0.1-0.3 0.2l-0.1 0.1-0.1 0.2h-0.1q-0.1 0-0.1 0.1-0.1 0-0.1 0 0 0-0.1 0 0 0-0.1 0h-0.2q0 0-0.1 0 0 0-0.1 0 0 0-0.1 0 0 0-0.1 0-0.1 0-0.2 0-0.1 0-0.2-0.1-0.1 0-0.2 0-0.1-0.1-0.2-0.1-0.1-0.1-0.1-0.1-0.1-0.1-0.2-0.1-0.1-0.1-0.2-0.1-0.1-0.1-0.2-0.2 0 0-0.1-0.1-0.1-0.1-0.2-0.2 0-0.1-0.1-0.1 0-0.1-0.1-0.2 0-0.1 0-0.1-0.1-0.1-0.1-0.1 0-0.1 0-0.1-0.1-0.1-0.1-0.1 0 0 0-0.1 0 0 0 0 0-0.1 0-0.1 0 0 0 0v-0.4q0 0 0 0 0 0 0 0 0 0 0 0 0 0 0-0.1v-0.1q0 0 0-0.1 0 0 0-0.1 0-0.1 0-0.1 0-0.1 0-0.1 0-0.1 0-0.2 0-0.1 0.1-0.2 0-0.1 0-0.2 0.1-0.1 0.1-0.2 0.1-0.1 0.1-0.2 0.1-0.1 0.2-0.2 0-0.1 0.1-0.1 0.1-0.1 0.1-0.2 0.1-0.1 0.2-0.1 0.1-0.1 0.1-0.1 0.1-0.1 0.2-0.1 0.1-0.1 0.2-0.1 0.1-0.1 0.2-0.1 0-0.1 0.1-0.1 0.1 0 0.2 0 0.1-0.1 0.2-0.1 0 0 0.1 0 0 0 0.1 0 0 0 0.1 0 0 0 0.1 0h0.9q0.1 0.1 0.2 0.1 0.1 0 0.1 0 0.1 0.1 0.1 0.1 0.1 0 0.2 0.1 0.1 0 0.2 0.1 0.1 0.1 0.2 0.1 0.1 0.1 0.1 0.2 0.1 0.1 0.2 0.2 0.1 0 0.1 0.1z"/>
			<path id="Layer" class="s7" d="m93.7 18.8q-0.1 0.1-0.2 0.2-0.2 0.1-0.3 0.1-0.1 0.1-0.3 0.2h-0.1-0.2q-0.1 0-0.1 0 0 0.1-0.1 0.1 0 0-0.1 0 0 0 0 0h-0.4q-0.1 0-0.1 0-0.1 0-0.1 0-0.1 0-0.1 0-0.1 0-0.1 0-0.1 0-0.2 0-0.1-0.1-0.2-0.1-0.1 0-0.2 0-0.1-0.1-0.2-0.1-0.1-0.1-0.2-0.1-0.1-0.1-0.2-0.1-0.1-0.1-0.2-0.2 0 0-0.1-0.1-0.1-0.1-0.2-0.1 0-0.1-0.1-0.2-0.1-0.1-0.1-0.2-0.1-0.1-0.1-0.2-0.1 0-0.1-0.1 0 0 0-0.1-0.1 0-0.1 0 0-0.1 0-0.1 0-0.1-0.1-0.1 0 0 0-0.1 0 0 0 0 0 0 0-0.1v-0.5q0 0 0-0.1 0-0.1 0-0.1 0-0.1 0-0.1 0-0.1 0-0.1 0-0.1 0-0.2 0.1-0.2 0.1-0.3 0-0.1 0.1-0.1 0-0.1 0.1-0.2 0-0.1 0.1-0.2 0-0.1 0.1-0.2 0.1-0.1 0.2-0.2 0 0 0.1-0.1 0.1-0.1 0.1-0.1 0.1-0.1 0.2-0.2 0.1 0 0.2-0.1 0.1-0.1 0.1-0.1 0.1-0.1 0.2-0.1 0.1 0 0.2-0.1 0.1 0 0.2 0 0.1 0 0.2 0h0.7q0 0 0.1 0 0 0.1 0 0.1 0.1 0.1 0.1 0.1 0.1 0.1 0.1 0.1h0.2l0.1 0.1q0.1 0 0.2 0 0 0.1 0.1 0.1 0.1 0 0.1 0 0.1 0.1 0.2 0.1 0.1 0.1 0.2 0.1 0.1 0.1 0.2 0.2 0.1 0.1 0.1 0.2 0.1 0 0.2 0.1 0.1 0.1 0.1 0.2 0.1 0.1 0.1 0.1 0.1 0.1 0.1 0.2 0 0.1 0.1 0.2 0 0 0 0 0 0 0 0.1 0 0 0.1 0 0 0.1 0 0.1 0 0 0 0 0 0.1 0 0.1 0 0 0 0 0 0 0 0.1c-0.1-0.1-0.1-0.1-0.1-0.2q0 0 0-0.1 0 0 0 0-0.1-0.1-0.1-0.1 0 0 0 0 0-0.1-0.1-0.2 0-0.1-0.1-0.1 0-0.1-0.1-0.2-0.1 0-0.1-0.1-0.1-0.1-0.2-0.1-0.1-0.1-0.2-0.1-0.1-0.1-0.2-0.1-0.1-0.1-0.2-0.1-0.1 0-0.1 0-0.1-0.1-0.2-0.1 0 0-0.1 0 0 0-0.1 0-0.1 0-0.1 0-0.1 0-0.2 0 0 0-0.1 0 0 0-0.1 0.1h-0.2l-0.3 0.1q0 0-0.1 0 0 0.1-0.1 0.1 0 0-0.1 0.1 0 0-0.1 0.1 0 0-0.1 0 0 0.1 0 0.1-0.1 0.1-0.1 0.1-0.1 0.1-0.1 0.1 0 0.1-0.1 0.1 0 0.1 0 0.1 0 0.1-0.1 0.1 0 0.1 0 0.2 0 0 0 0.1 0 0-0.1 0.1 0 0 0 0.1 0 0 0 0.1v0.3c0 0-0.1 0.1-0.1 0.1h0.2q0 0 0 0 0 0 0 0 0 0.1 0 0.1 0 0 0 0v0.1q0 0 0 0 0 0.1 0 0.1 0 0 0 0 0.1 0.1 0.1 0.1 0 0 0 0.1 0 0 0 0 0 0 0 0.1 0.1 0 0.1 0l0.1 0.2q0 0 0.1 0.1 0 0 0 0.1 0.1 0 0.1 0.1 0.1 0 0.1 0 0.1 0.1 0.1 0.1 0.1 0.1 0.1 0.1 0.1 0 0.1 0.1 0.1 0 0.1 0l0.2 0.1h0.3q0.1 0 0.1 0 0 0 0.1 0 0 0 0 0 0.1 0 0.1 0h0.2q0.2 0 0.3-0.1 0.1 0 0.3 0 0.1-0.1 0.2-0.1 0.1-0.1 0.2-0.2 0.1 0 0.2-0.1 0.1-0.1 0.2-0.1 0.1-0.1 0.1-0.2 0.1-0.1 0.2-0.2 0-0.1 0-0.1 0.1-0.1 0.1-0.2 0-0.1 0-0.2 0.1-0.1 0.1-0.1 0 0 0 0.1-0.1 0.1-0.1 0.2 0 0.1 0 0.2 0 0.1-0.1 0.1 0 0.2-0.1 0.3 0 0.1-0.1 0.2-0.1 0.1-0.1 0.2-0.1 0.1-0.2 0.2-0.1 0.1-0.2 0.2z"/>
			<path id="Layer" class="s7" d="m125.2 38l4.7 1.6-4.9-0.6 1 2.1-1.5-1.9-1.6 4.7 0.7-4.9-2.2 1 1.9-1.5-4.6-1.6 4.9 0.7-1.1-2.2 1.5 1.9 1.6-4.6-0.7 4.9 2.2-1.1-1.9 1.5z"/>
			<path id="Layer" class="s7" d="m45.7 51.3l2.8 1-2.9-0.4 0.6 1.2-0.9-1.1-0.9 2.8 0.4-2.9-1.3 0.6 1.1-0.9-2.7-0.9 2.9 0.4-0.6-1.3 0.8 1.1 1-2.7-0.4 2.9 1.2-0.6-1.1 0.8z"/>
			<path id="Layer" class="s7" d="m120.4 58.1l-2.9 0.4 2.7-0.9-1.1-0.9 1.3 0.6-0.5-2.8 1 2.7 0.9-1.2-0.6 1.3 2.8-0.4-2.7 1 1.1 0.8-1.2-0.6 0.4 2.9-1-2.7-0.8 1.1 0.6-1.3z"/>
			<path id="Layer" class="s7" d="m93 58.8l-3.1-1.1 3.3 0.4-0.7-1.4 0.9 1.3 1.1-3.1-0.4 3.2 1.4-0.7-1.3 1 3.1 1.1-3.2-0.5 0.7 1.5-1-1.3-1.1 3.1 0.5-3.3-1.5 0.7 1.3-0.9z"/>
			<path id="Layer" class="s7" d="m127.4 127.5l0.6-0.3c0 0-0.4 0.3-0.5 0.4q-0.3 0.2-0.7 0.4-0.3 0.3-0.8 0.7l-1.1 0.7q-0.3 0.2-0.7 0.4l-0.7 0.5-0.7 0.4-0.4 0.3-0.4 0.2-0.9 0.4q-0.4 0.3-0.9 0.5l-2 1-2.1 1-1.2 0.4-0.6 0.2-0.2 0.1-0.4 0.1-1.2 0.5-0.6 0.2-0.6 0.2c-0.9 0.2-1.8 0.5-2.7 0.7l-1.3 0.3-1.4 0.3c-1.8 0.4-3.7 0.6-5.7 0.8q0 0-0.1 0.1-0.1 0-0.2 0-0.1 0-0.2 0-0.1 0-0.2 0h-0.7l-1.4 0.1h-5.7l-1.4-0.1h-0.6-0.7l-1.3-0.2-0.7-0.1h-0.3-0.3l-2.5-0.4-2.4-0.6-0.5-0.1-0.6-0.1-1-0.3-1-0.3q-0.4-0.1-0.9-0.3l-1.7-0.6q-1.6-0.6-2.8-1.1l-1.6-0.8-0.6-0.3 0.7 0.2q0.6 0.2 1.8 0.5 0.6 0.2 1.3 0.4l1.5 0.4 1.8 0.3q0.5 0.2 1 0.2l1 0.2 1 0.2 0.5 0.1 0.6 0.1 2.2 0.3 2.5 0.3h0.3l0.4 0.1h0.6 1.2 5.4q0.7 0 1.4 0l1.3-0.1q0.7 0 1.4-0.1c0.5 0 0.9-0.1 1.4-0.1l1.4-0.2h0.7l0.6-0.1 1.4-0.2h0.3l0.4-0.1 0.6-0.1 1.4-0.2 1.3-0.3c0.9-0.2 1.7-0.4 2.5-0.6l0.7-0.2 0.6-0.1 1.2-0.4c0.8-0.2 1.6-0.5 2.3-0.7l2.2-0.8 2-0.7c1.3-0.5 2.4-1 3.4-1.5l0.8-0.3 0.7-0.4 1.2-0.6c0.7-0.3 1.2-0.6 1.6-0.8z"/>
			<path id="Layer" class="s7" d="m82.1 129.7c0.7-0.7 0.9-0.9 1-1.1 0.1-0.5 0.6 0.3 0.4 0.8 0 0.1 0 0.1-0.4 0.5q0.1 0.1 0.3 0.2 0.2 0.2 0.3 0.4 0.1 0.1 0.1 0.3 0 0.3 0 0.5c-0.1 0.3-0.3 0.1-0.2 0 0-0.1-0.5-0.6-1.2-0.8-0.7 0.7-1.2 1.2-1.3 1.7-0.2 0.4-0.7-0.3-0.6-0.7 0.2-0.4 0.6-0.7 0.9-1-1.7 0.1-3.4 0.8-3.7 1.9-0.2 0.6 0 1.2 1 1.4 3.6 0.6 7.8-4.3 8.1-5.6 0.4-1.3-4.8 0-5 0.5v0.2c0 0-0.6-0.5-0.5-0.8 0.1-0.4 2.4-1.4 4.6-1 1.6 0.2 1.8 1.3 1.7 1.7-0.7 2.4-5.2 5.8-8.9 5.2-1.4-0.3-2-1.2-1.8-2 0.4-1.3 2.9-2.4 5.2-2.3z"/>
			<path id="Layer" fill-rule="evenodd" class="s7" d="m87 133.2q-0.2 0-0.2-0.2-0.1-0.1-0.2-0.2 0-0.2 0-0.3c0-0.1 0-0.1 0-0.1 0.2-1.4 2.3-2.6 2.8-2.5 0.3 0 0.6 0.2 0.5 0.9-0.1 0.6-2 1.6-2.4 1.6 0 0-0.4 0.5 0.1 0.5q0.4-0.1 0.8-0.3 0.4-0.1 0.8-0.4 0.4-0.2 0.7-0.5 0.4-0.2 0.7-0.6c0.1-0.1 0.3 0 0.1 0.3-0.2 0.2-2.4 2.1-3.4 2q-0.2-0.1-0.3-0.2zm2.3-2.4c-0.3 0-1.6 1.4-1.6 1.4 1.2-0.4 1.8-1.4 1.6-1.4z"/>
			<path id="Layer" fill-rule="evenodd" class="s7" d="m92.3 132.7q0.2-0.2 0.3-0.4 0.2-0.3 0.4-0.5 0.1-0.3 0.2-0.5 0.2-0.3 0.3-0.6 0 0 0 0 0-0.1 0-0.1-0.1-0.1-0.1-0.1 0 0-0.1 0c-0.9-0.1-4.1 4.3-4.1 4.7 0 0.3-0.5-0.1-0.5-0.6 0.1-0.8 3-3.9 3-4.6v-0.2c0-0.2 0.8-0.3 0.7 0.7q0 0 0 0.1 0 0 0 0.1 0 0 0 0.1 0 0 0 0 0.1-0.1 0.2-0.2 0.1-0.1 0.3-0.2 0.2-0.1 0.3-0.1 0.2-0.1 0.4-0.1 0.1 0 0.2 0 0.1 0.1 0.2 0.2 0.1 0.1 0.2 0.2 0 0.1 0.1 0.3 0 0 0 0 0 0 0 0 0 0.1 0 0.1 0 0-0.1 0 0 0.2 0 0.4-0.1 0.2-0.1 0.4-0.1 0.2-0.2 0.4-0.1 0.1-0.3 0.3 0.3-0.1 0.5-0.2 0.2-0.1 0.4-0.3 0.2-0.1 0.4-0.3 0.2-0.2 0.3-0.3c0.3-0.2 0.4-0.1 0.3 0.1q-0.3 0.2-0.5 0.4-0.2 0.2-0.5 0.4-0.3 0.2-0.5 0.3-0.3 0.1-0.6 0.2l-0.1 0.1q-0.1 0.2-0.3 0.3-0.3 0.2-0.5 0.3-0.2 0.1-0.5 0.2-0.3 0.1-0.5 0.1c-0.5 0-0.5-0.3-0.5-0.4 0-0.4 1.2-0.5 1.3-0.7zm-0.1 0.2c0 0-0.7 0.3-0.7 0.5 0 0.3 0.7-0.5 0.7-0.5z"/>
			<path id="Layer" class="s7" d="m96.9 132.7c0 0-1 1.2-1.4 1.2q-0.2 0-0.3 0-0.1-0.1-0.2-0.2-0.1-0.1-0.2-0.2 0-0.1 0-0.2 0 0 0-0.1 0 0 0 0 0 0 0 0 0-0.1 0-0.1c0-0.5 1.5-2.1 1.5-2.8 0-0.2 0.7 0.1 0.7 0.7-0.1 0.6-2 2.6-1.4 2.6 0.2 0 2.6-2.5 2.7-3.3 0-0.2 0.7 0.1 0.7 0.7-0.1 0.6-1.9 2.6-1.4 2.6q0.3-0.2 0.6-0.5 0.4-0.3 0.6-0.5 0.3-0.3 0.6-0.6 0.3-0.3 0.5-0.7c0.1-0.1 0.4-0.1 0.2 0.2-0.2 0.2-2 2.4-2.7 2.4-0.6 0-0.8-0.8-0.5-1.2z"/>
			<path id="Layer" class="s7" d="m101.7 129.7q-0.1-0.1-0.2-0.2-0.1-0.1-0.1-0.2 0-0.2 0-0.3 0-0.1 0-0.3 0-0.1 0.1-0.2 0.1-0.1 0.2-0.2 0.1 0 0.2 0c0.2 0 0.8 0.1 0.8 0.4 0 0.2-0.2 0.3-0.5 0.7-0.2 0.4-0.2 0.4-0.3 0.4q-0.1 0-0.2-0.1z"/>
			<path id="Layer" class="s7" d="m99.7 132.8c0-0.4 0.8-1.5 1.1-2.4 0-0.1 0-0.3 0.2-0.3 0.2 0 0.5 0.3 0.5 0.8 0 0.6-1.6 2.5-0.8 2.5q0.3-0.3 0.6-0.5 0.3-0.3 0.6-0.6 0.2-0.3 0.5-0.6 0.2-0.3 0.4-0.7c0.1-0.1 0.4-0.1 0.2 0.2-0.2 0.2-1.8 2.5-2.5 2.5-0.8 0.1-0.8-0.5-0.8-0.9z"/>
			<path id="Layer" fill-rule="evenodd" class="s7" d="m106.3 131.2q-0.1 0.2-0.3 0.3-0.3 0.2-0.5 0.3-0.2 0.1-0.5 0.2 0.1 0.2 0 0.5 0 0.2-0.1 0.4-0.1 0.2-0.3 0.3-0.2 0.2-0.5 0.2h-0.1c-0.2 0-0.8 0-0.9-0.5-0.1-0.6 1.2-0.9 1.2-1q0-0.2 0-0.4 0-0.2-0.1-0.4 0-0.2 0-0.4-0.1-0.2-0.1-0.4v-0.1c-0.2 0.3-0.3 0.6-0.5 0.9-0.2 0.3-0.3 0.1-0.2-0.1q0.1-0.2 0.2-0.4 0.1-0.2 0.2-0.4 0.1-0.2 0.1-0.4 0.1-0.2 0.2-0.4c0-0.1 0.1-0.5 0.2-0.4 0.2 0.1 0.8 0.4 0.9 0.8q-0.1 0.2-0.1 0.4-0.1 0.3-0.1 0.5 0 0.3 0 0.5 0 0.2 0 0.5 0.3-0.1 0.5-0.2 0.2-0.1 0.4-0.2 0.2-0.2 0.3-0.4 0.2-0.2 0.3-0.4c0-0.1 0.3 0 0.1 0.2q-0.1 0.3-0.3 0.5zm-2.1 1.1c0 0-1 0.3-0.9 0.7 0.1 0.4 0.8 0.2 0.9-0.7z"/>
			<path id="Layer" class="s7" d="m114.3 127.2c-0.3 1-1.3 3.7-1 4.5 0 0.2-0.7 0.1-0.9-0.3q0-0.2 0-0.4 0.1-0.2 0.1-0.4 0-0.2 0.1-0.4 0-0.2 0.1-0.4c0.1-0.7 0.4-1.6 0.6-2.1v-0.2q-0.1 0.1-0.2 0.1-0.1 0-0.2 0-0.1 0-0.2 0-0.1 0-0.2-0.1c-0.2-0.1-0.2-0.2 0-0.2q0.2 0 0.4-0.1 0.1-0.1 0.3-0.2 0.1-0.1 0.3-0.2 0.1-0.1 0.2-0.3c0.1-0.1 0.1-0.3 0.1-0.3q0.1 0 0.2 0 0.1 0 0.2 0.1 0.1 0 0.1 0.1 0.1 0 0.1 0.1c0.2 0.2 0.2 0.2-0.1 0.7z"/>
			<path id="Layer" fill-rule="evenodd" class="s7" d="m116.3 130.4q0.1-0.1 0.2-0.2 0.1 0 0.2-0.1 0-0.1 0.1-0.2 0.1-0.1 0.3-0.3 0.1-0.1 0.2-0.3 0.1-0.1 0.2-0.3 0.1-0.2 0.1-0.3 0 0-0.1 0.1 0 0-0.1 0-0.1 0.1-0.1 0.1-0.1 0.1-0.2 0.1-0.2 0-0.4 0.1-0.2 0-0.4-0.1-0.2-0.1-0.4-0.2-0.2-0.1-0.3-0.3-0.2-0.4-0.2-0.9 0-0.5 0.1-0.9 0.2-0.5 0.5-0.8 0.3-0.4 0.8-0.6 0.1 0 0.2-0.1 0.1 0 0.3 0 0.1 0 0.2 0 0.1 0.1 0.3 0.1 0.1 0 0.2 0.1 0.1 0.1 0.2 0.1 0.1 0.1 0.1 0.2 0.1 0.1 0.2 0.2c0.6 1 0 3-0.7 3.9q-0.1 0.1-0.2 0.2-0.1 0.1-0.2 0.2-0.1 0.1-0.2 0.2 0 0-0.2 0.1 0 0.1-0.1 0.1 0 0-0.1 0.1-0.1 0-0.2 0.1 0 0-0.1 0c-1.1 0.4-0.8-0.5-0.8-0.5 0.1 0 0.2 0.2 0.4 0.1q0.1 0 0.2 0zm0.8-1.9q0.2-0.1 0.3-0.3 0.1-0.1 0.2-0.3 0.1-0.1 0.1-0.3 0.1-0.2 0.2-0.5 0-0.2 0-0.4 0-0.3 0-0.5-0.1-0.2-0.2-0.4 0-0.1-0.1-0.1 0-0.1-0.1-0.1-0.1 0-0.2 0 0 0-0.1 0-0.2 0.1-0.3 0.2-0.2 0.1-0.3 0.3-0.1 0.1-0.2 0.3 0 0.1-0.1 0.3-0.1 0.2-0.1 0.4-0.1 0.3-0.1 0.5 0 0.2 0 0.4 0.1 0.3 0.1 0.5 0.1 0 0.1 0.1 0.1 0.1 0.2 0.1 0.1 0 0.1 0 0.1 0 0.2 0 0.2-0.1 0.3-0.2z"/>
			<path id="Layer" fill-rule="evenodd" class="s7" d="m120.2 124.3q0.1-0.1 0.3-0.3 0.1-0.2 0.3-0.3 0.2-0.1 0.4-0.2 0.2-0.1 0.4-0.1 0.2 0 0.4 0 0.2 0.1 0.3 0.2 0.2 0.1 0.3 0.2 0.1 0.2 0.1 0.5 0 0.2 0 0.4-0.1 0.2-0.2 0.4-0.1 0.2-0.3 0.4 0.1 0 0.2 0 0.2 0.1 0.3 0.2 0.1 0 0.1 0.1 0.1 0.1 0.2 0.2 0.1 0.1 0.1 0.3 0.1 0.1 0.1 0.2 0 0.2 0 0.3 0 0.2 0 0.3-0.1 0.3-0.2 0.6-0.1 0.2-0.3 0.5-0.2 0.2-0.4 0.4-0.3 0.2-0.5 0.3-0.2 0.1-0.5 0.1-0.2 0-0.5-0.1-0.2 0-0.4-0.2-0.2-0.1-0.4-0.3-0.1-0.3-0.1-0.6 0-0.3 0.1-0.6 0-0.3 0.2-0.6 0.2-0.3 0.4-0.5-0.1 0-0.2-0.1-0.1 0-0.1 0-0.1-0.1-0.2-0.2 0 0-0.1-0.1-0.1-0.1-0.1-0.2 0-0.1 0-0.3 0-0.1 0-0.2 0-0.1 0.1-0.2 0.1-0.3 0.2-0.5zm2.3 1.8q0-0.1-0.1-0.1 0-0.1-0.1-0.1-0.1 0-0.1 0-0.1 0-0.2 0-0.2 0.1-0.4 0.3-0.2 0.2-0.4 0.4-0.2 0.2-0.3 0.4-0.1 0.3-0.2 0.5-0.1 0.1-0.1 0.2 0 0.2 0 0.3 0 0.1 0 0.2 0 0.1 0.1 0.2c0.1 0.2 0.2 0.2 0.4 0.1q0.3-0.1 0.5-0.2 0.2-0.2 0.4-0.4 0.1-0.2 0.3-0.4 0.1-0.2 0.2-0.4 0.1-0.1 0.1-0.3 0-0.1 0-0.2 0-0.2 0-0.3 0-0.1-0.1-0.2zm-0.8-2.2q-0.3 0.1-0.5 0.2-0.2 0.2-0.3 0.4-0.1 0.2-0.2 0.4-0.1 0.3-0.1 0.5 0 0 0 0.1 0 0 0 0 0 0.1 0 0.1 0 0 0.1 0.1 0 0 0 0 0.1 0 0.1 0 0.1 0 0.1 0 0.1 0 0.1 0 0 0 0.1-0.1 0 0 0 0 0.1 0 0.1 0 0 0 0.1-0.1c0.4-0.3 1.1-1.1 0.7-1.6q0 0 0 0-0.1-0.1-0.1-0.1-0.1 0-0.1 0-0.1 0-0.1 0.1z"/>
			<path id="Layer" fill-rule="evenodd" class="s7" d="m126.7 122.1q0 0.2 0 0.4 0 0.2-0.1 0.5-0.1 0.2-0.3 0.3 0.1 0.1 0.3 0.1 0.1 0 0.2 0.1 0.1 0.1 0.2 0.1 0.1 0.1 0.2 0.2 0.1 0.1 0.1 0.2 0.1 0.2 0.1 0.3 0.1 0.2 0.1 0.3 0 0.1 0 0.3-0.1 0.3-0.2 0.5-0.1 0.3-0.3 0.6-0.1 0.2-0.3 0.4-0.2 0.2-0.5 0.4-0.2 0.1-0.4 0.1-0.3 0-0.5 0-0.3-0.1-0.5-0.2-0.2-0.1-0.4-0.3-0.1-0.3-0.2-0.6 0-0.3 0-0.6 0.1-0.3 0.2-0.6 0.1-0.3 0.3-0.5 0 0-0.1-0.1-0.1 0-0.2 0-0.1-0.1-0.1-0.1-0.1-0.1-0.2-0.1 0-0.2-0.1-0.3 0-0.1-0.1-0.2 0-0.2 0-0.3 0.1-0.1 0.1-0.2 0.1-0.3 0.2-0.5 0-0.2 0.2-0.4 0.1-0.1 0.3-0.3 0.2-0.1 0.4-0.2 0.1-0.1 0.3-0.1 0.2-0.1 0.4 0 0.2 0 0.4 0.1 0.2 0.1 0.3 0.2 0.2 0.2 0.2 0.5zm-2.1 1.4q0.1 0 0.1 0.1 0 0 0 0 0 0.1 0.1 0.1 0 0 0 0 0.1 0 0.1 0 0.1 0 0.1 0 0.1 0 0.1 0 0 0 0.1 0 0-0.1 0-0.1 0 0 0.1 0 0 0 0-0.1c0.5-0.4 1-1.3 0.7-1.7q0 0-0.1 0 0-0.1-0.1-0.1 0 0-0.1 0.1 0 0-0.1 0-0.2 0.1-0.4 0.3-0.2 0.2-0.3 0.4-0.1 0.2-0.2 0.4-0.1 0.3-0.1 0.5 0 0.1 0 0.1zm2 0.3q0-0.1-0.1-0.1-0.1 0-0.2 0 0 0-0.1 0.1-0.2 0.1-0.4 0.3-0.2 0.2-0.4 0.4-0.1 0.2-0.2 0.5-0.1 0.2-0.2 0.5 0 0.1-0.1 0.2 0 0.1 0 0.2 0 0.2 0.1 0.3 0 0.1 0.1 0.2c0.1 0.2 0.2 0.1 0.4 0.1q0.3-0.2 0.4-0.3 0.2-0.2 0.4-0.4 0.2-0.2 0.3-0.4 0.1-0.3 0.2-0.5 0-0.1 0-0.3 0.1-0.1 0-0.2 0-0.1 0-0.3 0-0.1-0.1-0.2 0-0.1-0.1-0.1z"/>
			<path id="Layer" class="s7" d="m1.7 104.1q5.2 0.2 10.4 0.5-5.2 0.6-10.3 1.3c-0.1-0.6-0.1-1.2-0.1-1.8z"/>
			<path id="Layer" class="s7" d="m12 99.3q-5.3 0.7-10.4 1.3c-0.1-0.6-0.1-1.2-0.1-1.8 3.5 0.2 7 0.4 10.5 0.5z"/>
			<path id="Layer" class="s7" d="m11.8 94.1l-10.5 1.3c0-0.6 0-1.2 0-1.8z"/>
			<path id="Layer" class="s7" d="m11.6 88.9l-10.5 1.2c0-0.6 0-1.2 0-1.8q5.2 0.3 10.5 0.6z"/>
			<path id="Layer" class="s7" d="m11.4 83.6l-10.5 1.3c0-0.6 0-1.2 0-1.8q5.2 0.2 10.5 0.5z"/>
			<path id="Layer" class="s7" d="m11.3 78.3c-3.6 0.5-7.1 0.9-10.6 1.3q0-0.2 0-0.4 0-0.2 0-0.5 0-0.2-0.1-0.4 0-0.2 0-0.5 5.4 0.3 10.7 0.5z"/>
			<path id="Layer" class="s7" d="m11.1 73.1q-5.3 0.6-10.6 1.3 0-0.2 0-0.5 0-0.2-0.1-0.4 0-0.2 0-0.5 0-0.2 0-0.4z"/>
			<path id="Layer" class="s7" d="m10.9 67.8l-10.6 1.3q0-0.2 0-0.4 0-0.2-0.1-0.5 0-0.2 0-0.4 0-0.2 0-0.5z"/>
			<path id="Layer" class="s7" d="m170.9 105.8q5.2-0.2 10.4-0.3c0 0.6-0.1 1.2-0.1 1.8q-5.2-0.8-10.3-1.5z"/>
			<path id="Layer" class="s7" d="m171.1 100.6q5.3-0.2 10.5-0.4c0 0.6-0.1 1.2-0.1 1.8z"/>
			<path id="Layer" class="s7" d="m171.4 95.3q5.3-0.1 10.5-0.3c0 0.6-0.1 1.2-0.1 1.8q-5.2-0.8-10.4-1.5z"/>
			<path id="Layer" class="s7" d="m171.6 90.1l10.6-0.3c0 0.6-0.1 1.2-0.1 1.7q-5.2-0.7-10.5-1.4z"/>
			<path id="Layer" class="s7" d="m171.9 84.9q5.3-0.2 10.6-0.4c0 0.6-0.1 1.2-0.1 1.8z"/>
			<path id="Layer" class="s7" d="m172.2 79.6l10.6-0.3c-0.1 0.6-0.1 1.2-0.1 1.8q-5.3-0.8-10.5-1.5z"/>
			<path id="Layer" class="s7" d="m172.4 74.4q5.4-0.2 10.7-0.4l-0.1 1.8z"/>
			<path id="Layer" class="s7" d="m172.7 69.1q5.3-0.2 10.7-0.3c-0.1 0.6-0.1 1.2-0.1 1.8q-5.3-0.8-10.6-1.5z"/>
			<path id="Layer" class="s7" d="m45.3 72.1q-0.5 0.1-1 0.2-0.5 0-1 0.1-0.5 0.1-1 0.2-2.5 0.6-5 1.1-0.5 0.1-0.9 0.3c-1.2 0.2-1.2 0.2-1.7 1.2q0 0.1-0.1 0.2 0 0.1-0.1 0.2 0 0.1-0.1 0.2 0 0.1 0 0.2c-0.6 1.4-1.1 3-1.8 4.4q-0.2 0.5-0.4 1.1-0.3 0.5-0.5 1-0.2 0.5-0.4 1.1-0.1 0.5-0.3 1c-0.4 1.2-0.7 2.3-1 3.4-0.2 0.8-0.4 1.6-0.6 2.4q-0.1 0.4-0.2 0.7-0.1 0.3-0.2 0.7 0 0.3-0.1 0.7 0 0.3 0 0.7c0 0.4-0.2 0.9-0.2 1.3q-0.1 0.4-0.1 0.8 0 0.4 0.1 0.8 0 0.5 0.2 0.9 0.1 0.4 0.2 0.7 0.1 0.1 0.1 0.1 0 0 0 0 0 0.1 0 0.1 0 0 0 0 0.1 0.1 0.1 0.2 0 0.2 0 0.3-0.1 0.1-0.2 0.2 0 0.1-0.1 0.1-0.1 0-0.1 0 0 0-0.1 0.1 0 0 0 0 0 0-0.1 0-0.2 0-0.4 0-0.2 0-0.5 0-0.2-0.1-0.4-0.1-0.2-0.1-0.4-0.2-0.2-0.1-0.4-0.2-0.2-0.1-0.4-0.3-0.3-0.1-0.5-0.2-0.2-0.2-0.4-0.3-0.1-0.1-0.2-0.3-0.2-0.1-0.2-0.3-0.1-0.1-0.2-0.3 0-0.2-0.1-0.3c0-0.6-0.1-1.1-0.2-1.6q0-0.5 0-1 0-0.5 0.1-1.1 0-0.5 0.1-1 0.1-0.5 0.2-1c0.5-2.4 1.2-4.7 1.9-7 0.6-2 1.2-4 1.9-5.9q0.3-0.6 0.5-1.3c0.1-0.1-0.1-0.3-0.2-0.2-0.6 0.2-1.2 0.3-1.7 0.6-1.5 0.6-3.1 1.2-4.5 1.9q-0.7 0.3-1.3 0.6-0.6 0.3-1.2 0.7-0.5 0.3-1.1 0.7-0.6 0.4-1.1 0.8-0.2 0.2-0.4 0.4-0.2 0.2-0.4 0.4-0.1 0.2-0.3 0.4-0.1 0.2-0.3 0.5-0.1 0.1-0.1 0.3-0.1 0.2-0.2 0.3 0 0.2 0 0.4 0 0.2 0 0.4 0 0 0 0 0 0.1 0 0.1 0 0 0 0.1 0 0 0 0.1 0 0.1-0.1 0.1 0 0.1-0.1 0.2 0 0-0.1 0.1-0.1 0-0.2 0 0 0-0.1 0 0 0 0 0 0 0-0.1-0.1 0 0 0 0-0.3-0.1-0.5-0.3-0.3-0.3-0.5-0.5-0.2-0.3-0.3-0.6-0.2-0.3-0.2-0.6v-0.1q-0.2-0.5-0.2-1 0-0.5 0.2-1 0.1-0.5 0.3-0.9 0.3-0.5 0.7-0.8 0.2-0.3 0.5-0.5 0.2-0.3 0.5-0.5 0.3-0.2 0.6-0.4 0.3-0.2 0.6-0.4 0.6-0.4 1.2-0.8 0.6-0.3 1.3-0.7 0.6-0.3 1.3-0.6 0.6-0.3 1.3-0.6 1-0.5 2.1-1 1.1-0.4 2.2-0.8 1.1-0.4 2.2-0.8 1.2-0.4 2.3-0.8c1.6-0.5 3.2-0.9 4.9-1.3 1.6-0.5 3.4-0.9 5.2-1.3q1.1-0.2 2.2-0.4 0.5-0.1 1.1-0.2 0.5 0 1-0.1 0.5-0.1 1-0.1 0.6-0.1 1.1-0.1 0.2 0 0.4 0 0.2 0 0.4 0.1 0.1 0.1 0.3 0.2 0.1 0.2 0.2 0.3 0.1 0.3 0.2 0.5 0.1 0.2 0.2 0.5 0 0.2 0.1 0.4 0 0.3 0 0.5 0 0.2-0.1 0.4 0 0.2-0.2 0.3-0.1 0.1-0.2 0.2-0.2 0.1-0.4 0.1-0.3 0.1-0.6 0.2-0.2 0-0.5 0.1-0.3 0.1-0.6 0.1-0.3 0.1-0.6 0.1-0.5 0.1-1 0.1z"/>
			<path id="Layer" fill-rule="evenodd" class="s7" d="m72.8 85.3q-0.1 0.4-0.2 0.8-0.1 0.4-0.3 0.8-0.1 0.4-0.3 0.8-0.3 0.7-0.6 1.3-0.4 0.7-0.7 1.3-0.4 0.7-0.8 1.3-0.4 0.6-0.8 1.2-0.3 0.5-0.7 0.8-0.4 0.4-1 0.6-0.5 0.3-1 0.4-0.6 0.1-1.1 0.1-0.3 0-0.5-0.1-0.3 0-0.5-0.1-0.2-0.1-0.5-0.2-0.2-0.1-0.4-0.3-0.6-0.3-1.1-0.8-0.5-0.5-0.8-1.1-0.3-0.6-0.4-1.3-0.1-0.7 0-1.4 0.1-0.9 0.3-1.8 0.2-0.8 0.4-1.7 0.2-0.9 0.5-1.8 0.3-0.8 0.6-1.7c0.7-1.6 1.4-3.4 2.1-5.1 0.1-0.3 0.3-0.5 0.4-0.8q0-0.1 0-0.1 0 0 0-0.1 0 0 0-0.1 0 0 0-0.1 0 0-0.1 0.1 0 0 0 0-0.1 0-0.1 0 0 0-0.1 0.1-0.3 0.3-0.5 0.7-0.3 0.4-0.6 0.7-0.3 0.4-0.5 0.8-0.3 0.4-0.5 0.8c-1.2 1.8-2.2 3.7-3.2 5.6-0.8 1.5-1.5 3-2.3 4.5q-0.4 0.8-0.8 1.5-0.1 0.2-0.2 0.3-0.1 0.1-0.3 0.1-0.1 0.1-0.3 0.1-0.2 0-0.3 0-0.6 0-1.1-0.2-0.5-0.2-1-0.5-0.5-0.4-0.9-0.8-0.3-0.4-0.6-0.9-0.1-0.2-0.2-0.4 0-0.2 0-0.4-0.1-0.2 0-0.5 0-0.2 0-0.4 0.2-0.8 0.4-1.7c-0.9 1.4-1.8 2.7-2.7 4q-0.2 0.3-0.5 0.6-0.2 0.3-0.5 0.5-0.2 0.3-0.4 0.6-0.3 0.2-0.6 0.5-0.3 0.2-0.6 0.4-0.3 0.2-0.7 0.3-0.4 0.2-0.8 0.2-0.4 0.1-0.8 0.1-0.5 0-1 0-0.6-0.1-1.1-0.3-0.5-0.1-1-0.3-0.5-0.3-0.9-0.6-0.9-0.5-1.6-1.3-0.6-0.8-1-1.7-0.5-1-0.6-2-0.1-1 0.2-2 0.1-1 0.4-2 0.2-1 0.6-1.9 0.4-1 1-1.8 0.5-0.9 1.2-1.7 0.3-0.4 0.7-0.7 0.3-0.4 0.7-0.8 0.4-0.3 0.8-0.6 0.4-0.4 0.8-0.7 0.2-0.1 0.4-0.2 0.2-0.1 0.4-0.2 0.3 0 0.5 0 0.2 0 0.5 0.1c0.6 0.1 1.2 0.2 1.8 0.4q0.2 0.1 0.5 0.1 0.2 0.1 0.4 0.2 0.2 0.1 0.4 0.2 0.2 0.1 0.4 0.2 0.3 0.2 0.6 0.5 0.2 0.3 0.3 0.7 0.1 0.3 0.1 0.7 0 0.3-0.1 0.7-0.2 0.7-0.4 1.5-0.2 0.7-0.4 1.4-0.3 0.8-0.6 1.5-0.3 0.7-0.6 1.4-0.1 0.3-0.3 0.6-0.1 0.3-0.3 0.6-0.1 0.3-0.3 0.6-0.2 0.3-0.3 0.6-0.2 0.2-0.3 0.4-0.2 0.2-0.3 0.4-0.2 0.2-0.4 0.4-0.1 0.2-0.3 0.4-0.2 0.1-0.3 0.2-0.2 0.1-0.4 0.1-0.2 0.1-0.4 0.1-0.2-0.1-0.4-0.1-0.3-0.1-0.5-0.2-0.3-0.1-0.5-0.3-0.3-0.1-0.5-0.3-0.3-0.1-0.5-0.3c-0.2-0.3-0.5-0.5-0.8-0.3q-0.1 0.1-0.2 0.2-0.1 0.1-0.1 0.2-0.1 0.1-0.1 0.2 0 0.1 0 0.2-0.1 0.3-0.1 0.5 0 0.2 0 0.4 0 0.3 0 0.5 0 0.2 0.1 0.5 0 0.3 0.2 0.7 0.1 0.3 0.4 0.6 0.3 0.2 0.6 0.4 0.4 0.1 0.8 0.1 0 0 0.1 0 0 0 0.1 0 0-0.1 0.1-0.1 0 0 0.1 0 0.5-0.1 0.9-0.3 0.4-0.1 0.8-0.3 0.4-0.3 0.8-0.5 0.4-0.3 0.7-0.6 0.6-0.6 1.1-1.2 0.5-0.5 1-1.1 0.6-0.6 1-1.2 0.5-0.6 1-1.3c0.8-1 1.7-2.1 2.6-3.1q0 0 0 0 0-0.1 0.1-0.1 0 0 0 0 0 0 0 0 0.3-0.8 0.5-1.5 0.2-0.7 0.5-1.5 0.3-0.7 0.6-1.4 0.3-0.7 0.6-1.5 0-0.1 0.1-0.3 0-0.1 0.1-0.3 0-0.2 0.1-0.3 0-0.2 0-0.4c0.1-0.4 0.4-0.5 0.9-0.5q0.3 0 0.6 0.1 0.3 0 0.6 0.1 0.2 0.1 0.5 0.3 0.3 0.1 0.6 0.2 0.3 0.2 0.5 0.5 0.2 0.3 0.3 0.6 0.1 0.3 0.1 0.7 0 0.3-0.2 0.6c-0.4 1.1-0.8 2.2-1.2 3.2-0.4 1.3-0.9 2.5-1.3 3.8-0.2 0.5-0.3 0.9-0.5 1.4q0 0 0 0.1 0 0 0 0.1 0 0 0 0.1 0 0 0 0.1c0.1-0.1 0.3-0.2 0.3-0.3 0.3-0.6 0.6-1.2 0.9-1.8 1.2-2.3 2.5-4.5 3.8-6.8q0.3-0.5 0.6-0.9 0.3-0.4 0.6-0.8 0.4-0.4 0.7-0.7 0.4-0.4 0.8-0.7 0.2-0.2 0.4-0.3 0.2-0.1 0.4-0.2 0.2-0.2 0.4-0.3 0.2-0.1 0.4-0.2 0.2-0.1 0.4-0.2 0.2-0.1 0.5-0.1 0.2 0 0.4 0 0.3 0.1 0.5 0.1 0.4 0.1 0.7 0.3 0.4 0.1 0.7 0.2 0.4 0.2 0.7 0.4 0.3 0.2 0.6 0.4 0.2 0.2 0.4 0.4 0.2 0.3 0.3 0.5 0.1 0.3 0.1 0.6 0 0.3 0 0.6-0.2 0.5-0.3 1-0.2 0.5-0.4 1-0.2 0.5-0.4 1-0.2 0.4-0.4 0.9c-0.6 1.4-1.3 2.8-1.9 4.3q-0.1 0.3-0.2 0.7-0.2 0.4-0.3 0.7-0.1 0.4-0.2 0.8-0.2 0.3-0.3 0.7c-0.3 1.2-0.6 2.3-1 3.5-0.1 0.4-0.3 1.1 0.1 1.2 0.5 0.2 0.8-0.4 1-0.8q2.5-3.2 5-6.3 0.1-0.1 0.1-0.1 0 0 0 0 0 0 0 0 0-0.1 0.1-0.1l0.7-0.5q0 0.1 0 0.2 0 0.1 0.1 0.2 0 0.1 0 0.2 0 0.1 0 0.2 0 0.4-0.1 0.9zm-31.1-1.3q-0.1 0.2 0 0.5 0 0.2 0.1 0.4 0.1 0.2 0.3 0.4c0.2 0.3 0.4 0.4 0.8 0.1q0.2-0.2 0.4-0.4 0.2-0.2 0.4-0.5 0.2-0.2 0.3-0.5 0.1-0.3 0.2-0.6 1-2.6 2-5.3 0-0.1 0.1-0.1 0-0.1 0-0.1 0-0.1 0-0.1 0-0.1 0-0.2c0-0.1-0.2-0.2-0.3-0.3q-0.1 0-0.1 0.1-0.1 0-0.2 0.1 0 0-0.1 0.1-0.1 0-0.1 0.1c-0.2 0.2-0.4 0.4-0.6 0.6q-0.5 0.6-1 1.2-0.4 0.6-0.8 1.3-0.4 0.6-0.8 1.3-0.3 0.7-0.5 1.4-0.1 0.3-0.1 0.5z"/>
			<path id="Layer" fill-rule="evenodd" class="s7" d="m81.4 66q0.3 0 0.5 0.1 0.3 0.1 0.6 0.2 0.2 0.1 0.5 0.2 0.2 0.2 0.5 0.4 0.2 0.1 0.4 0.4 0.1 0.2 0.2 0.5 0.1 0.3 0.1 0.6 0 0.3-0.1 0.5c-0.2 0.7 0 0.9 0.7 0.9h1.5v-0.1h3.1q0.1 0 0.2 0 0.1 0 0.2 0.1 0.1 0 0.2 0.1 0.1 0 0.2 0.1c0.6 0.6 0.3 1.4-0.6 1.5-0.7 0.2-1.3 0.2-2 0.2-1.1 0-2.3 0.1-3.4 0.1q-0.2 0-0.5 0.1-0.2 0.1-0.4 0.2-0.2 0.1-0.4 0.3-0.1 0.2-0.2 0.4-0.6 1.2-1.1 2.3-0.5 1.2-1 2.4-0.4 1.1-0.8 2.3-0.5 1.2-0.8 2.4c-0.3 1.3-0.9 2.5-1.3 3.8-0.5 1.4-0.9 3-1.3 4.4-0.5 1.7-0.9 3.4-1.3 5q-0.2 1-0.4 2 0 0.1 0 0.2 0 0.1 0 0.2 0.1 0.1 0.1 0.1 0 0.1 0 0.2c0.2-0.1 0.5-0.2 0.7-0.3q0.1-0.2 0.3-0.4 0.1-0.2 0.3-0.4 0.1-0.2 0.2-0.4 0.2-0.2 0.3-0.4c1.1-1.8 2.2-3.6 3.2-5.4q1-1.7 2-3.5 0-0.1-0.1-0.2 0-0.1 0-0.2 0-0.1 0-0.2 0-0.2 0-0.3-0.1-0.6 0-1.1 0-0.6 0.2-1.2 0.1-0.5 0.4-1.1 0.2-0.5 0.5-1c0.9-1.4 1.7-2.9 2.7-4.2q0.3-0.4 0.6-0.7 0.4-0.4 0.7-0.7 0.4-0.4 0.7-0.7 0.4-0.4 0.7-0.7 0.2-0.1 0.3-0.2 0.1-0.1 0.2-0.3 0.1-0.1 0.2-0.2 0.2-0.1 0.3-0.1 0.2-0.2 0.4-0.2 0.2-0.1 0.5-0.2 0.2 0 0.4-0.1 0.3 0 0.5 0 0.6 0 1.3 0.2 0.6 0.1 1.2 0.3 0.6 0.3 1.2 0.6 0.5 0.3 1 0.7c0.6 0.5 0.8 0.5 1.1-0.2l0.3-0.4c0.4-1 0.5-1.1 1.6-0.9q0.5 0.1 1 0.4 0.4 0.2 0.7 0.6 0.3 0.4 0.4 0.9 0.1 0.5 0.1 1-0.2 0.4-0.3 0.8-0.1 0.3-0.3 0.7-0.1 0.4-0.3 0.8-0.2 0.3-0.3 0.7l-1.5 3.7c-0.4 0.8-0.8 1.5-1 2.2q-0.1 0.3-0.2 0.6-0.1 0.3-0.2 0.6-0.1 0.2-0.2 0.5 0 0.3-0.1 0.6 0 0.1 0 0.2 0.1 0.1 0.1 0.2 0 0.1 0 0.2 0.1 0.1 0.1 0.3 0.1-0.1 0.2-0.1 0.1 0 0.2 0 0.1-0.1 0.2-0.1 0.1 0 0.2-0.1c0.9-0.7 1.8-1.5 2.7-2.3 0.1-0.1 0.1-0.2 0.2-0.2q0.4-0.3 0.9-0.6c0.3 0.5 0 0.8-0.1 1.1q-0.3 0.5-0.5 1-0.3 0.4-0.5 0.9-0.3 0.4-0.5 0.9-0.3 0.4-0.6 0.8-0.3 0.5-0.7 0.8-0.5 0.3-1 0.4-0.5 0.1-1.1 0-0.5-0.1-1-0.4l-0.1-0.1q-0.5-0.3-1-0.8-0.5-0.4-0.8-0.9-0.3-0.6-0.5-1.2-0.2-0.6-0.3-1.2 0-0.1 0-0.2 0-0.1 0-0.3 0-0.1 0-0.2-0.1-0.1-0.1-0.2c0-0.1-0.1-0.4-0.2-0.4q-0.1 0-0.1 0-0.1 0.1-0.2 0.1 0 0-0.1 0.1 0 0 0 0.1c-1 1.3-2 2.7-3 4q-0.2 0.3-0.4 0.6-0.3 0.2-0.6 0.4-0.4 0.2-0.7 0.2-0.4 0.1-0.7 0.1-0.4 0-0.7 0-0.3 0-0.6-0.1-0.3-0.1-0.6-0.2-0.3-0.1-0.6-0.2-0.3-0.2-0.5-0.4-0.2-0.2-0.5-0.5-0.2-0.2-0.4-0.5-0.1-0.3-0.3-0.5c0 0.1-0.1 0.3-0.1 0.4-0.9 2.1-1.7 4.1-2.7 6.2q-0.2 0.4-0.4 0.9-0.3 0.4-0.5 0.9-0.3 0.4-0.5 0.8-0.3 0.5-0.6 0.9-0.2 0.4-0.5 0.7-0.2 0.4-0.6 0.7-0.3 0.3-0.7 0.5-0.4 0.2-0.8 0.4-0.3 0.1-0.6 0.1-0.2 0-0.5 0-0.3 0-0.6-0.1-0.2-0.1-0.5-0.2-0.6-0.3-1.2-0.9-0.5-0.5-0.8-1.2-0.3-0.7-0.4-1.4-0.1-0.8 0.1-1.5 0.2-1.4 0.5-2.7 0.3-1.3 0.6-2.7 0.4-1.3 0.7-2.6 0.4-1.4 0.8-2.7 1.3-3.9 2.7-7.7c0.5-1.5 1.2-3 1.7-4.5 0.3-0.9 0.1-1.1-0.8-1.1-2 0-3.9 0.5-5.9 0.6h-1.6c-0.3 0-0.7 0-0.7-0.4 0-0.4 0.4-0.3 0.7-0.4q2.9-0.4 5.8-0.9 0.3 0 0.6-0.1 0.3 0 0.6 0 0.3-0.1 0.6-0.1 0.3 0 0.6-0.1 0.2 0.1 0.5 0 0.2-0.1 0.4-0.2 0.2-0.1 0.4-0.3 0.1-0.2 0.2-0.5 0.6-1.3 1.1-2.8c0.4-1 0.5-1 1.5-0.8zm3.3 22.4h0.1q0 0.1 0 0.2 0 0.1 0 0.1 0 0.1 0 0.2 0.1 0.1 0.1 0.1 0 0.1 0 0.1 0 0 0 0.1 0 0 0.1 0 0 0.1 0 0.1c0.2 0.5 0.4 0.6 0.9 0.3q0.1 0 0.1-0.1 0.1 0 0.2-0.1 0.1 0 0.1-0.1 0.1-0.1 0.2-0.2 0.1-0.1 0.3-0.3 0.2-0.2 0.3-0.4 0.2-0.2 0.4-0.4 0.1-0.2 0.3-0.4c1.1-1.7 2.2-3.3 3.4-5 1.1-1.7 2.3-3.3 3.6-5q0-0.1 0.1-0.3 0-0.1 0-0.2 0-0.2 0-0.3-0.1-0.1-0.2-0.2-0.1-0.2-0.3-0.4-0.2-0.1-0.4-0.2-0.2 0-0.5 0-0.2 0-0.4 0.1-0.5 0.3-0.9 0.6-0.4 0.2-0.7 0.5-0.4 0.3-0.8 0.7-0.3 0.3-0.7 0.7-0.4 0.4-0.8 0.9-0.4 0.5-0.8 1-0.4 0.6-0.8 1.1-0.4 0.5-0.7 1.1-0.3 0.5-0.6 1-0.3 0.5-0.6 1.1-0.2 0.5-0.4 1.1-0.2 0.6-0.4 1.1c-0.1 0.5-0.1 0.9-0.2 1.4z"/>
			<path id="Layer" class="s7" d="m114.1 67.8q0.1 0.3 0.2 0.6 0.1 0.2 0.1 0.5 0 0.3-0.1 0.6c-0.2 0.7 0 0.9 0.7 0.9q0.1 0 0.3 0 0.2 0 0.4 0 0.1 0 0.3 0.1 0.2 0 0.4 0v-0.2c0.7 0 1.5 0.1 2.2 0.1q0-0.1 0-0.1 0 0 0-0.1 0 0 0 0 0 0 0-0.1 0.1-0.5 0.3-1 0.1-0.4 0.3-0.9 0.2-0.5 0.4-1 0.2-0.4 0.5-0.9 0-0.1 0.1-0.2 0.2-0.1 0.3-0.2 0.2-0.1 0.3-0.1 0.2 0 0.4 0 0.3 0.1 0.6 0.1 0.4 0.1 0.7 0.3 0.3 0.1 0.6 0.3 0.3 0.2 0.6 0.4 0.2 0.2 0.4 0.4 0.1 0.3 0.2 0.5 0 0.3 0 0.6-0.1 0.3-0.2 0.5-0.2 0.4-0.5 0.8-0.2 0.4-0.5 0.7-0.3 0.4-0.7 0.7-0.3 0.3-0.7 0.5-0.1 0.1-0.3 0.2-0.1 0.1-0.3 0.1-0.2 0.1-0.4 0.1-0.1 0-0.3 0-0.1 0-0.2 0.1-0.1 0-0.2 0.1-0.1 0-0.2 0.1-0.1 0-0.2 0c-0.6 0-1.3 0-2 0h-3.4q-0.2 0-0.5 0-0.2 0.1-0.4 0.2-0.2 0.2-0.4 0.4-0.2 0.1-0.2 0.4-0.6 1.1-1.2 2.2-0.5 1.2-1 2.3-0.6 1.2-1 2.3-0.5 1.2-0.9 2.4c-0.4 1.2-1 2.4-1.4 3.7q-0.8 2.1-1.5 4.4-0.8 2.5-1.4 5-0.1 0.2-0.2 0.5 0 0.2-0.1 0.5 0 0.2-0.1 0.5-0.1 0.2-0.1 0.5 0 0.1 0 0.1 0 0.1 0 0.2 0 0.1 0 0.2 0.1 0.1 0.1 0.2 0.1 0 0.2-0.1 0.1 0 0.1 0 0.1-0.1 0.2-0.1 0.1-0.1 0.1-0.1 0.2-0.2 0.4-0.4 0.1-0.2 0.3-0.4 0.1-0.2 0.3-0.4 0.1-0.1 0.2-0.4 1.7-2.6 3.4-5.3 1.2-1.8 2.4-3.7 0-0.5 0.2-1 0.1-0.5 0.2-1 0.1-0.4 0.3-0.9 0.2-0.5 0.4-1c0.6-1.7 1.2-3.3 1.9-5 0.4-1 0.9-1.9 1.4-2.9l0.7-1.5q0.1-0.1 0.2-0.3 0.1-0.1 0.3-0.2 0.2-0.1 0.4-0.1 0.2 0 0.4 0 0.2 0.1 0.4 0.2 0.3 0.1 0.5 0.2 0.2 0.1 0.4 0.2 0.3 0.1 0.5 0.3 0.3 0.1 0.5 0.4 0.2 0.3 0.3 0.6 0.1 0.4 0 0.7 0 0.4-0.2 0.7 0 0 0 0 0 0 0 0 0 0 0 0 0 0 0 0c-1 2.3-2.1 4.5-3.1 6.7-0.7 1.7-1.2 3.4-1.8 5.1q0 0 0 0.1 0 0 0 0 0 0 0 0.1 0 0 0 0 0 0.1 0.1 0.2 0 0.1 0 0.2 0 0.1 0 0.2 0.1 0.1 0.1 0.2 0.1 0 0.2 0 0.1-0.1 0.1-0.1 0.1 0 0.2-0.1 0.1 0 0.2-0.1 0.5-0.4 0.9-0.8 0.5-0.4 1-0.8 0.4-0.5 0.8-0.9 0.5-0.5 0.9-1 0 0 0 0 0.1-0.1 0.1-0.1 0 0 0 0 0.1-0.1 0.1-0.1 0.4-0.4 0.6 0.1 0 0.1 0 0.2 0 0 0 0.1 0.1 0.1 0.1 0.1 0 0.1 0 0.2-0.1 0.8-0.3 1.5-0.2 0.7-0.6 1.4-0.3 0.7-0.8 1.3-0.6 0.5-1.2 1-0.4 0.3-0.9 0.5-0.6 0.2-1.1 0.2-0.6 0-1.1-0.2-0.5-0.2-1-0.6-0.3-0.2-0.6-0.5-0.3-0.3-0.6-0.6-0.2-0.3-0.4-0.7-0.2-0.3-0.4-0.7-0.1 0.4-0.2 0.8c-0.9 2-1.9 4-2.9 6q-0.2 0.5-0.5 0.9-0.2 0.5-0.5 0.9-0.3 0.4-0.5 0.9-0.3 0.4-0.6 0.8-0.2 0.4-0.5 0.7-0.3 0.4-0.7 0.6-0.3 0.3-0.7 0.5-0.4 0.2-0.8 0.4-0.3 0.1-0.6 0.1-0.2 0-0.5 0-0.3 0-0.6-0.1-0.2-0.1-0.5-0.3-0.6-0.3-1.1-0.9-0.5-0.5-0.8-1.2-0.3-0.7-0.4-1.4 0-0.7 0.2-1.5 0.3-1.3 0.6-2.7 0.3-1.3 0.7-2.6 0.4-1.4 0.8-2.7 0.4-1.3 0.9-2.6 1.4-3.9 3-7.7c0.6-1.4 1.3-3 1.9-4.4 0.4-0.9 0.1-1.1-0.8-1.1-2-0.1-3.9 0.4-5.9 0.4q-0.2 0-0.4 0-0.2 0-0.4 0-0.2 0-0.4 0-0.2 0-0.4 0c-0.3 0-0.6-0.1-0.6-0.5 0-0.3 0.3-0.3 0.6-0.3 1.9-0.2 3.9-0.5 5.9-0.7q0.2 0 0.5-0.1 0.3 0 0.6 0 0.3-0.1 0.6-0.1 0.3 0 0.7 0 0.2 0 0.4-0.1 0.3 0 0.5-0.2 0.2-0.1 0.3-0.3 0.2-0.2 0.3-0.4 0.7-1.4 1.2-2.8c0.4-1 0.5-1 1.5-0.8q0.3 0.1 0.5 0.1 0.3 0.1 0.6 0.3 0.2 0.1 0.5 0.2 0.2 0.2 0.4 0.4 0.2 0.2 0.4 0.4z"/>
			<path id="Layer" fill-rule="evenodd" class="s7" d="m138.5 80.5q-0.4 0.5-0.8 0.9-0.5 0.5-0.9 0.9-0.5 0.4-1 0.8-0.4 0.3-0.8 0.6-0.4 0.4-0.8 0.7-0.4 0.4-0.7 0.8-0.4 0.4-0.7 0.8c-0.3 0.4-0.6 0.8-0.9 1.3q-0.5 0.6-1 1.2-0.5 0.6-1.1 1.2-0.6 0.6-1.2 1.1-0.6 0.6-1.2 1.1-0.2 0.2-0.5 0.4-0.3 0.1-0.7 0.2-0.3 0.1-0.6 0.2-0.4 0-0.7-0.1-0.3-0.1-0.6-0.2-0.2-0.1-0.5-0.3-0.2-0.1-0.5-0.3-0.2-0.1-0.4-0.3-0.4-0.4-0.7-0.8-0.4-0.4-0.6-0.8-0.3-0.4-0.5-0.9-0.1-0.5-0.2-1-0.1-0.2-0.1-0.5 0-0.2 0-0.5 0-0.2 0-0.5 0-0.2 0-0.5 0.1-0.6 0.2-1.2 0.2-0.6 0.4-1.2 0.2-0.6 0.4-1.2 0.3-0.5 0.6-1.1c0.5-0.8 0.9-1.7 1.5-2.6q0.4-0.6 0.8-1.3 0.4-0.6 0.8-1.2 0.5-0.6 0.9-1.2 0.5-0.6 1-1.2 0.2-0.2 0.4-0.4 0.3-0.2 0.6-0.3 0.3 0 0.6 0 0.3 0 0.6 0.2c0.1 0.1 0.3 0.2 0.5 0.2q0.1 0.1 0.3 0.2 0.1 0 0.3 0 0.1 0 0.3-0.1 0.1 0 0.2-0.1 0.3-0.2 0.5-0.3 0.2-0.1 0.5-0.1 0.3 0 0.5 0 0.3 0.1 0.5 0.2 0.3 0 0.5 0.1 0.3 0.1 0.5 0.2 0.2 0 0.5 0.1 0.2 0.1 0.4 0.2 0.5 0.3 0.9 0.8 0.4 0.5 0.7 1 0.2 0.6 0.2 1.2 0 0.6-0.1 1.2c-0.1 0.3-0.3 0.6-0.4 0.9q0 0 0 0.1 0 0.1 0 0.1 0 0.1 0 0.2 0 0 0 0.1 0.1 0 0.2 0 0 0 0.1 0 0.1 0 0.1-0.1 0.1 0 0.2 0c0.3-0.2 0.6-0.5 0.9-0.7q0.9-0.7 1.8-1.4 0.1 0 0.1 0 0.1 0 0.2-0.1 0 0 0.1 0 0.1 0 0.1 0c0 0.2 0.2 0.5 0.1 0.6q-0.1 0.2-0.2 0.5-0.1 0.2-0.2 0.4-0.2 0.2-0.3 0.4-0.1 0.2-0.3 0.4-0.4 0.5-0.8 1zm-9.4 6q0.1-0.1 0-0.3 0-0.1 0-0.2 0-0.1-0.1-0.1 0-0.1-0.1-0.1 0 0 0 0 0 0 0 0-0.1 0-0.1 0-0.9-0.7-1.8-1.4c-0.4-0.3-0.7-0.3-0.9 0.2-0.5 1.5-1 3-1.4 4.5h0.1v0.2c0 0.6 0.1 0.7 0.7 0.5q0.1 0 0.3-0.1 0.1-0.1 0.2-0.2 0.1-0.1 0.3-0.2 0.1-0.1 0.2-0.2 0.4-0.2 0.7-0.5 0.3-0.3 0.6-0.6 0.4-0.3 0.6-0.7 0.3-0.3 0.6-0.7 0.1 0 0.1-0.1zm4.9-9.8c-0.4-0.3-0.6 0.2-0.8 0.4q-0.5 0.6-1 1.2-0.4 0.6-0.9 1.3-0.4 0.6-0.7 1.3-0.4 0.7-0.7 1.4 0 0.1-0.1 0.2 0 0.1 0 0.2-0.1 0.1-0.1 0.2 0 0.1 0 0.2c-0.1 0.8 0.1 1 0.6 0.7q0.1 0 0.2 0 0-0.1 0.1-0.1 0.1 0 0.1-0.1 0.1 0 0.1-0.1 0.2-0.1 0.3-0.2 0.1-0.2 0.2-0.3 0.1-0.1 0.2-0.3 0.1-0.1 0.2-0.3 1.2-2.3 2.3-4.7c0.1-0.3 0.5-0.8 0-1z"/>
			<path id="Layer" class="s7" d="m158.3 86.8q0 0.1 0 0.2 0 0.1 0 0.2 0 0.1 0 0.2 0 0.1 0 0.2-0.1 0.4-0.2 0.8-0.1 0.4-0.3 0.8-0.2 0.4-0.4 0.8-0.2 0.4-0.4 0.8-0.4 0.6-0.8 1.2-0.4 0.6-0.8 1.2-0.4 0.6-0.8 1.2-0.5 0.6-0.9 1.1-0.4 0.5-0.9 0.8-0.4 0.3-1 0.5-0.5 0.2-1 0.2-0.6 0.1-1.1 0-0.3 0-0.5-0.1-0.3-0.1-0.5-0.2-0.2-0.1-0.4-0.2-0.2-0.2-0.4-0.4-0.6-0.3-1-0.9-0.5-0.5-0.7-1.1-0.3-0.7-0.3-1.4 0-0.7 0.2-1.3 0.2-0.9 0.4-1.8 0.3-0.8 0.6-1.7 0.3-0.8 0.7-1.6 0.4-0.9 0.8-1.7 1.3-2.4 2.6-4.9c0.1-0.3 0.3-0.5 0.5-0.8q0 0 0-0.1 0 0 0 0 0-0.1 0-0.1 0-0.1 0-0.1c-0.1 0-0.2 0-0.3 0.1-0.8 0.9-1.7 1.7-2.4 2.7-1.3 1.7-2.5 3.5-3.7 5.3-1 1.4-1.9 2.8-2.8 4.3-0.3 0.5-0.6 0.9-1 1.4q-0.1 0.1-0.2 0.2-0.1 0.1-0.3 0.2-0.1 0-0.3 0-0.2 0-0.3-0.1-0.6-0.1-1.1-0.3-0.5-0.2-1-0.6-0.4-0.4-0.7-0.8-0.4-0.5-0.6-1-0.1-0.2-0.1-0.4-0.1-0.2-0.1-0.4 0-0.3 0.1-0.5 0-0.2 0.1-0.4 0.5-1.7 1.1-3.4 0.3-1 0.8-2.1 0.4-1 0.9-2 0.4-1.1 0.9-2.1 0.6-1 1.1-1.9 0.1-0.2 0.1-0.3 0.1-0.2 0.2-0.4 0-0.1 0.1-0.3 0-0.1 0.1-0.3c0.2-0.4 0.4-0.5 0.9-0.4q0.3 0 0.6 0.1 0.3 0.1 0.5 0.2 0.3 0.1 0.6 0.3 0.2 0.2 0.5 0.4 0.3 0.1 0.5 0.4 0.2 0.3 0.2 0.7 0.1 0.3 0 0.7 0 0.3-0.2 0.6-0.7 1.5-1.5 3-0.9 1.8-1.7 3.6c-0.2 0.5-0.5 0.9-0.7 1.4q0 0 0 0.1 0 0 0 0.1 0 0 0 0.1 0 0 0 0.1c0.1-0.1 0.3-0.2 0.4-0.3 0.4-0.5 0.7-1.1 1-1.7q2.2-3.2 4.5-6.3 0.3-0.5 0.6-0.9 0.4-0.3 0.8-0.7 0.3-0.3 0.7-0.7 0.4-0.3 0.9-0.6 0.2-0.1 0.4-0.2 0.2-0.1 0.4-0.2 0.2-0.1 0.4-0.2 0.2-0.1 0.4-0.2 0.3-0.1 0.5-0.2 0.2 0 0.5 0 0.2 0 0.4 0.1 0.3 0 0.5 0.1 0.3 0.1 0.7 0.3 0.3 0.2 0.7 0.4 0.3 0.2 0.6 0.4 0.3 0.2 0.6 0.5 0.2 0.2 0.4 0.4 0.1 0.3 0.2 0.6 0.1 0.3 0.1 0.6-0.1 0.3-0.2 0.5-0.1 0.5-0.4 1-0.2 0.5-0.4 0.9-0.3 0.5-0.5 1-0.3 0.4-0.6 0.9c-0.7 1.4-1.5 2.7-2.2 4-0.5 0.9-1 1.8-1.4 2.8q-0.7 1.7-1.3 3.4c-0.1 0.4-0.4 1 0 1.3 0.5 0.2 0.8-0.4 1.1-0.7q2.8-3 5.6-5.9 0 0 0 0 0 0 0.1 0 0-0.1 0-0.1 0 0 0 0z"/>
			<path id="Layer" class="s7" d="m163.4 82.1q-0.1 0.1-0.2 0.2 0 0.1-0.1 0.2 0 0.1 0 0.2-0.1 0.2 0 0.3c0 0.2 0 0.2 0.2 0.2 0 0.2-0.1 0.2-0.3 0.2-0.6 0-0.8-0.3-0.8-0.7q0.2-0.4 0.4-0.8 0.2-0.3 0.5-0.6 0.3-0.3 0.6-0.6 0.4-0.2 0.7-0.4c0.6-0.4 0.4 0.3 0.4 0.3-1.2 0.8-1 1.2-1 1.4 0 0 0.8 1.1 1.2 1.1q0.1 0 0.1 0 0.1 0 0.1-0.1 0 0 0.1 0 0 0 0 0c0.2-0.1 0.3 0 0.3 0q-0.1 0.1-0.2 0.2-0.1 0.2-0.2 0.3-0.1 0-0.3 0.1-0.1 0-0.3 0c-0.5-0.1-0.9-1-1.2-1.5z"/>
			<path id="Layer" class="s7" d="m164.2 81.7c-0.1 0-0.1 0 0-0.1 0.7-0.2 2.5-0.8 2.5-1.5 0-0.5-0.6-0.8-1.1-0.9q-0.3 0-0.6 0-0.3 0.1-0.5 0.1-0.3 0.1-0.6 0.2-0.3 0.1-0.5 0.2c-1 0.3-0.5-0.3-0.2-0.4q0.3-0.2 0.6-0.4 0.2-0.1 0.5-0.2 0.3-0.1 0.6-0.2 0.3 0 0.7 0c1.4 0.1 2 0.8 1.9 1.8-0.1 1-1.9 1.4-3.3 1.4z"/>
			<path id="Layer" class="s7" d=""/>
			<path id="Layer" class="s7" d="m169.3 79.9c0.2 3.1-3.4 6.3-6.3 6q-0.8 0-1.5-0.4-0.7-0.3-1.2-0.9-0.6-0.6-0.9-1.3-0.3-0.7-0.4-1.5c-0.1-3.8 4.4-6.4 7.6-6.1 1.3 0.1 0.9 1.3 0.4 1.3-3.2-0.3-7.2 2.3-7 5.6q0 0.5 0.3 0.9 0.2 0.5 0.5 0.8 0.4 0.3 0.8 0.5 0.5 0.2 0.9 0.2c2.8 0.3 6.1-2.8 6-5.6-0.1-0.7 0.7-0.7 0.8 0.5z"/>
			<path id="Layer" class="s7" d="m97.7 2.5c0.5 0 1 0.1 1.5 0.2h-0.2l-1.3-0.2-1.1-0.1-0.6-0.1h-0.4 0.5l0.5 0.1z"/>
			<path id="Layer" class="s7" d="m103.6 3.7l0.3 0.1-0.8-0.2z"/>
			<path id="Layer" class="s7" d="m107.4 4.7l0.7 0.2q-1.2-0.3-2.4-0.7l0.7 0.2 0.5 0.1z"/>
			<path id="Layer" class="s7" d="m108.2 5h-0.1z"/>
			<path id="Layer" class="s7" d="m94 2.1l1.5 0.2h0.1l-1.6-0.2z"/>
			<path id="Layer" class="s7" d="m103.9 3.8l1.8 0.4h-0.3z"/>
			<path id="Layer" class="s7" d="m100.2 3l-1-0.2q0.5 0.1 1 0.2z"/>
			<path id="Layer" class="s7" d="m100.4 3l2.7 0.6c-1-0.2-1.9-0.5-2.9-0.6z"/>
			<path id="Layer" fill-rule="evenodd" class="s7" d="m183.9 62.8q-0.1 1.5-0.2 3-17.4-1.5-34.8-2.6l-0.1 0.1v-0.1q-10.4-0.8-20.8-1.5h4.3q0.2-1 0.2-1.9 0.1-1-0.1-1.9-0.1-0.9-0.4-1.8-0.4-0.9-0.8-1.7-0.8-1.3-1.9-2.4-1.1-1-2.5-1.8-1.3-0.7-2.8-1.1-1.5-0.3-3-0.2-1.5 0-3 0.4-1.4 0.4-2.7 1.2-1.3 0.8-2.3 1.9-1.1 1.1-1.8 2.5 0.3-0.9 0.6-1.8 0.4-0.8 0.9-1.6 0.5-0.8 1.2-1.4 0.6-0.7 1.3-1.2-0.3-0.6-0.7-1-0.5-0.4-1-0.6-0.6-0.3-1.2-0.4-0.6-0.1-1.2 0-0.6 0-1.3 0.3-0.6 0.2-1.1 0.7-0.6 0.5-0.9 1.1-0.3 0.6-0.5 1.2-0.1-0.5-0.1-1.1 0.1-0.5 0.3-1.1 0.2-0.5 0.5-1 0.3-0.4 0.8-0.8 0.5-0.3 1-0.5 0.6-0.2 1.2-0.3 0.6 0 1.2 0.1 0.6 0.1 1.1 0.4 0.4 0.1 0.8 0.4 0.3 0.3 0.6 0.7 0.3 0.3 0.5 0.7 0.2 0.5 0.3 0.9 0.3-0.2 0.5-0.3 0.2-0.2 0.5-0.3 0.2-0.1 0.5-0.3 0.3-0.1 0.5-0.2 0-0.2 0.1-0.3 0-0.2 0-0.4 0-0.1 0-0.3 0.1-0.1 0.1-0.3 0-0.2 0-0.4 0-0.3 0-0.5 0-0.2-0.1-0.4 0-0.3 0-0.5 0-0.2-0.1-0.5 0-0.3-0.1-0.5-0.1-0.3-0.1-0.5-0.1-0.2-0.2-0.5-0.1-0.1-0.1-0.2-0.1-0.2-0.1-0.3-0.1-0.1-0.2-0.2 0-0.2-0.1-0.3 0-0.1-0.1-0.1 0-0.1 0-0.2-0.1 0-0.1-0.1 0 0-0.1-0.1-0.1-0.3-0.3-0.5-0.1-0.1-0.2-0.3-0.1-0.1-0.2-0.2-0.1-0.1-0.2-0.3-0.1-0.1-0.2-0.2l-0.2-0.2-0.2-0.2q-0.1-0.1-0.1-0.1 0 0 0-0.1-0.1 0-0.1 0 0 0-0.1 0l-0.2-0.3q-0.1-0.1-0.2-0.2-0.2-0.1-0.3-0.1-0.1-0.1-0.2-0.2-0.2-0.1-0.3-0.2-0.3-0.2-0.5-0.3l-0.7-0.3q-0.1-0.1-0.3-0.1-0.1-0.1-0.3-0.1-0.1-0.1-0.3-0.1-0.1-0.1-0.3-0.1-0.3-0.1-0.6-0.2-0.3-0.1-0.6-0.1-0.4 0-0.7-0.1-0.3 0-0.6 0-0.2 0-0.3 0-0.2 0-0.4 0-0.1 0-0.3 0-0.1 0.1-0.3 0.1-0.1 0-0.3 0-0.1 0-0.3 0.1-0.1 0-0.3 0-0.1 0.1-0.3 0.1-0.4 0.1-0.8 0.2-0.3 0.2-0.7 0.3-0.4 0.2-0.8 0.4-0.3 0.2-0.7 0.4-0.2 0.1-0.4 0.3-0.1 0.1-0.3 0.3-0.2 0.1-0.4 0.3-0.2 0.2-0.3 0.3-0.2 0.1-0.3 0.3-0.1 0.1-0.2 0.2-0.2 0.1-0.3 0.3-0.1 0.1-0.2 0.2l-0.1 0.2q0.2 0.5 0.4 1 0.1 0.5 0.2 1 0 0.6-0.1 1.1-0.1 0.5-0.3 1 0.1-0.4 0.1-0.8 0-0.5-0.1-0.9-0.1-0.4-0.3-0.8-0.2-0.4-0.5-0.8-0.2-0.1-0.3-0.3-0.1-0.1-0.3-0.3-0.1-0.1-0.3-0.2-0.2-0.1-0.4-0.2-0.5-0.4-1.2-0.6-0.7-0.2-1.4-0.3-0.7 0-1.4 0.1-0.7 0.2-1.3 0.5-0.6 0.2-1.1 0.7-0.5 0.4-0.9 0.9-0.3 0.6-0.5 1.2-0.2 0.7-0.2 1.3-0.1-0.9-0.3-1.7-0.2-0.9-0.6-1.7-0.4-0.8-0.9-1.6-0.5-0.7-1.2-1.3 0 0.1-0.2 0.3-0.1 0.2-0.2 0.4-0.1 0.1-0.3 0.3-0.1 0.2-0.3 0.3-0.2 0.2-0.5 0.4-0.2 0.2-0.5 0.4-0.3 0.2-0.6 0.3-0.3 0.1-0.7 0.3l-0.5 0.1h-0.2q-0.1 0-0.2 0-0.1 0-0.2 0.1-0.1 0-0.2 0 0 0-0.1 0h-1.3q0 0-0.1 0 0 0-0.1 0 0 0-0.1 0 0 0-0.1-0.1-0.2 0-0.4-0.1-0.2 0-0.4-0.1-0.2 0-0.4-0.1-0.2-0.1-0.4-0.2-0.4-0.2-0.7-0.5-0.4-0.2-0.7-0.5-0.3-0.3-0.6-0.7-0.2-0.4-0.4-0.7-0.1-0.2-0.2-0.4 0-0.1-0.1-0.1 0 0 0 0 0-0.1 0-0.1 0 0 0 0l-0.1-0.3q0 0 0-0.1 0 0-0.1-0.1 0 0 0-0.1 0 0 0-0.1l-0.1-0.2v-0.5q0 0 0 0 0-0.1 0-0.1 0 0 0-0.1 0 0 0 0v-1.1q0-0.1 0.1-0.2 0-0.1 0-0.2 0-0.1 0.1-0.2 0-0.1 0-0.2-1.2 0-2.3 0.2-1.2 0.3-2.3 0.7-1.1 0.5-2.2 1.1-1 0.6-1.9 1.4-0.8 0.7-1.5 1.5-0.7 0.9-1.1 1.8-0.5 1-0.8 2-0.3 1.1-0.4 2.1l0.5 0.2q0.3 0.1 0.5 0.2 0.2 0.1 0.5 0.2 0.2 0.1 0.5 0.2 0.2 0.2 0.4 0.3l0.4 0.3 0.2 0.4 0.4 0.3 0.2 0.2q0.1-0.1 0.2-0.2 0.1-0.1 0.3-0.1 0.1-0.1 0.2-0.2 0.1 0 0.3-0.1 0.2-0.1 0.4-0.2 0.2-0.1 0.4-0.1 0.2-0.1 0.5-0.2 0.2 0 0.4 0l0.5-0.1h1.6l0.4 0.1h0.2 0.3q0.1 0.1 0.2 0.1 0.1 0 0.2 0.1 0.1 0 0.3 0.1 0.1 0 0.2 0.1 0.2 0 0.4 0.1 0.2 0.2 0.4 0.3 0.2 0.1 0.4 0.2 0.2 0.2 0.4 0.4 0.1 0.1 0.2 0.3 0.1 0.2 0.2 0.3 0.1 0.2 0.1 0.4 0.1 0.2 0.2 0.4 0.1 0.1 0.1 0.3 0.1 0.2 0.2 0.4 0.1 0.2 0.1 0.3 0.1 0.2 0.1 0.4 0 0 0.1 0.1 0 0 0 0.1 0 0 0 0 0 0.1 0 0.1v0.1q0 0.1 0 0.1 0 0 0 0 0 0.1 0 0.1 0 0 0 0.1v1.1q0 0 0 0.1 0 0-0.1 0.1 0 0 0 0.1 0 0.1 0 0.1l-0.1 0.4q0 0 0 0 0 0-0.1 0.1 0 0 0 0 0 0.1 0 0.1v0.3l-0.6 0.7v-1.2q0-0.1 0-0.1 0 0 0 0 0 0 0 0 0 0 0-0.1v-0.1q0-0.1 0-0.1 0-0.1 0-0.1 0 0 0-0.1 0 0 0-0.1v-0.4q0 0 0-0.1 0 0 0-0.1 0 0 0-0.1 0 0 0-0.1c-0.1-0.1-0.2-0.1-0.2-0.2v-0.1q0 0 0 0 0 0 0-0.1 0 0 0 0 0 0 0 0v-0.1q0 0 0 0 0 0-0.1-0.1 0 0 0 0 0 0 0 0c0-0.1-0.1-0.2-0.1-0.3l-0.2-0.3-0.1-0.2-0.1-0.1q0 0 0 0 0 0 0-0.1-0.1 0-0.1 0 0 0 0 0-0.1-0.2-0.2-0.3-0.1-0.1-0.2-0.3-0.1-0.1-0.2-0.2-0.2-0.1-0.3-0.2-0.1-0.2-0.2-0.3-0.2-0.1-0.3-0.2-0.2-0.1-0.3-0.2-0.2-0.1-0.3-0.2-0.1 0-0.2-0.1 0 0-0.1-0.1-0.1 0-0.2 0-0.1-0.1-0.2-0.1h-0.1l-0.2-0.1-0.4-0.1h-1.5q-0.4 0-0.9 0.1-0.5 0.1-0.9 0.3-0.4 0.2-0.8 0.5-0.4 0.3-0.7 0.6-0.3 0.4-0.6 0.8-0.3 0.3-0.5 0.7-0.2 0.4-0.4 0.9-0.1 0.4-0.2 0.8-0.1-0.2-0.1-0.4 0-0.3 0-0.5 0-0.2 0.1-0.4 0-0.3 0-0.5 0.1-0.2 0.1-0.4 0.1-0.2 0.2-0.4 0.1-0.2 0.1-0.4 0.1-0.2 0.2-0.4c0.2-0.2 0.6-0.7 0.6-0.7h-0.1l-0.3-0.2-0.3-0.2h-0.1l-0.3-0.2q-0.2-0.1-0.4-0.2-0.2 0-0.4-0.1-0.2-0.1-0.4-0.2-0.2 0-0.5-0.1l-0.4-0.1h-0.4-0.6q0 0 0 0-0.1 0-0.1 0-0.1 0-0.1 0 0 0-0.1 0h-1.9-0.3q-0.1 0.1-0.2 0.1-0.1 0-0.2 0.1-0.1 0-0.2 0-0.1 0-0.2 0.1h-0.2-0.1q-0.1 0.1-0.2 0.1-0.1 0.1-0.2 0.1-0.1 0.1-0.3 0.2-0.1 0-0.2 0.1-0.3 0.2-0.7 0.5h0.1-0.1q-0.1 0.1-0.3 0.2-0.1 0.1-0.2 0.2-0.1 0.1-0.2 0.2-0.1 0.1-0.2 0.2-0.1 0.1-0.1 0.1-0.1 0-0.1 0.1 0 0-0.1 0.1 0 0 0 0.1l-0.2 0.1-0.2 0.3c0 0.1-0.2 0.3-0.2 0.4-0.1 0.1-0.2 0.2-0.2 0.3l-0.1 0.2v0.1q0 0 0 0 0 0 0 0 0 0.1 0 0.1 0 0 0 0-0.1 0-0.1 0.1 0 0 0 0 0 0.1 0 0.1 0 0 0 0c-0.1 0.1-0.1 0.2-0.1 0.2l-0.1 0.3-0.4 0.7c0 0.1 0.1 0.1 0 0.2q0 0.1 0 0.2 0 0 0 0.1 0 0-0.1 0.1 0 0 0 0.1v0.4q0 0.1 0 0.2 0 0.1 0 0.2 0 0 0 0.1 0 0.1 0 0.2 0.1 0 0.1 0 0 0.1 0 0.1 0 0 0 0.1 0 0-0.1 0v0.4q0.1 0.5 0.3 1 0.1 0.5 0.3 1 0.2 0.4 0.4 0.9 0.2 0.5 0.5 0.9-0.2-0.1-0.4-0.3-0.2-0.1-0.3-0.3-0.2-0.2-0.3-0.4-0.2-0.1-0.3-0.3l-0.2-0.4-0.1-0.2-0.1-0.2q-0.3 0.2-0.6 0.3-0.3 0.2-0.5 0.3-0.3 0.2-0.6 0.4-0.2 0.3-0.4 0.5l-0.2 0.3q0 0 0 0-0.1 0-0.1 0 0 0 0 0.1 0 0 0 0l-0.1 0.1c0 0.1-0.1 0.1-0.1 0.2v0.1l-0.1 0.3c-0.1 0.1-0.1 0.2-0.1 0.3q0 0.1-0.1 0.1 0 0 0 0.1 0 0 0 0.1 0 0 0 0 0 0.1 0 0.1 0 0 0 0 0 0 0 0 0 0.1 0 0.1v0.5q0 0.1 0 0.3 0 0.2 0 0.3 0 0.2 0 0.3 0 0.2 0.1 0.3c0 0.1 0 0.2 0 0.4h2.8q-27.1 1.2-54.2 3.2l-0.1-3q6.2-0.1 12.4-0.2l10.2-0.1c2.1-16.9 10.4-32.5 23.2-43.7 12.9-11.3 29.4-17.4 46.5-17.3 17.1 0.1 33.5 6.5 46.2 18 12.7 11.4 20.8 27.1 22.6 44.1l10.2 0.2q6.3 0.2 12.6 0.5zm-26.9-0.8l-0.1-0.8q-0.2-0.6-0.2-1.1-0.2-1.1-0.4-2.1-0.3-1.1-0.5-2.1-0.2-0.5-0.3-1c0-0.2-0.1-0.3-0.1-0.5l-0.2-0.5q-0.5-2-1.2-3.9-0.6-2-1.4-3.9-0.7-1.9-1.6-3.7-0.9-1.9-1.9-3.7c-0.1-0.3-0.3-0.5-0.4-0.8l-0.5-0.9c-0.4-0.5-0.7-1.1-1-1.6q-0.5-0.8-1-1.6l-0.5-0.8q-0.2-0.2-0.3-0.4l-0.3-0.4q-1.5-2.2-3.1-4.2-1.7-2-3.5-4-1.8-1.9-3.7-3.6-2-1.8-4-3.4-1.2-1-2.4-1.9-1.2-0.8-2.5-1.7-1.2-0.8-2.5-1.6-1.3-0.7-2.6-1.4c-0.8-0.5-1.7-0.9-2.5-1.3l-1.1-0.6-0.3-0.1-0.3-0.1-0.6-0.3-2.3-1q-1.1-0.5-2.2-0.9-1.6-0.6-3.3-1.1l1.2 0.3 1.1 0.4 1 0.4 2.3 0.8 2.2 1 0.6 0.3 0.3 0.1 0.3 0.1 1.2 0.6c0.8 0.4 1.7 0.8 2.4 1.2l1.3 0.7 0.6 0.4 0.6 0.3 2.5 1.6q0.4 0.2 0.7 0.4l0.6 0.4 1.4 0.9q0.3 0.2 0.6 0.4l0.6 0.5 1.3 1q1.4 1 2.7 2.1 1.3 1.1 2.5 2.3 1.3 1.2 2.5 2.4 1.2 1.2 2.3 2.5 0.6 0.7 1.2 1.4 0.6 0.7 1.2 1.4 0.5 0.8 1.1 1.5 0.6 0.7 1.1 1.5l0.3 0.4 0.3 0.4 0.5 0.8 1.1 1.6 1 1.6 0.5 0.9q0.3 0.4 0.5 0.8 1 1.8 1.9 3.7 1 1.8 1.8 3.7 0.8 1.9 1.5 3.9 0.7 1.9 1.3 3.9l0.2 0.5q0 0.3 0.1 0.6l0.3 1q0.2 1 0.5 2.1l0.5 2.1q0.1 0.6 0.2 1.1 0.1 0.5 0.2 1.1h2.3c-0.9-8.3-3.4-16.4-7.3-23.9-3.8-7.4-9-14.1-15.2-19.8-6.2-5.6-13.4-10-21.3-13.1-7.8-3.1-16.1-4.7-24.5-4.8-34.9-0.3-64.9 26.2-69.2 60.5l20.4-0.1c2.1 0 4.2 0.1 6.3 0.1v-1.5q0-0.1 0-0.1 0 0 0-0.1 0 0 0-0.1 0 0 0 0c0.1-0.2 0.2-0.4 0.2-0.4q0-0.1 0-0.1 0-0.1 0-0.1 0 0 0-0.1 0 0 0 0v-0.2c0 0 0 0.1 0 0q0.1-0.2 0.2-0.4l0.2-0.4 0.2-0.3v-0.1l0.1-0.1 0.1-0.2 0.2-0.2q0 0 0 0 0-0.1 0-0.1 0 0 0.1 0 0 0 0-0.1l0.3-0.3q0.1-0.1 0.3-0.3 0.2-0.1 0.3-0.2 0.2-0.1 0.4-0.3 0.2-0.1 0.3-0.2 0.2-0.1 0.4-0.1 0.2-0.1 0.3-0.2 0.2 0 0.4-0.1 0.2 0 0.3-0.1 0 0 0 0 0-0.1 0-0.1 0 0 0-0.1 0 0 0 0l-0.2-0.5q0-0.1 0-0.1 0-0.1 0-0.1 0-0.1 0-0.1 0-0.1 0-0.1v-0.2q0-0.1 0-0.2-0.1-0.1-0.1-0.2 0-0.1 0-0.2 0 0 0-0.1v-0.5l0.1-0.8v-0.3q0-0.1 0-0.1 0-0.1 0-0.2 0.1 0 0.1-0.1 0 0 0-0.1 0-0.1 0-0.1 0-0.1 0-0.1 0 0 0-0.1 0.1 0 0.1-0.1v-0.2c0.1-0.1 0.1-0.2 0.1-0.2q0-0.1 0.1-0.1 0 0 0 0 0-0.1 0-0.1 0 0 0 0c0-0.1 0.1-0.2 0.1-0.3l0.2-0.4 0.2-0.5q0.1-0.1 0.1-0.1 0-0.1 0.1-0.1 0 0 0-0.1 0 0 0.1-0.1 0 0 0 0 0 0 0-0.1 0 0 0.1 0 0 0 0 0 0.1-0.2 0.3-0.5 0.1-0.1 0.2-0.2 0.1-0.1 0.2-0.2 0.1-0.2 0.2-0.3 0.2-0.1 0.3-0.2l-0.4-0.4q0 0 0-0.1 0 0 0-0.1-0.1 0-0.1-0.1 0 0 0 0l-0.2-0.4q0 0 0 0-0.1-0.1-0.1-0.1 0 0 0-0.1-0.1 0-0.1-0.1l-0.2-0.3q-0.1-0.2-0.1-0.4-0.1 0-0.1-0.1 0 0 0-0.1 0 0-0.1-0.1 0-0.1 0-0.1 0-0.1-0.1-0.2 0-0.1 0-0.2 0-0.2-0.1-0.3 0-0.1 0-0.2-0.1-0.2-0.1-0.5 0-0.2 0-0.5 0-0.2 0-0.5 0-0.2 0-0.5 0-0.1 0-0.1 0.1-0.1 0.1-0.1 0-0.1 0-0.2 0 0 0-0.1 0-0.1 0-0.1 0-0.1 0-0.2 0 0 0.1-0.1 0-0.1 0-0.1 0 0 0.1-0.1 0 0 0 0 0-0.1 0-0.1 0 0 0-0.1l0.1-0.2q0.1-0.3 0.2-0.5 0.1-0.3 0.2-0.5 0.1-0.1 0.1-0.2 0 0 0.1-0.1 0 0 0-0.1 0.1-0.1 0.1-0.1 0.2-0.3 0.4-0.5 0 0 0 0 0-0.1 0.1-0.1 0 0 0 0 0-0.1 0-0.1 0.1 0 0.1 0 0 0 0 0 0-0.1 0-0.1 0 0 0 0l0.4-0.4 0.1-0.1q0 0 0 0 0 0 0 0 0.1 0 0.1 0 0 0 0 0 0-0.1 0.1-0.1 0 0 0 0 0-0.1 0.1-0.1 0 0 0 0l0.3-0.2 0.1-0.1 0.1-0.1 0.5-0.3 0.5-0.3 0.2-0.1 0.3-0.1q0.1 0 0.1 0 0.1 0 0.2-0.1 0 0 0.1 0 0.1 0 0.1-0.1l0.6-0.1q0.2 0 0.5-0.1 0.2 0 0.5 0 0.2-0.1 0.5-0.1 0.3 0 0.5 0c0.3 0.1 0.6 0.1 0.9 0.1q0.1 0 0.2 0.1 0 0 0.1 0 0 0 0.1 0 0 0 0.1 0.1 0 0 0.1 0 0 0 0.1 0 0 0 0.1 0 0 0 0.1 0.1l0.4 0.1 0.3 0.1 0.4 0.2q0 0 0 0 0.1 0.1 0.1 0.1 0.1 0 0.1 0 0 0 0.1 0.1 0.3 0.1 0.5 0.3l0.1 0.1q1.1-1.2 2.5-2.2 1.3-1 2.9-1.7 1.5-0.6 3.2-0.9 1.6-0.3 3.3-0.2 0.3-0.3 0.6-0.5 0.3-0.3 0.7-0.5 0.4-0.2 0.8-0.3 0.3-0.2 0.7-0.3 0.1 0 0.2 0 0.1 0 0.2-0.1 0.1 0 0.2 0 0.1 0 0.2 0h1.5l0.3 0.1h0.4q0.1 0.1 0.3 0.1 0.1 0.1 0.3 0.1 0.2 0.1 0.3 0.1 0.2 0.1 0.3 0.2 0.3 0.1 0.5 0.3 0.3 0.1 0.5 0.3 0.3 0.2 0.5 0.4 0.2 0.2 0.4 0.4 0.2 0.1 0.3 0.3 0.1 0.2 0.3 0.3 0.1 0.2 0.2 0.4 0.1 0.2 0.2 0.4l0.1 0.3v0.2q0 0.1 0 0.1 0.1 0 0.1 0.1 0 0 0 0 0 0 0 0.1 0 0-0.1-0.1 0 0 0 0 0-0.1 0-0.1 0 0 0 0l-0.1-0.3-0.1-0.3q-0.1-0.2-0.2-0.4-0.2-0.2-0.3-0.3-0.1-0.2-0.2-0.3-0.2-0.2-0.3-0.3-0.2-0.2-0.4-0.4-0.3-0.2-0.5-0.3-0.2-0.1-0.5-0.3-0.2-0.1-0.5-0.2-0.1 0-0.2-0.1-0.2 0-0.3-0.1-0.2 0-0.3 0-0.2 0-0.3-0.1h-0.7q0 0-0.1 0-0.1 0-0.2 0-0.1 0-0.2 0 0 0-0.1 0l-0.4 0.1h-0.3c-0.2 0.1-0.4 0.1-0.6 0.2q-0.2 0.1-0.3 0.1-0.2 0.1-0.3 0.2-0.2 0.1-0.3 0.2-0.2 0.1-0.3 0.2l-0.3 0.2-0.2 0.2-0.2 0.1q0 0 0 0 0 0.1 0 0.1 0 0 0 0-0.1 0-0.1 0 0 0.1 0 0.1-0.1 0-0.1 0.1 0 0 0 0-0.1 0.1-0.1 0.1-0.1 0.1-0.2 0.3-0.1 0.1-0.2 0.3-0.1 0.2-0.2 0.3-0.1 0.2-0.2 0.4l-0.1 0.3q0 0-0.1 0.1 0 0 0 0 0 0.1 0 0.1 0 0.1 0 0.1v0.3q0 0.1 0 0.1 0 0.1 0 0.1 0 0 0 0.1 0 0 0 0.1v1.4l0.1-0.1q0 0 0 0.1 0 0 0.1 0.1 0 0 0 0 0 0.1 0 0.1 0 0.1 0.1 0.2 0 0.1 0 0.1 0.1 0.1 0.1 0.2 0 0.1 0.1 0.1l0.1 0.3 0.1 0.2 0.1 0.1 0.2 0.3 0.2 0.3q0.1 0.1 0.2 0.2 0.1 0.1 0.3 0.2 0.1 0.1 0.2 0.2 0.2 0.1 0.3 0.2l0.3 0.2 0.2 0.2h0.1l0.3 0.2 0.4 0.1c0.1 0.1 0.2 0 0.3 0.1q0 0 0.1 0 0 0.1 0.1 0.1 0 0 0 0 0.1 0 0.1 0h0.7q0.1 0 0.2 0 0.1 0 0.1 0 0.1 0 0.2 0 0.1 0 0.2 0h0.6q0.3-0.1 0.6-0.2 0.3-0.1 0.6-0.2 0.3-0.1 0.6-0.3 0.2-0.1 0.5-0.3 0.1-0.2 0.3-0.3 0.1-0.1 0.3-0.3 0.1-0.2 0.2-0.3 0.2-0.2 0.3-0.4 0.1-0.2 0.2-0.4 0.1-0.2 0.2-0.5 0.1-0.2 0.1-0.4 0.1-0.3 0.1-0.5h0.1q0.4 0.4 0.7 0.9 0.3 0.4 0.6 0.8 0.3 0.5 0.6 0.9 0.2 0.5 0.4 1 0.8-0.7 1.7-1.2 0.9-0.4 1.9-0.6 1-0.1 2 0 1.1 0.2 2 0.7 0.3 0.2 0.6 0.4 0.3 0.2 0.6 0.4 0.3 0.3 0.5 0.6 0.3 0.3 0.5 0.6 0.1-0.4 0.4-0.7 0.2-0.4 0.5-0.7 0.2-0.3 0.5-0.6 0.4-0.3 0.7-0.6 0.4-0.2 0.7-0.5 0.4-0.3 0.8-0.5 0.4-0.2 0.8-0.4 0.5-0.2 0.9-0.3 0.2-0.1 0.3-0.1 0.2-0.1 0.4-0.1 0.1-0.1 0.3-0.1 0.2 0 0.3-0.1 0.4 0 0.8-0.1 0.3 0 0.7 0 0.4 0 0.7 0 0.4 0 0.8 0 0.2 0.1 0.3 0.1 0.2 0 0.4 0 0.2 0.1 0.4 0.1 0.2 0.1 0.3 0.1 0.2 0.1 0.4 0.1 0.2 0.1 0.4 0.1 0.2 0.1 0.3 0.2 0.2 0 0.4 0.1l0.3 0.2 0.3 0.1q0.4 0.2 0.7 0.4 0.2 0.1 0.3 0.2 0.2 0.1 0.3 0.2 0.2 0.1 0.3 0.3 0.2 0.1 0.3 0.2 0.3 0.2 0.5 0.5 0.3 0.2 0.5 0.5 0.2 0.3 0.5 0.6 0.2 0.3 0.4 0.6 0 0.1 0.1 0.2 0.1 0.2 0.2 0.3 0.1 0.2 0.1 0.3 0.1 0.2 0.2 0.3 0 0.2 0.1 0.3 0.1 0.2 0.1 0.3 0.1 0.2 0.1 0.3 0.1 0.2 0.1 0.3 0.1 0.6 0.2 1.1 0.1 0.5 0.1 1.1 0 0.5-0.1 1 0 0.5-0.1 1.1c-0.1 0.3-0.4 0.7-0.4 1q0.4-0.2 0.8-0.3 0.5-0.2 0.9-0.3 0.4-0.1 0.9-0.1 0.4-0.1 0.8-0.1 1.8-0.2 3.6 0.1 1.7 0.4 3.3 1.3 1.6 0.8 2.8 2.1 1.3 1.3 2.1 2.8 0.1 0.3 0.3 0.6 0.1 0.3 0.2 0.6 0.1 0.4 0.2 0.7 0.1 0.3 0.1 0.6l0.3-0.2 0.5-0.2 0.3-0.1q0 0 0.1 0 0 0 0 0 0.1-0.1 0.1-0.1 0 0 0 0c0.3 0 0.5-0.1 0.7-0.1q0.2 0 0.3 0 0.2 0 0.4 0 0.1 0 0.3 0 0.2 0 0.4 0l0.3 0.1 0.4 0.1 0.3 0.1 0.1 0.1 0.4 0.1q0.1 0.1 0.2 0.1 0 0.1 0.1 0.1 0.1 0.1 0.2 0.2 0.1 0 0.1 0.1l0.3 0.2q0.1 0 0.1 0 0 0.1 0 0.1 0 0 0.1 0 0 0 0 0l0.1 0.1 0.2 0.3q0 0 0 0 0 0 0 0 0.1 0 0.1 0.1 0 0 0 0l0.1 0.2q0 0 0.1 0.1 0 0 0 0 0.1 0.1 0.1 0.1 0 0.1 0 0.1l0.2 0.4 0.2 0.3v0.3q0 0 0 0 0 0.1 0 0.1 0 0.1 0.1 0.1 0 0.1 0 0.1v0.4q0.1 0.1 0.1 0.3 0 0.2 0 0.4 0 0.1 0 0.3 0 0.2-0.1 0.3 0 0.1 0 0.2 0 0.1 0 0.1 0 0.1-0.1 0.2 0 0.1 0 0.1c-0.1 0.2-0.2 0.4-0.2 0.6q-0.1 0.2-0.3 0.4zm-68.9-28.1v-0.3c0.1 0.1 0 0.2 0 0.3zm46.1 23.5q0 0.7-0.1 1.4-0.1 0.8-0.3 1.5-0.2 0.7-0.4 1.3h6.5c0 0 0-0.1 0-0.2q0-0.1 0.1-0.1 0-0.1 0-0.1 0-0.1 0-0.1 0-0.1 0-0.1 0-0.1 0.1-0.2 0 0 0-0.1 0 0 0-0.1 0-0.1 0-0.1 0-0.1 0-0.2 0 0 0-0.1 0 0 0-0.1 0-0.1 0-0.1 0-0.2-0.1-0.3 0-0.1 0-0.2 0-0.2 0-0.3-0.1-0.1-0.1-0.2 0-0.2-0.1-0.3 0-0.1-0.1-0.3 0-0.1-0.1-0.2 0-0.1-0.1-0.2l-0.1-0.3-0.1-0.1-0.1-0.1-0.1-0.1-0.1-0.1q-0.1-0.1-0.2-0.3h-0.1l-0.2-0.2-0.1-0.1-0.1-0.1-0.3-0.2q-0.1 0-0.2-0.1-0.1-0.1-0.3-0.1-0.1-0.1-0.2-0.1-0.1-0.1-0.3-0.1-0.1-0.1-0.2-0.1-0.2 0-0.3-0.1-0.2 0-0.3 0-0.2 0-0.3 0h-1l-0.5 0.1q0 0-0.1 0 0 0-0.1 0 0 0-0.1 0.1 0 0-0.1 0 0.1 0.7 0.2 1.4zm-70.7-15.3q0.1-1 0.4-2 0.3-1 0.8-1.9 0.5-0.9 1.1-1.7h-0.1l-0.6-0.2q-0.3-0.1-0.6-0.2-0.1 0-0.2 0-0.1-0.1-0.1-0.1-0.1 0-0.2 0-0.1 0-0.2 0h-1.6q-0.2 0-0.4 0-0.2 0-0.5 0-0.2 0.1-0.4 0.1-0.2 0.1-0.4 0.1-0.2 0.1-0.4 0.2-0.2 0-0.5 0.1-0.2 0.1-0.4 0.2-0.2 0.2-0.4 0.3l-0.3 0.3h-0.1l-0.1 0.1-0.2 0.2-0.2 0.1-0.1 0.1-0.1 0.1-0.3 0.3-0.1 0.1-0.1 0.2q-0.1 0-0.1 0.1 0 0-0.1 0 0 0.1 0 0.1-0.1 0.1-0.1 0.1l-0.1 0.2-0.1 0.1v0.1l-0.2 0.4q-0.1 0.2-0.2 0.4-0.1 0.2-0.2 0.4-0.1 0.2-0.1 0.5-0.1 0.2-0.1 0.4-0.1 0.2-0.1 0.4 0 0.2 0 0.4 0 0.2 0 0.4 0 0.3 0 0.5 0 0.1 0 0.2 0 0.1 0 0.2 0 0.1 0 0.2 0 0.1 0.1 0.2 0 0 0 0 0 0.1 0 0.1 0 0.1 0 0.1 0 0.1 0 0.1 0 0.1 0 0.1 0 0.1 0.1 0.1 0 0 0 0.1 0 0 0 0.1c0.1 0.2 0.1 0.4 0.2 0.6l0.3 0.6q0.1 0.2 0.2 0.4 0.3-0.2 0.7-0.5l0.3-0.2 0.1-0.1 0.7-0.3 0.3-0.1q0.1-0.1 0.2-0.2 0.1 0 0.3-0.1 0.1 0 0.2 0 0.1-0.1 0.3-0.1 0.4-0.2 0.9-0.3 0.4-0.1 0.9-0.1 0.4 0 0.9 0 0.5 0 0.9 0.1 0-1.1 0.1-2.1z"/>
		</g>
		<path id="Layer" class="s7" d="m69.2 128.8l-2.1 4.7 1-5-2.5 0.9 2.3-1.4-5.3-1.9 5.6 0.9-1.1-2.2 1.6 2 2.1-4.7-1 5 2.5-1-2.3 1.4 5.3 1.9-5.6-0.9 1.1 2.3-1.6-2.1z"/>
		<path id="Layer" class="s7" d="m82.3 6.6l-1.1 0.3-2.7 0.7-1.7 0.5-1.9 0.5q-0.9 0.3-2 0.6l-1 0.3-1 0.4c-1.4 0.5-2.9 1-4.4 1.6-1.5 0.6-3 1.3-4.5 2q-2.2 1.1-4.3 2.4-0.5 0.3-1 0.6-0.5 0.3-1 0.6-0.5 0.3-1 0.7-0.5 0.3-1 0.7-0.5 0.3-0.9 0.7l-0.9 0.7-0.9 0.7q-0.4 0.3-0.8 0.7l-0.4 0.3-0.4 0.4q-0.4 0.3-0.8 0.7-0.7 0.7-1.4 1.4-1.4 1.3-2.5 2.6l-1 1.2q-0.5 0.6-0.9 1.1l-0.8 1-0.6 0.8-0.9 1.2-0.3 0.4 0.2-0.4 0.2-0.6 0.2-0.3 0.2-0.4q0.2-0.4 0.4-0.9l0.6-1q0.4-0.6 0.8-1.2 0.4-0.6 0.8-1.3 1-1.3 2.2-2.8c0.4-0.5 0.9-1 1.3-1.5l0.8-0.8 0.4-0.3 0.4-0.4q0.4-0.4 0.8-0.8 0.4-0.4 0.9-0.8 0.4-0.3 0.9-0.7 0.4-0.4 0.9-0.7 0.5-0.4 1-0.8 0.5-0.3 1-0.7 0.5-0.3 1.1-0.7 0.5-0.3 1-0.6c1.5-0.9 3.1-1.7 4.6-2.4l1.2-0.6 0.6-0.2 0.6-0.3q0.6-0.2 1.2-0.4l1.2-0.5q0.6-0.2 1.2-0.4 0.6-0.2 1.2-0.4 1.1-0.4 2.3-0.7l1.1-0.3 1.1-0.3q1.1-0.2 2.1-0.4 1-0.3 1.9-0.4 1-0.2 1.8-0.3c1.1-0.2 2.1-0.4 2.9-0.5q0.1 0 0.2 0 0.2 0 0.3-0.1 0.1 0 0.3 0 0.1 0 0.2 0z"/>
	</g>
</svg>