<svg version="1.2" xmlns="http://www.w3.org/2000/svg" viewBox="0 0 184 147" width="184" height="147">
	<title>logo_tentation-svg</title>
	<style>
		.s0 { fill: #ffffff } 
		.s1 { fill: #272a4e } 
		.s2 { fill: #635fb1 } 
		.s3 { mix-blend-mode: soft-light;fill: #aaa6ac } 
		.s4 { fill: #ff9027 } 
		.s5 { fill: #ffac2e } 
	</style>
	<g id="Layer">
		<path id="Layer" class="s0" d="m183.7 65.7l-2.6 43.2q0 0 0 0.1q0 0 0 0.1q0 0 0 0q-0.1 0.1-0.1 0.1l-0.2 1.3l-31.3 6.8l-0.4 0.5q0 0-0.1 0.1q0 0.1-0.1 0.1q0 0.1-0.1 0.2q0 0-0.1 0.1l-0.8 1q-0.2 0.2-0.4 0.5q-0.2 0.3-0.4 0.5q-0.2 0.3-0.4 0.5q-0.2 0.2-0.4 0.5l-1.7 1.9q-0.9 0.9-1.8 1.8l-0.5 0.5q-0.2 0.2-0.4 0.4l-1 0.9l-1 0.9l-0.5 0.4q-0.2 0.2-0.4 0.4l-2 1.7l-0.3 0.2l-0.3 0.2l-0.5 0.4l-1 0.9q-0.1 0.1-0.2 0.2q-0.1 0.1-0.3 0.2q-0.1 0.1-0.2 0.2q-0.1 0.1-0.3 0.2l-1.1 0.8l-1 0.7l-0.6 0.4l-0.5 0.3l-2.3 1.4l-0.3 0.2l-0.2 0.1l-0.6 0.3l-1.2 0.7l-1.1 0.6l-1.2 0.6l-1.2 0.6l-0.6 0.3l-0.6 0.2l-2.4 1l-0.4 0.2l-0.3 0.1l-0.6 0.2l-1.2 0.5l-1.3 0.4l-1.3 0.4l-1.2 0.4l-0.7 0.2l-0.6 0.2l-2.6 0.7l-0.3 0.1l-0.3 0.1l-0.7 0.1l-1.3 0.3q-0.7 0.1-1.3 0.2l-1.4 0.3l-1.3 0.2l-0.6 0.1l-0.7 0.1l-2.7 0.3h-1.3h-1.4l-1.3 0.1h-4l-2.7-0.1h-0.7l-0.6-0.1l-1.4-0.1l-1.3-0.1q-0.1 0-0.2 0q-0.1 0-0.2 0q-0.1 0-0.1-0.1q-0.1 0-0.2 0l-0.7-0.1l-2.7-0.4l-2.6-0.5l-0.6-0.1q-0.3-0.1-0.7-0.2l-1.3-0.3l-1.3-0.3l-0.7-0.2l-0.6-0.2l-2.6-0.8c-0.4-0.1-0.8-0.3-1.3-0.4l-1.2-0.5l-1.3-0.4l-1.2-0.6l-1.3-0.5l-0.6-0.2l-0.3-0.2l-0.3-0.1l-2.4-1.2q-0.3-0.1-0.6-0.3l-0.6-0.3l-1.2-0.6l-1.2-0.7l-1.1-0.7l-1.2-0.7l-0.5-0.3l-0.3-0.2l-0.3-0.2l-2.2-1.5l-0.6-0.4l-0.5-0.4l-1.1-0.8l-1-0.8l-1-0.8l-1-0.9l-0.5-0.4l-0.3-0.2l-0.2-0.3l-2-1.8q-0.3-0.2-0.5-0.4l-0.5-0.5l-0.9-1l-0.9-0.9l-0.9-1l-0.9-1l-0.4-0.5l-0.3-0.3l-0.2-0.2l-1.6-2q-0.2-0.3-0.4-0.5l-0.4-0.6l-0.8-1l-30.3-6.9l-0.2-1.6l-2.4-43.4l-0.1-3q6.2-0.1 12.4-0.2h10.1c2.2-17 10.5-32.6 23.3-43.8c12.9-11.3 29.4-17.4 46.5-17.3c17.1 0.2 33.5 6.5 46.2 18c12.7 11.4 20.8 27.1 22.7 44.1l10.1 0.2q6.3 0.2 12.6 0.5c-0.1 1-0.1 2-0.2 2.9z"/>
		<path id="Layer" class="s1" d="m181.1 108.9q0 0 0 0.1q0 0 0 0.1q0 0 0 0q-0.1 0.1-0.1 0.1l-0.2 1.3l-31.3 6.8l-0.4 0.5q0 0-0.1 0.1q0 0.1-0.1 0.1q0 0.1-0.1 0.2q0 0-0.1 0.1l-0.8 1q-0.2 0.2-0.4 0.5q-0.2 0.3-0.4 0.5q-0.2 0.3-0.4 0.5q-0.2 0.2-0.4 0.5l-1.7 1.9q-0.9 0.9-1.8 1.8l-0.5 0.5q-0.2 0.2-0.4 0.4l-1 0.9l-1 0.9l-0.5 0.4q-0.2 0.2-0.5 0.4l-2 1.7l-0.2 0.2l-0.3 0.2l-0.5 0.4l-1 0.9q-0.1 0.1-0.2 0.2q-0.1 0.1-0.3 0.2q-0.1 0.1-0.2 0.2q-0.1 0.1-0.3 0.2l-1.1 0.8l-1 0.7l-0.6 0.4l-0.5 0.3l-2.3 1.4l-0.3 0.2l-0.2 0.1l-0.6 0.3l-1.2 0.7l-1.1 0.6l-1.2 0.6l-1.2 0.6l-0.6 0.3l-0.6 0.2l-2.5 1l-0.3 0.2l-0.3 0.1l-0.6 0.2l-1.2 0.5l-1.3 0.4l-1.3 0.4l-1.2 0.4l-0.7 0.2l-0.6 0.2l-2.6 0.7l-0.3 0.1l-0.4 0.1l-0.6 0.1l-1.3 0.3q-0.7 0.1-1.3 0.2l-1.4 0.3l-1.3 0.2l-0.6 0.1l-0.7 0.1l-2.7 0.3h-1.3h-1.4l-1.3 0.1h-4l-2.7-0.1h-0.7l-0.6-0.1l-1.4-0.1l-1.3-0.1q-0.1 0-0.2 0q-0.1 0-0.2 0q-0.1 0-0.1-0.1q-0.1 0-0.2 0l-0.7-0.1l-2.7-0.4l-2.6-0.5l-0.6-0.1q-0.3-0.1-0.7-0.2l-1.3-0.3l-1.3-0.3l-0.7-0.2l-0.6-0.2l-2.6-0.8c-0.4-0.1-0.8-0.3-1.3-0.4l-1.2-0.5l-1.3-0.4l-1.2-0.6l-1.3-0.5l-0.6-0.2l-0.3-0.2l-0.3-0.1l-2.4-1.2q-0.3-0.1-0.6-0.3l-0.6-0.3l-1.2-0.6l-1.2-0.7l-1.1-0.7l-1.2-0.7l-0.5-0.3l-0.3-0.2l-0.3-0.2l-2.2-1.5l-0.6-0.4l-0.5-0.4l-1.1-0.8l-1-0.8l-1-0.8l-1-0.9l-0.5-0.4l-0.3-0.2l-0.2-0.3l-2-1.8q-0.3-0.2-0.5-0.4l-0.5-0.5l-0.9-1l-0.9-0.9l-0.9-1l-0.9-1l-0.4-0.5l-0.3-0.3l-0.2-0.2l-1.6-2q-0.2-0.3-0.4-0.5l-0.4-0.6l-0.8-1l-30.3-6.7l-0.1-1.7c9.5 0.1 35-0.3 35-0.3c-3.7 0.5-3.3 1.2-6.1 1.5l1 1.5l0.1 0.2l0.2 0.3l0.4 0.5l0.7 1q0.3 0.5 0.7 1l0.7 1l0.8 1l0.4 0.5q0.2 0.3 0.4 0.5l1.6 2l0.2 0.2l0.2 0.2l0.4 0.5l0.9 0.9q0.4 0.5 0.8 1l0.9 0.9l0.9 0.9l0.5 0.4q0.2 0.2 0.5 0.4l1.9 1.7l0.2 0.3l0.2 0.2l0.5 0.4l1 0.8l1 0.8l1 0.7l1 0.8l0.5 0.4q0.3 0.2 0.6 0.3l2.1 1.5l0.3 0.1l0.2 0.2l0.6 0.3l1.1 0.7q0.5 0.3 1.1 0.6l1.1 0.7l1.1 0.6l0.6 0.3q0.3 0.1 0.6 0.2l2.3 1.2l0.3 0.1l0.3 0.1l0.6 0.3l1.2 0.5l1.2 0.4l1.2 0.5l1.2 0.4c0.4 0.2 0.8 0.3 1.2 0.4l2.4 0.8l0.6 0.2l0.7 0.1l1.2 0.3l1.2 0.3q0.1 0.1 0.2 0.1q0.1 0 0.1 0q0.1 0 0.2 0q0.1 0.1 0.2 0.1l0.6 0.1l2.6 0.5l2.5 0.3l0.6 0.1h0.7l1.3 0.2l1.3 0.1l0.6 0.1h0.7l2.5 0.1h3.9l1.2-0.1l1.3-0.1h1.3l2.6-0.2q0-0.1 0.1-0.1q0.1 0 0.2 0q0.1 0 0.1 0q0.1 0 0.2 0l0.6-0.1l1.3-0.2l1.4-0.1l1.2-0.3l1.3-0.2l0.6-0.2h0.3l0.3-0.1l2.5-0.6l0.6-0.2l0.6-0.2l1.2-0.4l1.3-0.3l1.2-0.5l1.2-0.4l0.6-0.2l0.3-0.1l0.3-0.2l2.3-1q0.1 0 0.1 0q0.1 0 0.2-0.1q0.1 0 0.1 0q0.1-0.1 0.2-0.1l0.6-0.3l1.1-0.5l1.2-0.6l1.1-0.6l1.1-0.6l0.6-0.3l0.2-0.1l0.3-0.2l2.2-1.3q0.3-0.1 0.5-0.3l0.6-0.3l1-0.7l1-0.7l1-0.8l1-0.7l0.5-0.4l0.3-0.2l0.2-0.2l2-1.5q1.8-1.6 3.6-3.3q1.8-1.7 3.5-3.5q1.6-1.9 3.2-3.8q1.5-1.9 2.9-4q0.3-0.5 0.7-1l0.6-0.9l-5.8-1.6c12-0.1 23.1 0.3 35.1 0.5z"/>
		<g id="Layer">
			<path id="Layer" fill-rule="evenodd" class="s1" d="m45.3 107.6q0.2 0.1 0.4 0.3q0.1 0.1 0.2 0.4q0.1 0.2 0 0.4q0 0.1 0 0.3q0 0.1-0.1 0.3q-0.1 0.1-0.2 0.2q0 0.2-0.2 0.3q-0.1 0.1-0.3 0.2q-0.2 0-0.3 0.1q-0.2 0-0.4 0q-0.2 0.1-0.3 0.1h-1.5v-5h1.6q1.6 0 1.6 1.1q0 0.2 0 0.4q-0.1 0.2-0.2 0.4q-0.1 0.1-0.3 0.2q-0.2 0.1-0.4 0.2q0.3 0 0.4 0.1zm-2.1-0.3h0.5q0.1 0 0.2 0q0.1 0 0.3 0q0.1-0.1 0.2-0.1q0.1 0 0.3 0q0.1-0.1 0.2-0.1q0.1-0.1 0.2-0.2q0.1-0.1 0.1-0.2q0.1-0.2 0.1-0.3q0-0.1 0-0.2q-0.1 0-0.1-0.1q0-0.1-0.1-0.2q0 0-0.1-0.1q0 0-0.1-0.1q-0.1 0-0.2 0q0-0.1-0.1-0.1q-0.1 0-0.2 0h-1.2zm2.2 1.5q0-0.1 0-0.2q0-0.1-0.1-0.2q0-0.1 0-0.1q-0.1-0.1-0.1-0.2q-0.1 0-0.1-0.1q-0.1 0-0.2 0q0-0.1-0.1-0.1q-0.1 0-0.1 0q-0.1-0.1-0.3-0.1q-0.1 0-0.2 0q-0.1 0-0.2 0q-0.2 0-0.3 0h-0.5v2h0.7q1.5 0 1.5-1z"/>
			<path id="Layer" class="s1" d="m51.8 105.2h0.5v2.8q0 0.3 0 0.5q0 0.2-0.1 0.5q-0.1 0.2-0.2 0.4q-0.1 0.2-0.2 0.4q-0.4 0.3-0.8 0.4q-0.4 0.2-0.8 0.2q-0.4 0-0.9-0.2q-0.4-0.1-0.7-0.4q-0.1-0.2-0.2-0.4q-0.1-0.2-0.2-0.4q-0.1-0.3-0.1-0.5q0-0.2 0-0.5v-2.8h0.6v2.9q0 1.7 1.5 1.7c1.1 0 1.6-0.6 1.6-2z"/>
			<path id="Layer" class="s1" d="m55.2 105.3v4.4h2.6v0.6h-3.2v-5h0.6z"/>
			<path id="Layer" class="s1" d="m60.3 105.3v4.5h2.6v0.5h-3.2v-5h0.6z"/>
			<path id="Layer" class="s1" d="m65.4 108v1.8h2.3v0.5h-2.9v-5h2.9v0.5h-2.3v1.7h2v0.5h-2z"/>
			<path id="Layer" class="s1" d="m72.1 110.3q-0.1 0.1-0.3 0.1q-0.1 0.1-0.3 0.1q-0.2 0-0.3 0q-0.2 0-0.4 0q-0.2-0.1-0.4-0.1q-0.2-0.1-0.3-0.1q-0.2-0.1-0.4-0.2l-0.1-0.7q0.2 0.2 0.4 0.3q0.2 0.1 0.4 0.1q0.2 0.1 0.4 0.1q0.2 0.1 0.4 0.1q0.1 0 0.2 0q0.1 0 0.2-0.1q0.1 0 0.2-0.1q0.1 0 0.2-0.1q0.1 0 0.1-0.1q0.1-0.1 0.1-0.1q0.1-0.1 0.1-0.2q0-0.1 0-0.2q0-0.1 0-0.2q0-0.1-0.1-0.2q0-0.1-0.1-0.1q0-0.1-0.1-0.2q-0.1 0-0.2-0.1q-0.2-0.1-0.3-0.1q-0.1-0.1-0.2-0.1q-0.2-0.1-0.3-0.1q-0.1 0-0.2-0.1q-0.2-0.1-0.3-0.1q-0.1-0.1-0.2-0.2q-0.1 0-0.2-0.1q-0.1-0.1-0.2-0.2q-0.1-0.1-0.2-0.3q0-0.1 0-0.2q-0.1-0.2-0.1-0.3q0-0.1 0.1-0.3q0-0.1 0.1-0.2q0-0.2 0.1-0.3q0.1-0.1 0.2-0.1q0.1-0.1 0.2-0.2q0.2-0.1 0.3-0.1q0.2-0.1 0.3-0.1q0.1 0 0.3 0q0.2 0 0.3 0q0.2 0.1 0.4 0.1q0.1 0 0.3 0.1q0.1 0.1 0.3 0.2v0.6q0 0-0.1 0q0 0 0-0.1q0 0-0.1 0q0 0 0 0q-0.1-0.1-0.2-0.2q-0.2 0-0.3-0.1q-0.2 0-0.3 0q-0.1-0.1-0.3-0.1q-0.9 0-0.9 0.8q0 0 0 0.1q0 0.1 0 0.2q0.1 0 0.1 0.1q0.1 0.1 0.1 0.1q0.1 0.1 0.2 0.2q0.1 0 0.2 0.1q0.2 0.1 0.3 0.1q0.1 0.1 0.2 0.1q0.2 0.1 0.3 0.1q0.1 0.1 0.2 0.1q0.2 0.1 0.3 0.2q0.1 0.1 0.2 0.1q0.2 0.2 0.4 0.5q0.1 0.3 0.1 0.6q0 0.3-0.1 0.6q-0.2 0.2-0.4 0.4q-0.1 0.1-0.3 0.2z"/>
			<path id="Layer" fill-rule="evenodd" class="s1" d="m81.6 109.8q-0.2 0.1-0.4 0.3q-0.2 0.1-0.5 0.2q-0.3 0.1-0.5 0.1q-0.3 0-0.6 0h-1.5v-5h1.5q0.3 0 0.5 0.1q0.3 0 0.6 0.1q0.2 0.1 0.4 0.2q0.3 0.2 0.5 0.3q0.4 0.4 0.6 0.8q0.2 0.5 0.2 1q0 0.5-0.2 1q-0.2 0.4-0.5 0.8zm-2.1 0.2q0.2 0 0.4 0q0.2 0 0.4-0.1q0.3-0.1 0.5-0.2q0.2-0.1 0.3-0.2q0.2-0.2 0.3-0.3q0.1-0.2 0.2-0.4q0.1-0.2 0.1-0.4q0-0.2 0-0.4q0.1-0.2 0-0.4q0-0.2-0.1-0.4q-0.1-0.2-0.2-0.4q-0.1-0.1-0.3-0.3q-0.2-0.1-0.4-0.2q-0.1-0.1-0.4-0.2q-0.2-0.1-0.4-0.1q-0.2 0-0.4 0h-0.9v4h0.9z"/>
			<path id="Layer" class="s1" d="m87.4 106h-2.4v1.6h2v0.5h-2v1.9h2.4v0.5h-3v-5h3v0.5z"/>
			<path id="Layer" class="s1" d="m94.1 110.2q0.2 0 0.3-0.1q0.1 0 0.2-0.1q0.1 0 0.1-0.1q0.2-0.1 0.2-0.2q0.1-0.2 0.1-0.4q0.1-0.1 0-0.3q-0.1-0.1-0.2-0.3q0 0 0 0q0 0 0 0q0 0 0-0.1q0 0-0.1 0q-0.1-0.1-0.2-0.1q-0.1-0.1-0.2-0.2q-0.1 0-0.2-0.1q-0.2 0-0.3-0.1q-0.1 0-0.2-0.1q-0.1 0-0.3-0.1q-0.1-0.1-0.2-0.1q-0.1-0.1-0.2-0.2q-0.1-0.1-0.2-0.2q-0.1-0.1-0.1-0.2q-0.1-0.2-0.1-0.3q0-0.1 0-0.3q0-0.1 0-0.2q0-0.2 0.1-0.3q0-0.1 0.1-0.2q0.1-0.1 0.2-0.2q0.1-0.1 0.2-0.2q0.2 0 0.3-0.1q0.2 0 0.3 0q0.2-0.1 0.3 0q0.2 0 0.3 0q0.2 0 0.4 0.1q0.1 0 0.3 0.1q0.1 0 0.2 0.1v0.7q0 0 0 0q0-0.1 0-0.1q-0.1 0-0.1 0q0 0 0-0.1q-0.2 0-0.3-0.1q-0.1-0.1-0.3-0.1q-0.1 0-0.2-0.1q-0.2 0-0.3 0q-1 0-1 0.7q0 0.1 0 0.2q0.1 0.1 0.1 0.1q0 0.1 0.1 0.2q0 0 0.1 0.1q0.1 0.1 0.2 0.1q0.1 0.1 0.2 0.2q0.1 0.1 0.2 0.1q0.2 0.1 0.3 0.1q0.1 0 0.2 0.1q0.2 0.1 0.3 0.1q0.1 0.1 0.2 0.2q0.2 0 0.3 0.1q0.1 0.1 0.2 0.2q0.1 0.2 0.1 0.3q0.1 0.2 0.1 0.3q0.1 0.2 0 0.3q0.1 0.2 0 0.3q0 0.1-0.1 0.3q0 0.1-0.1 0.2q-0.1 0.1-0.2 0.2q-0.1 0.1-0.3 0.2q-0.1 0.1-0.3 0.1q-0.2 0.1-0.3 0.1q-0.2 0-0.4 0q-0.2 0-0.4 0q-0.1-0.1-0.3-0.1q-0.2-0.1-0.4-0.1q-0.2-0.1-0.3-0.2l-0.1-0.7q0.2 0.2 0.3 0.3q0.2 0 0.4 0.1q0.2 0.1 0.4 0.1q0.2 0.1 0.4 0.1q0.1 0 0.2 0z"/>
			<path id="Layer" class="s1" d="m99.3 104.2h0.7l-0.9 1h-0.5l0.7-1z"/>
			<path id="Layer" class="s1" d="m97.7 110.6v-5h2.9v0.5h-2.3v1.6h2v0.6h-2v1.8h2.4v0.5h-3z"/>
			<path id="Layer" fill-rule="evenodd" class="s1" d="m106.9 107.1q0.2 0.5 0.2 1q0 0.5-0.2 1q-0.2 0.5-0.5 0.8q-0.2 0.2-0.5 0.4q-0.2 0.1-0.5 0.2q-0.2 0.1-0.5 0.1q-0.3 0-0.6 0h-1.4v-5h1.4q0.3 0 0.6 0.1q0.2 0 0.5 0.1q0.3 0.1 0.5 0.2q0.2 0.1 0.4 0.3q0.4 0.4 0.6 0.8zm-0.7 2.2q0.1-0.2 0.2-0.4q0.1-0.2 0.1-0.4q0.1-0.2 0.1-0.4q0-0.2-0.1-0.4q0-0.2-0.1-0.4q0-0.1-0.2-0.3q-0.1-0.2-0.2-0.3q-0.2-0.1-0.4-0.3q-0.2-0.1-0.4-0.1q-0.2-0.1-0.5-0.1q-0.2-0.1-0.4-0.1h-0.9v4h0.9q0.2 0 0.4 0q0.2 0 0.4-0.1q0.3-0.1 0.5-0.2q0.2-0.1 0.3-0.2q0.2-0.2 0.3-0.3z"/>
			<path id="Layer" class="s1" d="m109.8 105.6v3q0 1.7 1.5 1.7q1.6 0 1.6-2v-2.7h0.5v2.9q0 0.2 0 0.5q0 0.2-0.1 0.4q-0.1 0.2-0.2 0.4q-0.1 0.2-0.2 0.4q-0.4 0.3-0.8 0.5q-0.4 0.1-0.8 0.1q-0.4 0-0.8-0.1q-0.5-0.2-0.8-0.5q-0.1-0.2-0.2-0.4q-0.1-0.2-0.2-0.4q-0.1-0.2-0.1-0.4q0-0.3 0-0.5v-2.8z"/>
			<path id="Layer" class="s1" d="m119.4 110.6q-0.2 0.1-0.3 0.1q-0.2 0.1-0.4 0.1q-0.2 0.1-0.3 0.1q-0.2 0-0.4 0q-0.2 0-0.5-0.1q-0.3 0-0.5-0.1q-0.3-0.1-0.5-0.2q-0.2-0.2-0.4-0.4q-0.2-0.2-0.3-0.4q-0.1-0.2-0.2-0.5q-0.1-0.2-0.2-0.5q0-0.2 0-0.5q0-0.3 0-0.5q0.1-0.3 0.2-0.5q0.1-0.3 0.2-0.5q0.2-0.2 0.4-0.4q0.1-0.2 0.3-0.3q0.3-0.2 0.5-0.3q0.2-0.1 0.5-0.1q0.3-0.1 0.5-0.1q0.1 0 0.2 0q0.1 0.1 0.2 0.1q0.1 0 0.2 0q0.1 0 0.1 0q0.2 0.1 0.3 0.1q0.1 0 0.2 0.1q0.1 0 0.2 0.1q0.1 0 0.2 0.1l-0.1 0.6l-0.2-0.2q-0.2-0.1-0.3-0.1q-0.2-0.1-0.3-0.1q-0.2-0.1-0.3-0.1q-0.2 0-0.4 0q-0.2 0-0.4 0q-0.2 0-0.3 0.1q-0.2 0.1-0.4 0.2q-0.2 0.1-0.3 0.2q-0.2 0.2-0.3 0.4q-0.1 0.2-0.2 0.4q0 0.2-0.1 0.4q0 0.2 0 0.4q0 0.2 0 0.4q0.1 0.2 0.1 0.4q0.1 0.2 0.2 0.4q0.1 0.2 0.3 0.3q0.1 0.2 0.3 0.3q0.1 0.1 0.3 0.2q0.2 0.1 0.4 0.1q0.2 0.1 0.4 0.1q0.1 0 0.2 0q0.1-0.1 0.2-0.1q0.1 0 0.2 0q0.1 0 0.1 0q0.2-0.1 0.3-0.1q0.1-0.1 0.2-0.2q0.1 0 0.2-0.1q0.1-0.1 0.2-0.2v0.8z"/>
			<path id="Layer" class="s1" d="m121.4 106.3v-0.5h4.3v0.5h-1.9v4.5h-0.5v-4.5h-1.9z"/>
			<path id="Layer" class="s1" d="m127.6 105.8h0.6v5h-0.6z"/>
			<path id="Layer" fill-rule="evenodd" class="s1" d="m133.4 105.7q0.2 0.1 0.4 0.2q0.2 0.1 0.4 0.2q0.2 0.2 0.4 0.4q0.2 0.2 0.3 0.4q0.1 0.2 0.2 0.5q0.1 0.2 0.2 0.5q0 0.2 0 0.5q0 0.2 0 0.5q-0.1 0.3-0.2 0.5q-0.1 0.2-0.2 0.5q-0.1 0.2-0.3 0.4q-0.3 0.3-0.8 0.5q-0.4 0.2-0.9 0.2q-0.5 0.1-0.9-0.1q-0.5-0.2-0.8-0.5l-0.1-0.1q-0.2-0.2-0.3-0.4q-0.2-0.3-0.3-0.5q-0.1-0.3-0.1-0.5q0-0.3 0-0.6q0-0.2 0-0.5q0.1-0.2 0.2-0.5q0-0.2 0.2-0.4q0.1-0.3 0.3-0.5q0.2-0.1 0.4-0.3q0.2-0.1 0.4-0.2q0.2-0.1 0.5-0.2q0.2 0 0.5 0q0.2 0 0.5 0zm1.1 3.5q0.2-0.4 0.2-0.9q0-0.4-0.2-0.8q-0.1-0.4-0.4-0.7q-0.2-0.3-0.5-0.4q-0.3-0.2-0.7-0.2q-0.3 0-0.7 0.1q-0.3 0.1-0.6 0.4q0 0 0 0q0 0-0.1 0q0 0 0 0.1q0 0 0 0q-0.2 0.2-0.3 0.3q-0.1 0.2-0.1 0.4q-0.1 0.2-0.1 0.4q0 0.2 0 0.4q0 0.2 0 0.5q0 0.2 0.1 0.4q0.1 0.2 0.2 0.3q0 0.2 0.2 0.4q0.2 0.3 0.5 0.4q0.4 0.2 0.7 0.2q0.4 0 0.7-0.1q0.4-0.1 0.6-0.4q0.1 0 0.1 0q0 0 0 0q0-0.1 0-0.1q0.1 0 0.1 0q0.2-0.3 0.3-0.7z"/>
			<path id="Layer" class="s1" d="m141.1 109.8v-3.9h0.5v5.2h-0.1l-3.6-4.1v3.9h-0.6v-5.2h0.1l3.7 4.1z"/>
			<path id="Layer" class="s1" d="m88.2 34q0 0 0 0.1q0 0 0 0q0 0.1 0 0.1l-0.1-0.3q0 0 0.1 0.1z"/>
			<path id="Layer" class="s1" d="m102.8 47.1q0 0.1 0 0.1q0 0.1 0.1 0.1q0 0 0 0.1q0 0.1 0 0.1q0 0 0 0q0.1 0 0.1 0q0 0.1 0 0.1c0.1 0.1 0.2 0.2 0.2 0.3v0.2v0.1q0 0.1 0.1 0.2q0 0.1 0 0.1q0 0.1 0 0.2q0 0.1 0 0.2q0 0.1 0 0.2q0 0.1 0 0.3q0 0.1 0 0.2q-0.1 0.1-0.1 0.3q0 0.1-0.1 0.1q0 0.1-0.1 0.2q0 0.1-0.1 0.2q0 0.1-0.1 0.2q0 0 0 0q0 0.1 0 0.1q-0.1 0-0.1 0.1q0 0 0 0l-0.2 0.2l0.2-0.2c0-0.1 0.1-0.2 0.1-0.2q0.1-0.1 0.1-0.2q0-0.1 0.1-0.2q0-0.1 0-0.2q0.1-0.1 0.1-0.2q0-0.1 0-0.2q0-0.1 0-0.3q0-0.1 0-0.2q-0.1-0.2-0.1-0.3q0 0-0.1-0.1q0-0.1 0-0.1q0-0.1-0.1-0.1q0-0.1 0-0.2q-0.1 0-0.1-0.1q-0.1 0-0.1-0.1q-0.1 0-0.1-0.1q-0.1 0-0.1-0.1l-0.1-0.1h-0.1c-0.1-0.1-0.2-0.2-0.2-0.2q-0.1 0-0.2 0q0 0-0.1-0.1q-0.1 0-0.2 0q0 0-0.1 0q-0.1 0-0.1-0.1q-0.1 0-0.2 0q0 0-0.1 0q-0.1 0.1-0.2 0.1q0 0-0.1 0q-0.1 0-0.1 0q-0.1 0-0.2 0q0 0-0.1 0q-0.1 0.1-0.1 0.1q-0.1 0-0.1 0q-0.1 0.1-0.2 0.1q0 0-0.1 0l-0.2 0.2l-0.2 0.1l-0.1 0.1l-0.1 0.2c0 0.1-0.1 0.2-0.1 0.2q-0.1 0.1-0.1 0.1q0 0 0 0.1q0 0 0 0q0 0.1 0 0.1q-0.1 0.1-0.1 0.1q0 0.1 0 0.1q0 0.1 0 0.2q-0.1 0-0.1 0.1q0 0.1 0 0.1q0 0.1 0 0.2q0 0 0 0.1q0 0.1 0 0.1v0.2q0 0 0 0q0 0 0 0q0 0.1 0 0.1q0 0 0 0v0.3q0.1 0 0.1 0q0 0.1 0 0.1q0 0 0.1 0.1q0 0 0 0v0.1q0 0 0 0q0 0 0.1 0.1q0 0 0 0q0 0 0 0q0.1 0.1 0.2 0.2q0.1 0.1 0.2 0.2q0.1 0.1 0.3 0.1q0.1 0.1 0.2 0.1q0.2 0.1 0.3 0.1q0.1 0 0.2 0.1q0.1 0 0.3 0q0.1 0 0.2 0q0.1-0.1 0.2-0.1q0.1 0 0.2 0q0.1 0 0.2-0.1q0.1 0 0.2-0.1q0 0 0.1 0q0 0 0 0q0.1 0 0.1-0.1q0 0 0 0q0.1 0 0.1 0q0 0 0-0.1q0.1 0 0.1 0q0 0 0 0l0.2-0.1l-0.2 0.1l-0.1 0.1l-0.3 0.2q-0.2 0.1-0.4 0.2q-0.2 0.1-0.5 0.1q-0.2 0-0.5 0.1q-0.2 0-0.4 0q-0.2-0.1-0.4-0.1q-0.1 0-0.3-0.1q-0.2 0-0.3-0.1q-0.2-0.1-0.3-0.2q0 0-0.1 0q0 0 0 0q0 0 0 0q-0.1 0-0.1-0.1h-0.1q0 0 0-0.1q-0.1 0-0.1 0q0-0.1-0.1-0.1q0 0 0-0.1c-0.1 0-0.2-0.1-0.2-0.1l-0.1-0.2q0 0-0.1-0.1q0 0 0-0.1q-0.1 0-0.1 0q0-0.1 0-0.1q-0.1-0.2-0.2-0.5q-0.1-0.2-0.1-0.4q-0.1-0.2-0.1-0.4q0-0.3 0.1-0.5q0-0.1 0-0.2q0-0.1 0.1-0.3q0-0.1 0.1-0.2q0-0.1 0.1-0.2q0-0.1 0-0.1q0.1-0.1 0.1-0.1q0-0.1 0.1-0.1q0-0.1 0-0.1l0.2-0.2l0.2-0.1l0.1 0.1l0.2-0.1l0.2-0.1q0-0.1 0.1-0.1q0 0 0.1-0.1q0 0 0.1 0q0 0 0.1-0.1q0.1 0 0.2-0.1q0.2 0 0.3 0q0.1-0.1 0.2-0.1q0.2 0 0.3 0q0.1-0.1 0.2-0.1q0.2 0 0.3 0q0.1 0 0.3 0q0.1 0 0.2 0.1q0.1 0 0.2 0q0.1 0 0.2 0.1q0.1 0 0.2 0.1q0.1 0 0.3 0.1q0 0 0.1 0.1q0.1 0 0.2 0.1q0.1 0.1 0.2 0.1q0.1 0.1 0.1 0.2q0.1 0 0.1 0z"/>
			<path id="Layer" class="s1" d="m85.4 45.3q0.9-0.3 1.9-0.2q1 0 1.9 0.5q0.9 0.4 1.6 1.1q0.7 0.7 1 1.6q0.4 0.8 0.4 1.8q0 0.9-0.4 1.8q-0.3 0.9-1 1.6q0.5-0.7 0.6-1.4q0.2-0.8 0.1-1.6q0-0.8-0.4-1.5q-0.4-0.7-0.9-1.2q-0.7-0.6-1.4-0.9q-0.8-0.3-1.6-0.4q-0.8 0-1.6 0.2q-0.8 0.2-1.5 0.7q-0.6 0.4-1.1 1.1q-0.4 0.6-0.6 1.4q-0.2 0.8-0.2 1.6q0.1 0.7 0.5 1.5q-0.6-0.8-0.8-1.7q-0.2-1-0.1-1.9q0.2-1 0.6-1.8q0.5-0.8 1.3-1.4q0.7-0.6 1.7-0.9z"/>
			<path id="Layer" class="s1" d="m84.5 21.1q0.1 0.1 0.1 0.2q0.1 0.1 0.1 0.3q0 0.1 0.1 0.2q0 0.1 0 0.2q0 0.1 0 0.2q0 0 0 0.1q0 0.1 0 0.2q0-0.1 0-0.2q-0.1-0.1-0.1-0.2q0-0.1 0-0.2q0-0.1 0-0.2q-0.1-0.1-0.1-0.2q0-0.1-0.1-0.2q0-0.1 0-0.2q-0.1-0.1-0.1-0.2q0.1 0.1 0.1 0.2z"/>
			<path id="Layer" class="s1" d="m84.3 20.7c0.1 0 0.1 0.1 0.1 0.2q0-0.1 0-0.1q0 0 0 0q-0.1-0.1-0.1-0.1q0 0 0 0l-0.1-0.3l-0.1-0.1q-0.1-0.1-0.1-0.1q0 0-0.1-0.1q0 0 0 0q0-0.1-0.1-0.1l0.3 0.3l0.1 0.2c0 0 0.1 0.1 0.1 0.2z"/>
			<path id="Layer" class="s1" d="m84.7 23.2q0-0.1 0-0.2q0.1-0.2 0.1-0.3q0-0.1 0-0.2q0 0.4 0 0.7q-0.1 0.4-0.2 0.8q0 0.3-0.2 0.6q-0.2 0.4-0.4 0.7q0 0.1-0.1 0.2l-0.1 0.1v0.1h-0.1c-0.1 0.2-0.2 0.3-0.4 0.4q0 0-0.1 0.1q0 0 0 0q-0.1 0-0.1 0.1q0 0 0 0l-0.3 0.2l-0.3 0.2l-0.3 0.1q-0.1 0.1-0.3 0.1q-0.1 0.1-0.3 0.1q-0.2 0.1-0.3 0.1q-0.2 0.1-0.3 0.1q-0.2 0-0.4 0q-0.2 0-0.3 0q-0.2 0-0.4 0q-0.2 0-0.3 0q-0.2 0-0.4-0.1q-0.2 0-0.3-0.1q-0.2 0-0.4-0.1q-0.1-0.1-0.3-0.1l-0.3-0.2l-0.3-0.2l-0.3-0.2l-0.2-0.1v-0.1l-0.2-0.2l-0.1-0.1l-0.2-0.2q-0.1-0.1-0.2-0.3l-0.2-0.3q0-0.1-0.1-0.3q-0.1-0.1-0.1-0.3q-0.1-0.2-0.1-0.3q-0.1-0.2-0.1-0.4q0-0.1-0.1-0.3q0-0.2 0-0.3q0-0.2 0-0.4q0.1-0.1 0.1-0.3q0-0.2 0-0.3q0.1-0.2 0.1-0.3q0.1-0.2 0.1-0.3q0.1-0.2 0.2-0.3q0-0.2 0.1-0.3q0.1-0.1 0.2-0.3q0.1-0.1 0.2-0.2q0-0.1 0.2-0.2q0.2-0.3 0.4-0.4l0.1-0.1l0.1-0.1l0.2-0.1q0.1-0.1 0.2-0.1q0-0.1 0.1-0.1q0 0 0.1-0.1q0.1 0 0.1 0l0.3-0.1l0.2-0.1q0.2-0.1 0.3-0.1q0.1-0.1 0.2-0.1q0.2 0 0.3 0q0.1-0.1 0.2-0.1q0.3 0 0.5 0q0.2 0 0.4 0q0.2 0 0.4 0q0.3 0.1 0.5 0.1q0.1 0.1 0.3 0.1q0.2 0.1 0.3 0.1q0.2 0.1 0.3 0.1q0.2 0.1 0.3 0.2l0.2 0.1l0.2 0.2q0 0 0.1 0q0 0 0.1 0.1q0 0 0 0q0.1 0 0.1 0.1l0.2 0.2l-0.2-0.2l-0.3-0.2l-0.2-0.2l-0.2-0.1q-0.2-0.1-0.3-0.1q-0.2-0.1-0.3-0.1q-0.2-0.1-0.3-0.1q-0.2 0-0.3-0.1q-0.2 0-0.5 0q-0.2 0-0.4 0q-0.2 0-0.4 0q-0.2 0.1-0.4 0.1q-0.1 0.1-0.2 0.1q-0.1 0-0.2 0.1q-0.1 0-0.2 0.1q-0.1 0-0.3 0.1l-0.2 0.1l-0.1 0.1q-0.1 0.1-0.1 0.1q-0.1 0-0.1 0.1q-0.1 0-0.1 0q-0.1 0.1-0.1 0.1l-0.2 0.2l-0.1 0.2q-0.1 0.2-0.3 0.4q0 0.1-0.1 0.2q-0.1 0.1-0.1 0.3q-0.1 0.1-0.1 0.2q0 0.1-0.1 0.2v0.3q0 0 0 0q0 0 0 0.1q0 0 0 0q0 0.1 0 0.1v0.5q0 0.1 0 0.2q0 0.2 0 0.3q0 0.1 0 0.2q0.1 0.2 0.1 0.3c0.1 0.1 0 0.1 0.1 0.2c0 0.1 0.1 0.2 0.1 0.3q0 0 0 0q0 0 0 0.1q0 0 0 0q0.1 0 0.1 0.1q0 0 0 0q0 0.1 0 0.1q0 0 0.1 0q0 0.1 0 0.1l0.1 0.2l0.1 0.1l0.1 0.1v0.1q0.1 0 0.1 0q0 0 0 0q0 0 0 0q0 0.1 0 0.1l0.2 0.2l0.1 0.1q0 0 0.1 0q0 0 0 0q0 0.1 0.1 0.1q0 0 0 0q0.1 0 0.1 0.1q0.1 0 0.1 0q0.1 0.1 0.1 0.1q0.1 0 0.1 0.1l0.3 0.1h0.1h0.1q0.1 0.1 0.1 0.1q0.1 0 0.2 0q0 0 0.1 0.1q0 0 0.1 0q0.1 0 0.2 0q0.2 0.1 0.3 0.1q0.1 0 0.2 0q0.2 0 0.3 0h0.5h0.2l0.3-0.1q0 0 0.1 0q0-0.1 0.1-0.1q0 0 0 0q0.1 0 0.1-0.1q0 0 0.1 0q0 0 0 0q0.1 0 0.1 0q0 0 0.1 0l0.2-0.2l0.2-0.1q0.1 0 0.1 0q0.1-0.1 0.1-0.1q0.1 0 0.1-0.1q0.1 0 0.1-0.1h0.1l0.2-0.2q0.2-0.2 0.3-0.4q0.2-0.1 0.3-0.3q0.1-0.2 0.2-0.5q0.1-0.2 0.2-0.4q0-0.1 0-0.2z"/>
			<path id="Layer" class="s1" d="m93 26.1q0 0 0 0q0 0 0 0.1q0 0-0.1 0l0.1-0.2q0 0 0 0.1z"/>
			<path id="Layer" class="s1" d="m93 25.9q0 0 0 0q0 0 0 0.1q0 0 0 0q0 0 0 0q0-0.1 0-0.1q0 0 0 0q0 0 0 0q0 0 0 0z"/>
			<path id="Layer" class="s1" d=""/>
			<path id="Layer" class="s1" d="m102.5 25.3q0.1 0.2 0.1 0.4q0.1 0.2 0.2 0.4q0 0.2 0.1 0.4q0 0.2 0 0.3q0 0.2 0 0.4q0 0.2 0 0.4q0 0.2 0 0.4v0.5l-0.1 0.2l-0.1 0.2v0.2l-0.1 0.3q-0.1 0.2-0.2 0.4q-0.1 0.1-0.2 0.3q-0.1 0.2-0.3 0.3q-0.1 0.2-0.2 0.3q-0.1 0.1-0.3 0.3q-0.1 0.1-0.3 0.2q-0.1 0.1-0.3 0.2q-0.2 0.1-0.3 0.2q-0.2 0.1-0.4 0.2q-0.1 0-0.3 0.1q-0.2 0.1-0.4 0.1q-0.1 0.1-0.3 0.1q-0.2 0.1-0.4 0.1q-0.1 0-0.3 0q-0.2 0-0.4 0q-0.2 0-0.3 0q-0.1 0-0.2 0q-0.1 0-0.2 0q0 0-0.1 0q-0.1 0-0.2-0.1h-0.4h-0.3q0-0.1-0.1-0.1q-0.1 0-0.2 0q0-0.1-0.1-0.1q-0.1 0-0.1-0.1l-0.3-0.1l-0.3-0.1q-0.1-0.1-0.2-0.2q-0.1-0.1-0.2-0.2q-0.2 0-0.3-0.1q-0.1-0.1-0.2-0.2q-0.1-0.2-0.3-0.4q-0.2-0.1-0.3-0.3q-0.1-0.2-0.2-0.4q-0.2-0.2-0.3-0.4q0-0.2-0.1-0.4q-0.1-0.1-0.1-0.3q-0.1-0.2-0.1-0.4q0-0.1-0.1-0.3q0.1 0.2 0.1 0.3q0.1 0.2 0.1 0.3q0.1 0.2 0.2 0.4q0 0.1 0.1 0.3q0.1 0.1 0.3 0.3q0.1 0.2 0.3 0.4q0.1 0.2 0.3 0.3q0.1 0.2 0.3 0.3q0.1 0.1 0.2 0.1q0.2 0.1 0.3 0.2q0.1 0 0.2 0.1q0.1 0.1 0.2 0.1l0.3 0.1l0.2 0.1q0.1 0 0.2 0q0 0 0.1 0.1q0.1 0 0.1 0q0.1 0 0.2 0h0.5v-0.1h0.2q0.1 0 0.1 0q0.1 0 0.2 0q0.1 0 0.1 0.1q0.1 0 0.2 0q0.1 0 0.3-0.1q0.1 0 0.2 0q0.2 0 0.3 0q0.2-0.1 0.3-0.1l0.3-0.1l0.2-0.1l0.2-0.1l0.1-0.1l0.2-0.1q0.1-0.1 0.3-0.2q0.1-0.1 0.2-0.2q0.1-0.1 0.2-0.2q0.1-0.1 0.2-0.2l0.2-0.3q0-0.1 0.1-0.2l0.1-0.1q0 0 0 0q0-0.1 0-0.1q0 0 0 0q0 0 0 0c0.1-0.1 0.2-0.2 0.2-0.3q0 0 0-0.1q0 0 0 0q0.1-0.1 0.1-0.1q0 0 0-0.1q0 0 0 0q0 0 0 0q0-0.1 0-0.1q0 0 0 0v-0.7q0-0.1 0-0.3q0-0.1 0-0.2q0-0.2 0-0.3q0-0.2 0-0.3q0 0 0-0.1q0 0-0.1 0q0-0.1 0-0.1q0 0 0-0.1v-0.3q0 0 0 0q0-0.1 0-0.1q0 0 0-0.1q0 0-0.1 0l-0.1-0.3q0-0.1-0.1-0.3q-0.1-0.1-0.1-0.2q-0.1-0.1-0.2-0.3q-0.1-0.1-0.2-0.2q-0.1-0.1-0.2-0.2l-0.1-0.1l-0.1-0.1l-0.2-0.2l-0.2-0.3q0 0-0.1 0q0 0 0-0.1q0 0-0.1 0q0 0 0 0q-0.1 0-0.1-0.1q0 0-0.1 0q0 0 0 0q-0.1 0-0.1-0.1l-0.2-0.1l-0.3-0.1q-0.1 0-0.2 0q0-0.1-0.1-0.1q-0.1 0-0.1 0q-0.1 0-0.2-0.1h-0.5q-0.3 0-0.6 0q-0.2 0-0.5 0.1q-0.3 0-0.5 0.1q-0.3 0-0.6 0.1q-0.2 0.1-0.4 0.2q-0.2 0.1-0.4 0.2q-0.2 0.2-0.3 0.3q-0.2 0.2-0.4 0.3q-0.1 0.2-0.2 0.3q-0.1 0.1-0.2 0.3q-0.1 0.1-0.2 0.3q-0.1 0.1-0.2 0.3c0 0.1 0 0.2-0.1 0.3q0 0 0 0q0 0 0 0q0 0-0.1 0q0 0 0 0.1q0 0 0-0.1q0 0 0 0q0 0 0 0q0 0 0 0q0.1 0 0.1-0.1q0 0 0 0q0-0.1 0-0.1q0 0 0-0.1q0.1-0.1 0.2-0.3q0.1-0.2 0.2-0.3q0.1-0.2 0.2-0.3q0.1-0.2 0.2-0.3q0.1-0.2 0.3-0.3q0.1-0.2 0.3-0.4q0.2-0.1 0.4-0.2q0.1-0.2 0.3-0.3q0.3-0.1 0.6-0.2q0.3-0.2 0.5-0.2q0.3-0.1 0.6-0.2q0.3 0 0.6 0h0.3c0.1 0 0.1 0 0.2 0h0.8q0.1 0 0.1 0.1q0.1 0 0.1 0q0 0 0.1 0q0 0 0.1 0l0.3 0.1q0.1 0 0.1 0q0 0 0.1 0.1q0 0 0.1 0q0 0 0 0q0.1 0 0.1 0.1q0.1 0 0.1 0q0.1 0 0.1 0q0 0 0.1 0.1q0.1 0.1 0.3 0.2q0.2 0 0.3 0.2q0.2 0.1 0.3 0.2q0.1 0.1 0.3 0.2q0.1 0.1 0.2 0.3q0.2 0.1 0.3 0.3q0.1 0.1 0.2 0.3q0.1 0.1 0.2 0.3q0.1 0.2 0.2 0.3z"/>
			<path id="Layer" class="s1" d="m109.8 15.4q0.1 0.1 0.2 0.3q0 0.1 0 0.2q0.1 0.2 0.1 0.3q0.1 0.2 0.1 0.4q0 0.2 0 0.4q0 0.2 0 0.4q0 0.2 0 0.3q0 0.3-0.1 0.5q-0.1 0.2-0.1 0.5q-0.1 0.2-0.2 0.4q-0.2 0.2-0.3 0.4c0 0.1-0.2 0.1-0.2 0.2v0.1v0.1q-0.1 0-0.1 0.1q-0.1 0-0.1 0.1q-0.1 0-0.1 0.1q-0.1 0-0.1 0.1c-0.1 0-0.2 0.1-0.3 0.1l-0.2 0.2q0 0-0.1 0q0 0.1 0 0.1q0 0-0.1 0q0 0-0.1 0.1l-0.2 0.1q-0.2 0-0.3 0.1q-0.2 0.1-0.3 0.1q-0.2 0-0.3 0.1q-0.2 0-0.3 0q-0.2 0-0.3 0.1q-0.2 0-0.4 0q-0.1 0-0.3 0q-0.2-0.1-0.3-0.1q-0.4 0-0.7-0.1q-0.3-0.1-0.6-0.3q-0.3-0.1-0.6-0.3q-0.2-0.2-0.5-0.4q0-0.1 0-0.1q0 0 0 0q0 0 0 0q0 0-0.1 0l-0.1-0.1v-0.1l-0.1-0.2q-0.2-0.1-0.3-0.3l-0.1-0.2q-0.1-0.2-0.2-0.4q0-0.1-0.1-0.3q0-0.2 0-0.4q-0.1-0.1-0.1-0.3q0-0.2 0-0.3q0-0.2 0-0.3q0-0.2 0-0.4q0-0.1 0-0.3q0-0.1 0.1-0.3q0-0.1 0-0.2q0.1-0.2 0.2-0.3q0-0.2 0.1-0.3q0.1-0.2 0.2-0.4q0.1-0.1 0.3-0.3q0.1-0.2 0.2-0.3q0.2-0.2 0.4-0.3l0.1-0.1l0.2-0.1q0.1-0.1 0.1-0.1q0.1 0 0.2-0.1q0 0 0.1 0q0 0 0.1-0.1l0.2-0.1h0.3q0.1-0.1 0.2-0.1q0.1 0 0.2-0.1q0.2 0 0.3 0q0.1 0 0.2 0q0.2-0.1 0.4-0.1q0.2 0 0.4 0q0.2 0.1 0.4 0.1q0.2 0 0.4 0.1q0.1 0 0.3 0.1q0.1 0 0.3 0.1q0.1 0 0.3 0.1q0.1 0.1 0.2 0.1l0.2 0.2l0.2 0.1l0.3 0.2l-0.3-0.2l-0.2-0.1l-0.2-0.1q-0.1-0.1-0.3-0.2q-0.1 0-0.2-0.1q-0.2 0-0.3-0.1q-0.2 0-0.3 0q-0.2-0.1-0.4-0.1q-0.2 0-0.4 0q-0.2 0-0.4 0.1q-0.2 0-0.3 0.1q-0.1 0-0.2 0q-0.1 0-0.2 0.1q-0.1 0-0.2 0.1q-0.1 0-0.2 0.1l-0.2 0.1l-0.2 0.1q0 0-0.1 0.1q0 0-0.1 0q0 0.1-0.1 0.1q0 0 0 0.1q-0.1 0-0.1 0q0 0 0 0q0 0.1-0.1 0.1q0 0 0 0l-0.1 0.1q0 0.1-0.1 0.1q0 0 0 0.1q-0.1 0-0.1 0.1q0 0 0 0.1q-0.1 0.1-0.2 0.2q0 0.1-0.1 0.2q0 0.1-0.1 0.2q0 0.1 0 0.2q-0.1 0.2-0.1 0.4q0 0.2 0 0.5q0 0.2 0 0.4q0 0.2 0.1 0.4q0 0.1 0 0.1q0 0.1 0 0.2q0.1 0 0.1 0.1q0 0 0 0.1q0 0 0 0q0.1 0 0.1 0.1q0 0 0 0q0 0 0 0.1c0.1 0 0 0 0.1 0.2c0.1 0.1 0.2 0.2 0.3 0.3v0.1q0 0 0 0q0.1 0 0.1 0q0 0.1 0 0.1q0 0 0 0l0.1 0.1q0.1 0.1 0.2 0.2q0.1 0.1 0.2 0.1q0 0.1 0.1 0.2q0.1 0 0.2 0.1l0.2 0.1l0.2 0.1q0.1 0 0.2 0q0 0 0.1 0.1q0 0 0.1 0q0 0 0.1 0q0.1 0 0.2 0.1q0.1 0 0.3 0q0.1 0 0.2 0q0.1 0 0.2 0h0.7h0.2l0.3-0.1h0.2l0.2-0.1l0.2-0.1q0.1-0.1 0.1-0.1q0.1 0 0.1-0.1q0.1 0 0.1 0q0.1-0.1 0.1-0.1l0.1-0.1l0.2-0.1q0.1-0.2 0.2-0.3q0.2-0.2 0.3-0.4q0.1-0.1 0.2-0.3q0.1-0.2 0.1-0.4q0.1-0.2 0.1-0.4q0.1-0.2 0.1-0.3q0-0.2 0-0.4q0-0.2 0-0.4q-0.1-0.1-0.1-0.2q0-0.2-0.1-0.3q0-0.2-0.1-0.3q0-0.1-0.1-0.2c-0.1-0.1-0.1-0.2-0.1-0.2l-0.1-0.2q-0.1 0-0.1-0.1q0 0 0 0q-0.1-0.1-0.1-0.1q0 0 0 0l-0.2-0.2l0.2 0.2q0 0 0 0q0 0 0.1 0.1q0 0 0 0q0 0.1 0.1 0.1l0.1 0.2q0 0 0 0q0 0 0 0.1q0.1 0 0.1 0q0 0 0 0q0.1 0.2 0.1 0.3z"/>
			<path id="Layer" class="s1" d="m88.1 7.4q0.1 0.1 0.2 0.2q0 0.1 0.1 0.3q0 0.1 0 0.2q0.1 0.4 0.2 0.8q0 0.4-0.1 0.8q-0.1 0.4-0.2 0.7q-0.2 0.4-0.4 0.7q0 0 0 0.1q0 0 0 0q-0.1 0-0.1 0.1q0 0 0 0l-0.1 0.1v0.1q-0.2 0.2-0.3 0.4l-0.3 0.1l-0.2 0.2l-0.2 0.1c-0.1 0.1-0.2 0.2-0.3 0.2q-0.1 0-0.3 0.1q-0.1 0-0.2 0.1q-0.2 0-0.3 0q-0.2 0.1-0.3 0.1q-0.2 0-0.3 0q-0.2 0-0.3 0q-0.2 0-0.3 0q-0.2 0-0.3 0q-0.2 0-0.3-0.1q-0.2 0-0.4 0q-0.1-0.1-0.2-0.1q-0.2-0.1-0.3-0.2q-0.2 0-0.3-0.1q-0.1-0.1-0.3-0.2q-0.1-0.1-0.2-0.2q-0.1-0.1-0.2-0.2q-0.1 0-0.1 0q0 0 0 0q0 0 0 0q0 0 0 0v-0.1l-0.1-0.1l-0.1-0.1q0 0 0 0q0 0 0-0.1q-0.1 0-0.1 0q0 0 0 0l-0.2-0.3c0-0.1-0.1-0.2-0.1-0.3q-0.1 0-0.1-0.1q0 0-0.1-0.1q0 0 0-0.1q0-0.1-0.1-0.1v-0.4q0 0-0.1-0.1q0 0 0-0.1q0 0 0-0.1q0 0 0-0.1q0-0.1 0-0.3q-0.1-0.1-0.1-0.3q0-0.1 0.1-0.2q0-0.2 0-0.3q0-0.2 0-0.3q0.1-0.2 0.1-0.3q0.1-0.1 0.1-0.2q0.1-0.2 0.1-0.3q0.1-0.1 0.2-0.2q0-0.2 0.1-0.3q0.1-0.1 0.2-0.2q0.1-0.1 0.2-0.2q0 0 0-0.1q0.1 0 0.1-0.1q0.1 0 0.1 0q0.1-0.1 0.1-0.1h0.1l0.1-0.1l0.3-0.1q0-0.1 0.1-0.1q0 0 0.1 0q0-0.1 0.1-0.1q0.1 0 0.1-0.1l0.2-0.1h0.3q0.1-0.1 0.2-0.1q0.1 0 0.2-0.1q0.1 0 0.2 0q0.1 0 0.2 0q0.2 0 0.4-0.1q0.2 0 0.4 0.1q0.2 0 0.3 0q0.2 0 0.4 0.1q0.2 0 0.3 0q0.1 0.1 0.2 0.1q0.2 0.1 0.3 0.2q0.1 0 0.2 0.1l0.2 0.1l0.1 0.1q0.1 0 0.1 0q0 0.1 0.1 0.1q0 0 0 0.1q0 0 0.1 0l-0.3-0.1q0-0.1 0-0.1q0 0 0 0q-0.1 0-0.1 0q0 0 0-0.1l-0.2-0.1q-0.1 0-0.3-0.1q-0.1 0-0.2-0.1q-0.2 0-0.3 0q-0.1-0.1-0.3-0.1q-0.2 0-0.3 0q-0.2 0-0.4 0q-0.2 0-0.4 0q-0.1 0.1-0.3 0.1q-0.1 0-0.2 0.1q-0.1 0-0.2 0q-0.1 0.1-0.2 0.1q0 0.1-0.1 0.1l-0.2 0.1l-0.2 0.2q-0.2 0.1-0.3 0.2l-0.2 0.2q0 0 0 0q0 0 0 0q0 0 0 0.1q0 0-0.1 0l-0.2 0.3q0 0.1-0.1 0.2q0 0.1-0.1 0.1q0 0.1 0 0.2q-0.1 0.1-0.1 0.2q0 0.1 0 0.2q0 0.1-0.1 0.2q0 0.1 0 0.2q0 0.1 0 0.2q0 0.1 0 0.2q0 0.1 0 0.2q0.1 0.1 0.1 0.2q0 0.1 0 0.2q0.1 0.2 0.2 0.4l0.1 0.2q0 0 0 0q0 0 0 0.1q0 0 0 0q0 0 0.1 0.1q0.1 0.1 0.2 0.3l0.1 0.1l0.1 0.1v0.1q0 0 0.1 0.1q0.1 0.1 0.2 0.1q0.1 0.1 0.2 0.1q0 0.1 0.1 0.2h0.2q0.1 0.1 0.1 0.1q0 0 0 0q0 0 0.1 0q0 0 0 0q0.1 0 0.1 0.1q0.1 0 0.1 0q0.1 0 0.1 0q0.1 0 0.1 0.1q0.1 0 0.2 0q0.1 0 0.3 0q0.1 0 0.2 0.1q0.1 0 0.2 0h0.6l0.2-0.1h0.2l0.2-0.1l0.2-0.1l0.2-0.1q0.1 0 0.1 0q0.1-0.1 0.1-0.1q0.1 0 0.1-0.1q0 0 0.1 0l0.1-0.1l0.1-0.1q0.2-0.2 0.3-0.3q0.1-0.2 0.2-0.3q0.1-0.2 0.2-0.4q0.1-0.1 0.1-0.3q0.1-0.2 0.1-0.4q0.1-0.1 0.1-0.3q0-0.2 0-0.3q0-0.2-0.1-0.4q0-0.1 0-0.2q-0.1-0.2-0.1-0.3q0-0.1-0.1-0.2q-0.1-0.2-0.1-0.3l-0.1-0.2l-0.1-0.1l-0.2-0.2l-0.2-0.2q0 0 0 0q0.1 0.1 0.1 0.1q0 0 0 0q0 0 0.1 0.1l0.2 0.2l0.1 0.1l0.1 0.2q0.1 0.1 0.1 0.3z"/>
			<path id="Layer" class="s1" d="m70.3 28.5q0.2 0 0.4-0.2q0.2-0.1 0.4-0.3q0.1-0.2 0.3-0.4q0 0 0-0.1q0.1-0.1 0.1-0.2q0-0.1 0-0.1q0.1-0.1 0.1-0.2q0 0.1 0 0.2q-0.1 0-0.1 0.1q0 0.1 0 0.2q0 0.1-0.1 0.2q0 0.1-0.1 0.2q0 0.1-0.1 0.2q0 0.1-0.1 0.2q-0.1 0.1-0.1 0.2q-0.2 0.1-0.3 0.2q-0.1 0.1-0.2 0.2q-0.1 0.1-0.3 0.2q-0.1 0.1-0.2 0.1l-0.2 0.1h-0.2q0 0-0.1 0q0 0 0 0q-0.1 0-0.1 0q-0.1 0-0.1 0h-0.8q-0.1 0-0.2 0q-0.1 0-0.2 0q-0.1-0.1-0.2-0.1q-0.1 0-0.2-0.1q-0.1 0-0.2-0.1q-0.1 0-0.1-0.1q-0.1 0-0.2-0.1q-0.1-0.1-0.2-0.1q-0.1-0.1-0.1-0.2q-0.1-0.1-0.2-0.1q-0.1-0.1-0.1-0.2q-0.1-0.1-0.1-0.2q-0.1 0-0.1-0.1q0 0 0-0.1q-0.1 0-0.1-0.1q0 0 0-0.1q0 0 0 0q0-0.1 0-0.1q-0.1 0-0.1 0q0-0.1 0-0.1v-0.5q0 0 0-0.1q0 0 0-0.1q0-0.1 0-0.1q0-0.1 0-0.1q0-0.1 0.1-0.2q0-0.1 0-0.2q0.1-0.1 0.1-0.2q0-0.1 0.1-0.2q0-0.1 0.1-0.2q0.1-0.1 0.1-0.2q0.1-0.1 0.2-0.2q0 0 0.1-0.1q0.1-0.1 0.1-0.1q0.1-0.1 0.2-0.1q0.1 0 0.2-0.1q0 0 0.1 0q0.1-0.1 0.2-0.1q0.1-0.1 0.2-0.1q0.1 0 0.2-0.1q0 0 0.1 0h1.1l0.2 0.1q0.1 0 0.1 0q0.1 0 0.2 0.1q0 0 0.1 0q0.1 0.1 0.1 0.1q0.1 0 0.2 0.1q0.1 0.1 0.2 0.2q0.1 0 0.2 0.1q0.1 0.1 0.2 0.2q0 0.1 0.1 0.1q0 0.1 0.1 0.2q0 0.1 0.1 0.1q0 0.1 0 0.2q0.1 0 0.1 0.1q0 0 0 0q0 0.1 0 0.1q0 0 0 0q0 0 0 0q0 0 0-0.1q0 0 0 0q-0.1-0.1-0.1-0.1q0-0.1-0.1-0.1q0-0.1-0.1-0.2q0 0-0.1-0.1q0-0.1-0.1-0.1q-0.1-0.1-0.2-0.2q-0.1 0-0.2-0.1q-0.1 0-0.2-0.1q-0.1 0-0.2 0q0-0.1-0.1-0.1q-0.1 0-0.1 0q-0.1 0-0.2 0q0 0-0.1 0q0 0-0.1 0q-0.1 0-0.1 0q-0.1 0-0.2 0q0 0-0.1 0q0 0 0 0q0 0-0.1 0q0 0 0 0q0 0 0 0h-0.1l-0.2 0.1q-0.1 0.1-0.2 0.1q0 0-0.1 0.1q0 0-0.1 0.1q0 0 0 0q-0.1 0.1-0.1 0.1q-0.1 0.1-0.1 0.1q-0.1 0.1-0.1 0.1q0 0.1-0.1 0.1q0 0.1 0 0.1q0 0.1-0.1 0.1q0 0.1 0 0.1q0 0.1-0.1 0.2q0 0 0 0.1q0 0 0 0.1q0 0-0.1 0.1q0 0 0 0.1v0.2l0.1 0.3q0 0 0 0q0 0.1 0.1 0.1q0 0 0 0q0 0.1 0 0.1q0 0 0 0q0 0 0 0q0 0 0 0.1q0 0 0 0q0 0 0 0q0 0.1 0 0.1q0 0 0 0.1q0.1 0 0.1 0q0 0 0 0.1q0 0 0 0q0 0 0 0.1q0.1 0 0.1 0c0 0.1 0.1 0.1 0.1 0.2l0.4 0.3q0 0.1 0.1 0.1q0 0 0.1 0.1q0 0 0.1 0q0.1 0.1 0.1 0.1h0.1q0 0 0.1 0q0 0 0 0q0 0 0 0q0 0 0.1 0h0.2q0 0 0.1 0q0 0 0 0q0.1 0 0.1 0q0 0 0.1 0h0.2q0.3 0 0.5-0.1z"/>
			<path id="Layer" class="s1" d="m69.1 54.4q0.1 0.1 0.1 0.2q0.1 0 0.1 0.1q0.1 0.1 0.1 0.2q0 0 0 0q0 0.1 0 0.1q0.1 0 0.1 0.1q0 0 0 0q0 0.1 0 0.1q0 0 0 0q0 0 0 0.1q0 0 0 0q0 0 0 0q0-0.1 0-0.1q-0.1 0-0.1 0q0 0 0-0.1q0 0 0 0q0-0.1 0-0.1q0 0-0.1-0.1q0 0 0 0q0-0.1-0.1-0.2q0 0-0.1-0.1q0-0.1-0.1-0.1q0-0.1-0.1-0.1q-0.1-0.1-0.2-0.2q-0.1 0-0.2-0.1q-0.1 0-0.2-0.1q-0.1 0-0.2-0.1q0 0-0.1 0q-0.1 0-0.1 0q-0.1 0-0.1 0q-0.1 0-0.2 0q0 0-0.1 0q-0.1 0-0.1 0q-0.1 0-0.1 0q-0.1 0-0.1 0h-0.3q0 0 0 0.1q0 0-0.1 0q0 0 0 0q-0.1 0-0.1 0q0 0.1-0.1 0.1q-0.1 0-0.1 0.1q-0.1 0-0.1 0q0 0.1-0.1 0.1q0 0.1-0.1 0.1q0 0.1-0.1 0.1q0 0.1 0 0.1q-0.1 0.1-0.1 0.1q0 0.1-0.1 0.1q0 0.1 0 0.1q0 0.1-0.1 0.1q0 0.1 0 0.1q0 0.1 0 0.1q0 0.1 0 0.2q-0.1 0-0.1 0.1q0 0 0 0.1q0 0 0 0q0 0.1 0 0.1q0 0 0 0q0 0.1 0 0.1v0.1c0 0 0.1 0.1 0.1 0.1h-0.1v0.4q0 0 0 0q0 0.1 0 0.1q0 0 0 0.1q0 0 0.1 0q0 0 0 0.1q0 0 0 0q0 0 0 0.1q0.1 0 0.1 0q0 0 0 0.1q0 0 0 0q0 0 0.1 0.1q0 0 0 0q0 0 0.1 0.1q0 0 0.1 0q0 0.1 0 0.1q0.1 0 0.1 0q0.1 0.1 0.1 0.1q0.1 0 0.1 0.1q0.1 0 0.1 0q0.1 0.1 0.2 0.1h0.4q0.1 0 0.1 0q0 0 0.1 0q0 0 0 0q0.1 0 0.1 0h0.2q0.1 0 0.2 0q0.2-0.1 0.3-0.1q0.1-0.1 0.2-0.1q0.1-0.1 0.2-0.1q0.1-0.1 0.2-0.2q0.1 0 0.2-0.1q0-0.1 0.1-0.2q0-0.1 0.1-0.2q0-0.1 0.1-0.1q0-0.1 0-0.2q0.1-0.1 0.1-0.2q0-0.1 0-0.1q0 0 0 0.1q0 0.1 0 0.2q0 0.1-0.1 0.2q0 0.1 0 0.2q-0.1 0.1-0.1 0.2q-0.1 0.1-0.1 0.2q-0.1 0.1-0.1 0.2q-0.1 0.1-0.2 0.2q-0.1 0.1-0.2 0.2q-0.1 0.1-0.2 0.2q-0.2 0.1-0.3 0.1q-0.1 0.1-0.3 0.2l-0.1 0.1l-0.1 0.2h-0.1q-0.1 0-0.1 0.1q-0.1 0-0.1 0q0 0-0.1 0q0 0-0.1 0h-0.2q0 0-0.1 0q0 0-0.1 0q0 0-0.1 0q0 0-0.1 0q-0.1 0-0.2 0q-0.1 0-0.2-0.1q-0.1 0-0.2 0q-0.1-0.1-0.2-0.1q-0.1-0.1-0.1-0.1q-0.1-0.1-0.2-0.1q-0.1-0.1-0.2-0.1q-0.1-0.1-0.2-0.2q0 0-0.1-0.1q-0.1-0.1-0.2-0.2q0-0.1-0.1-0.1q0-0.1-0.1-0.2q0-0.1 0-0.1q-0.1-0.1-0.1-0.1q0-0.1 0-0.1q-0.1-0.1-0.1-0.1q0 0 0-0.1q0 0 0 0q0-0.1 0-0.1q0 0 0 0v-0.4q0 0 0 0q0 0 0 0q0 0 0 0q0 0 0-0.1v-0.1q0 0 0-0.1q0 0 0-0.1q0-0.1 0-0.1q0-0.1 0-0.1q0-0.1 0-0.2q0-0.1 0.1-0.2q0-0.1 0-0.2q0.1-0.1 0.1-0.2q0.1-0.1 0.1-0.2q0.1-0.1 0.2-0.2q0-0.1 0.1-0.1q0.1-0.1 0.1-0.2q0.1-0.1 0.2-0.1q0.1-0.1 0.1-0.1q0.1-0.1 0.2-0.1q0.1-0.1 0.2-0.1q0.1-0.1 0.2-0.1q0-0.1 0.1-0.1q0.1 0 0.2 0q0.1-0.1 0.2-0.1q0 0 0.1 0q0 0 0.1 0q0 0 0.1 0q0 0 0.1 0h0.9q0.1 0.1 0.2 0.1q0.1 0 0.1 0q0.1 0.1 0.1 0.1q0.1 0 0.2 0.1q0.1 0 0.2 0.1q0.1 0.1 0.2 0.1q0.1 0.1 0.1 0.2q0.1 0.1 0.2 0.2q0.1 0 0.1 0.1z"/>
			<path id="Layer" class="s1" d="m93.7 18.8q-0.1 0.1-0.2 0.2q-0.2 0.1-0.3 0.1q-0.1 0.1-0.3 0.2h-0.1h-0.2q-0.1 0-0.1 0q0 0.1-0.1 0.1q0 0-0.1 0q0 0 0 0h-0.4q-0.1 0-0.1 0q-0.1 0-0.1 0q-0.1 0-0.1 0q-0.1 0-0.1 0q-0.1 0-0.2 0q-0.1-0.1-0.2-0.1q-0.1 0-0.2 0q-0.1-0.1-0.2-0.1q-0.1-0.1-0.2-0.1q-0.1-0.1-0.2-0.1q-0.1-0.1-0.2-0.2q0 0-0.1-0.1q-0.1-0.1-0.2-0.1q0-0.1-0.1-0.2q-0.1-0.1-0.1-0.2q-0.1-0.1-0.1-0.2q-0.1 0-0.1-0.1q0 0 0-0.1q-0.1 0-0.1 0q0-0.1 0-0.1q0-0.1-0.1-0.1q0 0 0-0.1q0 0 0 0q0 0 0-0.1v-0.5q0 0 0-0.1q0-0.1 0-0.1q0-0.1 0-0.1q0-0.1 0-0.1q0-0.1 0-0.2q0.1-0.2 0.1-0.3q0-0.1 0.1-0.1q0-0.1 0.1-0.2q0-0.1 0.1-0.2q0-0.1 0.1-0.2q0.1-0.1 0.2-0.2q0 0 0.1-0.1q0.1-0.1 0.1-0.1q0.1-0.1 0.2-0.2q0.1 0 0.2-0.1q0.1-0.1 0.1-0.1q0.1-0.1 0.2-0.1q0.1 0 0.2-0.1q0.1 0 0.2 0q0.1 0 0.2 0h0.7q0 0 0.1 0q0 0.1 0 0.1q0.1 0.1 0.1 0.1q0.1 0.1 0.1 0.1h0.2l0.1 0.1q0.1 0 0.2 0q0 0.1 0.1 0.1q0.1 0 0.1 0q0.1 0.1 0.2 0.1q0.1 0.1 0.2 0.1q0.1 0.1 0.2 0.2q0.1 0.1 0.1 0.2q0.1 0 0.2 0.1q0.1 0.1 0.1 0.2q0.1 0.1 0.1 0.1q0.1 0.1 0.1 0.2q0 0.1 0.1 0.2q0 0 0 0q0 0 0 0.1q0 0 0.1 0q0 0.1 0 0.1q0 0 0 0q0 0.1 0 0.1q0 0 0 0q0 0 0 0.1c-0.1-0.1-0.1-0.1-0.1-0.2q0 0 0-0.1q0 0 0 0q-0.1-0.1-0.1-0.1q0 0 0 0q0-0.1-0.1-0.2q0-0.1-0.1-0.1q0-0.1-0.1-0.2q-0.1 0-0.1-0.1q-0.1-0.1-0.2-0.1q-0.1-0.1-0.2-0.1q-0.1-0.1-0.2-0.1q-0.1-0.1-0.2-0.1q-0.1 0-0.1 0q-0.1-0.1-0.2-0.1q0 0-0.1 0q0 0-0.1 0q-0.1 0-0.1 0q-0.1 0-0.2 0q0 0-0.1 0q0 0-0.1 0.1h-0.2l-0.3 0.1q0 0-0.1 0q0 0.1-0.1 0.1q0 0-0.1 0.1q0 0-0.1 0.1q0 0-0.1 0q0 0.1 0 0.1q-0.1 0.1-0.1 0.1q-0.1 0.1-0.1 0.1q0 0.1-0.1 0.1q0 0.1 0 0.1q0 0.1-0.1 0.1q0 0.1 0 0.2q0 0 0 0.1q0 0-0.1 0.1q0 0 0 0.1q0 0 0 0.1v0.3c0 0-0.1 0.1-0.1 0.1h0.2q0 0 0 0q0 0 0 0q0 0.1 0 0.1q0 0 0 0v0.1q0 0 0 0q0 0.1 0 0.1q0 0 0 0q0.1 0.1 0.1 0.1q0 0 0 0.1q0 0 0 0q0 0 0 0.1q0.1 0 0.1 0l0.1 0.2q0 0 0.1 0.1q0 0 0 0.1q0.1 0 0.1 0.1q0.1 0 0.1 0q0.1 0.1 0.1 0.1q0.1 0.1 0.1 0.1q0.1 0 0.1 0.1q0.1 0 0.1 0l0.2 0.1h0.3q0.1 0 0.1 0q0 0 0.1 0q0 0 0 0q0.1 0 0.1 0h0.2q0.2 0 0.3-0.1q0.1 0 0.3 0q0.1-0.1 0.2-0.1q0.1-0.1 0.2-0.2q0.1 0 0.2-0.1q0.1-0.1 0.2-0.1q0.1-0.1 0.1-0.2q0.1-0.1 0.2-0.2q0-0.1 0-0.1q0.1-0.1 0.1-0.2q0-0.1 0-0.2q0.1-0.1 0.1-0.1q0 0 0 0.1q-0.1 0.1-0.1 0.2q0 0.1 0 0.2q0 0.1-0.1 0.1q0 0.2-0.1 0.3q0 0.1-0.1 0.2q-0.1 0.1-0.1 0.2q-0.1 0.1-0.2 0.2q-0.1 0.1-0.2 0.2z"/>
			<path id="Layer" class="s1" d="m125.2 38l4.7 1.6l-4.9-0.6l1 2.1l-1.5-1.9l-1.6 4.7l0.7-4.9l-2.2 1l1.9-1.5l-4.6-1.6l4.9 0.7l-1.1-2.2l1.5 1.9l1.6-4.6l-0.7 4.9l2.2-1.1l-1.9 1.5z"/>
			<path id="Layer" class="s1" d="m45.7 51.3l2.8 1l-2.9-0.4l0.6 1.2l-0.9-1.1l-0.9 2.8l0.4-2.9l-1.3 0.6l1.1-0.9l-2.7-0.9l2.9 0.4l-0.6-1.3l0.8 1.1l1-2.7l-0.4 2.9l1.2-0.6l-1.1 0.8z"/>
			<path id="Layer" class="s1" d="m120.4 58.1l-2.9 0.4l2.7-0.9l-1.1-0.9l1.3 0.6l-0.5-2.8l1 2.7l0.9-1.2l-0.6 1.3l2.8-0.4l-2.7 1l1.1 0.8l-1.2-0.6l0.4 2.9l-1-2.7l-0.8 1.1l0.6-1.3z"/>
			<path id="Layer" class="s1" d="m93 58.8l-3.1-1.1l3.3 0.4l-0.7-1.4l0.9 1.3l1.1-3.1l-0.4 3.2l1.4-0.7l-1.3 1l3.1 1.1l-3.2-0.5l0.7 1.5l-1-1.3l-1.1 3.1l0.5-3.3l-1.5 0.7l1.3-0.9z"/>
			<path id="Layer" class="s1" d="m127.4 127.5l0.6-0.3c0 0-0.4 0.3-0.5 0.4q-0.3 0.2-0.7 0.4q-0.3 0.3-0.8 0.7l-1.1 0.7q-0.3 0.2-0.7 0.4l-0.7 0.5l-0.7 0.4l-0.4 0.3l-0.4 0.2l-0.9 0.4q-0.4 0.3-0.9 0.5l-2 1l-2.1 1l-1.2 0.4l-0.6 0.2l-0.2 0.1l-0.4 0.1l-1.2 0.5l-0.6 0.2l-0.6 0.2c-0.9 0.2-1.8 0.5-2.7 0.7l-1.3 0.3l-1.4 0.3c-1.8 0.4-3.7 0.6-5.7 0.8q0 0-0.1 0.1q-0.1 0-0.2 0q-0.1 0-0.2 0q-0.1 0-0.2 0h-0.7l-1.4 0.1h-5.7l-1.4-0.1h-0.6h-0.7l-1.3-0.2l-0.7-0.1h-0.3h-0.3l-2.5-0.4l-2.4-0.6l-0.5-0.1l-0.6-0.1l-1-0.3l-1-0.3q-0.4-0.1-0.9-0.3l-1.7-0.6q-1.6-0.6-2.8-1.1l-1.6-0.8l-0.6-0.3l0.7 0.2q0.6 0.2 1.8 0.5q0.6 0.2 1.3 0.4l1.5 0.4l1.8 0.3q0.5 0.2 1 0.2l1 0.2l1 0.2l0.5 0.1l0.6 0.1l2.2 0.3l2.5 0.3h0.3l0.4 0.1h0.6h1.2h5.4q0.7 0 1.4 0l1.3-0.1q0.7 0 1.4-0.1c0.5 0 0.9-0.1 1.4-0.1l1.4-0.2h0.7l0.6-0.1l1.4-0.2h0.3l0.4-0.1l0.6-0.1l1.4-0.2l1.3-0.3c0.9-0.2 1.7-0.4 2.5-0.6l0.7-0.2l0.6-0.1l1.2-0.4c0.8-0.2 1.6-0.5 2.3-0.7l2.2-0.8l2-0.7c1.3-0.5 2.4-1 3.4-1.5l0.8-0.3l0.7-0.4l1.2-0.6c0.7-0.3 1.2-0.6 1.6-0.8z"/>
			<path id="Layer" class="s1" d="m82.1 129.7c0.7-0.7 0.9-0.9 1-1.1c0.1-0.5 0.6 0.3 0.4 0.8c0 0.1 0 0.1-0.4 0.5q0.1 0.1 0.3 0.2q0.2 0.2 0.3 0.4q0.1 0.1 0.1 0.3q0 0.3 0 0.5c-0.1 0.3-0.3 0.1-0.2 0c0-0.1-0.5-0.6-1.2-0.8c-0.7 0.7-1.2 1.2-1.3 1.7c-0.2 0.4-0.7-0.3-0.6-0.7c0.2-0.4 0.6-0.7 0.9-1c-1.7 0.1-3.4 0.8-3.7 1.9c-0.2 0.6 0 1.2 1 1.4c3.6 0.6 7.8-4.3 8.1-5.6c0.4-1.3-4.8 0-5 0.5v0.2c0 0-0.6-0.5-0.5-0.8c0.1-0.4 2.4-1.4 4.6-1c1.6 0.2 1.8 1.3 1.7 1.7c-0.7 2.4-5.2 5.8-8.9 5.2c-1.4-0.3-2-1.2-1.8-2c0.4-1.3 2.9-2.4 5.2-2.3z"/>
			<path id="Layer" fill-rule="evenodd" class="s1" d="m87 133.2q-0.2 0-0.2-0.2q-0.1-0.1-0.2-0.2q0-0.2 0-0.3c0-0.1 0-0.1 0-0.1c0.2-1.4 2.3-2.6 2.8-2.5c0.3 0 0.6 0.2 0.5 0.9c-0.1 0.6-2 1.6-2.4 1.6c0 0-0.4 0.5 0.1 0.5q0.4-0.1 0.8-0.3q0.4-0.1 0.8-0.4q0.4-0.2 0.7-0.5q0.4-0.2 0.7-0.6c0.1-0.1 0.3 0 0.1 0.3c-0.2 0.2-2.4 2.1-3.4 2q-0.2-0.1-0.3-0.2zm2.3-2.4c-0.3 0-1.6 1.4-1.6 1.4c1.2-0.4 1.8-1.4 1.6-1.4z"/>
			<path id="Layer" fill-rule="evenodd" class="s1" d="m92.3 132.7q0.2-0.2 0.3-0.4q0.2-0.3 0.4-0.5q0.1-0.3 0.2-0.5q0.2-0.3 0.3-0.6q0 0 0 0q0-0.1 0-0.1q-0.1-0.1-0.1-0.1q0 0-0.1 0c-0.9-0.1-4.1 4.3-4.1 4.7c0 0.3-0.5-0.1-0.5-0.6c0.1-0.8 3-3.9 3-4.6v-0.2c0-0.2 0.8-0.3 0.7 0.7q0 0 0 0.1q0 0 0 0.1q0 0 0 0.1q0 0 0 0q0.1-0.1 0.2-0.2q0.1-0.1 0.3-0.2q0.2-0.1 0.3-0.1q0.2-0.1 0.4-0.1q0.1 0 0.2 0q0.1 0.1 0.2 0.2q0.1 0.1 0.2 0.2q0 0.1 0.1 0.3q0 0 0 0q0 0 0 0q0 0.1 0 0.1q0 0-0.1 0q0 0.2 0 0.4q-0.1 0.2-0.1 0.4q-0.1 0.2-0.2 0.4q-0.1 0.1-0.3 0.3q0.3-0.1 0.5-0.2q0.2-0.1 0.4-0.3q0.2-0.1 0.4-0.3q0.2-0.2 0.3-0.3c0.3-0.2 0.4-0.1 0.3 0.1q-0.3 0.2-0.5 0.4q-0.2 0.2-0.5 0.4q-0.3 0.2-0.5 0.3q-0.3 0.1-0.6 0.2l-0.1 0.1q-0.1 0.2-0.3 0.3q-0.3 0.2-0.5 0.3q-0.2 0.1-0.5 0.2q-0.3 0.1-0.5 0.1c-0.5 0-0.5-0.3-0.5-0.4c0-0.4 1.2-0.5 1.3-0.7zm-0.1 0.2c0 0-0.7 0.3-0.7 0.5c0 0.3 0.7-0.5 0.7-0.5z"/>
			<path id="Layer" class="s1" d="m96.9 132.7c0 0-1 1.2-1.4 1.2q-0.2 0-0.3 0q-0.1-0.1-0.2-0.2q-0.1-0.1-0.2-0.2q0-0.1 0-0.2q0 0 0-0.1q0 0 0 0q0 0 0 0q0-0.1 0-0.1c0-0.5 1.5-2.1 1.5-2.8c0-0.2 0.7 0.1 0.7 0.7c-0.1 0.6-2 2.6-1.4 2.6c0.2 0 2.6-2.5 2.7-3.3c0-0.2 0.7 0.1 0.7 0.7c-0.1 0.6-1.9 2.6-1.4 2.6q0.3-0.2 0.6-0.5q0.4-0.3 0.6-0.5q0.3-0.3 0.6-0.6q0.3-0.3 0.5-0.7c0.1-0.1 0.4-0.1 0.2 0.2c-0.2 0.2-2 2.4-2.7 2.4c-0.6 0-0.8-0.8-0.5-1.2z"/>
			<path id="Layer" class="s1" d="m101.7 129.7q-0.1-0.1-0.2-0.2q-0.1-0.1-0.1-0.2q0-0.2 0-0.3q0-0.1 0-0.3q0-0.1 0.1-0.2q0.1-0.1 0.2-0.2q0.1 0 0.2 0c0.2 0 0.8 0.1 0.8 0.4c0 0.2-0.2 0.3-0.5 0.7c-0.2 0.4-0.2 0.4-0.3 0.4q-0.1 0-0.2-0.1z"/>
			<path id="Layer" class="s1" d="m99.7 132.8c0-0.4 0.8-1.5 1.1-2.4c0-0.1 0-0.3 0.2-0.3c0.2 0 0.5 0.3 0.5 0.8c0 0.6-1.6 2.5-0.8 2.5q0.3-0.3 0.6-0.5q0.3-0.3 0.6-0.6q0.2-0.3 0.5-0.6q0.2-0.3 0.4-0.7c0.1-0.1 0.4-0.1 0.2 0.2c-0.2 0.2-1.8 2.5-2.5 2.5c-0.8 0.1-0.8-0.5-0.8-0.9z"/>
			<path id="Layer" fill-rule="evenodd" class="s1" d="m106.3 131.2q-0.1 0.2-0.3 0.3q-0.3 0.2-0.5 0.3q-0.2 0.1-0.5 0.2q0.1 0.2 0 0.5q0 0.2-0.1 0.4q-0.1 0.2-0.3 0.3q-0.2 0.2-0.5 0.2h-0.1c-0.2 0-0.8 0-0.9-0.5c-0.1-0.6 1.2-0.9 1.2-1q0-0.2 0-0.4q0-0.2-0.1-0.4q0-0.2 0-0.4q-0.1-0.2-0.1-0.4v-0.1c-0.2 0.3-0.3 0.6-0.5 0.9c-0.2 0.3-0.3 0.1-0.2-0.1q0.1-0.2 0.2-0.4q0.1-0.2 0.2-0.4q0.1-0.2 0.1-0.4q0.1-0.2 0.2-0.4c0-0.1 0.1-0.5 0.2-0.4c0.2 0.1 0.8 0.4 0.9 0.8q-0.1 0.2-0.1 0.4q-0.1 0.3-0.1 0.5q0 0.3 0 0.5q0 0.2 0 0.5q0.3-0.1 0.5-0.2q0.2-0.1 0.4-0.2q0.2-0.2 0.3-0.4q0.2-0.2 0.3-0.4c0-0.1 0.3 0 0.1 0.2q-0.1 0.3-0.3 0.5zm-2.1 1.1c0 0-1 0.3-0.9 0.7c0.1 0.4 0.8 0.2 0.9-0.7z"/>
			<path id="Layer" class="s1" d="m114.3 127.2c-0.3 1-1.3 3.7-1 4.5c0 0.2-0.7 0.1-0.9-0.3q0-0.2 0-0.4q0.1-0.2 0.1-0.4q0-0.2 0.1-0.4q0-0.2 0.1-0.4c0.1-0.7 0.4-1.6 0.6-2.1v-0.2q-0.1 0.1-0.2 0.1q-0.1 0-0.2 0q-0.1 0-0.2 0q-0.1 0-0.2-0.1c-0.2-0.1-0.2-0.2 0-0.2q0.2 0 0.4-0.1q0.1-0.1 0.3-0.2q0.1-0.1 0.3-0.2q0.1-0.1 0.2-0.3c0.1-0.1 0.1-0.3 0.1-0.3q0.1 0 0.2 0q0.1 0 0.2 0.1q0.1 0 0.1 0.1q0.1 0 0.1 0.1c0.2 0.2 0.2 0.2-0.1 0.7z"/>
			<path id="Layer" fill-rule="evenodd" class="s1" d="m116.3 130.4q0.1-0.1 0.2-0.2q0.1 0 0.2-0.1q0-0.1 0.1-0.2q0.1-0.1 0.3-0.3q0.1-0.1 0.2-0.3q0.1-0.1 0.2-0.3q0.1-0.2 0.1-0.3q0 0-0.1 0.1q0 0-0.1 0q-0.1 0.1-0.1 0.1q-0.1 0.1-0.2 0.1q-0.2 0-0.4 0.1q-0.2 0-0.4-0.1q-0.2-0.1-0.4-0.2q-0.2-0.1-0.3-0.3q-0.2-0.4-0.2-0.9q0-0.5 0.1-0.9q0.2-0.5 0.5-0.8q0.3-0.4 0.8-0.6q0.1 0 0.2-0.1q0.1 0 0.3 0q0.1 0 0.2 0q0.1 0.1 0.3 0.1q0.1 0 0.2 0.1q0.1 0.1 0.2 0.1q0.1 0.1 0.1 0.2q0.1 0.1 0.2 0.2c0.6 1 0 3-0.7 3.9q-0.1 0.1-0.2 0.2q-0.1 0.1-0.2 0.2q-0.1 0.1-0.2 0.2q0 0-0.2 0.1q0 0.1-0.1 0.1q0 0-0.1 0.1q-0.1 0-0.2 0.1q0 0-0.1 0c-1.1 0.4-0.8-0.5-0.8-0.5c0.1 0 0.2 0.2 0.4 0.1q0.1 0 0.2 0zm0.8-1.9q0.2-0.1 0.3-0.3q0.1-0.1 0.2-0.3q0.1-0.1 0.1-0.3q0.1-0.2 0.2-0.5q0-0.2 0-0.4q0-0.3 0-0.5q-0.1-0.2-0.2-0.4q0-0.1-0.1-0.1q0-0.1-0.1-0.1q-0.1 0-0.2 0q0 0-0.1 0q-0.2 0.1-0.3 0.2q-0.2 0.1-0.3 0.3q-0.1 0.1-0.2 0.3q0 0.1-0.1 0.3q-0.1 0.2-0.1 0.4q-0.1 0.3-0.1 0.5q0 0.2 0 0.4q0.1 0.3 0.1 0.5q0.1 0 0.1 0.1q0.1 0.1 0.2 0.1q0.1 0 0.1 0q0.1 0 0.2 0q0.2-0.1 0.3-0.2z"/>
			<path id="Layer" fill-rule="evenodd" class="s1" d="m120.2 124.3q0.1-0.1 0.3-0.3q0.1-0.2 0.3-0.3q0.2-0.1 0.4-0.2q0.2-0.1 0.4-0.1q0.2 0 0.4 0q0.2 0.1 0.3 0.2q0.2 0.1 0.3 0.2q0.1 0.2 0.1 0.5q0 0.2 0 0.4q-0.1 0.2-0.2 0.4q-0.1 0.2-0.3 0.4q0.1 0 0.2 0q0.2 0.1 0.3 0.2q0.1 0 0.1 0.1q0.1 0.1 0.2 0.2q0.1 0.1 0.1 0.3q0.1 0.1 0.1 0.2q0 0.2 0 0.3q0 0.2 0 0.3q-0.1 0.3-0.2 0.6q-0.1 0.2-0.3 0.5q-0.2 0.2-0.4 0.4q-0.3 0.2-0.5 0.3q-0.2 0.1-0.5 0.1q-0.2 0-0.5-0.1q-0.2 0-0.4-0.2q-0.2-0.1-0.4-0.3q-0.1-0.3-0.1-0.6q0-0.3 0.1-0.6q0-0.3 0.2-0.6q0.2-0.3 0.4-0.5q-0.1 0-0.2-0.1q-0.1 0-0.1 0q-0.1-0.1-0.2-0.2q0 0-0.1-0.1q-0.1-0.1-0.1-0.2q0-0.1 0-0.3q0-0.1 0-0.2q0-0.1 0.1-0.2q0.1-0.3 0.2-0.5zm2.3 1.8q0-0.1-0.1-0.1q0-0.1-0.1-0.1q-0.1 0-0.1 0q-0.1 0-0.2 0q-0.2 0.1-0.4 0.3q-0.2 0.2-0.4 0.4q-0.2 0.2-0.3 0.4q-0.1 0.3-0.2 0.5q-0.1 0.1-0.1 0.2q0 0.2 0 0.3q0 0.1 0 0.2q0 0.1 0.1 0.2c0.1 0.2 0.2 0.2 0.4 0.1q0.3-0.1 0.5-0.2q0.2-0.2 0.4-0.4q0.1-0.2 0.3-0.4q0.1-0.2 0.2-0.4q0.1-0.1 0.1-0.3q0-0.1 0-0.2q0-0.2 0-0.3q0-0.1-0.1-0.2zm-0.8-2.2q-0.3 0.1-0.5 0.2q-0.2 0.2-0.3 0.4q-0.1 0.2-0.2 0.4q-0.1 0.3-0.1 0.5q0 0 0 0.1q0 0 0 0q0 0.1 0 0.1q0 0 0.1 0.1q0 0 0 0q0.1 0 0.1 0q0.1 0 0.1 0q0.1 0 0.1 0q0 0 0.1-0.1q0 0 0 0q0.1 0 0.1 0q0 0 0.1-0.1c0.4-0.3 1.1-1.1 0.7-1.6q0 0 0 0q-0.1-0.1-0.1-0.1q-0.1 0-0.1 0q-0.1 0-0.1 0.1z"/>
			<path id="Layer" fill-rule="evenodd" class="s1" d="m126.7 122.1q0 0.2 0 0.4q0 0.2-0.1 0.5q-0.1 0.2-0.3 0.3q0.1 0.1 0.3 0.1q0.1 0 0.2 0.1q0.1 0.1 0.2 0.1q0.1 0.1 0.2 0.2q0.1 0.1 0.1 0.2q0.1 0.2 0.1 0.3q0.1 0.2 0.1 0.3q0 0.1 0 0.3q-0.1 0.3-0.2 0.5q-0.1 0.3-0.3 0.6q-0.1 0.2-0.3 0.4q-0.2 0.2-0.5 0.4q-0.2 0.1-0.4 0.1q-0.3 0-0.5 0q-0.3-0.1-0.5-0.2q-0.2-0.1-0.4-0.3q-0.1-0.3-0.2-0.6q0-0.3 0-0.6q0.1-0.3 0.2-0.6q0.1-0.3 0.3-0.5q0 0-0.1-0.1q-0.1 0-0.2 0q-0.1-0.1-0.1-0.1q-0.1-0.1-0.2-0.1q0-0.2-0.1-0.3q0-0.1-0.1-0.2q0-0.2 0-0.3q0.1-0.1 0.1-0.2q0.1-0.3 0.2-0.5q0-0.2 0.2-0.4q0.1-0.1 0.3-0.3q0.2-0.1 0.4-0.2q0.1-0.1 0.3-0.1q0.2-0.1 0.4 0q0.2 0 0.4 0.1q0.2 0.1 0.3 0.2q0.2 0.2 0.2 0.5zm-2.1 1.4q0.1 0 0.1 0.1q0 0 0 0q0 0.1 0.1 0.1q0 0 0 0q0.1 0 0.1 0q0.1 0 0.1 0q0.1 0 0.1 0q0 0 0.1 0q0-0.1 0-0.1q0 0 0.1 0q0 0 0-0.1c0.5-0.4 1-1.3 0.7-1.7q0 0-0.1 0q0-0.1-0.1-0.1q0 0-0.1 0.1q0 0-0.1 0q-0.2 0.1-0.4 0.3q-0.2 0.2-0.3 0.4q-0.1 0.2-0.2 0.4q-0.1 0.3-0.1 0.5q0 0.1 0 0.1zm2 0.3q0-0.1-0.1-0.1q-0.1 0-0.2 0q0 0-0.1 0.1q-0.2 0.1-0.4 0.3q-0.2 0.2-0.4 0.4q-0.1 0.2-0.2 0.5q-0.1 0.2-0.2 0.5q0 0.1-0.1 0.2q0 0.1 0 0.2q0 0.2 0.1 0.3q0 0.1 0.1 0.2c0.1 0.2 0.2 0.1 0.4 0.1q0.3-0.2 0.4-0.3q0.2-0.2 0.4-0.4q0.2-0.2 0.3-0.4q0.1-0.3 0.2-0.5q0-0.1 0-0.3q0.1-0.1 0-0.2q0-0.1 0-0.3q0-0.1-0.1-0.2q0-0.1-0.1-0.1z"/>
			<path id="Layer" class="s1" d="m1.7 104.1q5.2 0.2 10.4 0.5q-5.2 0.6-10.3 1.3c-0.1-0.6-0.1-1.2-0.1-1.8z"/>
			<path id="Layer" class="s1" d="m12 99.3q-5.3 0.7-10.4 1.3c-0.1-0.6-0.1-1.2-0.1-1.8c3.5 0.2 7 0.4 10.5 0.5z"/>
			<path id="Layer" class="s1" d="m11.8 94.1l-10.5 1.3c0-0.6 0-1.2 0-1.8z"/>
			<path id="Layer" class="s1" d="m11.6 88.9l-10.5 1.2c0-0.6 0-1.2 0-1.8q5.2 0.3 10.5 0.6z"/>
			<path id="Layer" class="s1" d="m11.4 83.6l-10.5 1.3c0-0.6 0-1.2 0-1.8q5.2 0.2 10.5 0.5z"/>
			<path id="Layer" class="s1" d="m11.3 78.3c-3.6 0.5-7.1 0.9-10.6 1.3q0-0.2 0-0.4q0-0.2 0-0.5q0-0.2-0.1-0.4q0-0.2 0-0.5q5.4 0.3 10.7 0.5z"/>
			<path id="Layer" class="s1" d="m11.1 73.1q-5.3 0.6-10.6 1.3q0-0.2 0-0.5q0-0.2-0.1-0.4q0-0.2 0-0.5q0-0.2 0-0.4z"/>
			<path id="Layer" class="s1" d="m10.9 67.8l-10.6 1.3q0-0.2 0-0.4q0-0.2-0.1-0.5q0-0.2 0-0.4q0-0.2 0-0.5z"/>
			<path id="Layer" class="s1" d="m170.9 105.8q5.2-0.2 10.4-0.3c0 0.6-0.1 1.2-0.1 1.8q-5.2-0.8-10.3-1.5z"/>
			<path id="Layer" class="s1" d="m171.1 100.6q5.3-0.2 10.5-0.4c0 0.6-0.1 1.2-0.1 1.8z"/>
			<path id="Layer" class="s1" d="m171.4 95.3q5.3-0.1 10.5-0.3c0 0.6-0.1 1.2-0.1 1.8q-5.2-0.8-10.4-1.5z"/>
			<path id="Layer" class="s1" d="m171.6 90.1l10.6-0.3c0 0.6-0.1 1.2-0.1 1.7q-5.2-0.7-10.5-1.4z"/>
			<path id="Layer" class="s1" d="m171.9 84.9q5.3-0.2 10.6-0.4c0 0.6-0.1 1.2-0.1 1.8z"/>
			<path id="Layer" class="s1" d="m172.2 79.6l10.6-0.3c-0.1 0.6-0.1 1.2-0.1 1.8q-5.3-0.8-10.5-1.5z"/>
			<path id="Layer" class="s1" d="m172.4 74.4q5.4-0.2 10.7-0.4l-0.1 1.8z"/>
			<path id="Layer" class="s1" d="m172.7 69.1q5.3-0.2 10.7-0.3c-0.1 0.6-0.1 1.2-0.1 1.8q-5.3-0.8-10.6-1.5z"/>
			<path id="Layer" class="s1" d="m45.3 72.1q-0.5 0.1-1 0.2q-0.5 0-1 0.1q-0.5 0.1-1 0.2q-2.5 0.6-5 1.1q-0.5 0.1-0.9 0.3c-1.2 0.2-1.2 0.2-1.7 1.2q0 0.1-0.1 0.2q0 0.1-0.1 0.2q0 0.1-0.1 0.2q0 0.1 0 0.2c-0.6 1.4-1.1 3-1.8 4.4q-0.2 0.5-0.4 1.1q-0.3 0.5-0.5 1q-0.2 0.5-0.4 1.1q-0.1 0.5-0.3 1c-0.4 1.2-0.7 2.3-1 3.4c-0.2 0.8-0.4 1.6-0.6 2.4q-0.1 0.4-0.2 0.7q-0.1 0.3-0.2 0.7q0 0.3-0.1 0.7q0 0.3 0 0.7c0 0.4-0.2 0.9-0.2 1.3q-0.1 0.4-0.1 0.8q0 0.4 0.1 0.8q0 0.5 0.2 0.9q0.1 0.4 0.2 0.7q0.1 0.1 0.1 0.1q0 0 0 0q0 0.1 0 0.1q0 0 0 0q0.1 0.1 0.1 0.2q0 0.2 0 0.3q-0.1 0.1-0.2 0.2q0 0.1-0.1 0.1q-0.1 0-0.1 0q0 0-0.1 0.1q0 0 0 0q0 0-0.1 0q-0.2 0-0.4 0q-0.2 0-0.5 0q-0.2-0.1-0.4-0.1q-0.2-0.1-0.4-0.2q-0.2-0.1-0.4-0.2q-0.2-0.1-0.4-0.3q-0.3-0.1-0.5-0.2q-0.2-0.2-0.4-0.3q-0.1-0.1-0.2-0.3q-0.2-0.1-0.2-0.3q-0.1-0.1-0.2-0.3q0-0.2-0.1-0.3c0-0.6-0.1-1.1-0.2-1.6q0-0.5 0-1q0-0.5 0.1-1.1q0-0.5 0.1-1q0.1-0.5 0.2-1c0.5-2.4 1.2-4.7 1.9-7c0.6-2 1.2-4 1.9-5.9q0.3-0.6 0.5-1.3c0.1-0.1-0.1-0.3-0.2-0.2c-0.6 0.2-1.2 0.3-1.7 0.6c-1.5 0.6-3.1 1.2-4.5 1.9q-0.7 0.3-1.3 0.6q-0.6 0.3-1.2 0.7q-0.5 0.3-1.1 0.7q-0.6 0.4-1.1 0.8q-0.2 0.2-0.4 0.4q-0.2 0.2-0.4 0.4q-0.1 0.2-0.3 0.4q-0.1 0.2-0.3 0.5q-0.1 0.1-0.1 0.3q-0.1 0.2-0.2 0.3q0 0.2 0 0.4q0 0.2 0 0.4q0 0 0 0q0 0.1 0 0.1q0 0 0 0.1q0 0 0 0.1q0 0.1-0.1 0.1q0 0.1-0.1 0.2q0 0-0.1 0.1q-0.1 0-0.2 0q0 0-0.1 0q0 0 0 0q0 0-0.1-0.1q0 0 0 0q-0.3-0.1-0.5-0.3q-0.3-0.3-0.5-0.5q-0.2-0.3-0.3-0.6q-0.2-0.3-0.2-0.6v-0.1q-0.2-0.5-0.2-1q0-0.5 0.2-1q0.1-0.5 0.3-0.9q0.3-0.5 0.7-0.8q0.2-0.3 0.5-0.5q0.2-0.3 0.5-0.5q0.3-0.2 0.6-0.4q0.3-0.2 0.6-0.4q0.6-0.4 1.2-0.8q0.6-0.3 1.3-0.7q0.6-0.3 1.3-0.6q0.6-0.3 1.3-0.6q1-0.5 2.1-1q1.1-0.4 2.2-0.8q1.1-0.4 2.2-0.8q1.2-0.4 2.3-0.8c1.6-0.5 3.2-0.9 4.9-1.3c1.6-0.5 3.4-0.9 5.2-1.3q1.1-0.2 2.2-0.4q0.5-0.1 1.1-0.2q0.5 0 1-0.1q0.5-0.1 1-0.1q0.6-0.1 1.1-0.1q0.2 0 0.4 0q0.2 0 0.4 0.1q0.1 0.1 0.3 0.2q0.1 0.2 0.2 0.3q0.1 0.3 0.2 0.5q0.1 0.2 0.2 0.5q0 0.2 0.1 0.4q0 0.3 0 0.5q0 0.2-0.1 0.4q0 0.2-0.2 0.3q-0.1 0.1-0.2 0.2q-0.2 0.1-0.4 0.1q-0.3 0.1-0.6 0.2q-0.2 0-0.5 0.1q-0.3 0.1-0.6 0.1q-0.3 0.1-0.6 0.1q-0.5 0.1-1 0.1z"/>
			<path id="Layer" fill-rule="evenodd" class="s1" d="m72.8 85.3q-0.1 0.4-0.2 0.8q-0.1 0.4-0.3 0.8q-0.1 0.4-0.3 0.8q-0.3 0.7-0.6 1.3q-0.4 0.7-0.7 1.3q-0.4 0.7-0.8 1.3q-0.4 0.6-0.8 1.2q-0.3 0.5-0.7 0.8q-0.4 0.4-1 0.6q-0.5 0.3-1 0.4q-0.6 0.1-1.1 0.1q-0.3 0-0.5-0.1q-0.3 0-0.5-0.1q-0.2-0.1-0.5-0.2q-0.2-0.1-0.4-0.3q-0.6-0.3-1.1-0.8q-0.5-0.5-0.8-1.1q-0.3-0.6-0.4-1.3q-0.1-0.7 0-1.4q0.1-0.9 0.3-1.8q0.2-0.8 0.4-1.7q0.2-0.9 0.5-1.8q0.3-0.8 0.6-1.7c0.7-1.6 1.4-3.4 2.1-5.1c0.1-0.3 0.3-0.5 0.4-0.8q0-0.1 0-0.1q0 0 0-0.1q0 0 0-0.1q0 0 0-0.1q0 0-0.1 0.1q0 0 0 0q-0.1 0-0.1 0q0 0-0.1 0.1q-0.3 0.3-0.5 0.7q-0.3 0.4-0.6 0.7q-0.3 0.4-0.5 0.8q-0.3 0.4-0.5 0.8c-1.2 1.8-2.2 3.7-3.2 5.6c-0.8 1.5-1.5 3-2.3 4.5q-0.4 0.8-0.8 1.5q-0.1 0.2-0.2 0.3q-0.1 0.1-0.3 0.1q-0.1 0.1-0.3 0.1q-0.2 0-0.3 0q-0.6 0-1.1-0.2q-0.5-0.2-1-0.5q-0.5-0.4-0.9-0.8q-0.3-0.4-0.6-0.9q-0.1-0.2-0.2-0.4q0-0.2 0-0.4q-0.1-0.2 0-0.5q0-0.2 0-0.4q0.2-0.8 0.4-1.7c-0.9 1.4-1.8 2.7-2.7 4q-0.2 0.3-0.5 0.6q-0.2 0.3-0.5 0.5q-0.2 0.3-0.4 0.6q-0.3 0.2-0.6 0.5q-0.3 0.2-0.6 0.4q-0.3 0.2-0.7 0.3q-0.4 0.2-0.8 0.2q-0.4 0.1-0.8 0.1q-0.5 0-1 0q-0.6-0.1-1.1-0.3q-0.5-0.1-1-0.3q-0.5-0.3-0.9-0.6q-0.9-0.5-1.6-1.3q-0.6-0.8-1-1.7q-0.5-1-0.6-2q-0.1-1 0.2-2q0.1-1 0.4-2q0.2-1 0.6-1.9q0.4-1 1-1.8q0.5-0.9 1.2-1.7q0.3-0.4 0.7-0.7q0.3-0.4 0.7-0.8q0.4-0.3 0.8-0.6q0.4-0.4 0.8-0.7q0.2-0.1 0.4-0.2q0.2-0.1 0.4-0.2q0.3 0 0.5 0q0.2 0 0.5 0.1c0.6 0.1 1.2 0.2 1.8 0.4q0.2 0.1 0.5 0.1q0.2 0.1 0.4 0.2q0.2 0.1 0.4 0.2q0.2 0.1 0.4 0.2q0.3 0.2 0.6 0.5q0.2 0.3 0.3 0.7q0.1 0.3 0.1 0.7q0 0.3-0.1 0.7q-0.2 0.7-0.4 1.5q-0.2 0.7-0.4 1.4q-0.3 0.8-0.6 1.5q-0.3 0.7-0.6 1.4q-0.1 0.3-0.3 0.6q-0.1 0.3-0.3 0.6q-0.1 0.3-0.3 0.6q-0.2 0.3-0.3 0.6q-0.2 0.2-0.3 0.4q-0.2 0.2-0.3 0.4q-0.2 0.2-0.4 0.4q-0.1 0.2-0.3 0.4q-0.2 0.1-0.3 0.2q-0.2 0.1-0.4 0.1q-0.2 0.1-0.4 0.1q-0.2-0.1-0.4-0.1q-0.3-0.1-0.5-0.2q-0.3-0.1-0.5-0.3q-0.3-0.1-0.5-0.3q-0.3-0.1-0.5-0.3c-0.2-0.3-0.5-0.5-0.8-0.3q-0.1 0.1-0.2 0.2q-0.1 0.1-0.1 0.2q-0.1 0.1-0.1 0.2q0 0.1 0 0.2q-0.1 0.3-0.1 0.5q0 0.2 0 0.4q0 0.3 0 0.5q0 0.2 0.1 0.5q0 0.3 0.2 0.7q0.1 0.3 0.4 0.6q0.3 0.2 0.6 0.4q0.4 0.1 0.8 0.1q0 0 0.1 0q0 0 0.1 0q0-0.1 0.1-0.1q0 0 0.1 0q0.5-0.1 0.9-0.3q0.4-0.1 0.8-0.3q0.4-0.3 0.8-0.5q0.4-0.3 0.7-0.6q0.6-0.6 1.1-1.2q0.5-0.5 1-1.1q0.6-0.6 1-1.2q0.5-0.6 1-1.3c0.8-1 1.7-2.1 2.6-3.1q0 0 0 0q0-0.1 0.1-0.1q0 0 0 0q0 0 0 0q0.3-0.8 0.5-1.5q0.2-0.7 0.5-1.5q0.3-0.7 0.6-1.4q0.3-0.7 0.6-1.5q0-0.1 0.1-0.3q0-0.1 0.1-0.3q0-0.2 0.1-0.3q0-0.2 0-0.4c0.1-0.4 0.4-0.5 0.9-0.5q0.3 0 0.6 0.1q0.3 0 0.6 0.1q0.2 0.1 0.5 0.3q0.3 0.1 0.6 0.2q0.3 0.2 0.5 0.5q0.2 0.3 0.3 0.6q0.1 0.3 0.1 0.7q0 0.3-0.2 0.6c-0.4 1.1-0.8 2.2-1.2 3.2c-0.4 1.3-0.9 2.5-1.3 3.8c-0.2 0.5-0.3 0.9-0.5 1.4q0 0 0 0.1q0 0 0 0.1q0 0 0 0.1q0 0 0 0.1c0.1-0.1 0.3-0.2 0.3-0.3c0.3-0.6 0.6-1.2 0.9-1.8c1.2-2.3 2.5-4.5 3.8-6.8q0.3-0.5 0.6-0.9q0.3-0.4 0.6-0.8q0.4-0.4 0.7-0.7q0.4-0.4 0.8-0.7q0.2-0.2 0.4-0.3q0.2-0.1 0.4-0.2q0.2-0.2 0.4-0.3q0.2-0.1 0.4-0.2q0.2-0.1 0.4-0.2q0.2-0.1 0.5-0.1q0.2 0 0.4 0q0.3 0.1 0.5 0.1q0.4 0.1 0.7 0.3q0.4 0.1 0.7 0.2q0.4 0.2 0.7 0.4q0.3 0.2 0.6 0.4q0.2 0.2 0.4 0.4q0.2 0.3 0.3 0.5q0.1 0.3 0.1 0.6q0 0.3 0 0.6q-0.2 0.5-0.3 1q-0.2 0.5-0.4 1q-0.2 0.5-0.4 1q-0.2 0.4-0.4 0.9c-0.6 1.4-1.3 2.8-1.9 4.3q-0.1 0.3-0.2 0.7q-0.2 0.4-0.3 0.7q-0.1 0.4-0.2 0.8q-0.2 0.3-0.3 0.7c-0.3 1.2-0.6 2.3-1 3.5c-0.1 0.4-0.3 1.1 0.1 1.2c0.5 0.2 0.8-0.4 1-0.8q2.5-3.2 5-6.3q0.1-0.1 0.1-0.1q0 0 0 0q0 0 0 0q0-0.1 0.1-0.1l0.7-0.5q0 0.1 0 0.2q0 0.1 0.1 0.2q0 0.1 0 0.2q0 0.1 0 0.2q0 0.4-0.1 0.9zm-31.1-1.3q-0.1 0.2 0 0.5q0 0.2 0.1 0.4q0.1 0.2 0.3 0.4c0.2 0.3 0.4 0.4 0.8 0.1q0.2-0.2 0.4-0.4q0.2-0.2 0.4-0.5q0.2-0.2 0.3-0.5q0.1-0.3 0.2-0.6q1-2.6 2-5.3q0-0.1 0.1-0.1q0-0.1 0-0.1q0-0.1 0-0.1q0-0.1 0-0.2c0-0.1-0.2-0.2-0.3-0.3q-0.1 0-0.1 0.1q-0.1 0-0.2 0.1q0 0-0.1 0.1q-0.1 0-0.1 0.1c-0.2 0.2-0.4 0.4-0.6 0.6q-0.5 0.6-1 1.2q-0.4 0.6-0.8 1.3q-0.4 0.6-0.8 1.3q-0.3 0.7-0.5 1.4q-0.1 0.3-0.1 0.5z"/>
			<path id="Layer" fill-rule="evenodd" class="s1" d="m81.4 66q0.3 0 0.5 0.1q0.3 0.1 0.6 0.2q0.2 0.1 0.5 0.2q0.2 0.2 0.5 0.4q0.2 0.1 0.4 0.4q0.1 0.2 0.2 0.5q0.1 0.3 0.1 0.6q0 0.3-0.1 0.5c-0.2 0.7 0 0.9 0.7 0.9h1.5v-0.1h3.1q0.1 0 0.2 0q0.1 0 0.2 0.1q0.1 0 0.2 0.1q0.1 0 0.2 0.1c0.6 0.6 0.3 1.4-0.6 1.5c-0.7 0.2-1.3 0.2-2 0.2c-1.1 0-2.3 0.1-3.4 0.1q-0.2 0-0.5 0.1q-0.2 0.1-0.4 0.2q-0.2 0.1-0.4 0.3q-0.1 0.2-0.2 0.4q-0.6 1.2-1.1 2.3q-0.5 1.2-1 2.4q-0.4 1.1-0.8 2.3q-0.5 1.2-0.8 2.4c-0.3 1.3-0.9 2.5-1.3 3.8c-0.5 1.4-0.9 3-1.3 4.4c-0.5 1.7-0.9 3.4-1.3 5q-0.2 1-0.4 2q0 0.1 0 0.2q0 0.1 0 0.2q0.1 0.1 0.1 0.1q0 0.1 0 0.2c0.2-0.1 0.5-0.2 0.7-0.3q0.1-0.2 0.3-0.4q0.1-0.2 0.3-0.4q0.1-0.2 0.2-0.4q0.2-0.2 0.3-0.4c1.1-1.8 2.2-3.6 3.2-5.4q1-1.7 2-3.5q0-0.1-0.1-0.2q0-0.1 0-0.2q0-0.1 0-0.2q0-0.2 0-0.3q-0.1-0.6 0-1.1q0-0.6 0.2-1.2q0.1-0.5 0.4-1.1q0.2-0.5 0.5-1c0.9-1.4 1.7-2.9 2.7-4.2q0.3-0.4 0.6-0.7q0.4-0.4 0.7-0.7q0.4-0.4 0.7-0.7q0.4-0.4 0.7-0.7q0.2-0.1 0.3-0.2q0.1-0.1 0.2-0.3q0.1-0.1 0.2-0.2q0.2-0.1 0.3-0.1q0.2-0.2 0.4-0.2q0.2-0.1 0.5-0.2q0.2 0 0.4-0.1q0.3 0 0.5 0q0.6 0 1.3 0.2q0.6 0.1 1.2 0.3q0.6 0.3 1.2 0.6q0.5 0.3 1 0.7c0.6 0.5 0.8 0.5 1.1-0.2l0.3-0.4c0.4-1 0.5-1.1 1.6-0.9q0.5 0.1 1 0.4q0.4 0.2 0.7 0.6q0.3 0.4 0.4 0.9q0.1 0.5 0.1 1q-0.2 0.4-0.3 0.8q-0.1 0.3-0.3 0.7q-0.1 0.4-0.3 0.8q-0.2 0.3-0.3 0.7l-1.5 3.7c-0.4 0.8-0.8 1.5-1 2.2q-0.1 0.3-0.2 0.6q-0.1 0.3-0.2 0.6q-0.1 0.2-0.2 0.5q0 0.3-0.1 0.6q0 0.1 0 0.2q0.1 0.1 0.1 0.2q0 0.1 0 0.2q0.1 0.1 0.1 0.3q0.1-0.1 0.2-0.1q0.1 0 0.2 0q0.1-0.1 0.2-0.1q0.1 0 0.2-0.1c0.9-0.7 1.8-1.5 2.7-2.3c0.1-0.1 0.1-0.2 0.2-0.2q0.4-0.3 0.9-0.6c0.3 0.5 0 0.8-0.1 1.1q-0.3 0.5-0.5 1q-0.3 0.4-0.5 0.9q-0.3 0.4-0.5 0.9q-0.3 0.4-0.6 0.8q-0.3 0.5-0.7 0.8q-0.5 0.3-1 0.4q-0.5 0.1-1.1 0q-0.5-0.1-1-0.4l-0.1-0.1q-0.5-0.3-1-0.8q-0.5-0.4-0.8-0.9q-0.3-0.6-0.5-1.2q-0.2-0.6-0.3-1.2q0-0.1 0-0.2q0-0.1 0-0.3q0-0.1 0-0.2q-0.1-0.1-0.1-0.2c0-0.1-0.1-0.4-0.2-0.4q-0.1 0-0.1 0q-0.1 0.1-0.2 0.1q0 0-0.1 0.1q0 0 0 0.1c-1 1.3-2 2.7-3 4q-0.2 0.3-0.4 0.6q-0.3 0.2-0.6 0.4q-0.4 0.2-0.7 0.2q-0.4 0.1-0.7 0.1q-0.4 0-0.7 0q-0.3 0-0.6-0.1q-0.3-0.1-0.6-0.2q-0.3-0.1-0.6-0.2q-0.3-0.2-0.5-0.4q-0.2-0.2-0.5-0.5q-0.2-0.2-0.4-0.5q-0.1-0.3-0.3-0.5c0 0.1-0.1 0.3-0.1 0.4c-0.9 2.1-1.7 4.1-2.7 6.2q-0.2 0.4-0.4 0.9q-0.3 0.4-0.5 0.9q-0.3 0.4-0.5 0.8q-0.3 0.5-0.6 0.9q-0.2 0.4-0.5 0.7q-0.2 0.4-0.6 0.7q-0.3 0.3-0.7 0.5q-0.4 0.2-0.8 0.4q-0.3 0.1-0.6 0.1q-0.2 0-0.5 0q-0.3 0-0.6-0.1q-0.2-0.1-0.5-0.2q-0.6-0.3-1.2-0.9q-0.5-0.5-0.8-1.2q-0.3-0.7-0.4-1.4q-0.1-0.8 0.1-1.5q0.2-1.4 0.5-2.7q0.3-1.3 0.6-2.7q0.4-1.3 0.7-2.6q0.4-1.4 0.8-2.7q1.3-3.9 2.7-7.7c0.5-1.5 1.2-3 1.7-4.5c0.3-0.9 0.1-1.1-0.8-1.1c-2 0-3.9 0.5-5.9 0.6h-1.6c-0.3 0-0.7 0-0.7-0.4c0-0.4 0.4-0.3 0.7-0.4q2.9-0.4 5.8-0.9q0.3 0 0.6-0.1q0.3 0 0.6 0q0.3-0.1 0.6-0.1q0.3 0 0.6-0.1q0.2 0.1 0.5 0q0.2-0.1 0.4-0.2q0.2-0.1 0.4-0.3q0.1-0.2 0.2-0.5q0.6-1.3 1.1-2.8c0.4-1 0.5-1 1.5-0.8zm3.3 22.4h0.1q0 0.1 0 0.2q0 0.1 0 0.1q0 0.1 0 0.2q0.1 0.1 0.1 0.1q0 0.1 0 0.1q0 0 0 0.1q0 0 0.1 0q0 0.1 0 0.1c0.2 0.5 0.4 0.6 0.9 0.3q0.1 0 0.1-0.1q0.1 0 0.2-0.1q0.1 0 0.1-0.1q0.1-0.1 0.2-0.2q0.1-0.1 0.3-0.3q0.2-0.2 0.3-0.4q0.2-0.2 0.4-0.4q0.1-0.2 0.3-0.4c1.1-1.7 2.2-3.3 3.4-5c1.1-1.7 2.3-3.3 3.6-5q0-0.1 0.1-0.3q0-0.1 0-0.2q0-0.2 0-0.3q-0.1-0.1-0.2-0.2q-0.1-0.2-0.3-0.4q-0.2-0.1-0.4-0.2q-0.2 0-0.5 0q-0.2 0-0.4 0.1q-0.5 0.3-0.9 0.6q-0.4 0.2-0.7 0.5q-0.4 0.3-0.8 0.7q-0.3 0.3-0.7 0.7q-0.4 0.4-0.8 0.9q-0.4 0.5-0.8 1q-0.4 0.6-0.8 1.1q-0.4 0.5-0.7 1.1q-0.3 0.5-0.6 1q-0.3 0.5-0.6 1.1q-0.2 0.5-0.4 1.1q-0.2 0.6-0.4 1.1c-0.1 0.5-0.1 0.9-0.2 1.4z"/>
			<path id="Layer" class="s1" d="m114.1 67.8q0.1 0.3 0.2 0.6q0.1 0.2 0.1 0.5q0 0.3-0.1 0.6c-0.2 0.7 0 0.9 0.7 0.9q0.1 0 0.3 0q0.2 0 0.4 0q0.1 0 0.3 0.1q0.2 0 0.4 0v-0.2c0.7 0 1.5 0.1 2.2 0.1q0-0.1 0-0.1q0 0 0-0.1q0 0 0 0q0 0 0-0.1q0.1-0.5 0.3-1q0.1-0.4 0.3-0.9q0.2-0.5 0.4-1q0.2-0.4 0.5-0.9q0-0.1 0.1-0.2q0.2-0.1 0.3-0.2q0.2-0.1 0.3-0.1q0.2 0 0.4 0q0.3 0.1 0.6 0.1q0.4 0.1 0.7 0.3q0.3 0.1 0.6 0.3q0.3 0.2 0.6 0.4q0.2 0.2 0.4 0.4q0.1 0.3 0.2 0.5q0 0.3 0 0.6q-0.1 0.3-0.2 0.5q-0.2 0.4-0.5 0.8q-0.2 0.4-0.5 0.7q-0.3 0.4-0.7 0.7q-0.3 0.3-0.7 0.5q-0.1 0.1-0.3 0.2q-0.1 0.1-0.3 0.1q-0.2 0.1-0.4 0.1q-0.1 0-0.3 0q-0.1 0-0.2 0.1q-0.1 0-0.2 0.1q-0.1 0-0.2 0.1q-0.1 0-0.2 0c-0.6 0-1.3 0-2 0h-3.4q-0.2 0-0.5 0q-0.2 0.1-0.4 0.2q-0.2 0.2-0.4 0.4q-0.2 0.1-0.2 0.4q-0.6 1.1-1.2 2.2q-0.5 1.2-1 2.3q-0.6 1.2-1 2.3q-0.5 1.2-0.9 2.4c-0.4 1.2-1 2.4-1.4 3.7q-0.8 2.1-1.5 4.4q-0.8 2.5-1.4 5q-0.1 0.2-0.2 0.5q0 0.2-0.1 0.5q0 0.2-0.1 0.5q-0.1 0.2-0.1 0.5q0 0.1 0 0.1q0 0.1 0 0.2q0 0.1 0 0.2q0.1 0.1 0.1 0.2q0.1 0 0.2-0.1q0.1 0 0.1 0q0.1-0.1 0.2-0.1q0.1-0.1 0.1-0.1q0.2-0.2 0.4-0.4q0.1-0.2 0.3-0.4q0.1-0.2 0.3-0.4q0.1-0.1 0.2-0.4q1.7-2.6 3.4-5.3q1.2-1.8 2.4-3.7q0-0.5 0.2-1q0.1-0.5 0.2-1q0.1-0.4 0.3-0.9q0.2-0.5 0.4-1c0.6-1.7 1.2-3.3 1.9-5c0.4-1 0.9-1.9 1.4-2.9l0.7-1.5q0.1-0.1 0.2-0.3q0.1-0.1 0.3-0.2q0.2-0.1 0.4-0.1q0.2 0 0.4 0q0.2 0.1 0.4 0.2q0.3 0.1 0.5 0.2q0.2 0.1 0.4 0.2q0.3 0.1 0.5 0.3q0.3 0.1 0.5 0.4q0.2 0.3 0.3 0.6q0.1 0.4 0 0.7q0 0.4-0.2 0.7q0 0 0 0q0 0 0 0q0 0 0 0q0 0 0 0c-1 2.3-2.1 4.5-3.1 6.7c-0.7 1.7-1.2 3.4-1.8 5.1q0 0 0 0.1q0 0 0 0q0 0 0 0.1q0 0 0 0q0 0.1 0.1 0.2q0 0.1 0 0.2q0 0.1 0 0.2q0.1 0.1 0.1 0.2q0.1 0 0.2 0q0.1-0.1 0.1-0.1q0.1 0 0.2-0.1q0.1 0 0.2-0.1q0.5-0.4 0.9-0.8q0.5-0.4 1-0.8q0.4-0.5 0.8-0.9q0.5-0.5 0.9-1q0 0 0 0q0.1-0.1 0.1-0.1q0 0 0 0q0.1-0.1 0.1-0.1q0.4-0.4 0.6 0.1q0 0.1 0 0.2q0 0 0 0.1q0.1 0.1 0.1 0.1q0 0.1 0 0.2q-0.1 0.8-0.3 1.5q-0.2 0.7-0.6 1.4q-0.3 0.7-0.8 1.3q-0.6 0.5-1.2 1q-0.4 0.3-0.9 0.5q-0.6 0.2-1.1 0.2q-0.6 0-1.1-0.2q-0.5-0.2-1-0.6q-0.3-0.2-0.6-0.5q-0.3-0.3-0.6-0.6q-0.2-0.3-0.4-0.7q-0.2-0.3-0.4-0.7q-0.1 0.4-0.2 0.8c-0.9 2-1.9 4-2.9 6q-0.2 0.5-0.5 0.9q-0.2 0.5-0.5 0.9q-0.3 0.4-0.5 0.9q-0.3 0.4-0.6 0.8q-0.2 0.4-0.5 0.7q-0.3 0.4-0.7 0.6q-0.3 0.3-0.7 0.5q-0.4 0.2-0.8 0.4q-0.3 0.1-0.6 0.1q-0.2 0-0.5 0q-0.3 0-0.6-0.1q-0.2-0.1-0.5-0.3q-0.6-0.3-1.1-0.9q-0.5-0.5-0.8-1.2q-0.3-0.7-0.4-1.4q0-0.7 0.2-1.5q0.3-1.3 0.6-2.7q0.3-1.3 0.7-2.6q0.4-1.4 0.8-2.7q0.4-1.3 0.9-2.6q1.4-3.9 3-7.7c0.6-1.4 1.3-3 1.9-4.4c0.4-0.9 0.1-1.1-0.8-1.1c-2-0.1-3.9 0.4-5.9 0.4q-0.2 0-0.4 0q-0.2 0-0.4 0q-0.2 0-0.4 0q-0.2 0-0.4 0c-0.3 0-0.6-0.1-0.6-0.5c0-0.3 0.3-0.3 0.6-0.3c1.9-0.2 3.9-0.5 5.9-0.7q0.2 0 0.5-0.1q0.3 0 0.6 0q0.3-0.1 0.6-0.1q0.3 0 0.7 0q0.2 0 0.4-0.1q0.3 0 0.5-0.2q0.2-0.1 0.3-0.3q0.2-0.2 0.3-0.4q0.7-1.4 1.2-2.8c0.4-1 0.5-1 1.5-0.8q0.3 0.1 0.5 0.1q0.3 0.1 0.6 0.3q0.2 0.1 0.5 0.2q0.2 0.2 0.4 0.4q0.2 0.2 0.4 0.4z"/>
			<path id="Layer" fill-rule="evenodd" class="s1" d="m138.5 80.5q-0.4 0.5-0.8 0.9q-0.5 0.5-0.9 0.9q-0.5 0.4-1 0.8q-0.4 0.3-0.8 0.6q-0.4 0.4-0.8 0.7q-0.4 0.4-0.7 0.8q-0.4 0.4-0.7 0.8c-0.3 0.4-0.6 0.8-0.9 1.3q-0.5 0.6-1 1.2q-0.5 0.6-1.1 1.2q-0.6 0.6-1.2 1.1q-0.6 0.6-1.2 1.1q-0.2 0.2-0.5 0.4q-0.3 0.1-0.7 0.2q-0.3 0.1-0.6 0.2q-0.4 0-0.7-0.1q-0.3-0.1-0.6-0.2q-0.2-0.1-0.5-0.3q-0.2-0.1-0.5-0.3q-0.2-0.1-0.4-0.3q-0.4-0.4-0.7-0.8q-0.4-0.4-0.6-0.8q-0.3-0.4-0.5-0.9q-0.1-0.5-0.2-1q-0.1-0.2-0.1-0.5q0-0.2 0-0.5q0-0.2 0-0.5q0-0.2 0-0.5q0.1-0.6 0.2-1.2q0.2-0.6 0.4-1.2q0.2-0.6 0.4-1.2q0.3-0.5 0.6-1.1c0.5-0.8 0.9-1.7 1.5-2.6q0.4-0.6 0.8-1.3q0.4-0.6 0.8-1.2q0.5-0.6 0.9-1.2q0.5-0.6 1-1.2q0.2-0.2 0.4-0.4q0.3-0.2 0.6-0.3q0.3 0 0.6 0q0.3 0 0.6 0.2c0.1 0.1 0.3 0.2 0.5 0.2q0.1 0.1 0.3 0.2q0.1 0 0.3 0q0.1 0 0.3-0.1q0.1 0 0.2-0.1q0.3-0.2 0.5-0.3q0.2-0.1 0.5-0.1q0.3 0 0.5 0q0.3 0.1 0.5 0.2q0.3 0 0.5 0.1q0.3 0.1 0.5 0.2q0.2 0 0.5 0.1q0.2 0.1 0.4 0.2q0.5 0.3 0.9 0.8q0.4 0.5 0.7 1q0.2 0.6 0.2 1.2q0 0.6-0.1 1.2c-0.1 0.3-0.3 0.6-0.4 0.9q0 0 0 0.1q0 0.1 0 0.1q0 0.1 0 0.2q0 0 0 0.1q0.1 0 0.2 0q0 0 0.1 0q0.1 0 0.1-0.1q0.1 0 0.2 0c0.3-0.2 0.6-0.5 0.9-0.7q0.9-0.7 1.8-1.4q0.1 0 0.1 0q0.1 0 0.2-0.1q0 0 0.1 0q0.1 0 0.1 0c0 0.2 0.2 0.5 0.1 0.6q-0.1 0.2-0.2 0.5q-0.1 0.2-0.2 0.4q-0.2 0.2-0.3 0.4q-0.1 0.2-0.3 0.4q-0.4 0.5-0.8 1zm-9.4 6q0.1-0.1 0-0.3q0-0.1 0-0.2q0-0.1-0.1-0.1q0-0.1-0.1-0.1q0 0 0 0q0 0 0 0q-0.1 0-0.1 0q-0.9-0.7-1.8-1.4c-0.4-0.3-0.7-0.3-0.9 0.2c-0.5 1.5-1 3-1.4 4.5h0.1v0.2c0 0.6 0.1 0.7 0.7 0.5q0.1 0 0.3-0.1q0.1-0.1 0.2-0.2q0.1-0.1 0.3-0.2q0.1-0.1 0.2-0.2q0.4-0.2 0.7-0.5q0.3-0.3 0.6-0.6q0.4-0.3 0.6-0.7q0.3-0.3 0.6-0.7q0.1 0 0.1-0.1zm4.9-9.8c-0.4-0.3-0.6 0.2-0.8 0.4q-0.5 0.6-1 1.2q-0.4 0.6-0.9 1.3q-0.4 0.6-0.7 1.3q-0.4 0.7-0.7 1.4q0 0.1-0.1 0.2q0 0.1 0 0.2q-0.1 0.1-0.1 0.2q0 0.1 0 0.2c-0.1 0.8 0.1 1 0.6 0.7q0.1 0 0.2 0q0-0.1 0.1-0.1q0.1 0 0.1-0.1q0.1 0 0.1-0.1q0.2-0.1 0.3-0.2q0.1-0.2 0.2-0.3q0.1-0.1 0.2-0.3q0.1-0.1 0.2-0.3q1.2-2.3 2.3-4.7c0.1-0.3 0.5-0.8 0-1z"/>
			<path id="Layer" class="s1" d="m158.3 86.8q0 0.1 0 0.2q0 0.1 0 0.2q0 0.1 0 0.2q0 0.1 0 0.2q-0.1 0.4-0.2 0.8q-0.1 0.4-0.3 0.8q-0.2 0.4-0.4 0.8q-0.2 0.4-0.4 0.8q-0.4 0.6-0.8 1.2q-0.4 0.6-0.8 1.2q-0.4 0.6-0.8 1.2q-0.5 0.6-0.9 1.1q-0.4 0.5-0.9 0.8q-0.4 0.3-1 0.5q-0.5 0.2-1 0.2q-0.6 0.1-1.1 0q-0.3 0-0.5-0.1q-0.3-0.1-0.5-0.2q-0.2-0.1-0.4-0.2q-0.2-0.2-0.4-0.4q-0.6-0.3-1-0.9q-0.5-0.5-0.7-1.1q-0.3-0.7-0.3-1.4q0-0.7 0.2-1.3q0.2-0.9 0.4-1.8q0.3-0.8 0.6-1.7q0.3-0.8 0.7-1.6q0.4-0.9 0.8-1.7q1.3-2.4 2.6-4.9c0.1-0.3 0.3-0.5 0.5-0.8q0 0 0-0.1q0 0 0 0q0-0.1 0-0.1q0-0.1 0-0.1c-0.1 0-0.2 0-0.3 0.1c-0.8 0.9-1.7 1.7-2.4 2.7c-1.3 1.7-2.5 3.5-3.7 5.3c-1 1.4-1.9 2.8-2.8 4.3c-0.3 0.5-0.6 0.9-1 1.4q-0.1 0.1-0.2 0.2q-0.1 0.1-0.3 0.2q-0.1 0-0.3 0q-0.2 0-0.3-0.1q-0.6-0.1-1.1-0.3q-0.5-0.2-1-0.6q-0.4-0.4-0.7-0.8q-0.4-0.5-0.6-1q-0.1-0.2-0.1-0.4q-0.1-0.2-0.1-0.4q0-0.3 0.1-0.5q0-0.2 0.1-0.4q0.5-1.7 1.1-3.4q0.3-1 0.8-2.1q0.4-1 0.9-2q0.4-1.1 0.9-2.1q0.6-1 1.1-1.9q0.1-0.2 0.1-0.3q0.1-0.2 0.2-0.4q0-0.1 0.1-0.3q0-0.1 0.1-0.3c0.2-0.4 0.4-0.5 0.9-0.4q0.3 0 0.6 0.1q0.3 0.1 0.5 0.2q0.3 0.1 0.6 0.3q0.2 0.2 0.5 0.4q0.3 0.1 0.5 0.4q0.2 0.3 0.2 0.7q0.1 0.3 0 0.7q0 0.3-0.2 0.6q-0.7 1.5-1.5 3q-0.9 1.8-1.7 3.6c-0.2 0.5-0.5 0.9-0.7 1.4q0 0 0 0.1q0 0 0 0.1q0 0 0 0.1q0 0 0 0.1c0.1-0.1 0.3-0.2 0.4-0.3c0.4-0.5 0.7-1.1 1-1.7q2.2-3.2 4.5-6.3q0.3-0.5 0.6-0.9q0.4-0.3 0.8-0.7q0.3-0.3 0.7-0.7q0.4-0.3 0.9-0.6q0.2-0.1 0.4-0.2q0.2-0.1 0.4-0.2q0.2-0.1 0.4-0.2q0.2-0.1 0.4-0.2q0.3-0.1 0.5-0.2q0.2 0 0.5 0q0.2 0 0.4 0.1q0.3 0 0.5 0.1q0.3 0.1 0.7 0.3q0.3 0.2 0.7 0.4q0.3 0.2 0.6 0.4q0.3 0.2 0.6 0.5q0.2 0.2 0.4 0.4q0.1 0.3 0.2 0.6q0.1 0.3 0.1 0.6q-0.1 0.3-0.2 0.5q-0.1 0.5-0.4 1q-0.2 0.5-0.4 0.9q-0.3 0.5-0.5 1q-0.3 0.4-0.6 0.9c-0.7 1.4-1.5 2.7-2.2 4c-0.5 0.9-1 1.8-1.4 2.8q-0.7 1.7-1.3 3.4c-0.1 0.4-0.4 1 0 1.3c0.5 0.2 0.8-0.4 1.1-0.7q2.8-3 5.6-5.9q0 0 0 0q0 0 0.1 0q0-0.1 0-0.1q0 0 0 0z"/>
			<path id="Layer" class="s1" d="m163.4 82.1q-0.1 0.1-0.2 0.2q0 0.1-0.1 0.2q0 0.1 0 0.2q-0.1 0.2 0 0.3c0 0.2 0 0.2 0.2 0.2c0 0.2-0.1 0.2-0.3 0.2c-0.6 0-0.8-0.3-0.8-0.7q0.2-0.4 0.4-0.8q0.2-0.3 0.5-0.6q0.3-0.3 0.6-0.6q0.4-0.2 0.7-0.4c0.6-0.4 0.4 0.3 0.4 0.3c-1.2 0.8-1 1.2-1 1.4c0 0 0.8 1.1 1.2 1.1q0.1 0 0.1 0q0.1 0 0.1-0.1q0 0 0.1 0q0 0 0 0c0.2-0.1 0.3 0 0.3 0q-0.1 0.1-0.2 0.2q-0.1 0.2-0.2 0.3q-0.1 0-0.3 0.1q-0.1 0-0.3 0c-0.5-0.1-0.9-1-1.2-1.5z"/>
			<path id="Layer" class="s1" d="m164.2 81.7c-0.1 0-0.1 0 0-0.1c0.7-0.2 2.5-0.8 2.5-1.5c0-0.5-0.6-0.8-1.1-0.9q-0.3 0-0.6 0q-0.3 0.1-0.5 0.1q-0.3 0.1-0.6 0.2q-0.3 0.1-0.5 0.2c-1 0.3-0.5-0.3-0.2-0.4q0.3-0.2 0.6-0.4q0.2-0.1 0.5-0.2q0.3-0.1 0.6-0.2q0.3 0 0.7 0c1.4 0.1 2 0.8 1.9 1.8c-0.1 1-1.9 1.4-3.3 1.4z"/>
			<path id="Layer" class="s1" d=""/>
			<path id="Layer" class="s1" d="m169.3 79.9c0.2 3.1-3.4 6.3-6.3 6q-0.8 0-1.5-0.4q-0.7-0.3-1.2-0.9q-0.6-0.6-0.9-1.3q-0.3-0.7-0.4-1.5c-0.1-3.8 4.4-6.4 7.6-6.1c1.3 0.1 0.9 1.3 0.4 1.3c-3.2-0.3-7.2 2.3-7 5.6q0 0.5 0.3 0.9q0.2 0.5 0.5 0.8q0.4 0.3 0.8 0.5q0.5 0.2 0.9 0.2c2.8 0.3 6.1-2.8 6-5.6c-0.1-0.7 0.7-0.7 0.8 0.5z"/>
			<path id="Layer" class="s1" d="m97.7 2.5c0.5 0 1 0.1 1.5 0.2h-0.2l-1.3-0.2l-1.1-0.1l-0.6-0.1h-0.4h0.5l0.5 0.1z"/>
			<path id="Layer" class="s1" d="m103.6 3.7l0.3 0.1l-0.8-0.2z"/>
			<path id="Layer" class="s1" d="m107.4 4.7l0.7 0.2q-1.2-0.3-2.4-0.7l0.7 0.2l0.5 0.1z"/>
			<path id="Layer" class="s1" d="m108.2 5h-0.1z"/>
			<path id="Layer" class="s1" d="m94 2.1l1.5 0.2h0.1l-1.6-0.2z"/>
			<path id="Layer" class="s1" d="m103.9 3.8l1.8 0.4h-0.3z"/>
			<path id="Layer" class="s1" d="m100.2 3l-1-0.2q0.5 0.1 1 0.2z"/>
			<path id="Layer" class="s1" d="m100.4 3l2.7 0.6c-1-0.2-1.9-0.5-2.9-0.6z"/>
			<path id="Layer" fill-rule="evenodd" class="s1" d="m183.9 62.8q-0.1 1.5-0.2 3q-17.4-1.5-34.8-2.6l-0.1 0.1v-0.1q-10.4-0.8-20.8-1.5h4.3q0.2-1 0.2-1.9q0.1-1-0.1-1.9q-0.1-0.9-0.4-1.8q-0.4-0.9-0.8-1.7q-0.8-1.3-1.9-2.4q-1.1-1-2.5-1.8q-1.3-0.7-2.8-1.1q-1.5-0.3-3-0.2q-1.5 0-3 0.4q-1.4 0.4-2.7 1.2q-1.3 0.8-2.3 1.9q-1.1 1.1-1.8 2.5q0.3-0.9 0.6-1.8q0.4-0.8 0.9-1.6q0.5-0.8 1.2-1.4q0.6-0.7 1.3-1.2q-0.3-0.6-0.7-1q-0.5-0.4-1-0.6q-0.6-0.3-1.2-0.4q-0.6-0.1-1.2 0q-0.6 0-1.3 0.3q-0.6 0.2-1.1 0.7q-0.6 0.5-0.9 1.1q-0.3 0.6-0.5 1.2q-0.1-0.5-0.1-1.1q0.1-0.5 0.3-1.1q0.2-0.5 0.5-1q0.3-0.4 0.8-0.8q0.5-0.3 1-0.5q0.6-0.2 1.2-0.3q0.6 0 1.2 0.1q0.6 0.1 1.1 0.4q0.4 0.1 0.8 0.4q0.3 0.3 0.6 0.7q0.3 0.3 0.5 0.7q0.2 0.5 0.3 0.9q0.3-0.2 0.5-0.3q0.2-0.2 0.5-0.3q0.2-0.1 0.5-0.3q0.3-0.1 0.5-0.2q0-0.2 0.1-0.3q0-0.2 0-0.4q0-0.1 0-0.3q0.1-0.1 0.1-0.3q0-0.2 0-0.4q0-0.3 0-0.5q0-0.2-0.1-0.4q0-0.3 0-0.5q0-0.2-0.1-0.5q0-0.3-0.1-0.5q-0.1-0.3-0.1-0.5q-0.1-0.2-0.2-0.5q-0.1-0.1-0.1-0.2q-0.1-0.2-0.1-0.3q-0.1-0.1-0.2-0.2q0-0.2-0.1-0.3q0-0.1-0.1-0.1q0-0.1 0-0.2q-0.1 0-0.1-0.1q0 0-0.1-0.1q-0.1-0.3-0.3-0.5q-0.1-0.1-0.2-0.3q-0.1-0.1-0.2-0.2q-0.1-0.1-0.2-0.3q-0.1-0.1-0.2-0.2l-0.2-0.2l-0.2-0.2q-0.1-0.1-0.1-0.1q0 0 0-0.1q-0.1 0-0.1 0q0 0-0.1 0l-0.2-0.3q-0.1-0.1-0.2-0.2q-0.2-0.1-0.3-0.1q-0.1-0.1-0.2-0.2q-0.2-0.1-0.3-0.2q-0.3-0.2-0.5-0.3l-0.7-0.3q-0.1-0.1-0.3-0.1q-0.1-0.1-0.3-0.1q-0.1-0.1-0.3-0.1q-0.1-0.1-0.3-0.1q-0.3-0.1-0.6-0.2q-0.3-0.1-0.6-0.1q-0.4 0-0.7-0.1q-0.3 0-0.6 0q-0.2 0-0.3 0q-0.2 0-0.4 0q-0.1 0-0.3 0q-0.1 0.1-0.3 0.1q-0.1 0-0.3 0q-0.1 0-0.3 0.1q-0.1 0-0.3 0q-0.1 0.1-0.3 0.1q-0.4 0.1-0.8 0.2q-0.3 0.2-0.7 0.3q-0.4 0.2-0.8 0.4q-0.3 0.2-0.7 0.4q-0.2 0.1-0.4 0.3q-0.1 0.1-0.3 0.3q-0.2 0.1-0.4 0.3q-0.2 0.2-0.3 0.3q-0.2 0.1-0.3 0.3q-0.1 0.1-0.2 0.2q-0.2 0.1-0.3 0.3q-0.1 0.1-0.2 0.2l-0.1 0.2q0.2 0.5 0.4 1q0.1 0.5 0.2 1q0 0.6-0.1 1.1q-0.1 0.5-0.3 1q0.1-0.4 0.1-0.8q0-0.5-0.1-0.9q-0.1-0.4-0.3-0.8q-0.2-0.4-0.5-0.8q-0.2-0.1-0.3-0.3q-0.1-0.1-0.3-0.3q-0.1-0.1-0.3-0.2q-0.2-0.1-0.4-0.2q-0.5-0.4-1.2-0.6q-0.7-0.2-1.4-0.3q-0.7 0-1.4 0.1q-0.7 0.2-1.3 0.5q-0.6 0.2-1.1 0.7q-0.5 0.4-0.9 0.9q-0.3 0.6-0.5 1.2q-0.2 0.7-0.2 1.3q-0.1-0.9-0.3-1.7q-0.2-0.9-0.6-1.7q-0.4-0.8-0.9-1.6q-0.5-0.7-1.2-1.3q0 0.1-0.2 0.3q-0.1 0.2-0.2 0.4q-0.1 0.1-0.3 0.3q-0.1 0.2-0.3 0.3q-0.2 0.2-0.5 0.4q-0.2 0.2-0.5 0.4q-0.3 0.2-0.6 0.3q-0.3 0.1-0.7 0.3l-0.5 0.1h-0.2q-0.1 0-0.2 0q-0.1 0-0.2 0.1q-0.1 0-0.2 0q0 0-0.1 0h-1.3q0 0-0.1 0q0 0-0.1 0q0 0-0.1 0q0 0-0.1-0.1q-0.2 0-0.4-0.1q-0.2 0-0.4-0.1q-0.2 0-0.4-0.1q-0.2-0.1-0.4-0.2q-0.4-0.2-0.7-0.5q-0.4-0.2-0.7-0.5q-0.3-0.3-0.6-0.7q-0.2-0.4-0.4-0.7q-0.1-0.2-0.2-0.4q0-0.1-0.1-0.1q0 0 0 0q0-0.1 0-0.1q0 0 0 0l-0.1-0.3q0 0 0-0.1q0 0-0.1-0.1q0 0 0-0.1q0 0 0-0.1l-0.1-0.2v-0.5q0 0 0 0q0-0.1 0-0.1q0 0 0-0.1q0 0 0 0v-1.1q0-0.1 0.1-0.2q0-0.1 0-0.2q0-0.1 0.1-0.2q0-0.1 0-0.2q-1.2 0-2.3 0.2q-1.2 0.3-2.3 0.7q-1.1 0.5-2.2 1.1q-1 0.6-1.9 1.4q-0.8 0.7-1.5 1.5q-0.7 0.9-1.1 1.8q-0.5 1-0.8 2q-0.3 1.1-0.4 2.1l0.5 0.2q0.3 0.1 0.5 0.2q0.2 0.1 0.5 0.2q0.2 0.1 0.5 0.2q0.2 0.2 0.4 0.3l0.4 0.3l0.2 0.4l0.4 0.3l0.2 0.2q0.1-0.1 0.2-0.2q0.1-0.1 0.3-0.1q0.1-0.1 0.2-0.2q0.1 0 0.3-0.1q0.2-0.1 0.4-0.2q0.2-0.1 0.4-0.1q0.2-0.1 0.5-0.2q0.2 0 0.4 0l0.5-0.1h1.6l0.4 0.1h0.2h0.3q0.1 0.1 0.2 0.1q0.1 0 0.2 0.1q0.1 0 0.3 0.1q0.1 0 0.2 0.1q0.2 0 0.4 0.1q0.2 0.2 0.4 0.3q0.2 0.1 0.4 0.2q0.2 0.2 0.4 0.4q0.1 0.1 0.2 0.3q0.1 0.2 0.2 0.3q0.1 0.2 0.1 0.4q0.1 0.2 0.2 0.4q0.1 0.1 0.1 0.3q0.1 0.2 0.2 0.4q0.1 0.2 0.1 0.3q0.1 0.2 0.1 0.4q0 0 0.1 0.1q0 0 0 0.1q0 0 0 0q0 0.1 0 0.1v0.1q0 0.1 0 0.1q0 0 0 0q0 0.1 0 0.1q0 0 0 0.1v1.1q0 0 0 0.1q0 0-0.1 0.1q0 0 0 0.1q0 0.1 0 0.1l-0.1 0.4q0 0 0 0q0 0-0.1 0.1q0 0 0 0q0 0.1 0 0.1v0.3l-0.6 0.7v-1.2q0-0.1 0-0.1q0 0 0 0q0 0 0 0q0 0 0-0.1v-0.1q0-0.1 0-0.1q0-0.1 0-0.1q0 0 0-0.1q0 0 0-0.1v-0.4q0 0 0-0.1q0 0 0-0.1q0 0 0-0.1q0 0 0-0.1c-0.1-0.1-0.2-0.1-0.2-0.2v-0.1q0 0 0 0q0 0 0-0.1q0 0 0 0q0 0 0 0v-0.1q0 0 0 0q0 0-0.1-0.1q0 0 0 0q0 0 0 0c0-0.1-0.1-0.2-0.1-0.3l-0.2-0.3l-0.1-0.2l-0.1-0.1q0 0 0 0q0 0 0-0.1q-0.1 0-0.1 0q0 0 0 0q-0.1-0.2-0.2-0.3q-0.1-0.1-0.2-0.3q-0.1-0.1-0.2-0.2q-0.2-0.1-0.3-0.2q-0.1-0.2-0.2-0.3q-0.2-0.1-0.3-0.2q-0.2-0.1-0.3-0.2q-0.2-0.1-0.3-0.2q-0.1 0-0.2-0.1q0 0-0.1-0.1q-0.1 0-0.2 0q-0.1-0.1-0.2-0.1h-0.1l-0.2-0.1l-0.4-0.1h-1.5q-0.4 0-0.9 0.1q-0.5 0.1-0.9 0.3q-0.4 0.2-0.8 0.5q-0.4 0.3-0.7 0.6q-0.3 0.4-0.6 0.8q-0.3 0.3-0.5 0.7q-0.2 0.4-0.4 0.9q-0.1 0.4-0.2 0.8q-0.1-0.2-0.1-0.4q0-0.3 0-0.5q0-0.2 0.1-0.4q0-0.3 0-0.5q0.1-0.2 0.1-0.4q0.1-0.2 0.2-0.4q0.1-0.2 0.1-0.4q0.1-0.2 0.2-0.4c0.2-0.2 0.6-0.7 0.6-0.7h-0.1l-0.3-0.2l-0.3-0.2h-0.1l-0.3-0.2q-0.2-0.1-0.4-0.2q-0.2 0-0.4-0.1q-0.2-0.1-0.4-0.2q-0.2 0-0.5-0.1l-0.4-0.1h-0.4h-0.6q0 0 0 0q-0.1 0-0.1 0q-0.1 0-0.1 0q0 0-0.1 0h-1.9h-0.3q-0.1 0.1-0.2 0.1q-0.1 0-0.2 0.1q-0.1 0-0.2 0q-0.1 0-0.2 0.1h-0.2h-0.1q-0.1 0.1-0.2 0.1q-0.1 0.1-0.2 0.1q-0.1 0.1-0.3 0.2q-0.1 0-0.2 0.1q-0.3 0.2-0.7 0.5h0.1h-0.1q-0.1 0.1-0.3 0.2q-0.1 0.1-0.2 0.2q-0.1 0.1-0.2 0.2q-0.1 0.1-0.2 0.2q-0.1 0.1-0.1 0.1q-0.1 0-0.1 0.1q0 0-0.1 0.1q0 0 0 0.1l-0.2 0.1l-0.2 0.3c0 0.1-0.2 0.3-0.2 0.4c-0.1 0.1-0.2 0.2-0.2 0.3l-0.1 0.2v0.1q0 0 0 0q0 0 0 0q0 0.1 0 0.1q0 0 0 0q-0.1 0-0.1 0.1q0 0 0 0q0 0.1 0 0.1q0 0 0 0c-0.1 0.1-0.1 0.2-0.1 0.2l-0.1 0.3l-0.4 0.7c0 0.1 0.1 0.1 0 0.2q0 0.1 0 0.2q0 0 0 0.1q0 0-0.1 0.1q0 0 0 0.1v0.4q0 0.1 0 0.2q0 0.1 0 0.2q0 0 0 0.1q0 0.1 0 0.2q0.1 0 0.1 0q0 0.1 0 0.1q0 0 0 0.1q0 0-0.1 0v0.4q0.1 0.5 0.3 1q0.1 0.5 0.3 1q0.2 0.4 0.4 0.9q0.2 0.5 0.5 0.9q-0.2-0.1-0.4-0.3q-0.2-0.1-0.3-0.3q-0.2-0.2-0.3-0.4q-0.2-0.1-0.3-0.3l-0.2-0.4l-0.1-0.2l-0.1-0.2q-0.3 0.2-0.6 0.3q-0.3 0.2-0.5 0.3q-0.3 0.2-0.6 0.4q-0.2 0.3-0.4 0.5l-0.2 0.3q0 0 0 0q-0.1 0-0.1 0q0 0 0 0.1q0 0 0 0l-0.1 0.1c0 0.1-0.1 0.1-0.1 0.2v0.1l-0.1 0.3c-0.1 0.1-0.1 0.2-0.1 0.3q0 0.1-0.1 0.1q0 0 0 0.1q0 0 0 0.1q0 0 0 0q0 0.1 0 0.1q0 0 0 0q0 0 0 0q0 0.1 0 0.1v0.5q0 0.1 0 0.3q0 0.2 0 0.3q0 0.2 0 0.3q0 0.2 0.1 0.3c0 0.1 0 0.2 0 0.4h2.8q-27.1 1.2-54.2 3.2l-0.1-3q6.2-0.1 12.4-0.2l10.2-0.1c2.1-16.9 10.4-32.5 23.2-43.7c12.9-11.3 29.4-17.4 46.5-17.3c17.1 0.1 33.5 6.5 46.2 18c12.7 11.4 20.8 27.1 22.6 44.1l10.2 0.2q6.3 0.2 12.6 0.5zm-26.9-0.8l-0.1-0.8q-0.2-0.6-0.2-1.1q-0.2-1.1-0.4-2.1q-0.3-1.1-0.5-2.1q-0.2-0.5-0.3-1c0-0.2-0.1-0.3-0.1-0.5l-0.2-0.5q-0.5-2-1.2-3.9q-0.6-2-1.4-3.9q-0.7-1.9-1.6-3.7q-0.9-1.9-1.9-3.7c-0.1-0.3-0.3-0.5-0.4-0.8l-0.5-0.9c-0.4-0.5-0.7-1.1-1-1.6q-0.5-0.8-1-1.6l-0.5-0.8q-0.2-0.2-0.3-0.4l-0.3-0.4q-1.5-2.2-3.1-4.2q-1.7-2-3.5-4q-1.8-1.9-3.7-3.6q-2-1.8-4-3.4q-1.2-1-2.4-1.9q-1.2-0.8-2.5-1.7q-1.2-0.8-2.5-1.6q-1.3-0.7-2.6-1.4c-0.8-0.5-1.7-0.9-2.5-1.3l-1.1-0.6l-0.3-0.1l-0.3-0.1l-0.6-0.3l-2.3-1q-1.1-0.5-2.2-0.9q-1.6-0.6-3.3-1.1l1.2 0.3l1.1 0.4l1 0.4l2.3 0.8l2.2 1l0.6 0.3l0.3 0.1l0.3 0.1l1.2 0.6c0.8 0.4 1.7 0.8 2.4 1.2l1.3 0.7l0.6 0.4l0.6 0.3l2.5 1.6q0.4 0.2 0.7 0.4l0.6 0.4l1.4 0.9q0.3 0.2 0.6 0.4l0.6 0.5l1.3 1q1.4 1 2.7 2.1q1.3 1.1 2.5 2.3q1.3 1.2 2.5 2.4q1.2 1.2 2.3 2.5q0.6 0.7 1.2 1.4q0.6 0.7 1.2 1.4q0.5 0.8 1.1 1.5q0.6 0.7 1.1 1.5l0.3 0.4l0.3 0.4l0.5 0.8l1.1 1.6l1 1.6l0.5 0.9q0.3 0.4 0.5 0.8q1 1.8 1.9 3.7q1 1.8 1.8 3.7q0.8 1.9 1.5 3.9q0.7 1.9 1.3 3.9l0.2 0.5q0 0.3 0.1 0.6l0.3 1q0.2 1 0.5 2.1l0.5 2.1q0.1 0.6 0.2 1.1q0.1 0.5 0.2 1.1h2.3c-0.9-8.3-3.4-16.4-7.3-23.9c-3.8-7.4-9-14.1-15.2-19.8c-6.2-5.6-13.4-10-21.3-13.1c-7.8-3.1-16.1-4.7-24.5-4.8c-34.9-0.3-64.9 26.2-69.2 60.5l20.4-0.1c2.1 0 4.2 0.1 6.3 0.1v-1.5q0-0.1 0-0.1q0 0 0-0.1q0 0 0-0.1q0 0 0 0c0.1-0.2 0.2-0.4 0.2-0.4q0-0.1 0-0.1q0-0.1 0-0.1q0 0 0-0.1q0 0 0 0v-0.2c0 0 0 0.1 0 0q0.1-0.2 0.2-0.4l0.2-0.4l0.2-0.3v-0.1l0.1-0.1l0.1-0.2l0.2-0.2q0 0 0 0q0-0.1 0-0.1q0 0 0.1 0q0 0 0-0.1l0.3-0.3q0.1-0.1 0.3-0.3q0.2-0.1 0.3-0.2q0.2-0.1 0.4-0.3q0.2-0.1 0.3-0.2q0.2-0.1 0.4-0.1q0.2-0.1 0.3-0.2q0.2 0 0.4-0.1q0.2 0 0.3-0.1q0 0 0 0q0-0.1 0-0.1q0 0 0-0.1q0 0 0 0l-0.2-0.5q0-0.1 0-0.1q0-0.1 0-0.1q0-0.1 0-0.1q0-0.1 0-0.1v-0.2q0-0.1 0-0.2q-0.1-0.1-0.1-0.2q0-0.1 0-0.2q0 0 0-0.1v-0.5l0.1-0.8v-0.3q0-0.1 0-0.1q0-0.1 0-0.2q0.1 0 0.1-0.1q0 0 0-0.1q0-0.1 0-0.1q0-0.1 0-0.1q0 0 0-0.1q0.1 0 0.1-0.1v-0.2c0.1-0.1 0.1-0.2 0.1-0.2q0-0.1 0.1-0.1q0 0 0 0q0-0.1 0-0.1q0 0 0 0c0-0.1 0.1-0.2 0.1-0.3l0.2-0.4l0.2-0.5q0.1-0.1 0.1-0.1q0-0.1 0.1-0.1q0 0 0-0.1q0 0 0.1-0.1q0 0 0 0q0 0 0-0.1q0 0 0.1 0q0 0 0 0q0.1-0.2 0.3-0.5q0.1-0.1 0.2-0.2q0.1-0.1 0.2-0.2q0.1-0.2 0.2-0.3q0.2-0.1 0.3-0.2l-0.4-0.4q0 0 0-0.1q0 0 0-0.1q-0.1 0-0.1-0.1q0 0 0 0l-0.2-0.4q0 0 0 0q-0.1-0.1-0.1-0.1q0 0 0-0.1q-0.1 0-0.1-0.1l-0.2-0.3q-0.1-0.2-0.1-0.4q-0.1 0-0.1-0.1q0 0 0-0.1q0 0-0.1-0.1q0-0.1 0-0.1q0-0.1-0.1-0.2q0-0.1 0-0.2q0-0.2-0.1-0.3q0-0.1 0-0.2q-0.1-0.2-0.1-0.5q0-0.2 0-0.5q0-0.2 0-0.5q0-0.2 0-0.5q0-0.1 0-0.1q0.1-0.1 0.1-0.1q0-0.1 0-0.2q0 0 0-0.1q0-0.1 0-0.1q0-0.1 0-0.2q0 0 0.1-0.1q0-0.1 0-0.1q0 0 0.1-0.1q0 0 0 0q0-0.1 0-0.1q0 0 0-0.1l0.1-0.2q0.1-0.3 0.2-0.5q0.1-0.3 0.2-0.5q0.1-0.1 0.1-0.2q0 0 0.1-0.1q0 0 0-0.1q0.1-0.1 0.1-0.1q0.2-0.3 0.4-0.5q0 0 0 0q0-0.1 0.1-0.1q0 0 0 0q0-0.1 0-0.1q0.1 0 0.1 0q0 0 0 0q0-0.1 0-0.1q0 0 0 0l0.4-0.4l0.1-0.1q0 0 0 0q0 0 0 0q0.1 0 0.1 0q0 0 0 0q0-0.1 0.1-0.1q0 0 0 0q0-0.1 0.1-0.1q0 0 0 0l0.3-0.2l0.1-0.1l0.1-0.1l0.5-0.3l0.5-0.3l0.2-0.1l0.3-0.1q0.1 0 0.1 0q0.1 0 0.2-0.1q0 0 0.1 0q0.1 0 0.1-0.1l0.6-0.1q0.2 0 0.5-0.1q0.2 0 0.5 0q0.2-0.1 0.5-0.1q0.3 0 0.5 0c0.3 0.1 0.6 0.1 0.9 0.1q0.1 0 0.2 0.1q0 0 0.1 0q0 0 0.1 0q0 0 0.1 0.1q0 0 0.1 0q0 0 0.1 0q0 0 0.1 0q0 0 0.1 0.1l0.4 0.1l0.3 0.1l0.4 0.2q0 0 0 0q0.1 0.1 0.1 0.1q0.1 0 0.1 0q0 0 0.1 0.1q0.3 0.1 0.5 0.3l0.1 0.1q1.1-1.2 2.5-2.2q1.3-1 2.9-1.7q1.5-0.6 3.2-0.9q1.6-0.3 3.3-0.2q0.3-0.3 0.6-0.5q0.3-0.3 0.7-0.5q0.4-0.2 0.8-0.3q0.3-0.2 0.7-0.3q0.1 0 0.2 0q0.1 0 0.2-0.1q0.1 0 0.2 0q0.1 0 0.2 0h1.5l0.3 0.1h0.4q0.1 0.1 0.3 0.1q0.1 0.1 0.3 0.1q0.2 0.1 0.3 0.1q0.2 0.1 0.3 0.2q0.3 0.1 0.5 0.3q0.3 0.1 0.5 0.3q0.3 0.2 0.5 0.4q0.2 0.2 0.4 0.4q0.2 0.1 0.3 0.3q0.1 0.2 0.3 0.3q0.1 0.2 0.2 0.4q0.1 0.2 0.2 0.4l0.1 0.3v0.2q0 0.1 0 0.1q0.1 0 0.1 0.1q0 0 0 0q0 0 0 0.1q0 0-0.1-0.1q0 0 0 0q0-0.1 0-0.1q0 0 0 0l-0.1-0.3l-0.1-0.3q-0.1-0.2-0.2-0.4q-0.2-0.2-0.3-0.3q-0.1-0.2-0.2-0.3q-0.2-0.2-0.3-0.3q-0.2-0.2-0.4-0.4q-0.3-0.2-0.5-0.3q-0.2-0.1-0.5-0.3q-0.2-0.1-0.5-0.2q-0.1 0-0.2-0.1q-0.2 0-0.3-0.1q-0.2 0-0.3 0q-0.2 0-0.3-0.1h-0.7q0 0-0.1 0q-0.1 0-0.2 0q-0.1 0-0.2 0q0 0-0.1 0l-0.4 0.1h-0.3c-0.2 0.1-0.4 0.1-0.6 0.2q-0.2 0.1-0.3 0.1q-0.2 0.1-0.3 0.2q-0.2 0.1-0.3 0.2q-0.2 0.1-0.3 0.2l-0.3 0.2l-0.2 0.2l-0.2 0.1q0 0 0 0q0 0.1 0 0.1q0 0 0 0q-0.1 0-0.1 0q0 0.1 0 0.1q-0.1 0-0.1 0.1q0 0 0 0q-0.1 0.1-0.1 0.1q-0.1 0.1-0.2 0.3q-0.1 0.1-0.2 0.3q-0.1 0.2-0.2 0.3q-0.1 0.2-0.2 0.4l-0.1 0.3q0 0-0.1 0.1q0 0 0 0q0 0.1 0 0.1q0 0.1 0 0.1v0.3q0 0.1 0 0.1q0 0.1 0 0.1q0 0 0 0.1q0 0 0 0.1v1.4l0.1-0.1q0 0 0 0.1q0 0 0.1 0.1q0 0 0 0q0 0.1 0 0.1q0 0.1 0.1 0.2q0 0.1 0 0.1q0.1 0.1 0.1 0.2q0 0.1 0.1 0.1l0.1 0.3l0.1 0.2l0.1 0.1l0.2 0.3l0.2 0.3q0.1 0.1 0.2 0.2q0.1 0.1 0.3 0.2q0.1 0.1 0.2 0.2q0.2 0.1 0.3 0.2l0.3 0.2l0.2 0.2h0.1l0.3 0.2l0.4 0.1c0.1 0.1 0.2 0 0.3 0.1q0 0 0.1 0q0 0.1 0.1 0.1q0 0 0 0q0.1 0 0.1 0h0.7q0.1 0 0.2 0q0.1 0 0.1 0q0.1 0 0.2 0q0.1 0 0.2 0h0.6q0.3-0.1 0.6-0.2q0.3-0.1 0.6-0.2q0.3-0.1 0.6-0.3q0.2-0.1 0.5-0.3q0.1-0.2 0.3-0.3q0.1-0.1 0.3-0.3q0.1-0.2 0.2-0.3q0.2-0.2 0.3-0.4q0.1-0.2 0.2-0.4q0.1-0.2 0.2-0.5q0.1-0.2 0.1-0.4q0.1-0.3 0.1-0.5h0.1q0.4 0.4 0.7 0.9q0.3 0.4 0.6 0.8q0.3 0.5 0.6 0.9q0.2 0.5 0.4 1q0.8-0.7 1.7-1.2q0.9-0.4 1.9-0.6q1-0.1 2 0q1.1 0.2 2 0.7q0.3 0.2 0.6 0.4q0.3 0.2 0.6 0.4q0.3 0.3 0.5 0.6q0.3 0.3 0.5 0.6q0.1-0.4 0.4-0.7q0.2-0.4 0.5-0.7q0.2-0.3 0.5-0.6q0.4-0.3 0.7-0.6q0.4-0.2 0.7-0.5q0.4-0.3 0.8-0.5q0.4-0.2 0.8-0.4q0.5-0.2 0.9-0.3q0.2-0.1 0.3-0.1q0.2-0.1 0.4-0.1q0.1-0.1 0.3-0.1q0.2 0 0.3-0.1q0.4 0 0.8-0.1q0.3 0 0.7 0q0.4 0 0.7 0q0.4 0 0.8 0q0.2 0.1 0.3 0.1q0.2 0 0.4 0q0.2 0.1 0.4 0.1q0.2 0.1 0.3 0.1q0.2 0.1 0.4 0.1q0.2 0.1 0.4 0.1q0.2 0.1 0.3 0.2q0.2 0 0.4 0.1l0.3 0.2l0.3 0.1q0.4 0.2 0.7 0.4q0.2 0.1 0.3 0.2q0.2 0.1 0.3 0.2q0.2 0.1 0.3 0.3q0.2 0.1 0.3 0.2q0.3 0.2 0.5 0.5q0.3 0.2 0.5 0.5q0.2 0.3 0.5 0.6q0.2 0.3 0.4 0.6q0 0.1 0.1 0.2q0.1 0.2 0.2 0.3q0.1 0.2 0.1 0.3q0.1 0.2 0.2 0.3q0 0.2 0.1 0.3q0.1 0.2 0.1 0.3q0.1 0.2 0.1 0.3q0.1 0.2 0.1 0.3q0.1 0.6 0.2 1.1q0.1 0.5 0.1 1.1q0 0.5-0.1 1q0 0.5-0.1 1.1c-0.1 0.3-0.4 0.7-0.4 1q0.4-0.2 0.8-0.3q0.5-0.2 0.9-0.3q0.4-0.1 0.9-0.1q0.4-0.1 0.8-0.1q1.8-0.2 3.6 0.1q1.7 0.4 3.3 1.3q1.6 0.8 2.8 2.1q1.3 1.3 2.1 2.8q0.1 0.3 0.3 0.6q0.1 0.3 0.2 0.6q0.1 0.4 0.2 0.7q0.1 0.3 0.1 0.6l0.3-0.2l0.5-0.2l0.3-0.1q0 0 0.1 0q0 0 0 0q0.1-0.1 0.1-0.1q0 0 0 0c0.3 0 0.5-0.1 0.7-0.1q0.2 0 0.3 0q0.2 0 0.4 0q0.1 0 0.3 0q0.2 0 0.4 0l0.3 0.1l0.4 0.1l0.3 0.1l0.1 0.1l0.4 0.1q0.1 0.1 0.2 0.1q0 0.1 0.1 0.1q0.1 0.1 0.2 0.2q0.1 0 0.1 0.1l0.3 0.2q0.1 0 0.1 0q0 0.1 0 0.1q0 0 0.1 0q0 0 0 0l0.1 0.1l0.2 0.3q0 0 0 0q0 0 0 0q0.1 0 0.1 0.1q0 0 0 0l0.1 0.2q0 0 0.1 0.1q0 0 0 0q0.1 0.1 0.1 0.1q0 0.1 0 0.1l0.2 0.4l0.2 0.3v0.3q0 0 0 0q0 0.1 0 0.1q0 0.1 0.1 0.1q0 0.1 0 0.1v0.4q0.1 0.1 0.1 0.3q0 0.2 0 0.4q0 0.1 0 0.3q0 0.2-0.1 0.3q0 0.1 0 0.2q0 0.1 0 0.1q0 0.1-0.1 0.2q0 0.1 0 0.1c-0.1 0.2-0.2 0.4-0.2 0.6q-0.1 0.2-0.3 0.4zm-68.9-28.1v-0.3c0.1 0.1 0 0.2 0 0.3zm46.1 23.5q0 0.7-0.1 1.4q-0.1 0.8-0.3 1.5q-0.2 0.7-0.4 1.3h6.5c0 0 0-0.1 0-0.2q0-0.1 0.1-0.1q0-0.1 0-0.1q0-0.1 0-0.1q0-0.1 0-0.1q0-0.1 0.1-0.2q0 0 0-0.1q0 0 0-0.1q0-0.1 0-0.1q0-0.1 0-0.2q0 0 0-0.1q0 0 0-0.1q0-0.1 0-0.1q0-0.2-0.1-0.3q0-0.1 0-0.2q0-0.2 0-0.3q-0.1-0.1-0.1-0.2q0-0.2-0.1-0.3q0-0.1-0.1-0.3q0-0.1-0.1-0.2q0-0.1-0.1-0.2l-0.1-0.3l-0.1-0.1l-0.1-0.1l-0.1-0.1l-0.1-0.1q-0.1-0.1-0.2-0.3h-0.1l-0.2-0.2l-0.1-0.1l-0.1-0.1l-0.3-0.2q-0.1 0-0.2-0.1q-0.1-0.1-0.3-0.1q-0.1-0.1-0.2-0.1q-0.1-0.1-0.3-0.1q-0.1-0.1-0.2-0.1q-0.2 0-0.3-0.1q-0.2 0-0.3 0q-0.2 0-0.3 0h-1l-0.5 0.1q0 0-0.1 0q0 0-0.1 0q0 0-0.1 0.1q0 0-0.1 0q0.1 0.7 0.2 1.4zm-70.7-15.3q0.1-1 0.4-2q0.3-1 0.8-1.9q0.5-0.9 1.1-1.7h-0.1l-0.6-0.2q-0.3-0.1-0.6-0.2q-0.1 0-0.2 0q-0.1-0.1-0.1-0.1q-0.1 0-0.2 0q-0.1 0-0.2 0h-1.6q-0.2 0-0.4 0q-0.2 0-0.5 0q-0.2 0.1-0.4 0.1q-0.2 0.1-0.4 0.1q-0.2 0.1-0.4 0.2q-0.2 0-0.5 0.1q-0.2 0.1-0.4 0.2q-0.2 0.2-0.4 0.3l-0.3 0.3h-0.1l-0.1 0.1l-0.2 0.2l-0.2 0.1l-0.1 0.1l-0.1 0.1l-0.3 0.3l-0.1 0.1l-0.1 0.2q-0.1 0-0.1 0.1q0 0-0.1 0q0 0.1 0 0.1q-0.1 0.1-0.1 0.1l-0.1 0.2l-0.1 0.1v0.1l-0.2 0.4q-0.1 0.2-0.2 0.4q-0.1 0.2-0.2 0.4q-0.1 0.2-0.1 0.5q-0.1 0.2-0.1 0.4q-0.1 0.2-0.1 0.4q0 0.2 0 0.4q0 0.2 0 0.4q0 0.3 0 0.5q0 0.1 0 0.2q0 0.1 0 0.2q0 0.1 0 0.2q0 0.1 0.1 0.2q0 0 0 0q0 0.1 0 0.1q0 0.1 0 0.1q0 0.1 0 0.1q0 0.1 0 0.1q0 0.1 0.1 0.1q0 0 0 0.1q0 0 0 0.1c0.1 0.2 0.1 0.4 0.2 0.6l0.3 0.6q0.1 0.2 0.2 0.4q0.3-0.2 0.7-0.5l0.3-0.2l0.1-0.1l0.7-0.3l0.3-0.1q0.1-0.1 0.2-0.2q0.1 0 0.3-0.1q0.1 0 0.2 0q0.1-0.1 0.3-0.1q0.4-0.2 0.9-0.3q0.4-0.1 0.9-0.1q0.4 0 0.9 0q0.5 0 0.9 0.1q0-1.1 0.1-2.1z"/>
		</g>
		<path id="Layer" class="s1" d="m69.2 128.8l-2.1 4.7l1-5l-2.5 0.9l2.3-1.4l-5.3-1.9l5.6 0.9l-1.1-2.2l1.6 2l2.1-4.7l-1 5l2.5-1l-2.3 1.4l5.3 1.9l-5.6-0.9l1.1 2.3l-1.6-2.1z"/>
		<path id="Layer" class="s1" d="m82.3 6.6l-1.1 0.3l-2.7 0.7l-1.7 0.5l-1.9 0.5q-0.9 0.3-2 0.6l-1 0.3l-1 0.4c-1.4 0.5-2.9 1-4.4 1.6c-1.5 0.6-3 1.3-4.5 2q-2.2 1.1-4.3 2.4q-0.5 0.3-1 0.6q-0.5 0.3-1 0.6q-0.5 0.3-1 0.7q-0.5 0.3-1 0.7q-0.5 0.3-0.9 0.7l-0.9 0.7l-0.9 0.7q-0.4 0.3-0.8 0.7l-0.4 0.3l-0.4 0.4q-0.4 0.3-0.8 0.7q-0.7 0.7-1.4 1.4q-1.4 1.3-2.5 2.6l-1 1.2q-0.5 0.6-0.9 1.1l-0.8 1l-0.6 0.8l-0.9 1.2l-0.3 0.4l0.2-0.4l0.2-0.6l0.2-0.3l0.2-0.4q0.2-0.4 0.4-0.9l0.6-1q0.4-0.6 0.8-1.2q0.4-0.6 0.8-1.3q1-1.3 2.2-2.8c0.4-0.5 0.9-1 1.3-1.5l0.8-0.8l0.4-0.3l0.4-0.4q0.4-0.4 0.8-0.8q0.4-0.4 0.9-0.8q0.4-0.3 0.9-0.7q0.4-0.4 0.9-0.7q0.5-0.4 1-0.8q0.5-0.3 1-0.7q0.5-0.3 1.1-0.7q0.5-0.3 1-0.6c1.5-0.9 3.1-1.7 4.6-2.4l1.2-0.6l0.6-0.2l0.6-0.3q0.6-0.2 1.2-0.4l1.2-0.5q0.6-0.2 1.2-0.4q0.6-0.2 1.2-0.4q1.1-0.4 2.3-0.7l1.1-0.3l1.1-0.3q1.1-0.2 2.1-0.4q1-0.3 1.9-0.4q1-0.2 1.8-0.3c1.1-0.2 2.1-0.4 2.9-0.5q0.1 0 0.2 0q0.2 0 0.3-0.1q0.1 0 0.3 0q0.1 0 0.2 0z"/>
	</g>
	<g id="&lt;Group&gt;">
		<path id="&lt;Path&gt;" class="s2" d="m160.1 32c-3.8 0-12.4-3.4-12.4-7.5c0-4.2 8.6-7.6 12.4-7.6c3.2 0 8 2.4 8.8 5.6c0.2 0.6-1.8 1.2-1.8 2c0 0.6 2 1.4 1.9 2c-0.8 3.2-5.6 5.5-8.9 5.5z"/>
		<path id="&lt;Path&gt;" class="s3" d="m162.5 23.7c1.7 0.3 3.7 0.4 4.3 2.2c0.8 2.1-0.4 2.6-2.2 3.1c-3.4 0.8-6.8 0.9-10.1-0.2c-2.3-0.8-7.8-4-4.3-6.5c2.8-2 5.8-4.2 9.4-4.4c1.6-0.1 3.8 0.4 5.2 1c1.5 0.7 2.7 2.4 0.7 3.4c-1.4 0.7-5.4-0.3-7 0q-1.6 0.3-3.1 1.4c1.3-1.3 5.4-0.2 7.1 0z"/>
		<path id="&lt;Path&gt;" class="s2" d="m130.4 18c3.8-0.4 12.7 2.3 13 6.5c0.3 4.1-7.9 8.2-11.8 8.5c-3.1 0.3-8.1-1.7-9.2-4.8c-0.2-0.6 1.7-1.4 1.7-2.1c-0.1-0.7-2.2-1.2-2.1-1.9c0.5-3.3 5.1-6 8.4-6.2z"/>
		<path id="&lt;Path&gt;" class="s3" d="m128.7 26.4c-1.7-0.1-3.7 0-4.5-1.8c-0.9-2 0.3-2.6 2-3.2c3.3-1.1 6.7-1.5 10.1-0.7c2.3 0.6 8 3.3 4.8 6.1c-2.7 2.3-5.5 4.7-9 5.2c-1.6 0.3-3.8-0.1-5.3-0.6c-1.5-0.6-2.9-2.2-1-3.3c1.4-0.8 5.4-0.1 7-0.6q1.6-0.4 3-1.6c-1.2 1.3-5.4 0.6-7.1 0.5z"/>
		<path id="&lt;Path&gt;" class="s2" d="m132.8 34c1.4-3.5 7.9-10.1 11.7-8.5c3.9 1.6 3.7 10.8 2.2 14.3c-1.2 3-5.3 6.5-8.5 6c-0.7 0-0.5-2.2-1.1-2.4c-0.7-0.3-2.1 1.3-2.6 1c-2.7-2-3-7.4-1.7-10.4z"/>
		<path id="&lt;Path&gt;" class="s3" d="m139.5 39.4c-0.9 1.5-1.7 3.3-3.7 3.2c-2.2-0.2-2.2-1.5-1.9-3.3c0.5-3.4 1.7-6.6 4-9.2c1.6-1.8 6.6-5.7 7.6-1.5c0.8 3.4 1.7 7 0.5 10.4c-0.5 1.5-1.8 3.3-2.9 4.4c-1.3 1.1-3.3 1.6-3.4-0.7c-0.1-1.6 2.3-4.8 2.6-6.4q0.4-1.6 0-3.5c0.6 1.8-1.9 5.1-2.8 6.6z"/>
		<path id="&lt;Path&gt;" class="s2" d="m159.1 16.5c-2.3 3.1-10.1 8-13.5 5.6c-3.3-2.5-1-11.4 1.3-14.5c1.9-2.6 6.7-5 9.7-3.8c0.7 0.2-0.1 2.2 0.5 2.6c0.6 0.4 2.4-0.8 2.8-0.3c2.1 2.6 1.1 7.8-0.8 10.4z"/>
		<path id="&lt;Path&gt;" class="s3" d="m153.8 9.7c1.2-1.2 2.5-2.7 4.3-2.2c2.2 0.7 1.8 1.9 1.1 3.6c-1.3 3.2-3.2 6.1-6.1 8c-2 1.4-7.8 4-7.7-0.3c0-3.5 0-7.2 2-10.2c0.8-1.4 2.6-2.8 3.9-3.6c1.5-0.8 3.6-0.8 3.1 1.4c-0.3 1.6-3.4 4.2-4.1 5.6q-0.7 1.5-0.8 3.4c-0.1-1.8 3.1-4.5 4.3-5.7z"/>
		<path id="&lt;Path&gt;" class="s2" d="m146.5 41c-2.1-3.2-3.7-12.3-0.1-14.5c3.5-2.2 10.9 3.3 12.9 6.6c1.7 2.7 2.2 8-0.1 10.4c-0.4 0.5-2-0.9-2.6-0.5c-0.6 0.3-0.2 2.5-0.8 2.7c-3.1 1-7.6-1.9-9.3-4.7z"/>
		<path id="&lt;Path&gt;" class="s3" d="m154.8 38.7c0.6 1.5 1.6 3.3 0.4 4.8c-1.4 1.8-2.5 1-3.8-0.3c-2.5-2.4-4.4-5.3-5.1-8.7c-0.6-2.3-0.8-8.7 3.2-7c3.2 1.3 6.7 2.7 8.7 5.6c1 1.3 1.6 3.5 1.8 5c0.3 1.7-0.6 3.6-2.4 2.4c-1.4-0.9-2.6-4.7-3.7-5.9q-1.1-1.3-2.8-2c1.7 0.5 3 4.5 3.7 6.1z"/>
		<path id="&lt;Path&gt;" class="s2" d="m144.8 8c1.9 3.4 3.3 12.5-0.3 14.6c-3.6 2.1-10.9-3.6-12.8-6.9c-1.6-2.8-1.9-8.1 0.4-10.5c0.4-0.4 2 1 2.6 0.6c0.6-0.3 0.2-2.4 0.8-2.6c3.2-1 7.6 2 9.3 4.8z"/>
		<path id="&lt;Path&gt;" class="s3" d="m136.4 10.2c-0.6-1.6-1.5-3.4-0.3-4.8c1.5-1.8 2.5-1 3.8 0.4c2.4 2.4 4.2 5.3 4.9 8.8c0.5 2.3 0.5 8.7-3.4 6.9c-3.2-1.4-6.6-2.9-8.6-5.9c-0.9-1.3-1.5-3.4-1.7-5c-0.2-1.6 0.7-3.6 2.6-2.3c1.3 0.9 2.4 4.8 3.5 6q1.1 1.3 2.7 2.1c-1.7-0.6-2.9-4.6-3.5-6.2z"/>
		<circle id="&lt;Path&gt;" class="s4" cx="146" cy="24.5" r="4.1"/>
		<path id="&lt;Compound Path&gt;" class="s5" d="m146.8 27c-0.5-0.3-1 0.2-1.1 0.1c0-0.6 1-1.2-0.4-1.3c0 0-0.1-0.1 0-0.2c0.1-0.3 0.6-0.3 0.8-0.6c0.2-0.4 0-0.7 0-1c0.1-0.1 0.1-0.1 0.2 0c0.2 0.1 0.4 0.4 0.7 0.4c0.4 0 0.5-0.5 0.6-0.7c0-0.1 0.1 0 0.1 0c0 0.3 0 0.7 0.2 0.7c0.2 0.1 0.7-0.2 0.8 0c0 0.2-0.5 0.4-0.4 0.8c0.1 0.4 0.8 0.4 0.6 0.7c-0.1 0.3-0.4 0-0.6 0.3c-0.3 0.3 0.2 0.9-0.1 1.1c-0.1 0.1-0.5-0.4-0.8-0.3c-0.1 0.1-0.1 0.6-0.3 0.6c-0.2 0-0.3-0.6-0.3-0.6z"/>
	</g>
</svg>